<svg width="61" height="61" viewBox="0 0 61 61" fill="none" xmlns="http://www.w3.org/2000/svg">
<path d="M30.5 61C47.3447 61 61 47.3447 61 30.5C61 13.6553 47.3447 0 30.5 0C13.6553 0 0 13.6553 0 30.5C0 47.3447 13.6553 61 30.5 61Z" fill="#FAB70C"/>
<path d="M24.0594 16.6733L20.8366 9.7651C21.2992 9.5516 21.7719 9.34826 22.2447 9.16526L24.9998 16.2768C24.6796 16.3988 24.3644 16.531 24.0594 16.6733ZM21.4364 18.2339L16.9021 12.1034C16.4954 12.4033 16.0938 12.7236 15.7075 13.0489L20.6383 18.8643C20.8976 18.6457 21.167 18.4373 21.4364 18.2339ZM23.1495 17.1359L19.4692 10.4564C19.0269 10.7004 18.5847 10.9648 18.1577 11.2393L22.2752 17.6595C22.5598 17.4714 22.8547 17.2986 23.1495 17.1359ZM26.9417 15.6668L25.1676 8.25027C24.6745 8.36718 24.1763 8.50443 23.6883 8.65693L25.9555 15.9363C26.2808 15.8397 26.6062 15.7482 26.9417 15.6668ZM28.9496 15.3263L28.182 7.74193C27.6788 7.79277 27.1653 7.86393 26.6672 7.94527L27.938 15.4635C28.2684 15.4076 28.609 15.3618 28.9496 15.3263ZM15.7837 26.4893L8.42308 24.4864C8.29092 24.9744 8.16892 25.4777 8.07233 25.9758L15.5499 27.4754C15.616 27.145 15.6973 26.8146 15.7837 26.4893ZM15.3822 28.487L7.82325 27.4907C7.75717 27.9939 7.70633 28.5023 7.67583 29.0106L15.2856 29.5037C15.3059 29.158 15.3364 28.8225 15.3822 28.487ZM30.5 15.25C30.6627 15.25 30.8202 15.2551 30.9829 15.2602L31.2218 7.64027C30.7186 7.62502 30.2052 7.62501 29.7019 7.64535L29.9662 15.2653C30.1442 15.2551 30.3221 15.25 30.5 15.25ZM16.4497 24.5627L9.42958 21.5889C9.23133 22.0566 9.04833 22.5395 8.88058 23.0224L16.0887 25.5133C16.1955 25.193 16.3175 24.8728 16.4497 24.5627ZM17.3698 22.7428L10.8072 18.8592C10.5479 19.2963 10.2988 19.7488 10.0701 20.2012L16.8767 23.6375C17.0343 23.3325 17.1969 23.0377 17.3698 22.7428ZM18.5186 21.0603L12.5304 16.3378C12.2153 16.7343 11.9102 17.1512 11.6256 17.568L17.9137 21.8838C18.1068 21.6042 18.3102 21.3297 18.5186 21.0603ZM19.886 19.5505L14.579 14.0758C14.2181 14.4265 13.8572 14.7976 13.5217 15.1738L19.1794 20.2825C19.4082 20.0334 19.642 19.7894 19.886 19.5505ZM44.0979 23.5968L50.8943 20.1402C50.6656 19.6878 50.4165 19.2353 50.1572 18.8033L43.6048 22.7073C43.7827 22.9919 43.9454 23.2918 44.0979 23.5968ZM44.896 25.4675L52.094 22.9513C51.9263 22.4734 51.7382 21.9905 51.5399 21.5228L44.5249 24.5169C44.6622 24.827 44.7842 25.1422 44.896 25.4675ZM45.4399 27.4297L52.9124 25.8996C52.8108 25.4014 52.6888 24.8982 52.5566 24.4102L45.2061 26.4384C45.2925 26.7638 45.3738 27.0942 45.4399 27.4297ZM43.0558 21.8482L49.3338 17.5172C49.044 17.1003 48.739 16.6886 48.4238 16.2921L42.4509 21.0348C42.6644 21.2941 42.8627 21.5686 43.0558 21.8482ZM45.7144 29.4478L53.3242 28.9293C53.2886 28.4209 53.2378 27.9126 53.1717 27.4093L45.6128 28.4362C45.6534 28.7666 45.689 29.1072 45.7144 29.4478ZM36.8948 16.653L40.0973 9.72951C39.6348 9.51601 39.162 9.31268 38.6842 9.13476L35.9544 16.2565C36.2747 16.3785 36.5898 16.5107 36.8948 16.653ZM41.7952 20.252L47.4427 15.128C47.1022 14.7518 46.7463 14.3858 46.3803 14.0351L41.0835 19.52C41.3275 19.7538 41.5664 19.9978 41.7952 20.252ZM34.9937 15.921L37.2354 8.63152C36.7474 8.4841 36.2543 8.34685 35.7562 8.22993L34.0075 15.6567C34.3379 15.7329 34.6683 15.8244 34.9937 15.921ZM33.0112 15.4584L34.2566 7.9351C33.7584 7.85377 33.245 7.78768 32.7417 7.73685L31.9996 15.3263C32.3402 15.3568 32.6757 15.4025 33.0112 15.4584ZM38.6842 17.629L42.7813 11.1986C42.3543 10.9241 41.9121 10.6648 41.4648 10.4208L37.8048 17.1105C38.1047 17.2732 38.3995 17.446 38.6842 17.629ZM40.3261 18.8388L45.2417 13.0083C44.8553 12.6829 44.4487 12.3627 44.042 12.0628L39.5229 18.2085C39.7974 18.4068 40.0668 18.6203 40.3261 18.8388ZM16.4598 36.4678L9.44483 39.4518C9.64308 39.9194 9.86167 40.3871 10.0904 40.8395L16.8919 37.3879C16.7394 37.088 16.5971 36.7779 16.4598 36.4678ZM33.0467 45.5365L34.3074 53.0598C34.8107 52.9734 35.3139 52.8718 35.807 52.7548L34.0431 45.3383C33.7127 45.4145 33.3822 45.4806 33.0467 45.5365ZM38.7096 43.3558L42.8169 49.7811C43.2439 49.5066 43.6658 49.2168 44.0776 48.9169L39.5483 42.7763C39.2738 42.9796 38.9942 43.1728 38.7096 43.3558ZM41.8104 40.7277L47.4631 45.8466C47.8037 45.4704 48.1341 45.079 48.4492 44.6825L42.4662 39.9499C42.2578 40.2193 42.0392 40.4786 41.8104 40.7277ZM35.0242 45.0688L37.2862 52.3533C37.7743 52.2008 38.2572 52.033 38.735 51.85L35.99 44.7333C35.6698 44.8553 35.3495 44.9672 35.0242 45.0688ZM36.9253 44.3318L40.1431 51.2451C40.6006 51.0316 41.0632 50.7978 41.5054 50.5538L37.8352 43.8692C37.5353 44.0369 37.2303 44.1894 36.9253 44.3318ZM40.3464 42.1459L45.2722 47.9663C45.6585 47.641 46.0397 47.2953 46.4007 46.9446L41.0988 41.4597C40.8548 41.6986 40.6057 41.9273 40.3464 42.1459ZM43.0711 39.1315L49.3541 43.4523C49.6438 43.0355 49.9183 42.6034 50.1776 42.1663L43.6201 38.2724C43.4473 38.5622 43.2642 38.8519 43.0711 39.1315ZM45.445 33.5348L52.9175 35.0445C53.0192 34.5463 53.1056 34.038 53.1717 33.5348L45.6128 32.5333C45.5721 32.8688 45.5162 33.2043 45.445 33.5348ZM53.375 30.4492L45.75 30.4644C45.75 30.4746 45.75 30.4898 45.75 30.5C45.75 30.8406 45.7398 31.1812 45.7144 31.5167L53.3242 32.0199C53.3597 31.5167 53.375 31.0033 53.375 30.5V30.4492ZM44.1132 37.3778L50.9147 40.8243C51.1434 40.3718 51.362 39.9042 51.5602 39.4365L44.5402 36.4577C44.4131 36.7678 44.2657 37.0778 44.1132 37.3778ZM44.9113 35.502L52.1143 38.003C52.2821 37.5252 52.4346 37.0321 52.5667 36.539L45.2112 34.5311C45.1197 34.8564 45.0231 35.1818 44.9113 35.502ZM17.385 38.2826L10.8275 42.1815C11.0868 42.6187 11.3612 43.0508 11.651 43.4676L17.934 39.1417C17.7408 38.857 17.5578 38.5723 17.385 38.2826ZM31.0185 45.7398L31.2727 53.3598C31.781 53.3445 32.2893 53.3089 32.7926 53.2581L32.0352 45.6687C31.6997 45.7093 31.3591 45.7297 31.0185 45.7398ZM15.25 30.5153L7.625 30.5254C7.625 31.0287 7.64533 31.5421 7.67583 32.0453L15.2856 31.537C15.2653 31.2015 15.25 30.8609 15.25 30.5153ZM18.5389 39.9601L12.5558 44.6927C12.871 45.0892 13.2014 45.4806 13.542 45.8568L19.1947 40.7378C18.9659 40.4837 18.7473 40.2244 18.5389 39.9601ZM15.7939 34.5463L8.43833 36.5644C8.5705 37.0524 8.72808 37.5455 8.89583 38.0284L16.0989 35.5223C15.9871 35.197 15.8854 34.8717 15.7939 34.5463ZM15.3873 32.5486L7.82833 33.5653C7.89442 34.0685 7.98083 34.5768 8.0825 35.075L15.555 33.5551C15.4889 33.2247 15.433 32.8892 15.3873 32.5486ZM19.9063 41.4648L14.6044 46.9497C14.9704 47.3004 15.3466 47.6461 15.738 47.9714L20.6637 42.1459C20.3994 41.9324 20.1503 41.7037 19.9063 41.4648ZM21.4618 42.7813L16.9377 48.922C17.3443 49.2219 17.7713 49.5117 18.1983 49.7862L22.3006 43.3608C22.0159 43.1778 21.7363 42.9847 21.4618 42.7813ZM28.9852 45.6738L28.2379 53.2632C28.7412 53.314 29.2546 53.3445 29.7578 53.3648L30.0018 45.7449C29.6562 45.7297 29.3207 45.7093 28.9852 45.6738ZM26.9722 45.3383L25.2184 52.7599C25.7115 52.8768 26.2198 52.9785 26.718 53.0598L27.9736 45.5365C27.6381 45.4857 27.3026 45.4196 26.9722 45.3383ZM25.0252 44.7384L22.2853 51.8551C22.7632 52.0381 23.2512 52.2058 23.7341 52.3583L25.986 45.0739C25.6658 44.9723 25.3455 44.8604 25.0252 44.7384ZM23.18 43.8793L19.5098 50.5639C19.9572 50.8079 20.4147 51.0418 20.8773 51.2553L24.0848 44.3368C23.7798 44.1945 23.4748 44.042 23.18 43.8793Z" fill="black"/>
<path d="M30.4997 40.2039C27.9276 40.2039 25.513 39.2025 23.6982 37.3877L24.7759 36.3101C26.306 37.8401 28.3393 38.6789 30.4997 38.6789C32.6602 38.6789 34.6935 37.8351 36.2236 36.3101L37.3012 37.3877C35.4865 39.2025 33.0719 40.2039 30.4997 40.2039Z" fill="black"/>
<path d="M31.924 35.3801H27.4863V28.5481C27.4863 27.1451 26.3476 26.0064 24.9446 26.0064C23.5416 26.0064 22.4029 27.1451 22.4029 28.5481H20.8779C20.8779 26.3064 22.7028 24.4814 24.9446 24.4814C27.1864 24.4814 29.0113 26.3064 29.0113 28.5481V33.8551H31.924V35.3801Z" fill="black"/>
<path d="M40.1231 28.5481H38.5981C38.5981 27.1451 37.4594 26.0065 36.0564 26.0065C34.6534 26.0065 33.5147 27.1451 33.5147 28.5481H31.9897C31.9897 26.3064 33.8147 24.4814 36.0564 24.4814C38.2982 24.4814 40.1231 26.3064 40.1231 28.5481Z" fill="black"/>
<path d="M36.0409 29.6867C36.7427 29.6867 37.3117 29.1177 37.3117 28.4159C37.3117 27.714 36.7427 27.145 36.0409 27.145C35.339 27.145 34.77 27.714 34.77 28.4159C34.77 29.1177 35.339 29.6867 36.0409 29.6867Z" fill="black"/>
<path d="M24.8577 29.6867C25.5596 29.6867 26.1286 29.1177 26.1286 28.4159C26.1286 27.714 25.5596 27.145 24.8577 27.145C24.1559 27.145 23.5869 27.714 23.5869 28.4159C23.5869 29.1177 24.1559 29.6867 24.8577 29.6867Z" fill="black"/>
</svg>
