<svg width="46" height="77" viewBox="0 0 46 77" fill="none" xmlns="http://www.w3.org/2000/svg">
<path d="M45.8989 74.6861L3.15314 76.3692V29.3408L42.4152 28.6973L45.8989 74.6861Z" fill="#FAB70C"/>
<path d="M45.8984 74.6863L3.15265 76.3694L3.65265 62.6435L45 61.5L45.8984 74.6863Z" fill="#E1A200"/>
<path d="M24.7165 76.2056C24.733 76.2056 24.7495 76.2056 24.7661 76.2056C25.1458 76.1726 25.4265 75.8591 25.41 75.4795L22.2895 28.9958C22.2565 28.6163 21.9428 28.3358 21.5631 28.3523C21.1834 28.3853 20.9027 28.6988 20.9192 29.0783L24.0396 75.562C24.0561 75.9251 24.3698 76.2056 24.7165 76.2056Z" fill="#120610"/>
<path d="M21.6118 30.3776C21.8099 30.3776 22.0081 30.2951 22.1402 30.1301C22.1732 30.0806 26.2183 25.2952 29.9166 19.6683C34.9688 11.9787 37.0162 6.45076 36.009 3.21651C35.5302 1.69839 34.4075 0.675309 32.6574 0.213273C30.8577 -0.265264 29.2232 0.0647698 27.7703 1.17036C20.9019 6.46726 20.9184 28.744 20.9184 29.6846C20.9184 29.9651 21.1 30.2291 21.3642 30.3281C21.4467 30.3611 21.5293 30.3776 21.6118 30.3776ZM31.0724 1.38487C31.4686 1.38487 31.8649 1.43437 32.2941 1.54988C33.5655 1.89641 34.358 2.57296 34.6882 3.62904C36.3227 8.82694 27.2419 21.6154 22.3383 27.7374C22.4869 22.16 23.395 6.30224 28.6123 2.27593C29.3718 1.68189 30.1808 1.38487 31.0724 1.38487Z" fill="#120610"/>
<path d="M21.6121 29.3877C21.7607 29.3877 21.9093 29.3382 22.0249 29.2557C22.256 29.0742 22.3551 28.7771 22.2725 28.5131C21.9918 27.6056 15.3877 6.33559 7.24801 3.31588C5.54743 2.68884 3.87987 2.87035 2.31138 3.86042C0.792416 4.81748 0.0164242 6.12107 -8.58307e-05 7.72168C-0.0165958 11.1044 3.5992 15.7907 10.6987 21.6157C15.8995 25.8894 21.1828 29.2557 21.2324 29.2887C21.3479 29.3382 21.48 29.3877 21.6121 29.3877ZM5.26675 4.30595C5.76207 4.30595 6.25738 4.40495 6.75269 4.58646C12.9441 6.88012 18.5247 21.7477 20.3243 27.0445C13.8192 22.6717 1.33727 13.1506 1.35378 7.70518C1.35378 6.59961 1.89862 5.70855 3.02134 5.0155C3.76431 4.53696 4.50727 4.30595 5.26675 4.30595Z" fill="#120610"/>
</svg>
