<svg width="19" height="19" viewBox="0 0 19 19" fill="none" xmlns="http://www.w3.org/2000/svg">
<path d="M16.5818 0H2.07273C0.932727 0 0 0.932727 0 2.07273V16.5818C0 17.7229 0.932727 18.6545 2.07273 18.6545H9.32727V11.4H7.25455V8.835H9.32727V6.71045C9.32727 4.46776 10.5833 2.89249 13.2302 2.89249L15.0988 2.89456V5.59429H13.8583C12.8281 5.59429 12.4364 6.36742 12.4364 7.08458V8.83604H15.0977L14.5091 11.4H12.4364V18.6545H16.5818C17.7218 18.6545 18.6545 17.7229 18.6545 16.5818V2.07273C18.6545 0.932727 17.7218 0 16.5818 0Z" fill="#3F4042"/>
</svg>
