<svg width="23" height="23" viewBox="0 0 23 23" fill="none" xmlns="http://www.w3.org/2000/svg">
<circle cx="12.5" cy="12.5" r="10.5" fill="#7ABC2F"/>
<circle cx="11" cy="11" r="10.5" stroke="#3F4042"/>
<path d="M12.5678 7.77611C12.5678 8.64011 12.5358 9.44544 12.4718 10.1921C12.4078 10.9388 12.3225 11.6961 12.2158 12.4641H10.3918C10.2851 11.6961 10.1945 10.9388 10.1198 10.1921C10.0558 9.44544 10.0238 8.64011 10.0238 7.77611V4.91211H12.5678V7.77611ZM12.7758 14.7361C12.7758 15.2054 12.6211 15.5681 12.3118 15.8241C12.0131 16.0801 11.6718 16.2081 11.2878 16.2081C10.9038 16.2081 10.5571 16.0801 10.2478 15.8241C9.94914 15.5681 9.7998 15.2054 9.7998 14.7361C9.7998 14.2668 9.94914 13.9041 10.2478 13.6481C10.5571 13.3921 10.9038 13.2641 11.2878 13.2641C11.6718 13.2641 12.0131 13.3921 12.3118 13.6481C12.6211 13.9041 12.7758 14.2668 12.7758 14.7361Z" fill="#3F4042"/>
</svg>
