<svg width="28" height="37" viewBox="0 0 28 37" fill="none" xmlns="http://www.w3.org/2000/svg">
<g clip-path="url(#clip0)">
<g clip-path="url(#clip1)">
<path d="M16.0396 25.1012L17.7077 31.7596L19.3333 28.64L22.1596 30.3977L20.4596 23.5996" stroke="#3F4042" stroke-width="1.088" stroke-miterlimit="10" stroke-linecap="round" stroke-linejoin="round"/>
<path d="M10.5996 25.1012L8.93143 31.7596L7.3058 28.64L4.47955 30.3977L6.17955 23.5996" stroke="#3F4042" stroke-width="1.088" stroke-miterlimit="10" stroke-linecap="round" stroke-linejoin="round"/>
<path d="M13.66 27.6797C13.3495 27.6797 13.0659 27.5448 12.8769 27.3019C12.2288 26.4653 11.2432 25.993 10.19 25.993C9.75798 25.993 9.32592 26.074 8.92087 26.2359C8.79935 26.2899 8.67784 26.3034 8.55632 26.3034C8.13776 26.3034 7.6517 26.0065 7.57069 25.4533C7.35466 23.9555 6.1665 22.768 4.6678 22.5521C4.37076 22.5117 4.10072 22.3362 3.9522 22.0664C3.80368 21.7965 3.77668 21.4861 3.8847 21.2028C4.45177 19.7994 4.00621 18.1667 2.81805 17.2356C2.57502 17.0467 2.44 16.7634 2.44 16.453C2.44 16.1426 2.57502 15.8593 2.81805 15.6704C4.00621 14.7393 4.43827 13.1066 3.8847 11.7032C3.77668 11.4199 3.79018 11.1095 3.9522 10.8396C4.10072 10.5698 4.37076 10.3943 4.6678 10.3539C6.153 10.1649 7.35466 8.964 7.57069 7.4662C7.6517 6.91296 8.13776 6.6161 8.55632 6.6161C8.67784 6.6161 8.79935 6.64309 8.92087 6.68357C9.32592 6.84549 9.75798 6.92646 10.19 6.92646C11.2432 6.92646 12.2288 6.45418 12.8769 5.61757C13.0659 5.37468 13.3495 5.23975 13.66 5.23975C13.9705 5.23975 14.2541 5.37468 14.4431 5.61757C15.0912 6.45418 16.0768 6.92646 17.13 6.92646C17.562 6.92646 17.9941 6.84549 18.3991 6.68357C18.5207 6.6296 18.6422 6.6161 18.7637 6.6161C19.1822 6.6161 19.6683 6.91296 19.7493 7.4662C19.9653 8.964 21.1535 10.1514 22.6522 10.3673C22.9492 10.4078 23.2193 10.5832 23.3678 10.8531C23.5163 11.123 23.5433 11.4333 23.4353 11.7167C22.8682 13.1201 23.3138 14.7528 24.502 15.6839C24.745 15.8728 24.88 16.1561 24.88 16.4665C24.88 16.7768 24.745 17.0602 24.502 17.2491C23.3138 18.1802 22.8817 19.8129 23.4353 21.2163C23.5433 21.4996 23.5298 21.81 23.3678 22.0799C23.2193 22.3497 22.9492 22.5252 22.6522 22.5656C21.1535 22.7815 19.9653 23.969 19.7493 25.4668C19.6683 26.02 19.1822 26.3169 18.7637 26.3169C18.6422 26.3169 18.5207 26.2899 18.3991 26.2494C17.9941 26.0875 17.562 26.0065 17.13 26.0065C16.0768 26.0065 15.0912 26.4788 14.4431 27.3154C14.2541 27.5448 13.9705 27.6797 13.66 27.6797Z" fill="#7ABC2F"/>
<path d="M8.56 15.6666L12.912 20.1999L19.44 13.3999" stroke="white" stroke-width="1.088"/>
<path d="M-0.655497 21.8069C-0.49882 22.5543 0.0853454 23.1385 0.832711 23.2951C0.976795 23.3253 1.08002 23.4524 1.08002 23.5996C1.08002 23.7469 0.976833 23.8739 0.83273 23.9041C0.0853451 24.0608 -0.498801 24.645 -0.655459 25.3923C-0.685656 25.5364 -0.812742 25.6396 -0.959965 25.6396C-1.10719 25.6396 -1.23425 25.5364 -1.26447 25.3923C-1.42115 24.645 -2.00529 24.0608 -2.75268 23.9042C-2.89676 23.874 -2.99998 23.7469 -2.99998 23.5997C-2.99998 23.4524 -2.8968 23.3254 -2.75268 23.2952C-2.00529 23.1385 -1.42115 22.5543 -1.26451 21.807C-1.23429 21.6629 -1.10723 21.5596 -0.960002 21.5596C-0.812779 21.5596 -0.685694 21.6629 -0.655497 21.8069Z" fill="#FFB800"/>
<path d="M26.1537 6.1259C26.2843 6.74872 26.7711 7.23551 27.3939 7.36605C27.514 7.39122 27.6 7.49711 27.6 7.61981C27.6 7.74249 27.514 7.8484 27.3939 7.87356C26.7711 8.00413 26.2843 8.49092 26.1537 9.11374C26.1286 9.23381 26.0227 9.31982 25.9 9.31982C25.7773 9.31982 25.6714 9.23382 25.6462 9.11374C25.5157 8.49093 25.0289 8.00414 24.4061 7.87359C24.286 7.84843 24.2 7.74254 24.2 7.61984C24.2 7.49715 24.286 7.39125 24.4061 7.36609C25.0289 7.23551 25.5157 6.74872 25.6462 6.12591C25.6714 6.00584 25.7773 5.91982 25.9 5.91982C26.0226 5.91982 26.1286 6.00583 26.1537 6.1259Z" fill="#FFB800"/>
<path d="M28.7723 12.8434C28.8506 13.2171 29.1427 13.5092 29.5164 13.5875C29.5884 13.6026 29.64 13.6661 29.64 13.7398C29.64 13.8134 29.5884 13.8769 29.5164 13.892C29.1427 13.9703 28.8506 14.2624 28.7723 14.6361C28.7572 14.7082 28.6936 14.7598 28.62 14.7598C28.5464 14.7598 28.4829 14.7082 28.4678 14.6361C28.3894 14.2624 28.0974 13.9704 27.7237 13.892C27.6516 13.8769 27.6 13.8134 27.6 13.7398C27.6 13.6662 27.6516 13.6026 27.7237 13.5875C28.0974 13.5092 28.3894 13.2171 28.4678 12.8434C28.4829 12.7714 28.5464 12.7198 28.62 12.7198C28.6936 12.7198 28.7572 12.7714 28.7723 12.8434Z" fill="#FFB800"/>
</g>
</g>
<defs>
<clipPath id="clip0">
<rect width="28" height="37" fill="white"/>
</clipPath>
<clipPath id="clip1">
<rect width="34" height="33.32" fill="white" transform="translate(-3 1.83984)"/>
</clipPath>
</defs>
</svg>
