<svg width="28" height="37" viewBox="0 0 28 37" fill="none" xmlns="http://www.w3.org/2000/svg">
<g clip-path="url(#clip0)">
<g clip-path="url(#clip1)">
<g clip-path="url(#clip2)">
<path d="M25.2447 21.1631C24.1067 26.2428 19.5426 30.0406 14.0681 30.0406C9.16863 30.0406 4.98789 26.9905 3.34674 22.6941C3.56237 23.157 3.76601 23.5368 4.28112 23.6792C4.62851 23.7741 4.99987 23.7267 5.31133 23.5486C5.57487 23.3943 5.80247 23.1332 6.10195 23.0502C6.42539 22.9552 6.79675 23.1095 7.06029 23.2994C7.38373 23.5368 7.59935 23.8809 7.82696 24.2014C8.04258 24.5337 8.27019 24.866 8.59363 25.1034C8.91706 25.3408 9.34831 25.4594 9.71967 25.3052C10.0431 25.1746 10.2468 24.866 10.4624 24.5812C10.666 24.3082 10.9415 24.0234 11.2889 23.9878C12.3072 23.8928 12.2593 25.1865 12.3551 25.863C12.427 26.3377 12.6186 26.8599 13.0619 27.0735C13.541 27.299 14.128 27.0735 14.4754 26.6819C14.8707 26.2428 14.9306 25.6137 15.266 25.139C15.7572 24.4388 16.464 24.688 17.0629 25.0915C17.7817 25.5781 19.0395 25.946 19.7463 25.2458C20.2494 24.7355 20.1655 23.964 20.4051 23.335C20.489 23.0976 20.6088 22.8484 20.7645 22.6466C20.8843 22.4923 21.0759 22.3618 21.2676 22.3381C21.4593 22.3262 21.6509 22.4093 21.8067 22.5279C22.2858 22.9077 22.5015 23.5249 23.2322 23.4299C23.5916 23.3825 24.0707 23.1214 24.3223 22.8603C24.8015 22.3737 25.053 21.8871 25.2447 21.1631Z" fill="#FAB70C"/>
<path d="M15.1261 30.1149C21.3745 29.4962 25.9382 23.9293 25.3194 17.6809C24.7007 11.4326 19.1338 6.86887 12.8855 7.4876C6.63713 8.10633 2.07342 13.6732 2.69215 19.9216C3.31087 26.1699 8.87774 30.7336 15.1261 30.1149Z" stroke="#3F4042" stroke-width="0.946939" stroke-miterlimit="10" stroke-linecap="round" stroke-linejoin="round"/>
<path d="M27.361 29.4356C26.6021 29.2765 26.009 28.6833 25.8499 27.9245C25.8192 27.7782 25.6902 27.6733 25.5407 27.6733C25.3912 27.6733 25.2622 27.7781 25.2315 27.9244C25.0724 28.6833 24.4793 29.2765 23.7204 29.4356C23.5741 29.4662 23.4692 29.5953 23.4692 29.7447C23.4692 29.8942 23.574 30.0233 23.7204 30.0539C24.4792 30.213 25.0724 30.8062 25.2315 31.5651C25.2621 31.7114 25.3911 31.8162 25.5406 31.8162C25.6901 31.8162 25.8192 31.7114 25.8498 31.5651C26.009 30.8062 26.6021 30.213 27.361 30.054C27.5073 30.0233 27.6121 29.8943 27.6121 29.7448C27.6121 29.5953 27.5073 29.4663 27.361 29.4356Z" fill="#FFB800"/>
<path d="M28.0963 26.0614C27.7711 25.9932 27.5169 25.739 27.4487 25.4138C27.4355 25.3511 27.3802 25.3062 27.3162 25.3062C27.2521 25.3062 27.1968 25.3511 27.1837 25.4138C27.1155 25.739 26.8613 25.9932 26.536 26.0614C26.4733 26.0745 26.4284 26.1298 26.4284 26.1939C26.4284 26.258 26.4733 26.3133 26.536 26.3264C26.8613 26.3946 27.1155 26.6488 27.1836 26.974C27.1968 27.0367 27.2521 27.0817 27.3162 27.0817C27.3802 27.0817 27.4355 27.0368 27.4487 26.974C27.5169 26.6488 27.7711 26.3946 28.0963 26.3264C28.159 26.3133 28.2039 26.258 28.2039 26.1939C28.2039 26.1298 28.159 26.0745 28.0963 26.0614Z" fill="#FFB800"/>
<path d="M18.1427 18.7957C18.1427 16.5039 16.2916 14.6528 13.9999 14.6528C11.7081 14.6528 9.85699 16.5039 9.85699 18.7957C9.85699 21.0875 11.7081 22.9385 13.9999 22.9385C16.2916 22.9385 18.1427 21.0875 18.1427 18.7957Z" stroke="#3F4042" stroke-width="0.946939" stroke-miterlimit="10" stroke-linecap="round" stroke-linejoin="round"/>
<path d="M15.7753 17.6119C15.408 16.9126 14.7623 16.442 14.0276 16.4285C13.2707 16.4151 12.6028 16.8857 12.2243 17.5984" stroke="#3F4042" stroke-width="0.946939" stroke-miterlimit="10" stroke-linecap="round" stroke-linejoin="round"/>
<path d="M4.90727 7.87769C4.25678 7.74132 3.74837 7.2329 3.61202 6.58243C3.58574 6.45703 3.47515 6.36719 3.347 6.36719C3.21886 6.36719 3.10825 6.45699 3.08197 6.58241C2.94561 7.2329 2.4372 7.74131 1.78672 7.87766C1.66131 7.90394 1.57147 8.01455 1.57147 8.14268C1.57147 8.27082 1.6613 8.38141 1.78672 8.40771C2.43718 8.54407 2.94559 9.05248 3.08194 9.70297C3.10822 9.82837 3.21881 9.91821 3.34697 9.91821C3.4751 9.91821 3.58571 9.8284 3.61199 9.70297C3.74837 9.05248 4.25678 8.54407 4.90725 8.40774C5.03265 8.38144 5.12249 8.27085 5.12249 8.14271C5.12249 8.01458 5.03267 7.90397 4.90727 7.87769Z" fill="#FFB800"/>
</g>
</g>
</g>
<defs>
<clipPath id="clip0">
<rect width="28" height="37" fill="white"/>
</clipPath>
<clipPath id="clip1">
<rect width="29.5918" height="29" fill="white" transform="translate(-0.795898 4)"/>
</clipPath>
<clipPath id="clip2">
<rect width="28.4082" height="27.8163" fill="white" transform="translate(0.387756 5.18359)"/>
</clipPath>
</defs>
</svg>
