<svg width="28" height="37" viewBox="0 0 28 37" fill="none" xmlns="http://www.w3.org/2000/svg">
<g clip-path="url(#clip0)">
<path d="M3.21356 29.7897C3.37485 29.0308 3.9762 28.4377 4.74554 28.2786C4.89386 28.2479 5.00012 28.1189 5.00012 27.9694C5.00012 27.8199 4.8939 27.6909 4.74556 27.6602C3.9762 27.5011 3.37487 26.908 3.2136 26.1491C3.18252 26.0028 3.05169 25.8979 2.90014 25.8979C2.74859 25.8979 2.61778 26.0027 2.58668 26.1491C2.42539 26.9079 1.82407 27.5011 1.0547 27.6602C0.90638 27.6908 0.800121 27.8198 0.800121 27.9694C0.800121 28.1188 0.906341 28.2479 1.0547 28.2786C1.82407 28.4377 2.42539 29.0308 2.58664 29.7897C2.61775 29.936 2.74855 30.0408 2.9001 30.0408C3.05166 30.0408 3.18248 29.936 3.21356 29.7897Z" fill="#FFB800"/>
<path d="M25.0688 11.4789C25.2071 10.8284 25.7225 10.32 26.3819 10.1836C26.5091 10.1573 26.6002 10.0467 26.6002 9.91859C26.6002 9.79046 26.5091 9.67985 26.382 9.65357C25.7225 9.5172 25.2071 9.00879 25.0689 8.35831C25.0422 8.23291 24.9301 8.14307 24.8002 8.14307C24.6703 8.14307 24.5582 8.23289 24.5315 8.35831C24.3932 9.00878 23.8778 9.51719 23.2184 9.65353C23.0912 9.67982 23.0002 9.79041 23.0002 9.91856C23.0002 10.0467 23.0912 10.1573 23.2184 10.1836C23.8778 10.32 24.3932 10.8284 24.5315 11.4788C24.5581 11.6042 24.6702 11.6941 24.8001 11.6941C24.93 11.6941 25.0422 11.6043 25.0688 11.4789Z" fill="#FFB800"/>
<path d="M0.634418 24.6069C0.70354 24.2816 0.96126 24.0274 1.29098 23.9592C1.35455 23.9461 1.40009 23.8908 1.40009 23.8267C1.40009 23.7627 1.35456 23.7074 1.29099 23.6942C0.96126 23.626 0.703548 23.3718 0.634434 23.0466C0.621112 22.9839 0.565045 22.939 0.500094 22.939C0.435143 22.939 0.379084 22.9839 0.365753 23.0466C0.296631 23.3718 0.0389197 23.626 -0.290809 23.6942C-0.354375 23.7073 -0.399914 23.7626 -0.399914 23.8267C-0.399914 23.8908 -0.354392 23.9461 -0.290809 23.9592C0.0389197 24.0274 0.296631 24.2816 0.365737 24.6069C0.379067 24.6696 0.435126 24.7145 0.500077 24.7145C0.565028 24.7145 0.621095 24.6696 0.634418 24.6069Z" fill="#FFB800"/>
<g clip-path="url(#clip1)">
<path fill-rule="evenodd" clip-rule="evenodd" d="M23.0682 23.1134C23.3445 22.1781 23.5053 21.1793 23.5319 20.1354L23.3859 20.1988L21.8546 20.8636L19.2965 19.7529L16.7383 20.8636L14.1801 19.7529L11.622 20.8636L9.0638 19.7529L6.50558 20.8636L4.97435 20.1988L4.82837 20.1355C4.85495 21.1793 5.01581 22.1782 5.29203 23.1135L5.47349 23.1922L6.50558 23.6403L9.06375 22.5297L11.6219 23.6403L14.1801 22.5297L16.7383 23.6403L19.2964 22.5297L21.8546 23.6403L22.8867 23.1922L23.0682 23.1134Z" fill="#FF7373"/>
<path fill-rule="evenodd" clip-rule="evenodd" d="M21.0157 11.1493C20.0693 9.67458 18.8782 8.44833 17.4807 7.68213L17.4518 7.73107C16.4931 10.932 11.8657 10.9303 10.908 7.73107L10.879 7.68213C9.48151 8.44833 8.29046 9.67463 7.34399 11.1494L7.48186 11.2272L8.86288 12.0156L9.67002 13.3647C9.86333 13.6875 10.2246 13.903 10.6351 13.9046L12.2324 13.9129L13.6083 14.6794C13.9425 14.8728 14.3706 14.8907 14.7326 14.69L16.1274 13.913L17.6297 13.9052C18.0463 13.9379 18.465 13.741 18.6898 13.3648L19.497 12.0158L20.878 11.2273L20.8861 11.2226L21.0157 11.1493Z" fill="#FF7373"/>
<path d="M21.4173 10.8814C17.6806 4.86217 10.6789 4.86274 6.94257 10.8814C3.85364 15.6699 3.06579 23.1349 7.20159 27.5074C10.8393 31.6741 17.5206 31.6743 21.1584 27.5074C25.2943 23.1341 24.5061 15.6706 21.4173 10.8814ZM7.76536 11.3868C9.46322 8.74909 11.7413 7.29644 14.1799 7.29644C18.8221 7.20435 22.12 12.7621 22.8058 17.1544L21.8545 17.5674L19.4937 16.5425C19.3681 16.4879 19.2247 16.4879 19.0989 16.5425L16.7381 17.5674L14.3773 16.5425C14.2516 16.4879 14.1082 16.4879 13.9826 16.5425L11.6218 17.5674L9.26097 16.5425C9.13534 16.4879 8.99194 16.4879 8.86622 16.5425L6.5054 17.5674L5.55407 17.1544C5.92234 15.0909 6.69318 13.0524 7.76536 11.3868ZM14.1799 29.7034C11.5264 29.7034 9.17976 28.4685 7.56772 26.4753L9.06357 25.8259L11.4244 26.8509C11.5501 26.9055 11.6935 26.9054 11.8191 26.8509L14.1799 25.8259L16.5407 26.8509C16.6664 26.9054 16.8098 26.9054 16.9355 26.8509L19.2963 25.8259L20.7921 26.4753C19.1801 28.4685 16.8334 29.7034 14.1799 29.7034ZM21.3664 25.6856L19.4937 24.8726C19.3681 24.818 19.2247 24.818 19.0989 24.8726L16.7381 25.8976L14.3773 24.8726C14.2516 24.818 14.1082 24.818 13.9826 24.8726L11.6218 25.8976L9.26097 24.8726C9.13534 24.818 8.99194 24.818 8.86622 24.8726L6.9935 25.6856C5.61851 23.6573 5.05193 20.7471 5.41023 18.1311L6.30795 18.5208C6.43357 18.5754 6.57698 18.5754 6.7027 18.5208L9.06352 17.4958L11.4243 18.5208C11.5501 18.5754 11.6935 18.5754 11.8191 18.5208L14.1799 17.4958L16.5407 18.5208C16.6663 18.5754 16.8097 18.5754 16.9354 18.5208L19.2962 17.4958L21.657 18.5208C21.7827 18.5754 21.9261 18.5754 22.0518 18.5208L22.9495 18.1311C23.3079 20.7475 22.7414 23.6569 21.3664 25.6856Z" fill="#3F4042"/>
</g>
</g>
<defs>
<clipPath id="clip0">
<rect width="28" height="37" fill="white"/>
</clipPath>
<clipPath id="clip1">
<rect width="27.6" height="24.2653" fill="white" transform="translate(-1 6.36719)"/>
</clipPath>
</defs>
</svg>
