<svg width="56" height="56" viewBox="0 0 56 56" fill="none" xmlns="http://www.w3.org/2000/svg">
<g clip-path="url(#clip0)">
<path fill-rule="evenodd" clip-rule="evenodd" d="M8.82275 17.2285C8.82275 14.7795 10.7716 12.7598 13.2176 12.7598H44.2403C46.6865 12.7598 48.6353 14.7795 48.6353 17.2285V26.9785C48.6353 27.502 48.2108 27.9264 47.6873 27.9264C47.1639 27.9264 46.7394 27.502 46.7394 26.9785V17.2285C46.7394 15.7885 45.6017 14.6556 44.2403 14.6556H13.2176C11.8563 14.6556 10.7186 15.7885 10.7186 17.2285V34.8328C10.7186 36.2726 11.8563 37.4056 13.2176 37.4056H26.8332C27.3566 37.4056 27.7811 37.8301 27.7811 38.3535C27.7811 38.877 27.3566 39.3014 26.8332 39.3014H13.2176C10.7716 39.3014 8.82275 37.2816 8.82275 34.8328V17.2285Z" fill="#3F4042"/>
<path d="M48.8885 6.39017C49.0565 7.19159 49.6829 7.81797 50.4843 7.98596C50.6388 8.01834 50.7495 8.15459 50.7495 8.31248C50.7495 8.47035 50.6389 8.60662 50.4843 8.639C49.6829 8.80701 49.0565 9.43339 48.8886 10.2348C48.8562 10.3893 48.7199 10.5 48.562 10.5C48.4042 10.5 48.2679 10.3893 48.2355 10.2348C48.0675 9.43341 47.4411 8.80703 46.6397 8.63904C46.4852 8.60666 46.3745 8.47041 46.3745 8.31252C46.3745 8.15465 46.4852 8.01838 46.6397 7.986C47.4411 7.81797 48.0675 7.19159 48.2355 6.39019C48.2679 6.23569 48.4041 6.125 48.562 6.125C48.7199 6.125 48.8561 6.23567 48.8885 6.39017Z" fill="#FFB800"/>
<path d="M52.2579 15.0341C52.3587 15.515 52.7346 15.8908 53.2154 15.9916C53.3081 16.011 53.3745 16.0928 53.3745 16.1875C53.3745 16.2822 53.3081 16.364 53.2154 16.3834C52.7346 16.4842 52.3587 16.86 52.2579 17.3409C52.2385 17.4336 52.1567 17.5 52.062 17.5C51.9673 17.5 51.8856 17.4336 51.8661 17.3409C51.7653 16.86 51.3895 16.4842 50.9086 16.3834C50.8159 16.364 50.7495 16.2822 50.7495 16.1875C50.7495 16.0928 50.8159 16.011 50.9086 15.9916C51.3895 15.8908 51.7653 15.515 51.8661 15.0341C51.8855 14.9414 51.9673 14.875 52.062 14.875C52.1567 14.875 52.2385 14.9414 52.2579 15.0341Z" fill="#FFB800"/>
<path fill-rule="evenodd" clip-rule="evenodd" d="M8.82275 19.3952C8.82275 18.8717 9.24715 18.4473 9.77067 18.4473H47.6873C48.2108 18.4473 48.6353 18.8717 48.6353 19.3952C48.6353 19.9187 48.2108 20.3431 47.6873 20.3431H9.77067C9.24715 20.3431 8.82275 19.9187 8.82275 19.3952Z" fill="#3F4042"/>
<path fill-rule="evenodd" clip-rule="evenodd" d="M12.6147 28.8747C12.6147 28.3512 13.0391 27.9268 13.5627 27.9268H17.3543C17.8778 27.9268 18.3022 28.3512 18.3022 28.8747C18.3022 29.3981 17.8778 29.8226 17.3543 29.8226H13.5627C13.0391 29.8226 12.6147 29.3981 12.6147 28.8747Z" fill="#3F4042"/>
<path fill-rule="evenodd" clip-rule="evenodd" d="M12.6147 33.6139C12.6147 33.0905 13.0391 32.666 13.5627 32.666H21.146C21.6695 32.666 22.0939 33.0905 22.0939 33.6139C22.0939 34.1374 21.6695 34.5618 21.146 34.5618H13.5627C13.0391 34.5618 12.6147 34.1374 12.6147 33.6139Z" fill="#3F4042"/>
<path d="M40.5162 48.6574C40.215 48.6574 39.9401 48.5265 39.7568 48.291C39.1283 47.4797 38.1725 47.0217 37.1512 47.0217C36.7322 47.0217 36.3133 47.1002 35.9205 47.2572C35.8026 47.3096 35.6848 47.3227 35.567 47.3227C35.1611 47.3227 34.6897 47.0348 34.6112 46.4983C34.4017 45.0458 33.2495 43.8943 31.7961 43.6849C31.5081 43.6457 31.2462 43.4756 31.1022 43.2139C30.9582 42.9522 30.932 42.6512 31.0367 42.3764C31.5866 41.0155 31.1546 39.4322 30.0024 38.5293C29.7667 38.3461 29.6357 38.0713 29.6357 37.7704C29.6357 37.4694 29.7667 37.1946 30.0024 37.0114C31.1546 36.1085 31.5735 34.5252 31.0367 33.1643C30.932 32.8896 30.9451 32.5886 31.1022 32.3269C31.2462 32.0652 31.5081 31.8951 31.7961 31.8558C33.2364 31.6726 34.4017 30.508 34.6112 29.0556C34.6897 28.5191 35.1611 28.2312 35.567 28.2312C35.6848 28.2312 35.8026 28.2574 35.9205 28.2966C36.3133 28.4536 36.7322 28.5321 37.1512 28.5321C38.1725 28.5321 39.1283 28.0742 39.7568 27.2629C39.9401 27.0273 40.215 26.8965 40.5162 26.8965C40.8173 26.8965 41.0923 27.0273 41.2756 27.2629C41.9041 28.0742 42.8599 28.5321 43.8811 28.5321C44.3001 28.5321 44.7191 28.4536 45.1119 28.2966C45.2297 28.2443 45.3476 28.2312 45.4654 28.2312C45.8713 28.2312 46.3426 28.5191 46.4212 29.0556C46.6307 30.508 47.7829 31.6595 49.2362 31.8689C49.5243 31.9082 49.7861 32.0783 49.9302 32.34C50.0742 32.6017 50.1004 32.9026 49.9956 33.1774C49.4457 34.5383 49.8778 36.1216 51.03 37.0245C51.2657 37.2077 51.3966 37.4825 51.3966 37.7835C51.3966 38.0844 51.2657 38.3592 51.03 38.5424C49.8778 39.4453 49.4588 41.0286 49.9956 42.3895C50.1004 42.6643 50.0873 42.9652 49.9302 43.2269C49.7861 43.4887 49.5243 43.6588 49.2362 43.698C47.7829 43.9074 46.6307 45.0589 46.4212 46.5114C46.3426 47.0479 45.8713 47.3357 45.4654 47.3357C45.3476 47.3357 45.2297 47.3096 45.1119 47.2703C44.7191 47.1133 44.3001 47.0348 43.8811 47.0348C42.8599 47.0348 41.9041 47.4928 41.2756 48.3041C41.0923 48.5265 40.8173 48.6574 40.5162 48.6574Z" fill="#7ABC2F"/>
<path fill-rule="evenodd" clip-rule="evenodd" d="M47.0103 35.37L40.0425 42.3378L35.0327 37.6991L36.108 36.5379L40.0003 40.1419L45.8912 34.251L47.0103 35.37Z" fill="white"/>
</g>
<path d="M5.6418 40.5682C5.84341 41.5299 6.59509 42.2816 7.55678 42.4831C7.74218 42.522 7.875 42.6855 7.875 42.875C7.875 43.0644 7.74223 43.2279 7.5568 43.2668C6.59509 43.4684 5.84343 44.2201 5.64185 45.1818C5.60299 45.3672 5.43947 45.5 5.25002 45.5C5.06058 45.5 4.89708 45.3672 4.8582 45.1818C4.65659 44.2201 3.90493 43.4684 2.94323 43.2669C2.75782 43.228 2.625 43.0645 2.625 42.875C2.625 42.6856 2.75777 42.5221 2.94323 42.4832C3.90493 42.2816 4.65659 41.5299 4.85815 40.5682C4.89703 40.3828 5.06053 40.25 5.24998 40.25C5.43942 40.25 5.60295 40.3828 5.6418 40.5682Z" fill="#FFB800"/>
<defs>
<clipPath id="clip0">
<rect width="45.5" height="45.5" fill="white" transform="translate(7.875 6.125)"/>
</clipPath>
</defs>
</svg>
