<svg width="64" height="64" viewBox="0 0 64 64" fill="none" xmlns="http://www.w3.org/2000/svg">
<g clip-path="url(#clip0)">
<path d="M32.6339 13.2598H23.9787C23.5565 13.2598 23.2188 13.5913 23.2188 14.0057C23.2188 14.4201 23.5565 14.7516 23.9787 14.7516H32.6339C33.0561 14.7516 33.3939 14.4201 33.3939 14.0057C33.3939 13.5913 33.0561 13.2598 32.6339 13.2598Z" fill="#3F4042"/>
<path d="M20.7277 48.9801H23.9787C24.4009 48.9801 24.7387 48.6486 24.7387 48.2342C24.7387 47.8198 24.4009 47.4883 23.9787 47.4883H20.7277C20.3055 47.4883 19.9678 47.8198 19.9678 48.2342C19.9678 48.6486 20.3196 48.9801 20.7277 48.9801Z" fill="#3F4042"/>
<path d="M32.634 48.9801H35.885C36.3072 48.9801 36.6449 48.6486 36.6449 48.2342C36.6449 47.8198 36.3072 47.4883 35.885 47.4883H32.634C32.2118 47.4883 31.874 47.8198 31.874 48.2342C31.874 48.6486 32.2118 48.9801 32.634 48.9801Z" fill="#3F4042"/>
<path d="M28.3133 50.2093C29.4251 50.2093 30.3258 49.3253 30.3258 48.2341C30.3258 47.1428 29.4251 46.2588 28.3133 46.2588C27.2015 46.2588 26.3008 47.1428 26.3008 48.2341C26.3008 49.3253 27.2015 50.2093 28.3133 50.2093Z" fill="#3F4042"/>
<path d="M39.4879 38.7449V43.7314H38.6294H17.9836H17.1251V17.5972H39.4879V20.2078H41.613V14.8484C41.613 12.1686 39.4034 10 36.6732 10H19.9257C17.2095 10 15 12.1686 15 14.8484V48.1654C15 50.8452 17.2095 53.0138 19.9398 53.0138H36.6873C39.4175 53.0138 41.6271 50.8452 41.6271 48.1654V38.7449H39.4879ZM17.1251 14.1992C17.1251 12.8869 18.2088 11.8095 19.5598 11.8095H37.0672C38.4042 11.8095 39.502 12.8731 39.502 14.1992V16.1192H17.1251V14.1992ZM39.4879 48.8008C39.4879 50.1131 38.4042 51.1905 37.0532 51.1905H19.5598C18.2228 51.1905 17.1251 50.1269 17.1251 48.8008V45.2233H39.4879V48.8008Z" fill="#3F4042"/>
<path d="M50.9998 34.7805V35.8441C50.9998 36.6314 50.3524 37.2668 49.5502 37.2668H29.4252C28.623 37.2668 27.9756 36.6314 27.9756 35.8441V34.7805H50.9998ZM50.9998 23.0946V32.2389H27.9756V23.0946C27.9756 22.3073 28.623 21.6719 29.4252 21.6719H49.5502C50.3524 21.6719 50.9998 22.3211 50.9998 23.0946ZM37.9959 24.3654H30.3259V25.4567H37.9959V24.3654Z" fill="#FF6161"/>
</g>
<path d="M6.87315 45.303C7.06515 46.219 7.78104 46.9348 8.69693 47.1268C8.8735 47.1638 9 47.3195 9 47.5C9 47.6804 8.87355 47.8361 8.69695 47.8731C7.78104 48.0652 7.06517 48.781 6.87319 49.6969C6.83618 49.8735 6.68044 50 6.50002 50C6.3196 50 6.16388 49.8735 6.12685 49.6969C5.93485 48.781 5.21898 48.0652 4.30307 47.8732C4.1265 47.8362 4 47.6805 4 47.5C4 47.3196 4.12645 47.1639 4.30307 47.1269C5.21898 46.9348 5.93485 46.219 6.12681 45.3031C6.16384 45.1265 6.31956 45 6.49998 45C6.6804 45 6.83614 45.1265 6.87315 45.303Z" fill="#FFB800"/>
<path d="M10.7239 55.1818C10.8391 55.7314 11.2686 56.1609 11.8182 56.2761C11.9241 56.2983 12 56.3917 12 56.5C12 56.6082 11.9241 56.7017 11.8182 56.7239C11.2686 56.8391 10.8391 57.2686 10.7239 57.8182C10.7017 57.9241 10.6083 58 10.5 58C10.3918 58 10.2983 57.9241 10.2761 57.8182C10.1609 57.2686 9.73139 56.8391 9.18184 56.7239C9.0759 56.7017 9 56.6083 9 56.5C9 56.3918 9.07587 56.2983 9.18184 56.2761C9.73139 56.1609 10.1609 55.7314 10.2761 55.1818C10.2983 55.0759 10.3917 55 10.5 55C10.6082 55 10.7017 55.0759 10.7239 55.1818Z" fill="#FFB800"/>
<path d="M51.4478 7.36366C51.6782 8.46275 52.5372 9.32179 53.6363 9.55217C53.8482 9.59658 54 9.78344 54 9.99997C54 10.2165 53.8483 10.4034 53.6363 10.4478C52.5372 10.6782 51.6782 11.5372 51.4478 12.6363C51.4034 12.8482 51.2165 13 51 13C50.7835 13 50.5967 12.8482 50.5522 12.6363C50.3218 11.5372 49.4628 10.6782 48.3637 10.4478C48.1518 10.4034 48 10.2166 48 10C48 9.78352 48.1517 9.59663 48.3637 9.55223C49.4628 9.32179 50.3218 8.46275 50.5522 7.36369C50.5966 7.1518 50.7835 7 51 7C51.2165 7 51.4034 7.15177 51.4478 7.36366Z" fill="#FFB800"/>
<defs>
<clipPath id="clip0">
<rect width="36" height="43" fill="white" transform="translate(15 10)"/>
</clipPath>
</defs>
</svg>
