<svg width="360" height="290" viewBox="0 0 360 290" fill="none" xmlns="http://www.w3.org/2000/svg">
<path opacity="0.6" d="M281.267 82.9544C270.776 73.3885 256.585 66.0378 242.698 69.0083C235.755 70.5187 229.572 74.4457 222.679 75.9058C211.022 78.4232 199.213 73.8416 187.759 70.5187C140.828 56.925 87.9664 65.3833 47.6743 92.8727C39.9707 98.1088 32.4191 104.452 29.2261 113.162C26.3372 121.067 27.5536 130.079 31.2027 137.681C35.46 146.542 42.9609 153.792 52.033 157.77C67.9471 164.768 87.0034 161.495 102.867 168.594C104.489 169.35 106.161 170.256 107.175 171.716C108.645 173.931 108.29 176.851 108.087 179.52C106.769 196.537 116.956 215.014 133.58 219.344C145.338 222.415 157.603 218.387 169.514 215.87C186.999 212.144 205.194 211.641 222.831 214.41C239.759 217.078 256.129 222.717 273.107 224.731C290.136 226.745 308.686 224.58 321.762 213.554C327.185 208.973 331.543 202.528 331.493 195.429C331.442 191.099 329.719 186.971 327.742 183.094C323.89 175.744 318.924 168.947 312.994 163.107C308.23 158.374 302.553 153.742 301.337 147.147C299.259 135.819 308.179 126.202 304.074 114.925C299.665 102.892 290.694 91.5637 281.267 82.9544Z" fill="#E9EBEF"/>
<g clip-path="url(#clip0)">
<path d="M86.9812 74.999H25.2721C23.4452 74.999 21.937 73.5024 21.937 71.6422V34.7816C21.937 32.9428 23.424 31.4248 25.2721 31.4248H86.9812C88.8081 31.4248 90.3163 32.9215 90.3163 34.7816V71.6422C90.3163 73.5024 88.8081 74.999 86.9812 74.999Z" fill="#120610"/>
<path d="M86.9813 75.2767H25.2721C23.2966 75.2767 21.6821 73.6518 21.6821 71.6633V34.7813C21.6821 32.7929 23.2966 31.168 25.2721 31.168H86.9813C88.9568 31.168 90.5712 32.7929 90.5712 34.7813V71.642C90.5712 73.6518 88.9568 75.2767 86.9813 75.2767ZM25.2721 31.7239C23.5939 31.7239 22.2344 33.0922 22.2344 34.7813V71.642C22.2344 73.3311 23.6152 74.7208 25.2933 74.7208H87.0025C88.6807 74.7208 90.0614 73.3311 90.0614 71.642V34.7813C90.0614 33.0922 88.6807 31.7025 87.0025 31.7025H25.2721V31.7239Z" fill="#120610"/>
<path d="M37.4227 55.5426H30.9438C30.0516 55.5426 29.3081 54.8156 29.3081 53.8962V48.2303C29.3081 47.3323 30.0303 46.584 30.9438 46.584H37.4227C38.3149 46.584 39.0584 47.3109 39.0584 48.2303V53.8962C39.0371 54.8156 38.3149 55.5426 37.4227 55.5426Z" fill="#7ABC2F"/>
<path d="M32.2183 55.8204C32.0696 55.8204 31.9634 55.6921 31.9634 55.5638V46.6052C31.9634 46.4555 32.0908 46.3486 32.2183 46.3486C32.367 46.3486 32.4732 46.4769 32.4732 46.6052V55.5424C32.4944 55.6921 32.367 55.8204 32.2183 55.8204Z" fill="#120610"/>
<path d="M36.1695 55.8203C36.0208 55.8203 35.9146 55.692 35.9146 55.5637V48.8074C35.9146 48.6577 36.042 48.5508 36.1695 48.5508H39.0584C39.2071 48.5508 39.3133 48.6791 39.3133 48.8074C39.3133 48.957 39.1859 49.0639 39.0584 49.0639H36.4244V55.5423C36.4244 55.692 36.3182 55.8203 36.1695 55.8203Z" fill="#120610"/>
<path d="M32.2183 49.0854H29.3081C29.1594 49.0854 29.0532 48.9571 29.0532 48.8288C29.0532 48.6792 29.1807 48.5723 29.3081 48.5723H32.2183C32.367 48.5723 32.4732 48.7005 32.4732 48.8288C32.4945 48.9571 32.367 49.0854 32.2183 49.0854Z" fill="#120610"/>
<path d="M32.2183 51.2026H29.3081C29.1594 51.2026 29.0532 51.0743 29.0532 50.946C29.0532 50.7964 29.1807 50.6895 29.3081 50.6895H32.2183C32.367 50.6895 32.4732 50.8177 32.4732 50.946C32.4945 51.0743 32.367 51.2026 32.2183 51.2026Z" fill="#120610"/>
<path d="M32.2183 53.2338H29.3081C29.1594 53.2338 29.0532 53.1056 29.0532 52.9773C29.0532 52.849 29.1807 52.7207 29.3081 52.7207H32.2183C32.367 52.7207 32.4732 52.849 32.4732 52.9773C32.4732 53.1056 32.367 53.2338 32.2183 53.2338Z" fill="#120610"/>
<path d="M39.0372 51.2026H36.1695C36.0208 51.2026 35.9146 51.0743 35.9146 50.946C35.9146 50.7964 36.042 50.6895 36.1695 50.6895H39.0584C39.2071 50.6895 39.3133 50.8177 39.3133 50.946C39.3133 51.0743 39.1859 51.2026 39.0372 51.2026Z" fill="#120610"/>
<path d="M39.0372 53.2338H36.1695C36.0208 53.2338 35.9146 53.1056 35.9146 52.9773C35.9146 52.849 36.042 52.7207 36.1695 52.7207H39.0584C39.2071 52.7207 39.3133 52.849 39.3133 52.9773C39.3133 53.1056 39.1859 53.2338 39.0372 53.2338Z" fill="#120610"/>
<path d="M57.3481 41.8809H30.6676C29.9241 41.8809 29.3081 41.2608 29.3081 40.5125V39.0158C29.3081 38.2675 29.9241 37.6475 30.6676 37.6475H57.3693C58.1128 37.6475 58.7288 38.2675 58.7288 39.0158V40.5125C58.7076 41.2608 58.1128 41.8809 57.3481 41.8809Z" fill="white"/>
<path d="M63.9969 70.2741H30.5402C29.8604 70.2741 29.3081 69.7182 29.3081 69.034V68.2215C29.3081 67.5373 29.8604 66.9814 30.5402 66.9814H63.9969C64.6767 66.9814 65.229 67.5373 65.229 68.2215V69.034C65.229 69.7182 64.6767 70.2741 63.9969 70.2741Z" fill="white"/>
<path d="M47.5981 44.8739L112.069 44.8525C112.876 44.8525 113.513 45.5153 113.513 46.3492L113.534 86.5452C113.534 87.3791 112.897 88.0419 112.09 88.0419L47.5981 88.0847C46.7908 88.0847 46.1536 87.4219 46.1536 86.588L46.1323 46.392C46.1536 45.5581 46.7908 44.8953 47.5981 44.8739Z" fill="#7ABC2F"/>
<path d="M45.644 48.5517L113.832 48.5303V57.4033L45.644 57.4247V48.5517Z" fill="#120610"/>
<path d="M46.4302 62.2987L113.365 62.2773V69.5041L46.4302 69.5255V62.2987Z" fill="white"/>
<path d="M46.7271 63.1112L113.662 63.0898V63.9878L46.7271 64.0092V63.1112Z" fill="#120610"/>
<path d="M46.834 64.8651L113.769 64.8438V65.7417L46.834 65.7631V64.8651Z" fill="#120610"/>
<path d="M46.7915 66.5097L113.726 66.4883V67.3863L46.7915 67.4077V66.5097Z" fill="#120610"/>
<path d="M46.6851 68.0712L113.62 68.0498V68.9478L46.6851 68.9692V68.0712Z" fill="#120610"/>
</g>
<g clip-path="url(#clip1)">
<path d="M195.099 71.8011C198.241 67.7842 207.542 59.2903 213.324 74.8764C215.125 79.751 212.507 89.7512 210.852 92.2408C203.625 103.099 186.72 130.84 174.026 131.196C155.529 131.656 137.891 101.446 137.891 101.446C137.891 101.446 126.328 91.3203 126.223 89.5629C126.118 87.8056 133.45 92.4709 133.45 92.4709C133.45 92.4709 124.777 84.6047 125.427 83.1402C126.055 81.6757 134.979 89.019 134.979 89.019C134.979 89.019 127.626 78.1192 128.339 77.366C129.051 76.6129 138.121 87.1779 138.121 87.1779C138.121 87.1779 134.036 75.0229 135.335 75.7342C136.613 76.4455 143.819 89.0817 143.819 89.0817C143.819 89.0817 143.149 81.0272 143.987 82.1988C144.824 83.3703 149.265 94.8559 149.265 94.8559C149.265 94.8559 160.682 110.233 170.318 110.128C181.839 109.982 188.061 80.7761 195.099 71.8011Z" fill="white"/>
<path d="M173.565 131.887C165.814 131.887 157.372 126.866 148.49 116.97C142.206 109.983 137.891 102.828 137.325 101.907C136.822 101.468 134.204 99.1455 131.586 96.6768C125.594 90.9863 125.553 90.0658 125.511 89.6055C125.49 89.1871 125.657 88.8314 126.013 88.6222C126.495 88.3503 127.228 88.3503 129.03 89.1871C128.925 89.0616 128.799 88.957 128.695 88.8314C124.547 84.5426 124.505 83.4966 124.778 82.8481C124.903 82.5552 125.155 82.346 125.49 82.2623C125.909 82.1577 126.768 81.9485 131.313 85.2749C131.565 85.4632 131.816 85.6515 132.067 85.8188C131.669 85.1912 131.229 84.5008 130.81 83.8313C129.784 82.1786 128.988 80.8396 128.464 79.8145C127.522 78.0362 127.375 77.3459 127.836 76.8647C128.003 76.6973 128.234 76.6136 128.464 76.6136C128.883 76.6345 129.533 76.6345 134.267 81.7811C135.021 82.597 135.775 83.4338 136.424 84.1661C136.194 83.4338 135.964 82.6598 135.733 81.8648C135.251 80.2329 134.895 78.894 134.665 77.9107C134.288 76.1743 134.288 75.5467 134.728 75.191C135 74.9609 135.356 74.9399 135.691 75.1282C136.76 75.714 140.551 82.0112 142.939 86.0908C142.73 81.7392 143.191 81.5719 143.589 81.4254C143.861 81.3208 144.28 81.3627 144.573 81.802C145.411 82.9945 149.307 92.9738 149.894 94.5219C150.753 95.6726 161.415 109.439 170.234 109.439C170.276 109.439 170.297 109.439 170.339 109.439C177.398 109.355 182.614 97.0115 187.202 86.1326C189.716 80.1911 192.083 74.5634 194.575 71.3834C195.853 69.7515 200.441 64.4376 205.615 65.2535C209.071 65.7975 211.899 68.9566 213.994 74.647C215.9 79.8145 213.156 90.0658 211.459 92.6391C210.81 93.6223 210.056 94.7521 209.281 95.9655C201.111 108.393 185.966 131.552 174.047 131.866C173.879 131.887 173.732 131.887 173.565 131.887ZM127.145 89.9403C128.297 91.6767 133.45 96.635 138.352 100.903C138.415 100.945 138.456 101.007 138.498 101.07C138.54 101.154 142.96 108.664 149.559 116.029C155.592 122.744 164.725 130.694 174.005 130.464C178.781 130.339 184.877 125.945 192.104 117.409C198.283 110.108 203.939 101.468 208.066 95.1705C208.862 93.9571 209.595 92.8273 210.265 91.8441C211.816 89.5009 214.392 79.8145 212.653 75.1073C210.726 69.9189 208.275 67.0737 205.364 66.6134C200.839 65.9021 196.461 71.1742 195.644 72.2202C193.256 75.2747 190.931 80.7978 188.459 86.6557C183.704 97.932 178.299 110.736 170.318 110.819C170.276 110.819 170.234 110.819 170.213 110.819C160.347 110.819 149.161 95.9027 148.679 95.2751C148.637 95.2333 148.616 95.1705 148.595 95.1077C147.338 91.8441 145.411 87.0113 144.259 84.3962C144.28 85.6933 144.385 87.4507 144.51 89.0197C144.531 89.3545 144.343 89.6474 144.008 89.752C143.693 89.8566 143.358 89.7101 143.191 89.4382C140.572 84.8565 137.598 79.94 136.006 77.6387C136.487 79.7727 137.618 83.5384 138.771 86.9695C138.875 87.2833 138.75 87.6389 138.456 87.8063C138.163 87.9737 137.786 87.9109 137.577 87.6599C134.686 84.2916 131.418 80.756 129.595 79.0404C130.706 81.1953 133.178 85.1075 135.545 88.6222C135.733 88.9151 135.691 89.2917 135.44 89.5428C135.189 89.7729 134.791 89.7938 134.518 89.5637C131.439 87.0322 127.71 84.3334 126.244 83.7686C127.04 85.254 130.601 88.957 133.911 91.9487C134.183 92.1997 134.225 92.5972 133.995 92.8901C133.764 93.183 133.366 93.2458 133.052 93.0575C130.915 91.6976 128.318 90.2959 127.145 89.9403Z" fill="#120610"/>
<path d="M195.099 71.8011C198.241 67.7842 207.542 59.2903 213.324 74.8764C215.125 79.751 212.507 89.7512 210.852 92.2408C203.625 103.099 186.72 130.84 174.026 131.196C155.529 131.656 137.891 101.446 137.891 101.446C137.891 101.446 126.328 91.3203 126.223 89.5629C126.118 87.8056 133.45 92.4709 133.45 92.4709C133.45 92.4709 124.777 84.6047 125.427 83.1402C126.055 81.6757 134.979 89.019 134.979 89.019C134.979 89.019 127.626 78.1192 128.339 77.366C129.051 76.6129 138.121 87.1779 138.121 87.1779C138.121 87.1779 134.036 75.0229 135.335 75.7342C136.613 76.4455 143.819 89.0817 143.819 89.0817C143.819 89.0817 143.149 81.0272 143.987 82.1988C144.824 83.3703 149.265 94.8559 149.265 94.8559C149.265 94.8559 160.682 110.233 170.318 110.128C181.839 109.982 188.061 80.7761 195.099 71.8011Z" fill="white"/>
<path d="M173.565 131.887C165.814 131.887 157.372 126.866 148.49 116.97C142.206 109.983 137.891 102.828 137.325 101.907C136.822 101.468 134.204 99.1455 131.586 96.6768C125.594 90.9863 125.553 90.0658 125.511 89.6055C125.49 89.1871 125.657 88.8314 126.013 88.6222C126.495 88.3503 127.228 88.3503 129.03 89.1871C128.925 89.0616 128.799 88.957 128.695 88.8314C124.547 84.5426 124.505 83.4966 124.778 82.8481C124.903 82.5552 125.155 82.346 125.49 82.2623C125.909 82.1577 126.768 81.9485 131.313 85.2749C131.565 85.4632 131.816 85.6515 132.067 85.8188C131.669 85.1912 131.229 84.5008 130.81 83.8313C129.784 82.1786 128.988 80.8396 128.464 79.8145C127.522 78.0362 127.375 77.3459 127.836 76.8647C128.003 76.6973 128.234 76.6136 128.464 76.6136C128.883 76.6345 129.533 76.6345 134.267 81.7811C135.021 82.597 135.775 83.4338 136.424 84.1661C136.194 83.4338 135.964 82.6598 135.733 81.8648C135.251 80.2329 134.895 78.894 134.665 77.9107C134.288 76.1743 134.288 75.5467 134.728 75.191C135 74.9609 135.356 74.9399 135.691 75.1282C136.76 75.714 140.551 82.0112 142.939 86.0908C142.73 81.7392 143.191 81.5719 143.589 81.4254C143.861 81.3208 144.28 81.3627 144.573 81.802C145.411 82.9945 149.307 92.9738 149.894 94.5219C150.753 95.6726 161.415 109.439 170.234 109.439C170.276 109.439 170.297 109.439 170.339 109.439C177.398 109.355 182.614 97.0115 187.202 86.1326C189.716 80.1911 192.083 74.5634 194.575 71.3834C195.853 69.7515 200.441 64.4376 205.615 65.2535C209.071 65.7975 211.899 68.9566 213.994 74.647C215.9 79.8145 213.156 90.0658 211.459 92.6391C210.81 93.6223 210.056 94.7521 209.281 95.9655C201.111 108.393 185.966 131.552 174.047 131.866C173.879 131.887 173.732 131.887 173.565 131.887ZM127.145 89.9403C128.297 91.6767 133.45 96.635 138.352 100.903C138.415 100.945 138.456 101.007 138.498 101.07C138.54 101.154 142.96 108.664 149.559 116.029C155.592 122.744 164.725 130.694 174.005 130.464C178.781 130.339 184.877 125.945 192.104 117.409C198.283 110.108 203.939 101.468 208.066 95.1705C208.862 93.9571 209.595 92.8273 210.265 91.8441C211.816 89.5009 214.392 79.8145 212.653 75.1073C210.726 69.9189 208.275 67.0737 205.364 66.6134C200.839 65.9021 196.461 71.1742 195.644 72.2202C193.256 75.2747 190.931 80.7978 188.459 86.6557C183.704 97.932 178.299 110.736 170.318 110.819C170.276 110.819 170.234 110.819 170.213 110.819C160.347 110.819 149.161 95.9027 148.679 95.2751C148.637 95.2333 148.616 95.1705 148.595 95.1077C147.338 91.8441 145.411 87.0113 144.259 84.3962C144.28 85.6933 144.385 87.4507 144.51 89.0197C144.531 89.3545 144.343 89.6474 144.008 89.752C143.693 89.8566 143.358 89.7101 143.191 89.4382C140.572 84.8565 137.598 79.94 136.006 77.6387C136.487 79.7727 137.618 83.5384 138.771 86.9695C138.875 87.2833 138.75 87.6389 138.456 87.8063C138.163 87.9737 137.786 87.9109 137.577 87.6599C134.686 84.2916 131.418 80.756 129.595 79.0404C130.706 81.1953 133.178 85.1075 135.545 88.6222C135.733 88.9151 135.691 89.2917 135.44 89.5428C135.189 89.7729 134.791 89.7938 134.518 89.5637C131.439 87.0322 127.71 84.3334 126.244 83.7686C127.04 85.254 130.601 88.957 133.911 91.9487C134.183 92.1997 134.225 92.5972 133.995 92.8901C133.764 93.183 133.366 93.2458 133.052 93.0575C130.915 91.6976 128.318 90.2959 127.145 89.9403Z" fill="#120610"/>
<path d="M179.493 98.5173C184.709 89.1447 189.003 77.6591 193.382 72.0732C196.524 68.0564 207.542 59.2905 213.324 74.8766C215.125 79.7512 212.507 89.7514 210.852 92.241C207.584 97.1365 203.625 105.986 197.697 113.706C194.199 108.015 185.631 101.321 179.493 98.5173Z" fill="white"/>
<path d="M197.676 114.396C197.655 114.396 197.655 114.396 197.634 114.396C197.404 114.375 197.194 114.25 197.068 114.061C193.633 108.476 185.044 101.844 179.179 99.1448C179.011 99.0612 178.865 98.9147 178.802 98.7264C178.739 98.5381 178.76 98.3289 178.865 98.1616C180.939 94.4167 182.866 90.358 184.73 86.4249C187.516 80.5671 190.135 75.023 192.795 71.6129C194.764 69.0815 199.917 64.5207 205.217 65.3366C208.946 65.9224 211.899 69.0396 213.952 74.6046C215.859 79.7721 213.114 90.0233 211.418 92.5966C210.245 94.3539 208.988 96.6134 207.542 99.2285C205.091 103.664 202.033 109.166 198.221 114.103C198.116 114.292 197.906 114.396 197.676 114.396ZM180.457 98.2034C186.155 100.986 193.926 106.927 197.718 112.471C201.174 107.827 203.897 102.911 206.327 98.5591C207.794 95.923 209.051 93.6426 210.265 91.8434C211.816 89.5003 214.392 79.8139 212.654 75.1067C210.768 70.0438 208.213 67.2195 205.008 66.7383C200.692 66.0689 196 69.8137 193.905 72.4916C191.329 75.7762 188.752 81.2365 186.008 87.0316C184.248 90.7555 182.426 94.605 180.457 98.2034Z" fill="#120610"/>
<path d="M242.462 58.7885L222.457 57.6797C222.457 57.6797 219.817 60.0019 216.927 60.5877C214.036 61.1944 210.894 60.0856 210.894 60.0856C210.894 60.0856 202.138 63.4329 196.44 70.5879C193.172 74.6884 193.214 85.7137 195.56 96.6135C197.885 107.534 200.629 120.735 200.629 120.735L253.501 114.25V70.0439L242.462 58.7885Z" fill="#120610"/>
<path d="M212.528 54.6883C210.915 55.4623 209.344 54.5837 209.344 54.5837C209.344 55.2531 210.706 59.6465 210.706 59.6465L202.494 64.8767C202.494 64.8767 209.449 71.9899 210.433 71.8434C212.989 71.4878 232.156 58.203 232.156 58.203L224.741 57.7427L217.807 47.4287C217.786 47.4496 217.43 52.3242 212.528 54.6883Z" fill="white"/>
<path d="M210.349 72.5747C209.91 72.5747 209.051 72.219 205.594 68.9344C203.751 67.1771 201.991 65.3988 201.97 65.3779C201.824 65.2314 201.74 65.0222 201.782 64.813C201.803 64.6038 201.928 64.4155 202.096 64.29L209.868 59.3317C209.407 57.8045 208.632 55.1894 208.632 54.5827C208.632 54.3316 208.757 54.1015 208.988 53.976C209.197 53.8504 209.47 53.8504 209.679 53.976C209.679 53.976 210.957 54.6664 212.214 54.0597C216.697 51.8839 217.074 47.4277 217.095 47.3859C217.116 47.093 217.325 46.8419 217.618 46.7582C217.912 46.6746 218.205 46.8001 218.372 47.0511L225.118 57.0723L232.177 57.5116C232.47 57.5325 232.722 57.7417 232.805 58.0346C232.889 58.3275 232.784 58.6413 232.533 58.8087C230.564 60.1686 213.156 72.1772 210.517 72.5538C210.475 72.5538 210.412 72.5747 210.349 72.5747ZM203.604 65.0222C206.411 67.8675 209.616 70.8173 210.433 71.1521C212.319 70.6918 222.792 63.8088 230.082 58.8087L224.699 58.474C224.489 58.453 224.28 58.3484 224.154 58.1602L218.142 49.206C217.597 50.9633 216.215 53.6831 212.842 55.3149C211.9 55.7752 210.999 55.7542 210.287 55.6287C210.538 56.612 210.978 58.1183 211.376 59.4363C211.46 59.7292 211.355 60.064 211.083 60.2313L203.604 65.0222Z" fill="#120610"/>
<path d="M219.86 49.2048C222.101 44.0791 219.566 37.9702 214.204 35.5643C208.82 33.1584 202.641 35.3551 200.399 40.4807C198.158 45.6064 200.692 51.7153 206.055 54.1212C211.439 56.5271 217.618 54.3304 219.86 49.2048Z" fill="white"/>
<path d="M210.579 55.796C208.946 55.796 207.312 55.4403 205.761 54.75C200.043 52.1767 197.34 45.6494 199.729 40.1681C200.86 37.5948 202.934 35.6282 205.615 34.6031C208.464 33.5152 211.606 33.5989 214.476 34.896C220.194 37.4693 222.897 43.9966 220.488 49.4779C219.357 52.0512 217.283 54.0177 214.601 55.0429C213.324 55.545 211.962 55.796 210.579 55.796ZM209.679 35.2726C208.464 35.2726 207.27 35.4818 206.139 35.942C203.834 36.8416 202.012 38.5362 201.048 40.7539C198.953 45.5238 201.341 51.2352 206.348 53.4738C208.862 54.6035 211.627 54.6872 214.12 53.7248C216.424 52.8252 218.246 51.1306 219.21 48.913C221.305 44.143 218.917 38.4316 213.91 36.1931C212.549 35.5864 211.103 35.2726 209.679 35.2726Z" fill="#120610"/>
<path d="M222.415 45.9642C223.106 44.3742 222.352 42.5122 220.739 41.78C219.126 41.0478 217.283 41.7382 216.592 43.3072C215.9 44.8763 216.654 46.7592 218.267 47.4914C219.88 48.2446 221.745 47.5542 222.415 45.9642Z" fill="white"/>
<path d="M219.608 48.495C219.063 48.495 218.497 48.3695 217.974 48.1393C216.026 47.2397 215.104 44.9594 215.942 43.0346C216.34 42.1141 217.073 41.4028 218.016 41.0471C218.979 40.6706 220.048 40.7124 221.011 41.1517C222.959 42.0304 223.881 44.3317 223.043 46.2565C222.645 47.177 221.912 47.8883 220.969 48.2439C220.55 48.4113 220.069 48.495 219.608 48.495ZM219.419 42.1978C219.126 42.1978 218.833 42.2606 218.56 42.3652C217.974 42.5953 217.513 43.0346 217.262 43.5995C216.738 44.8338 217.324 46.2983 218.581 46.8632C219.21 47.1351 219.88 47.177 220.508 46.9259C221.095 46.6958 221.556 46.2565 221.807 45.6916C222.331 44.4573 221.744 42.9928 220.487 42.4279C220.11 42.2606 219.754 42.1978 219.419 42.1978Z" fill="#120610"/>
<path d="M207.165 235.506L199.247 275.611L166.862 274.21C166.862 274.21 165.395 272.118 168.202 270.925C170.193 270.067 171.868 270.276 173.796 269.398C175.723 268.519 182.552 235.506 182.552 235.506H207.165Z" fill="white"/>
<path d="M199.268 276.449C199.247 276.449 199.247 276.449 199.226 276.449L166.841 275.047C166.59 275.026 166.338 274.9 166.192 274.691C166.108 274.566 165.396 273.52 165.752 272.264C166.003 271.365 166.715 270.654 167.868 270.172C168.936 269.712 169.9 269.545 170.821 269.377C171.68 269.231 172.497 269.084 173.356 268.708C174.655 267.097 178.635 250.402 181.735 235.36C181.819 234.983 182.154 234.69 182.552 234.69H207.166C207.417 234.69 207.647 234.795 207.815 234.983C207.983 235.172 208.045 235.423 207.983 235.674L200.064 275.779C200.001 276.156 199.645 276.449 199.268 276.449ZM167.386 273.415L198.577 274.754L206.16 236.343H183.222C182.782 238.477 181.316 245.402 179.703 252.327C175.702 269.461 174.759 269.879 174.131 270.172C173.063 270.654 172.078 270.842 171.115 271.009C170.235 271.177 169.418 271.323 168.517 271.7C168.056 271.888 167.491 272.223 167.344 272.725C167.281 272.976 167.323 273.227 167.386 273.415Z" fill="#120610"/>
<path d="M165.542 274.714L200.566 276.241L203.289 263.438C197.529 263.751 189.38 270.153 183.619 268.396C180.331 267.412 178.655 263.898 175.45 263.919C175.094 266.764 173.564 268.563 173.062 268.835C170.967 269.902 169.165 269.672 166.987 270.697C163.949 272.203 165.542 274.714 165.542 274.714Z" fill="#120610"/>
<path d="M285.908 180.61L321.603 159.836L342.928 184.23C342.928 184.23 342.425 186.719 339.618 185.527C337.628 184.669 336.623 183.309 334.654 182.535C332.685 181.74 304.594 194.523 304.594 194.523L285.908 180.61Z" fill="white"/>
<path d="M304.593 195.359C304.426 195.359 304.237 195.296 304.091 195.192L285.405 181.279C285.175 181.112 285.049 180.84 285.07 180.568C285.091 180.296 285.238 180.045 285.489 179.899L321.184 159.124C321.519 158.915 321.959 158.998 322.231 159.291L343.556 183.685C343.724 183.874 343.787 184.145 343.745 184.397C343.724 184.543 343.431 185.777 342.278 186.384C341.461 186.823 340.456 186.782 339.304 186.3C338.235 185.84 337.439 185.275 336.685 184.71C335.973 184.187 335.303 183.685 334.423 183.33C334.402 183.33 334.402 183.33 334.381 183.33C332.328 183.33 317.79 189.438 304.95 195.275C304.824 195.317 304.719 195.359 304.593 195.359ZM287.416 180.694L304.698 193.56C306.353 192.807 312.407 190.087 318.566 187.472C333.417 181.154 334.402 181.53 334.968 181.761C336.057 182.2 336.874 182.786 337.649 183.371C338.361 183.894 339.052 184.397 339.932 184.773C340.393 184.961 341.021 185.15 341.482 184.92C341.713 184.794 341.859 184.585 341.964 184.397L321.414 160.881L287.416 180.694Z" fill="#120610"/>
<path d="M344.205 184.858L321.163 158.456L309.998 165.297C314.208 169.251 324.473 170.737 327.154 176.113C328.704 179.189 327.321 182.808 329.542 185.109C331.846 183.415 334.213 183.268 334.758 183.457C336.978 184.252 338.047 185.695 340.288 186.574C343.472 187.724 344.205 184.858 344.205 184.858Z" fill="#120610"/>
<path d="M208.799 244.546L178.425 242.746L200.65 120.756L253.334 113.455C253.334 113.455 265.023 169.816 276.439 172.515C287.856 175.214 295.816 171.741 295.816 171.741L312.889 193.875C312.889 193.875 287.73 211.03 266.552 205.34C245.374 199.649 228.155 167.326 228.155 167.326L208.799 244.546Z" fill="white"/>
<path d="M208.799 245.236C208.778 245.236 208.778 245.236 208.757 245.236L178.383 243.436C178.174 243.415 178.006 243.332 177.88 243.164C177.755 242.997 177.713 242.809 177.734 242.6L199.959 120.609C200.022 120.317 200.253 120.086 200.546 120.045L253.229 112.743C253.586 112.701 253.942 112.931 254.005 113.287C257.23 128.831 267.579 169.669 276.565 171.803C287.626 174.418 295.439 171.113 295.502 171.071C295.795 170.945 296.151 171.029 296.34 171.28L313.412 193.414C313.538 193.561 313.58 193.77 313.559 193.958C313.538 194.147 313.412 194.314 313.266 194.419C313.203 194.46 306.814 198.791 297.911 202.348C289.658 205.653 277.487 208.959 266.364 205.967C255.24 202.975 245.269 192.682 238.859 184.586C233.748 178.1 230.019 171.949 228.406 169.167L209.47 244.671C209.407 245.026 209.113 245.236 208.799 245.236ZM179.263 242.097L208.255 243.813L227.485 167.159C227.547 166.887 227.799 166.677 228.071 166.636C228.364 166.594 228.637 166.74 228.783 167.012C228.825 167.096 233.141 175.15 239.99 183.791C246.254 191.72 255.995 201.783 266.741 204.67C277.487 207.557 289.343 204.335 297.408 201.092C304.572 198.226 310.082 194.858 311.862 193.707L295.565 172.598C293.596 173.33 286.264 175.569 276.251 173.205C273.381 172.535 270.49 169.021 267.348 162.451C264.939 157.409 262.446 150.589 259.912 142.179C256.12 129.626 253.397 117.178 252.769 114.249L201.237 121.384L179.263 242.097Z" fill="#120610"/>
<path d="M230.019 171.113C229.747 171.113 229.495 170.966 229.37 170.694L222.645 156.113C222.478 155.757 222.645 155.338 222.98 155.171C223.337 155.004 223.756 155.171 223.923 155.506L230.647 170.088C230.815 170.443 230.647 170.862 230.312 171.029C230.207 171.092 230.103 171.113 230.019 171.113Z" fill="#120610"/>
<path d="M253.627 103.183L275.56 89.689C275.56 89.689 251.554 45.5039 234.942 62.7219C225.494 72.4919 232.868 82.3248 242.944 93.5175C250.632 102.032 253.627 103.183 253.627 103.183Z" fill="white"/>
<path d="M253.628 103.874C253.544 103.874 253.46 103.853 253.376 103.832C253.251 103.79 250.108 102.535 242.421 93.978C232.24 82.6598 224.594 72.4504 234.439 62.241C237.582 58.9982 241.206 57.6174 245.228 58.1614C251.554 59.0191 258.697 64.5423 266.448 74.6052C272.187 82.0321 276.146 89.2917 276.188 89.3754C276.356 89.7101 276.251 90.1076 275.937 90.2959L254.005 103.79C253.9 103.853 253.774 103.874 253.628 103.874ZM243.552 59.4375C240.577 59.4375 237.854 60.6928 235.445 63.2033C231.276 67.5339 230.271 72.011 232.282 77.3459C234.251 82.5761 239.09 88.2038 243.468 93.0575C249.564 99.8149 252.685 101.865 253.586 102.388L274.617 89.4591C272.313 85.4004 258.131 61.3413 245.018 59.5631C244.536 59.4794 244.055 59.4375 243.552 59.4375Z" fill="#120610"/>
<path d="M260.121 116.865C258.823 123.016 243.971 141.217 243.971 141.217C243.971 141.217 234.607 145.317 233.413 147.033C232.219 148.748 240.326 147.012 240.326 147.012C240.326 147.012 230.627 156.154 230.418 157.284C230.208 158.414 238.378 152.619 238.378 152.619C238.378 152.619 232.491 161.552 233.183 161.991C233.874 162.431 241.143 154.397 241.143 154.397C241.143 154.397 236.052 163.644 236.974 163.895C237.896 164.146 244.83 155.422 244.83 155.422C244.83 155.422 240.682 164.878 243.091 162.054C245.5 159.251 253.732 147.117 254.424 144.167C255.115 141.217 276.754 127.932 280.462 116.007C284.19 104.061 274.282 90.5254 274.282 90.5254L255.345 102.116C255.366 102.116 261.42 110.714 260.121 116.865Z" fill="white"/>
<path d="M237.079 164.607C236.974 164.607 236.89 164.586 236.806 164.565C236.555 164.502 236.366 164.314 236.262 164.084C236.115 163.707 235.885 163.205 238.168 158.623C238.084 158.707 238.021 158.77 237.937 158.854C236.827 160.004 235.906 160.904 235.193 161.511C234.041 162.536 233.392 162.954 232.805 162.577C232.617 162.452 232.491 162.264 232.449 162.054C232.365 161.699 232.261 161.155 235.089 156.531C235.382 156.071 235.654 155.611 235.926 155.171C235.633 155.36 235.34 155.569 235.047 155.757C231.067 158.351 230.564 158.31 230.103 157.996C229.831 157.828 229.684 157.494 229.747 157.159C229.81 156.824 229.914 156.238 234.963 151.238C236.094 150.109 237.225 149.021 238.126 148.163C233.455 148.937 232.952 148.163 232.763 147.891C232.659 147.724 232.428 147.263 232.847 146.657C234.041 144.92 241.645 141.51 243.531 140.673C244.871 139.021 258.257 122.388 259.43 116.74C260.645 110.966 254.842 102.639 254.779 102.555C254.675 102.388 254.633 102.2 254.675 102.011C254.717 101.823 254.821 101.656 254.989 101.551L273.926 89.9609C274.24 89.7726 274.638 89.8563 274.847 90.1492C274.952 90.2956 277.403 93.6639 279.414 98.5594C282.095 105.108 282.703 111.217 281.132 116.259C278.618 124.313 268.228 132.891 261.357 138.581C258.362 141.05 255.282 143.602 255.094 144.376C254.361 147.493 246.107 159.628 243.614 162.557C243.321 162.912 242.714 163.624 242.043 163.205C241.666 162.975 241.247 162.703 242.42 159.502C242.211 159.753 242.001 160.004 241.771 160.255C238.482 164.063 237.56 164.607 237.079 164.607ZM241.142 153.707C241.289 153.707 241.436 153.749 241.54 153.833C241.834 154.042 241.918 154.418 241.75 154.732C240.263 157.41 238.713 160.527 237.979 162.306C239.467 160.82 242.022 157.828 244.264 155.004C244.473 154.732 244.871 154.648 245.164 154.837C245.458 155.025 245.583 155.402 245.437 155.715C244.766 157.243 244.075 158.937 243.614 160.255C246.861 155.966 253.166 146.406 253.711 144.042C253.983 142.849 256.078 141.071 260.435 137.472C267.181 131.907 277.382 123.476 279.77 115.819C282.933 105.652 275.79 94.0614 274.072 91.4881L256.33 102.346C257.712 104.48 261.944 111.551 260.791 117.012C259.472 123.246 245.102 140.903 244.494 141.657C244.431 141.74 244.327 141.803 244.222 141.866C240.975 143.288 235.759 145.82 234.293 147.096C235.403 147.159 237.979 146.803 240.179 146.322C240.493 146.259 240.807 146.406 240.954 146.678C241.101 146.95 241.038 147.305 240.807 147.514C237.728 150.422 234.481 153.623 232.617 155.611C234.125 154.69 236.157 153.33 237.979 152.033C238.252 151.845 238.629 151.866 238.88 152.096C239.131 152.326 239.173 152.703 238.985 152.975C237.288 155.527 235.549 158.372 234.586 160.172C236.115 158.77 238.503 156.259 240.64 153.916C240.765 153.77 240.954 153.707 241.142 153.707Z" fill="#120610"/>
<path d="M287.374 129.229C287.311 129.229 287.27 129.229 287.207 129.209C287.144 129.188 281.697 127.807 275.79 125.694C275.455 125.568 275.267 125.192 275.392 124.836C275.518 124.501 275.895 124.313 276.251 124.439C282.095 126.552 287.5 127.911 287.542 127.932C287.898 128.016 288.107 128.393 288.024 128.727C287.94 129.02 287.668 129.229 287.374 129.229Z" fill="#120610"/>
<path d="M260.414 115.778C260.163 115.778 259.933 115.653 259.828 115.401C259.786 115.318 259.765 115.213 259.744 115.109C259.66 114.502 259.765 113.853 260.037 113.268C261.671 109.69 269.066 108.728 282.032 110.422C288.086 111.217 293.177 112.326 293.219 112.326C293.575 112.41 293.805 112.765 293.721 113.121C293.637 113.477 293.281 113.707 292.925 113.623C292.883 113.602 287.856 112.514 281.844 111.74C269.883 110.192 262.551 110.924 261.231 113.832C261.043 114.209 261.001 114.606 261.064 114.983C261.064 115.004 261.064 115.004 261.064 115.025C261.127 115.318 260.98 115.611 260.708 115.736C260.603 115.757 260.498 115.778 260.414 115.778Z" fill="#120610"/>
<path d="M287.5 107.681L340.226 124.02L323.866 158.351L276.607 141.677L287.5 107.681Z" fill="#FAB70C"/>
<path d="M323.865 158.959C323.803 158.959 323.74 158.938 323.677 158.917L276.419 142.243C276.125 142.138 275.958 141.824 276.063 141.511L286.955 107.514C287.06 107.2 287.374 107.033 287.689 107.138L340.414 123.477C340.582 123.519 340.707 123.644 340.77 123.791C340.833 123.937 340.833 124.125 340.77 124.272L324.41 158.603C324.305 158.833 324.096 158.959 323.865 158.959ZM277.34 141.322L323.572 157.641L339.409 124.376L287.877 108.414L277.34 141.322Z" fill="#120610"/>
<path d="M289.678 101.152L288.588 104.667L335.637 118.893L338.339 115.253L289.678 101.152Z" fill="#FAB70C"/>
<path d="M335.637 119.458C335.575 119.458 335.533 119.458 335.47 119.437L288.421 105.211C288.275 105.169 288.149 105.065 288.065 104.918C288.002 104.772 287.981 104.626 288.023 104.479L289.113 100.964C289.217 100.671 289.532 100.483 289.825 100.588L338.486 114.668C338.675 114.73 338.822 114.856 338.884 115.044C338.947 115.232 338.905 115.421 338.801 115.567L336.098 119.207C335.994 119.375 335.826 119.458 335.637 119.458ZM289.322 104.291L335.428 118.224L337.376 115.588L290.076 101.906L289.322 104.291Z" fill="#120610"/>
<path d="M288.714 104.562L287.625 107.847L339.827 123.956L335.491 118.642L288.714 104.562Z" fill="#FAB70C"/>
<path d="M339.827 124.543C339.764 124.543 339.722 124.543 339.659 124.522L287.457 108.413C287.311 108.371 287.185 108.267 287.122 108.12C287.059 107.974 287.038 107.827 287.08 107.681L288.17 104.396C288.274 104.103 288.589 103.936 288.882 104.02L335.658 118.12C335.763 118.162 335.868 118.225 335.951 118.309L340.288 123.622C340.455 123.811 340.455 124.104 340.33 124.313C340.204 124.459 340.015 124.543 339.827 124.543ZM288.358 107.472L338.151 122.848L335.135 119.166L289.07 105.275L288.358 107.472Z" fill="#120610"/>
<path d="M338.361 115.316L335.387 119.019L339.89 124.082L338.361 115.316Z" fill="#FAB70C"/>
<path d="M339.89 124.648C339.722 124.648 339.576 124.585 339.45 124.459L334.946 119.397C334.758 119.187 334.758 118.873 334.925 118.643L337.9 114.94C338.047 114.752 338.277 114.689 338.508 114.731C338.738 114.794 338.906 114.961 338.926 115.191L340.477 123.957C340.519 124.208 340.393 124.459 340.162 124.585C340.079 124.627 339.974 124.648 339.89 124.648ZM336.161 118.999L338.989 122.158L338.026 116.677L336.161 118.999Z" fill="#120610"/>
<path d="M284.148 135.381C284.064 135.381 283.959 135.36 283.876 135.318C283.813 135.297 278.178 132.744 272.417 129.313C272.103 129.125 271.998 128.728 272.187 128.414C272.375 128.1 272.773 127.995 273.087 128.184C278.785 131.552 284.357 134.083 284.42 134.104C284.755 134.251 284.902 134.648 284.755 134.983C284.63 135.234 284.399 135.381 284.148 135.381Z" fill="#120610"/>
<path d="M289.825 119.814C289.741 119.814 289.657 119.793 289.573 119.772C289.531 119.751 285.719 118.161 280.901 116.613C269.715 112.994 262.488 112.555 261.022 115.379C261.001 115.442 260.98 115.483 260.938 115.546C260.854 115.714 260.812 115.923 260.791 116.132C260.791 116.195 260.77 116.278 260.749 116.341C260.686 116.488 260.582 116.634 260.435 116.718C260.1 116.885 259.702 116.76 259.555 116.425C259.45 116.216 259.471 116.007 259.513 115.902C259.513 115.902 259.513 115.881 259.534 115.881C259.576 115.567 259.66 115.253 259.807 114.981C259.828 114.94 259.848 114.898 259.869 114.856C259.89 114.835 259.911 114.793 259.911 114.772C261.797 111.195 269.003 111.404 281.341 115.4C286.201 116.969 290.076 118.58 290.118 118.601C290.453 118.747 290.621 119.124 290.474 119.458C290.327 119.668 290.076 119.814 289.825 119.814Z" fill="#120610"/>
<path d="M216.361 44.2487C216.193 44.6253 205.552 41.6545 200.566 38.0561C199.602 37.3448 201.006 27.7212 213.7 27.9513C215.9 27.9932 223.65 30.148 224.886 37.8051C226.059 45.1065 222.896 46.8848 222.226 47.0312C221.451 47.2195 221.849 44.7508 221.242 43.7048C219.629 41.0897 217.178 42.324 216.361 44.2487Z" fill="#120610"/>
<path d="M215.355 26.0481C214.853 23.9979 216.109 21.9476 218.162 21.4455C220.215 20.9434 222.268 22.1987 222.771 24.2489C223.274 26.2992 222.017 28.3494 219.964 28.8515C217.932 29.3536 215.858 28.0984 215.355 26.0481Z" fill="#120610"/>
<path d="M219.461 18.1184C218.833 15.5451 220.404 12.9719 222.98 12.3442C225.557 11.7166 228.133 13.2857 228.762 15.859C229.39 18.4322 227.819 21.0055 225.243 21.6331C222.666 22.2608 220.09 20.6917 219.461 18.1184Z" fill="#120610"/>
</g>
<path d="M59.8771 262.933C59.1212 236.845 54.3827 220.84 50.5373 212.011C46.3886 202.483 42.397 199.077 42.3537 199.041L42.759 198.547C42.9226 198.688 46.9061 202.084 51.1123 211.747C53.577 217.407 55.593 224.041 57.1277 231.48C59.0357 240.767 60.1755 251.34 60.5047 262.901L59.8771 262.933Z" fill="#120610"/>
<path d="M43.0643 199.752C43.0548 199.75 43.0453 199.749 43.0357 199.747C42.6228 199.646 32.9028 197.187 31.6303 193.236C31.2916 192.191 31.5556 191.15 32.4196 190.131C33.2713 189.13 34.2313 188.7 35.2875 188.859C35.297 188.861 35.3065 188.862 35.3065 188.862C39.3554 189.502 43.2382 198.921 43.4011 199.325C43.4423 199.439 43.4237 199.562 43.3508 199.659C43.2822 199.726 43.1689 199.767 43.0643 199.752ZM35.1941 189.478C34.3663 189.353 33.6138 189.698 32.9131 190.537C32.1906 191.392 31.9705 192.206 32.2443 193.036C33.2311 196.107 40.3783 198.334 42.5616 198.955C41.6324 196.857 38.3581 189.985 35.2131 189.481C35.2036 189.48 35.1941 189.478 35.1941 189.478Z" fill="#120610"/>
<path d="M49.2146 205.617C49.1005 205.599 49.0044 205.526 48.9631 205.413C48.8098 205.01 45.3433 195.605 47.8637 192.314C48.5306 191.44 49.5406 191.067 50.8717 191.209C52.1947 191.34 53.0925 191.904 53.5503 192.869C55.3173 196.574 49.7575 205.114 49.5178 205.477C49.4545 205.575 49.3383 205.635 49.2146 205.617ZM51.0447 191.868C50.9686 191.857 50.8925 191.845 50.8054 191.842C49.6931 191.733 48.9017 192.013 48.3696 192.702C46.3979 195.258 48.6071 202.418 49.3441 204.565C50.5434 202.613 54.3515 196.009 52.9848 193.135C52.6434 192.431 52.0057 192.013 51.0447 191.868Z" fill="#120610"/>
<path d="M51.6188 211.619C51.5522 211.609 51.498 211.581 51.4467 211.534C51.3616 211.453 51.3217 211.33 51.3594 211.21C51.4854 210.761 54.5891 200.311 58.9165 199.104C60.0539 198.788 61.1713 199.123 62.2319 200.091C63.2829 201.058 63.7059 202.125 63.4765 203.259C62.6051 207.617 52.2204 211.437 51.7782 211.594C51.7154 211.624 51.6664 211.626 51.6188 211.619ZM60.0893 199.651C59.7563 199.601 59.4213 199.628 59.0858 199.724C55.6721 200.679 52.9077 208.492 52.1644 210.776C54.4195 209.889 62.1574 206.585 62.8514 203.145C63.0383 202.228 62.6884 201.387 61.7994 200.571C61.228 200.037 60.6602 199.737 60.0893 199.651Z" fill="#120610"/>
<path d="M36.3139 218.057C35.9048 217.995 35.5314 217.89 35.187 217.722C34.0699 217.193 33.429 216.151 33.2777 214.638C33.1197 213.105 33.548 211.943 34.5407 211.167C38.3417 208.224 49.296 212.243 49.7654 212.421C49.8753 212.467 49.9575 212.567 49.9688 212.685C49.9801 212.804 49.9234 212.922 49.8263 212.985C49.4378 213.238 41.0046 218.764 36.3139 218.057ZM41.684 210.968C39.0199 210.567 36.365 210.556 34.9328 211.664C34.1167 212.301 33.7785 213.253 33.9124 214.559C34.0478 215.855 34.5528 216.701 35.4612 217.13C38.8939 218.758 46.7745 214.122 48.9229 212.781C47.6701 212.378 44.6715 211.419 41.684 210.968Z" fill="#120610"/>
<path d="M35.5913 207.875C34.6018 207.726 33.7428 207.421 33.1319 206.891C32.3237 206.185 32.0296 205.166 32.2468 203.855C32.475 202.536 33.1024 201.666 34.1181 201.254C37.9544 199.69 46.0894 205.563 46.4317 205.809C46.5277 205.882 46.5785 205.997 46.5599 206.121C46.5426 206.235 46.4588 206.339 46.347 206.371C46.0181 206.487 39.673 208.491 35.5913 207.875ZM36.5519 201.699C35.7241 201.575 34.9714 201.597 34.3583 201.855C33.5501 202.182 33.0656 202.878 32.88 203.98C32.6972 205.062 32.9168 205.865 33.5534 206.419C35.9537 208.504 43.3255 206.597 45.5323 205.966C44.0326 204.941 39.7487 202.181 36.5519 201.699Z" fill="#120610"/>
<path d="M40.0758 226.211C39.8093 226.171 39.5568 226.103 39.318 226.009C38.2517 225.595 37.584 224.666 37.346 223.277C37.1013 221.867 37.4244 220.756 38.2906 219.981C41.6086 217.014 51.9667 220.018 52.4053 220.142C52.5166 220.179 52.6097 220.271 52.6306 220.391C52.6514 220.511 52.6042 220.63 52.5151 220.704C52.1647 220.963 44.4048 226.864 40.0758 226.211ZM47.0231 219.633C43.9309 219.166 40.3231 219.022 38.7155 220.454C38.007 221.088 37.7659 221.977 37.9756 223.167C38.1772 224.347 38.6979 225.088 39.5526 225.421C42.7773 226.687 49.6445 221.995 51.5989 220.586C50.7108 220.345 48.9641 219.925 47.0231 219.633Z" fill="#120610"/>
<path d="M54.8411 219.867C54.765 219.855 54.6932 219.815 54.6447 219.749C54.5705 219.66 54.5512 219.531 54.5969 219.421C54.7867 219.002 59.2191 209.161 63.6302 208.561C64.7923 208.405 65.8405 208.874 66.7544 209.976C67.6603 211.067 67.9319 212.17 67.5546 213.253C66.12 217.409 55.4107 219.768 54.9581 219.865C54.9172 219.878 54.8791 219.872 54.8411 219.867ZM64.4104 209.194C64.1821 209.16 63.9575 209.165 63.7191 209.197C60.2411 209.676 56.4971 216.951 55.4636 219.094C57.7979 218.521 65.817 216.321 66.9533 213.045C67.2501 212.174 67.0311 211.304 66.2654 210.38C65.6789 209.688 65.0669 209.293 64.4104 209.194Z" fill="#120610"/>
<path d="M43.3229 234.687C43.0565 234.647 42.8039 234.58 42.5651 234.485C41.4988 234.071 40.8312 233.143 40.5931 231.753C40.3484 230.343 40.6715 229.233 41.5377 228.458C44.8557 225.491 55.2137 228.494 55.6523 228.619C55.7636 228.655 55.8568 228.747 55.8776 228.867C55.8984 228.987 55.8512 229.107 55.7622 229.181C55.4022 229.438 47.6425 235.338 43.3229 234.687ZM50.2607 228.108C47.1684 227.641 43.5607 227.497 41.9531 228.929C41.2445 229.563 41.0035 230.451 41.2132 231.642C41.4148 232.822 41.9356 233.562 42.7902 233.896C46.0149 235.161 52.882 230.47 54.8364 229.061C53.9483 228.82 52.2111 228.402 50.2607 228.108Z" fill="#120610"/>
<path d="M58.0779 228.341C58.0018 228.33 57.93 228.29 57.8815 228.224C57.8074 228.135 57.788 228.005 57.8337 227.896C58.0235 227.476 62.4559 217.636 66.8671 217.035C68.0291 216.879 69.0773 217.349 69.9912 218.451C70.8971 219.542 71.1687 220.645 70.7914 221.727C69.3569 225.884 58.6475 228.242 58.1949 228.34C58.154 228.353 58.116 228.347 58.0779 228.341ZM67.6473 217.669C67.4189 217.635 67.1943 217.64 66.9559 217.672C63.4779 218.151 59.7339 225.426 58.7005 227.568C61.0347 226.995 69.0538 224.796 70.1902 221.52C70.4869 220.649 70.2679 219.778 69.5022 218.855C68.9157 218.162 68.3038 217.768 67.6473 217.669Z" fill="#120610"/>
<path d="M44.6353 243.659C44.3689 243.619 44.1163 243.552 43.8776 243.457C42.8112 243.043 42.1436 242.115 41.9056 240.725C41.6609 239.315 41.984 238.205 42.8502 237.429C46.1682 234.463 56.5263 237.466 56.9649 237.591C57.0762 237.627 57.1694 237.719 57.1902 237.839C57.211 237.959 57.1638 238.078 57.0748 238.153C56.7148 238.41 48.9549 244.311 44.6353 243.659ZM51.5732 237.08C48.481 236.613 44.8732 236.468 43.2656 237.901C42.557 238.534 42.3159 239.423 42.5256 240.614C42.7272 241.794 43.248 242.534 44.1027 242.868C47.3274 244.133 54.1946 239.442 56.149 238.033C55.2609 237.791 53.5237 237.374 51.5732 237.08Z" fill="#120610"/>
<path d="M58.9992 237.655C58.9136 237.642 58.8337 237.591 58.7852 237.525C58.7125 237.427 58.7026 237.298 58.7674 237.191C58.9843 236.786 64.0417 227.254 68.4792 226.93C69.6502 226.843 70.6679 227.386 71.5052 228.545C72.3344 229.693 72.5351 230.814 72.094 231.867C70.3922 235.925 59.5645 237.584 59.0972 237.65C59.0563 237.663 59.0277 237.659 58.9992 237.655ZM69.07 227.593C68.8892 227.566 68.7151 227.559 68.5286 227.57C65.036 227.823 60.8245 234.843 59.646 236.915C62.0158 236.493 70.1601 234.819 71.4986 231.622C71.851 230.769 71.6824 229.887 70.981 228.924C70.4184 228.138 69.7836 227.701 69.07 227.593Z" fill="#120610"/>
<path d="M86.1827 261.735C86.2369 261.686 86.2878 261.627 86.3234 261.554C86.4626 261.251 99.9577 230.893 100.479 206C101.001 181.138 95.4424 160.558 95.382 160.355C95.3054 160.076 95.0264 159.918 94.7474 159.994C94.4684 160.071 94.3107 160.35 94.3873 160.629C94.4386 160.836 99.9589 181.275 99.441 205.973C98.9259 230.65 85.5107 260.827 85.3806 261.127C85.2684 261.39 85.3849 261.696 85.6389 261.812C85.8286 261.889 86.0412 261.856 86.1827 261.735Z" fill="black"/>
<path d="M93.1123 243.269C93.1304 243.263 93.1486 243.257 93.1577 243.253C93.8169 242.923 109.335 235.076 111.425 228.131C111.825 226.79 111.711 225.555 111.086 224.457C110.51 223.444 109.724 222.942 108.75 222.954C106.377 222.983 102.929 226.342 98.5157 232.931C95.2756 237.767 92.654 242.654 92.6303 242.703C92.55 242.853 92.5768 243.047 92.7001 243.168C92.8111 243.282 92.9759 243.317 93.1123 243.269ZM107.971 223.907C108.253 223.809 108.511 223.761 108.764 223.754C109.433 223.746 109.964 224.102 110.388 224.852C110.908 225.762 110.999 226.76 110.661 227.897C108.985 233.454 97.6498 239.94 93.9593 241.925C97.053 236.345 103.872 225.331 107.971 223.907Z" fill="black"/>
<path d="M92.5171 242.347C92.5443 242.337 92.5625 242.331 92.5866 242.312C92.7376 242.219 92.8174 242.038 92.7756 241.859C92.7598 241.814 91.4977 237.124 89.6583 232.268C87.1605 225.663 84.8238 221.897 82.7287 221.085C81.9764 220.796 81.2469 220.866 80.5707 221.295C79.8886 221.735 79.4921 222.383 79.4026 223.24C78.8006 228.75 91.5684 241.697 92.114 242.242C92.2159 242.359 92.3716 242.397 92.5171 242.347ZM81.3653 221.793C81.7107 221.673 82.0608 221.684 82.4401 221.838C83.7338 222.337 85.8961 224.603 88.9134 232.557C90.107 235.701 91.0532 238.777 91.5749 240.543C90.3347 239.231 88.236 236.942 86.1797 234.394C82.0298 229.249 79.9602 225.432 80.189 223.334C80.2511 222.721 80.5255 222.279 80.9993 221.972C81.1139 221.891 81.238 221.838 81.3653 221.793Z" fill="black"/>
<path d="M99.5078 217.632C99.5169 217.629 99.5351 217.623 99.5442 217.62C100.219 217.304 116.204 209.805 117.826 203.186C118.147 201.881 117.904 200.681 117.087 199.619C116.307 198.606 115.355 198.152 114.23 198.257C108.224 198.824 99.3939 216.336 99.0199 217.078C98.9397 217.228 98.9724 217.41 99.0866 217.534C99.2067 217.645 99.3624 217.683 99.5078 217.632ZM113.545 199.218C113.809 199.127 114.064 199.069 114.31 199.044C115.158 198.964 115.86 199.312 116.46 200.102C117.128 200.971 117.323 201.913 117.057 202.994C115.761 208.297 103.945 214.541 100.292 216.371C101.139 214.762 102.885 211.576 104.971 208.374C108.391 203.119 111.337 199.985 113.545 199.218Z" fill="black"/>
<path d="M99.0592 216.547C99.0956 216.534 99.1379 216.509 99.1711 216.488C99.3066 216.379 99.3652 216.196 99.2992 216.035C99.2834 215.99 97.5847 211.187 95.3319 206.373C92.2532 199.796 89.6371 196.311 87.5273 196.014C86.6371 195.885 85.8692 196.284 85.2174 197.193C84.4968 198.198 84.2595 199.391 84.496 200.747C85.6617 207.417 98.1623 216.135 98.6874 216.503C98.804 216.574 98.9411 216.588 99.0592 216.547ZM86.8199 196.851C87.0107 196.784 87.2174 196.764 87.4217 196.795C90.8516 197.285 95.9281 209.203 98.1123 215.082C95.0431 212.814 86.2077 205.851 85.2883 200.594C85.0909 199.439 85.2764 198.478 85.8713 197.639C86.1705 197.239 86.4835 196.967 86.8199 196.851Z" fill="black"/>
<path d="M100.352 192.321C100.37 192.315 100.398 192.305 100.413 192.29C101.12 191.891 117.758 182.402 118.313 176.317C118.415 175.231 118.019 174.298 117.133 173.566C116.241 172.816 115.219 172.57 114.084 172.821C107.863 174.237 100.181 191.066 99.8583 191.779C99.7903 191.935 99.823 192.118 99.9554 192.235C100.06 192.331 100.216 192.369 100.352 192.321ZM113.836 173.722C113.982 173.672 114.121 173.634 114.252 173.599C115.138 173.393 115.916 173.581 116.612 174.176C117.288 174.746 117.583 175.418 117.506 176.251C117.292 178.568 114.225 181.937 108.625 186.022C105.649 188.188 102.681 190.024 101.12 190.954C102.952 187.167 108.974 175.411 113.836 173.722Z" fill="black"/>
<path d="M99.9987 192.504C100.053 192.485 100.095 192.46 100.141 192.414C100.264 192.3 100.301 192.113 100.235 191.953C100.222 191.916 98.5634 188.313 96.399 184.691C93.4385 179.745 90.9672 177.117 89.053 176.885C88.224 176.785 87.5067 177.096 86.9257 177.827C86.3146 178.59 86.1038 179.479 86.2992 180.482C87.3205 185.622 99.176 192.188 99.6817 192.471C99.7738 192.531 99.8896 192.542 99.9987 192.504ZM88.3123 177.743C88.5123 177.674 88.719 177.653 88.9446 177.687C92.0111 178.07 96.7803 186.669 98.9557 191.143C95.9658 189.368 87.8476 184.236 87.0734 180.335C86.9206 179.573 87.0705 178.919 87.5408 178.338C87.7713 178.033 88.0306 177.841 88.3123 177.743Z" fill="black"/>
<path d="M97.6495 172.104C97.7131 172.082 97.7704 172.042 97.8214 171.983C97.8424 171.955 100.067 169.327 102.138 166.345C105.015 162.195 106.201 159.449 105.752 157.953C105.587 157.389 105.177 157.001 104.575 156.823C103.961 156.638 103.345 156.74 102.75 157.11C99.2357 159.309 97.2051 171.147 97.1264 171.654C97.0951 171.828 97.1888 172.009 97.348 172.086C97.446 172.134 97.5586 172.136 97.6495 172.104ZM103.548 157.618C103.82 157.523 104.082 157.514 104.357 157.602C104.696 157.698 104.896 157.894 104.992 158.197C105.653 160.394 100.975 166.84 98.2074 170.279C98.8775 166.988 100.667 159.383 103.176 157.808C103.3 157.725 103.421 157.662 103.548 157.618Z" fill="black"/>
<path d="M97.3937 172.541C97.4391 172.525 97.4905 172.497 97.5296 172.463C97.662 172.346 97.7051 172.147 97.6178 171.984C97.6084 171.956 96.0939 168.945 94.2296 165.953C91.6322 161.788 89.6884 159.711 88.2749 159.6C87.9002 159.578 87.3628 159.673 86.9264 160.293C86.5738 160.803 86.4599 161.413 86.5965 162.1C87.3723 166.122 96.6441 172.23 97.04 172.49C97.1475 172.565 97.2755 172.582 97.3937 172.541ZM87.9629 160.433C88.0538 160.401 88.1451 160.4 88.2182 160.405C88.8548 160.449 90.3903 161.292 93.5534 166.382C94.6098 168.074 95.5476 169.777 96.1619 170.93C93.5513 169.074 87.9305 164.797 87.3738 161.963C87.2795 161.486 87.3475 161.095 87.5776 160.76C87.712 160.561 87.8448 160.474 87.9629 160.433Z" fill="black"/>
<path d="M95.451 162.93C95.6055 162.876 95.7162 162.725 95.717 162.552C95.7194 162.5 95.7583 156.981 95.2587 151.232C94.5864 143.401 93.2867 138.867 91.3889 137.773C90.9045 137.493 90.1075 137.28 89.0926 137.877C88.2196 138.384 87.6338 139.22 87.3408 140.341C85.6506 146.912 94.5944 162.106 94.9709 162.75C95.0641 162.901 95.2447 162.981 95.4206 162.93C95.4328 162.936 95.4419 162.933 95.451 162.93ZM89.8872 138.376C90.2871 138.237 90.6436 138.266 90.9869 138.463C94.0958 140.258 94.8492 154.188 94.9155 161.036C92.7661 157.164 86.7735 145.717 88.1101 140.533C88.3478 139.604 88.796 138.959 89.4908 138.555C89.6299 138.486 89.7599 138.42 89.8872 138.376Z" fill="black"/>
<path d="M147.534 141.846L146.552 142.26L146.062 141.307C143.945 137.195 137.883 137.801 136.622 142.251L136.334 143.281L135.285 143.069C130.743 142.164 127.443 147.287 130.137 151.053L130.762 151.919L129.945 152.613C126.404 155.598 128.347 161.376 132.966 161.617L134.034 161.675L134.063 162.744C134.188 167.376 139.913 169.456 142.983 165.989L143.695 165.19L144.551 165.835C148.246 168.628 153.442 165.44 152.643 160.885L152.46 159.836L153.499 159.566C157.983 158.41 158.734 152.362 154.673 150.138L153.74 149.627L154.173 148.655C156.049 144.417 151.796 140.055 147.534 141.846Z" fill="white"/>
<path d="M139.201 168.041C140.712 168.041 142.146 167.406 143.214 166.202L143.724 165.624L144.34 166.086C146.158 167.454 148.487 167.569 150.43 166.385C152.374 165.2 153.336 163.062 152.942 160.828L152.807 160.067L153.557 159.875C155.761 159.306 157.3 157.554 157.589 155.291C157.878 153.028 156.81 150.947 154.808 149.859L154.125 149.484L154.443 148.781C155.376 146.7 154.962 144.399 153.375 142.771C151.787 141.144 149.497 140.681 147.399 141.558L146.687 141.856L146.331 141.163C145.292 139.141 143.233 138.023 140.972 138.255C138.711 138.486 136.921 139.988 136.295 142.174L136.084 142.916L135.324 142.762C133.091 142.319 130.946 143.224 129.704 145.14C128.473 147.057 128.53 149.387 129.849 151.236L130.301 151.862L129.704 152.363C127.963 153.827 127.337 156.08 128.059 158.238C128.781 160.395 130.647 161.81 132.918 161.926L133.688 161.964L133.707 162.735C133.765 165.008 135.131 166.905 137.277 167.685C137.931 167.935 138.566 168.041 139.201 168.041ZM143.676 164.873C143.589 164.873 143.502 164.911 143.435 164.979L142.723 165.778C141.395 167.28 139.394 167.791 137.508 167.107C135.622 166.423 134.419 164.748 134.361 162.735L134.333 161.666C134.333 161.502 134.198 161.367 134.034 161.358L132.966 161.3C130.965 161.194 129.319 159.952 128.684 158.045C128.049 156.138 128.598 154.154 130.137 152.864L130.955 152.17C131.08 152.064 131.109 151.872 131.013 151.737L130.387 150.87C129.223 149.233 129.165 147.172 130.262 145.487C131.35 143.802 133.245 142.993 135.218 143.388L136.267 143.599C136.43 143.628 136.594 143.532 136.632 143.378L136.921 142.347C137.469 140.412 139.047 139.092 141.049 138.89C143.05 138.688 144.859 139.67 145.773 141.462L146.264 142.415C146.341 142.559 146.514 142.627 146.668 142.559L147.65 142.145C149.497 141.365 151.518 141.779 152.922 143.214C154.327 144.649 154.683 146.681 153.865 148.511L153.432 149.484C153.365 149.638 153.423 149.811 153.567 149.898L154.5 150.408C156.261 151.371 157.204 153.21 156.954 155.204C156.704 157.197 155.347 158.748 153.404 159.249L152.364 159.518C152.201 159.557 152.105 159.721 152.133 159.884L152.316 160.934C152.663 162.908 151.816 164.796 150.103 165.836C148.39 166.886 146.331 166.78 144.734 165.576L143.878 164.931C143.81 164.892 143.743 164.873 143.676 164.873Z" fill="#120610"/>
<path d="M142.081 159.027C139.074 158.958 136.693 156.461 136.763 153.452C136.832 150.442 139.327 148.059 142.333 148.129C145.34 148.199 147.721 150.695 147.651 153.705C147.582 156.714 145.087 159.097 142.081 159.027Z" fill="#120610"/>
<path d="M109.767 259.77C109.863 259.674 119.264 249.466 128.145 232.796C133.36 223.002 137.373 212.928 140.086 202.846C143.473 190.239 144.811 177.585 144.07 165.229L143.435 165.268C145.119 193.08 135.747 217.175 127.587 232.497C118.745 249.1 109.401 259.241 109.305 259.337L109.767 259.77Z" fill="#120610"/>
<path d="M25.9913 157.364C24.3644 158.114 22.437 157.402 21.6864 155.774C20.9357 154.145 21.646 152.217 23.273 151.467C24.8999 150.717 26.8273 151.429 27.5779 153.058C28.3286 154.686 27.6183 156.614 25.9913 157.364Z" fill="#FAB70C"/>
<path d="M284.823 56.0398C283.196 56.7898 281.269 56.0778 280.518 54.4495C279.768 52.8212 280.478 50.8932 282.105 50.1432C283.732 49.3932 285.659 50.1052 286.41 51.7335C287.161 53.3618 286.45 55.2898 284.823 56.0398Z" fill="#FAB70C"/>
<path d="M94.657 112C92.6366 112.931 90.2431 112.047 89.3108 110.025C88.3786 108.002 89.2608 105.608 91.2812 104.677C93.3016 103.745 95.6952 104.629 96.6274 106.652C97.5596 108.674 96.6774 111.068 94.657 112Z" fill="#FAB70C"/>
<path d="M299.744 213.635C297.724 214.567 295.33 213.682 294.398 211.66C293.466 209.638 294.348 207.244 296.368 206.312C298.389 205.381 300.782 206.265 301.714 208.287C302.647 210.31 301.764 212.704 299.744 213.635Z" fill="#FAB70C"/>
<path d="M52.894 120.633C51.7016 120.875 50.5387 120.103 50.2966 118.91C50.0544 117.717 50.8246 116.554 52.0169 116.312C53.2092 116.071 54.3721 116.842 54.6143 118.035C54.8565 119.228 54.0863 120.391 52.894 120.633Z" fill="#FAB70C"/>
<path d="M336.4 186.347C335.208 186.588 334.045 185.817 333.803 184.624C333.561 183.431 334.331 182.268 335.523 182.026C336.716 181.785 337.878 182.556 338.121 183.749C338.363 184.942 337.593 186.105 336.4 186.347Z" fill="#FAB70C"/>
<path d="M168.296 143.066C167.191 143.575 165.882 143.092 165.372 141.986C164.863 140.88 165.345 139.571 166.45 139.062C167.555 138.553 168.863 139.036 169.373 140.142C169.883 141.247 169.401 142.557 168.296 143.066Z" fill="#FAB70C"/>
<defs>
<clipPath id="clip0">
<rect width="92.1495" height="56.9159" fill="white" transform="translate(21.6821 31.168)"/>
</clipPath>
<clipPath id="clip1">
<rect width="219.533" height="264.252" fill="white" transform="translate(124.673 12.1963)"/>
</clipPath>
</defs>
</svg>
