<svg width="47" height="47" viewBox="0 0 47 47" fill="none" xmlns="http://www.w3.org/2000/svg">
<path d="M23.5 44.6133C35.1605 44.6133 44.6133 35.1605 44.6133 23.5C44.6133 11.8395 35.1605 2.38672 23.5 2.38672C11.8395 2.38672 2.38672 11.8395 2.38672 23.5C2.38672 35.1605 11.8395 44.6133 23.5 44.6133Z" fill="#C7E893"/>
<path d="M41.5 23.5C41.5 33.4411 33.4411 41.5 23.5 41.5C13.5589 41.5 5.5 33.4411 5.5 23.5C5.5 13.5589 13.5589 5.5 23.5 5.5C33.4411 5.5 41.5 13.5589 41.5 23.5Z" fill="#C7E893" stroke="#78A93F"/>
<path d="M15.7798 27.1914V31.7785H14.9407V29.8206H12.6472V31.7785H11.8081V27.1914H12.6472V29.0934H14.9407V27.1914H15.7798Z" fill="#78A93F"/>
<path d="M20.2552 30.995H18.0176L17.6819 31.8341H16.731L18.6329 27.2471H19.5839L21.4858 31.8341H20.5349L20.2552 30.995ZM19.9195 30.2678L19.0804 28.3099L18.2413 30.2678H19.9195Z" fill="#78A93F"/>
<path d="M25.6251 31.051V31.8341H22.4365V27.2471H23.2756V31.1069H25.6251V31.051Z" fill="#78A93F"/>
<path d="M29.8199 30.995H27.5823L27.2466 31.8341H26.2957L28.1976 27.2471H29.1486L31.0505 31.8341H30.0996L29.8199 30.995ZM29.4842 30.2678L28.6451 28.3099L27.806 30.2678H29.4842Z" fill="#78A93F"/>
<path d="M35.1913 31.051V31.8341H32.0027V27.2471H32.8418V31.1069H35.1913V31.051Z" fill="#78A93F"/>
<path d="M35.1029 21.4534C34.9928 21.233 34.7725 21.0862 34.5521 21.0862C33.9279 21.0494 32.9365 20.4252 32.0553 19.8744C30.8436 19.1034 29.6686 18.369 28.6771 18.5893C28.2732 18.6994 27.9061 18.9932 27.7225 19.3971C27.5389 19.6909 27.649 20.0948 27.9428 20.2784C28.2365 20.4619 28.6404 20.3518 28.824 20.058C28.824 20.058 28.824 20.058 28.824 20.0213C28.8975 19.8744 28.9709 19.8744 29.0076 19.8377C29.4482 19.7276 30.5498 20.4252 31.3576 20.9393C31.9818 21.3432 32.6061 21.7471 33.3037 22.0409C32.1287 22.8487 30.7701 23.326 29.3381 23.326C27.6123 23.3994 26.4373 23.0323 26.1436 22.7018C25.6295 22.1877 26.0334 18.9198 26.4373 17.194C26.5842 16.6432 26.9514 15.1377 27.0615 14.8807C27.1717 14.5502 27.0248 14.183 26.6943 14.0362C26.3639 13.926 25.96 14.0729 25.8498 14.4034C25.5193 15.5416 25.2623 16.5698 25.2256 16.8268C25.0053 17.7448 24.6748 18.626 24.2709 19.4705C23.4631 18.3323 21.9576 16.3127 20.8561 15.358C20.599 15.1377 20.1951 15.1744 19.9381 15.4315C19.7178 15.6885 19.7545 16.0924 20.0115 16.3494C21.2232 17.3776 23.0959 20.0213 23.61 20.7924C22.949 22.0041 22.1412 22.9955 21.26 23.2893C20.7092 23.3994 20.1584 23.326 19.6811 23.0323C19.3873 22.8487 18.9834 22.9221 18.7998 23.2159C18.6162 23.5096 18.6896 23.9135 18.9834 24.0971C19.5342 24.4276 20.5623 24.8315 21.6639 24.501C22.8756 24.1338 23.867 22.9588 24.6381 21.6002C24.6748 22.4448 24.8217 23.1791 25.1889 23.583C25.8865 24.3541 27.2818 24.6112 29.4115 24.6112C30.5865 24.5377 33.524 24.1705 35.0662 22.0776C35.1764 21.9307 35.2131 21.6737 35.1029 21.4534Z" fill="#78A93F"/>
<path d="M18.91 14.6604C18.91 14.2932 18.6162 14.0361 18.249 14.0361C17.8819 14.0361 17.6248 14.3299 17.6248 14.6971C17.6983 19.2869 17.2944 21.6736 16.2662 22.7385C15.7889 23.2158 15.0912 23.4729 14.4303 23.3994C13.8795 23.3994 13.5123 23.2525 13.3287 22.9955C12.9248 22.4447 13.2553 21.2697 13.4022 20.9025C13.549 20.5721 13.3654 20.2049 13.035 20.058C12.7045 19.9111 12.3373 20.0947 12.1904 20.4252C12.117 20.6455 11.4194 22.4814 12.2639 23.6932C12.5576 24.1338 13.1819 24.6479 14.4303 24.6479C15.4584 24.6846 16.4498 24.3174 17.1842 23.583C18.6897 22.0408 18.9467 18.9197 18.91 14.6604Z" fill="#78A93F"/>
<path d="M23.7266 45C35.6007 45 45.2266 35.3741 45.2266 23.5C45.2266 11.6259 35.6007 2 23.7266 2C11.8524 2 2.22656 11.6259 2.22656 23.5C2.22656 35.3741 11.8524 45 23.7266 45Z" fill="#C3E7C3"/>
<path d="M41.5 23.5C41.5 33.4411 33.4411 41.5 23.5 41.5C13.5589 41.5 5.5 33.4411 5.5 23.5C5.5 13.5589 13.5589 5.5 23.5 5.5C33.4411 5.5 41.5 13.5589 41.5 23.5Z" fill="#C3E7C3" stroke="#A0D1A0"/>
<path d="M33.3158 13.7073C33.097 13.151 32.4278 12.8627 31.8224 13.0643C29.7287 13.761 27.8159 15.0406 26.3938 16.8107L25.0294 18.9792C23.5691 22.0319 23.7225 25.3258 25.1147 28C28.3288 27.252 31.2534 25.1613 32.8464 22.0383C34.2617 19.2639 34.323 16.2685 33.3158 13.7073Z" fill="#72D272"/>
<path d="M30.5753 18.4322C30.2004 18.2513 29.7538 18.4106 29.5751 18.7837L28.9995 19.9828L26.8934 16.8877C26.5854 17.305 26.3127 17.7603 26.0824 18.2517C26.0526 18.3153 26.0285 18.3683 26.0005 18.4321L28.1838 21.6822L23.199 32.0673C23.191 32.0837 23.1697 32.1273 23.1032 32.1273C23.0365 32.1273 23.0153 32.0837 23.0073 32.0669L16.7001 18.9279C16.2241 17.9357 15.2055 17.2945 14.1048 17.2945C13.6903 17.2945 13.355 17.6303 13.355 18.0443C13.355 18.4584 13.6904 18.7942 14.1048 18.7942C14.632 18.7942 15.1197 19.1014 15.3483 19.5766L21.6555 32.7153C21.925 33.2778 22.4793 33.627 23.1032 33.627C23.7272 33.627 24.2815 33.2777 24.551 32.7157L30.927 19.4324C31.1063 19.0594 30.9488 18.6112 30.5753 18.4322Z" fill="#73A873" stroke="#73A873"/>
</svg>
