<svg width="58" height="60" viewBox="0 0 58 60" fill="none" xmlns="http://www.w3.org/2000/svg">
<path d="M16.4057 4.95428C22.91 2.51169 35.5694 10.3197 44.6662 16.8417C50.2161 20.82 54.1279 25.1294 53.8958 28.6982C53.0372 41.8679 36.3221 58.7535 16.0017 54.6849C5.65675 52.6131 2.78705 39.6639 3.91452 27.4569C5.00297 15.6808 8.17163 8.04965 16.4057 4.95428Z" fill="#FAB70C"/>
<path d="M28.6276 12.135C28.6276 12.135 30.051 13.4228 29.8182 14.7405C29.5854 16.0583 29.6563 18.1282 31.5044 17.957C33.3526 17.7857 33.5221 16.6208 34.6761 17.6837C35.83 18.7466 37.0222 20.9048 38.4472 21.3084C39.8721 21.712 38.7154 20.1426 40.8291 20.5712C42.9428 20.9998 45.4176 21.9603 44.9698 20.4936C44.5224 19.0242 43.5026 18.0777 39.8425 15.4901C36.1824 12.9026 26.0251 8.88286 28.6276 12.135Z" fill="#FAB70C"/>
<path d="M53.8961 28.698C54.0916 25.7017 51.3642 22.1855 47.2 18.7806C47.8632 21.0367 48.4658 25.3506 45.5992 29.9858C41.4144 36.7509 32.4443 32.7016 27.6743 38.36C22.9069 44.0187 14.0708 41.6947 10.7253 39.8397C8.50737 38.6094 5.48185 35.2315 3.69024 33.0911C3.8454 43.3838 7.24399 52.932 16.002 54.6847C36.3227 58.7507 53.0375 41.8677 53.8961 28.698Z" fill="#E1A200"/>
<path d="M32.1158 10.9729C32.1158 10.9729 28.7802 7.4971 28.6587 7.78758C28.5372 8.07807 29.4975 9.2926 29.2536 9.52981C29.0097 9.76701 23.8426 8.03137 24.6303 8.75341C25.4184 9.47286 27.511 10.6521 27.5351 11.2978C27.5589 11.946 24.731 11.5365 25.902 12.4181C27.0725 13.3024 29.075 12.3982 30.2993 13.5064C31.5266 14.6124 30.1859 17.2398 31.5321 17.024C32.8756 16.8079 33.289 15.4057 34.1993 15.8828C35.1074 16.3568 37.7777 20.4744 38.1741 20.3909C38.5704 20.3074 38.0349 17.4581 39.0609 18.0673C40.0846 18.6735 44.4214 21.7504 43.7308 20.0762C43.0403 18.402 40.8792 17.183 41.4858 16.5934C42.0924 16.0039 42.5899 15.7281 41.4317 15.0429C40.2735 14.3576 40.5691 11.4911 38.9387 11.4744C37.3083 11.4577 35.8956 12.023 35.2031 11.6724C34.5107 11.3218 33.483 7.41985 33.2143 8.5883C32.9409 9.75335 32.1158 10.9729 32.1158 10.9729Z" fill="#120610"/>
<path d="M34.5118 12.9632C34.5118 12.9632 40.0533 4.53211 41.6048 5.13614C43.1564 5.74016 43.4111 6.5861 43.0715 6.89132C42.732 7.19654 40.9096 7.32109 40.0931 7.97717C39.2765 8.63325 36.1816 13.3854 35.4522 13.522C34.7251 13.6616 34.0843 13.6013 34.5118 12.9632Z" fill="#120610"/>
<path d="M13.2787 9.9481C13.2787 9.9481 11.6545 10.0309 11.8568 12.619C12.0587 15.2097 16.1168 9.73058 13.2787 9.9481Z" fill="#120610"/>
<path d="M26.0518 25.2059C26.0518 25.2059 24.8506 25.537 24.6299 27.8769C24.4115 30.2197 28.1644 24.5582 26.0518 25.2059Z" fill="#120610"/>
<path d="M46.3677 33.5517C46.3677 33.5517 45.1877 33.9713 45.1178 36.3181C45.0479 38.6649 48.4366 32.7535 46.3677 33.5517Z" fill="#120610"/>
<path d="M19.1582 20.0275C19.1582 20.0275 18.616 18.9007 17.5245 19.9624C16.4331 21.0241 16.2571 22.4411 17.3173 22.2137C18.3772 21.989 18.9623 21.3829 19.1582 20.0275Z" fill="#120610"/>
<path d="M35.8418 31.8108C35.8569 30.8728 34.667 30.5876 34.2395 31.4175C34.224 31.4498 34.2054 31.4842 34.1894 31.5191C33.5323 32.9294 33.8559 34.3026 34.7716 33.6776C35.4646 33.2025 35.8282 32.6345 35.8418 31.8108Z" fill="#120610"/>
<path d="M9.29025 31.5422C9.29025 31.5422 8.00738 32.042 8.33037 34.4327C8.65635 36.8212 11.5281 30.5966 9.29025 31.5422Z" fill="#120610"/>
<path d="M21.5452 44.8229C21.5452 44.8229 20.3133 44.9709 19.7884 47.2617C19.2639 49.5499 23.7155 44.4957 21.5452 44.8229Z" fill="#120610"/>
<path d="M38.9154 45.5709C38.9154 45.5709 37.8198 46.2058 38.1412 48.519C38.4623 50.8348 40.824 44.3913 38.9154 45.5709Z" fill="#120610"/>
<path d="M16.3415 39.6519C16.3415 39.6519 15.6174 38.6518 14.7161 39.8997C13.8143 41.1501 13.8774 42.5716 14.8877 42.1475C15.898 41.7233 16.3757 41.0183 16.3415 39.6519Z" fill="#120610"/>
<path d="M14.1268 41.1879C13.9785 41.9165 14.2345 42.4217 14.8892 42.1459C15.2422 41.9972 15.5314 41.8122 15.7563 41.5774C15.1923 41.4675 14.645 41.3361 14.1268 41.1879Z" fill="#120610"/>
<path d="M29.8306 44.7628C29.6888 43.8408 28.4662 43.7877 28.1834 44.6823C28.1726 44.7179 28.1618 44.7536 28.1507 44.7919C27.7344 46.3001 28.2844 47.5853 29.0866 46.7965C29.6918 46.1988 29.9549 45.5729 29.8306 44.7628Z" fill="#120610"/>
<path d="M10.4195 42.8131C10.2776 41.8911 9.05504 41.838 8.77222 42.7326C8.76146 42.7682 8.7507 42.8039 8.73954 42.8421C8.32326 44.3504 8.8733 45.6356 9.67543 44.8468C10.2806 44.249 10.5464 43.6236 10.4195 42.8131Z" fill="#120610"/>
<path d="M11.0264 20.1322C11.0264 20.1322 9.40613 20.3116 9.74419 22.8831C10.0849 25.4549 13.8527 19.7478 11.0264 20.1322Z" fill="#120610"/>
<path d="M26.1205 35.0789C26.1205 35.0789 24.935 35.4816 24.8382 37.8297C24.7419 40.1752 28.1962 34.3057 26.1205 35.0789Z" fill="#120610"/>
<path d="M46.6133 40.5706C46.6133 40.5706 45.6284 40.9853 45.6731 42.982C45.7179 44.9787 48.3364 39.7863 46.6133 40.5706Z" fill="#120610"/>
<path d="M17.4335 29.8307C17.4335 29.8307 16.8325 28.7401 15.7956 29.8634C14.7583 30.9893 14.6586 32.4126 15.7071 32.1222C16.7579 31.8348 17.3109 31.1945 17.4335 29.8307Z" fill="#120610"/>
<path d="M37.2132 40.9593C37.1772 40.0241 35.9736 39.8114 35.5906 40.6641C35.575 40.6964 35.5617 40.7316 35.5457 40.7665C34.9632 42.2121 35.3591 43.5644 36.2407 42.8836C36.9103 42.3702 37.2454 41.7793 37.2132 40.9593Z" fill="#120610"/>
<path d="M23.7629 50.9574C24.0271 50.0626 23.2769 49.602 22.7505 50.3289C22.7302 50.3578 22.7098 50.3867 22.689 50.4181C21.8439 51.6639 21.6967 53.032 22.5069 52.5747C23.1191 52.2284 23.5288 51.7421 23.7629 50.9574Z" fill="#120610"/>
<path d="M15.8605 49.7024C15.9787 48.7694 14.833 48.3338 14.3186 49.1052C14.2982 49.134 14.2774 49.1655 14.2588 49.2C13.4481 50.5176 13.6141 51.928 14.5942 51.4221C15.3318 51.039 15.7546 50.52 15.8605 49.7024Z" fill="#120610"/>
</svg>
