<svg width="15" height="21" viewBox="0 0 15 21" fill="none" xmlns="http://www.w3.org/2000/svg">
<path d="M14.9374 13.1477C14.9372 13.1456 14.9371 13.1435 14.9369 13.1415C14.8737 12.2654 14.7122 11.5214 14.4289 10.8029C14.4251 10.792 14.421 10.7812 14.4165 10.7705C14.4003 10.7315 12.8082 6.8472 13.5537 4.71253C13.621 4.51994 13.5883 4.30656 13.4666 4.14284C13.3449 3.97912 13.1503 3.88662 12.9463 3.89531C12.8916 3.89769 11.778 3.95948 10.5968 4.99872C9.56304 2.86574 9.39981 0.599699 9.39812 0.574974C9.38414 0.360655 9.25941 0.169215 9.06904 0.0698248C8.87862 -0.029606 8.65028 -0.0223896 8.46643 0.0885629C6.83502 1.07401 5.57473 2.27666 4.72061 3.66315C4.03095 4.7826 3.60567 6.01911 3.45655 7.33836C3.367 8.13082 3.38828 8.85553 3.45433 9.46434C3.48492 9.74639 3.20319 9.95846 2.94061 9.85107L1.35739 9.20336C1.24947 9.1592 1.13138 9.14083 1.01625 9.15936C0.773841 9.1984 0.584984 9.37233 0.520323 9.59735C0.37665 10.0971 0.26906 10.5591 0.19136 11.0095C-0.0790917 12.5783 0.0315739 14.185 0.511261 15.6561C0.993532 17.135 1.82576 18.4086 2.91798 19.3391C4.20878 20.4389 5.77191 20.9988 7.47646 20.9988C8.41702 20.9988 9.40071 20.8283 10.4053 20.4839C11.9989 19.9377 13.2609 18.8558 14.055 17.3553C14.7149 16.108 15.0283 14.6137 14.9374 13.1477Z" fill="#FF7373"/>
<path d="M14.9363 13.1415C14.8732 12.2654 14.7116 11.5214 14.4283 10.8029C14.4245 10.792 14.4204 10.7812 14.4159 10.7705C14.3997 10.7315 12.8076 6.8472 13.5531 4.71253C13.6204 4.51994 13.5877 4.30656 13.466 4.14284C13.3443 3.97912 13.1497 3.88662 12.9457 3.89531C12.8972 3.8974 12.0141 3.94636 10.99 4.68444C10.778 4.8373 10.478 4.75365 10.3761 4.51293C9.5387 2.53542 9.39909 0.597813 9.39753 0.574974C9.38355 0.360655 9.25882 0.169215 9.06844 0.0698248C8.87803 -0.029606 8.64969 -0.0223896 8.46583 0.0885629C8.14068 0.284964 7.83054 0.490141 7.53516 0.703517V20.9981C8.45775 20.9911 9.4211 20.821 10.4046 20.4839C11.9982 19.9377 13.2602 18.8558 14.0543 17.3553C14.7144 16.108 15.0277 14.6137 14.9368 13.1477C14.9366 13.1456 14.9365 13.1435 14.9363 13.1415Z" fill="#F95A5A"/>
<path d="M9.16469 10.6634C9.00921 10.4315 8.71703 10.3331 8.45305 10.4244C8.18908 10.5156 8.01966 10.7731 8.04045 11.0516C8.1138 12.0346 8.01552 14.9253 6.64825 15.3001C5.48431 15.6194 4.86346 15.0803 4.80314 15.0244C4.65221 14.8598 4.43068 14.7975 4.21312 14.8496C3.99408 14.9023 3.82851 15.0782 3.77009 15.2957C3.75848 15.3389 3.65557 15.7246 3.61219 15.9759C3.33403 17.5896 3.86152 19.1887 4.98888 20.1492C5.65013 20.7126 6.44767 20.9994 7.31474 20.9994C7.78775 20.9994 8.28158 20.914 8.78489 20.7414C9.59587 20.4635 10.2893 19.8754 10.7902 19.0409C11.2092 18.3428 11.4529 17.5283 11.4588 16.8062C11.4738 14.9484 10.7663 13.0539 9.16469 10.6634Z" fill="#FFEB00"/>
<path d="M8.45242 10.4244C8.18845 10.5156 8.01903 10.7731 8.03981 11.0516C8.09217 11.7533 8.05691 13.427 7.53516 14.4638V20.9926C7.94026 20.9702 8.35881 20.8874 8.78429 20.7415C9.59528 20.4635 10.2887 19.8755 10.7896 19.0409C11.2086 18.3429 11.4523 17.5284 11.4582 16.8063C11.4732 14.9484 10.7657 13.0539 9.1641 10.6634C9.00858 10.4315 8.71639 10.3331 8.45242 10.4244Z" fill="#FFBB00"/>
</svg>
