<svg width="19" height="19" viewBox="0 0 19 19" fill="none" xmlns="http://www.w3.org/2000/svg">
<path d="M0 0V19H19V0H0ZM8.43426 5.0805C8.97223 5.07493 9.49842 5.13458 9.75512 5.14197C10.7067 5.16936 10.8748 5.65065 10.8626 6.04651C10.8448 6.62628 10.4718 9.07875 11.163 9.31793C12.1701 8.77938 12.8455 7.10667 13.3373 6.04651C13.5861 5.51027 13.5468 5.48362 14.1201 5.48291L16.3977 5.47943C16.9462 5.47874 16.9248 5.45951 17.1005 5.68353C17.5091 6.20458 15.8109 8.37194 15.2624 8.9712C14.2502 10.0771 14.8407 10.5054 15.0038 10.6574C15.7592 11.3617 16.4891 12.092 16.9427 12.7656C17.3034 13.3011 17.1544 13.7997 16.6957 13.8186L14.2535 13.9195C13.443 13.9528 12.1828 12.5 11.9817 12.1835C11.819 11.9224 11.035 11.5951 10.9612 12.2623L10.8579 13.1935C10.783 13.8592 10.2915 13.8436 9.90356 13.8603C7.21713 13.9759 6.30227 12.9531 4.94944 11.4435C3.95794 10.0413 3.01175 8.63108 2.2277 6.94171C1.99302 6.43603 1.86871 6.06507 1.83689 5.67188C2.23139 5.36354 3.61613 5.49635 4.54588 5.47589C4.80018 5.47029 4.97176 5.616 5.106 5.90613C5.62978 7.03842 6.20101 8.15033 6.95683 9.13349C7.28599 9.43667 7.57698 9.54815 7.72222 8.93173C7.80655 8.92397 7.79977 7.90313 7.80455 7.13306C7.80783 6.60432 7.74571 5.97024 6.85015 5.67767C7.0313 5.20285 7.7426 5.08768 8.43426 5.0805Z" fill="#3F4042"/>
</svg>
