<svg width="19" height="19" viewBox="0 0 19 19" fill="none" xmlns="http://www.w3.org/2000/svg">
<path d="M7.81205 6.11883C7.81205 5.18688 8.57121 4.43204 9.5 4.43204C10.4288 4.43204 11.1879 5.18688 11.1879 6.11883C11.1879 7.04656 10.4288 7.79719 9.5 7.79719C8.57121 7.79719 7.81205 7.04235 7.81205 6.11883ZM19 2.02415V16.8679C19 17.9854 18.0882 18.892 16.9643 18.892H2.03571C0.91183 18.892 0 17.9854 0 16.8679V2.02415C0 0.90665 0.91183 0 2.03571 0H16.9643C18.0882 0 19 0.90665 19 2.02415ZM6.06049 6.11883C6.06049 7.9996 7.60424 9.53036 9.5 9.53036C11.3958 9.53036 12.9395 8.00382 12.9395 6.11883C12.9395 4.22963 11.3958 2.69886 9.5 2.69886C7.60424 2.69886 6.06049 4.22541 6.06049 6.11883ZM13.4612 9.94363C13.2661 9.55988 12.7275 9.23518 12.015 9.79182C12.015 9.79182 11.0522 10.5509 9.5 10.5509C7.94777 10.5509 6.98504 9.79182 6.98504 9.79182C6.27254 9.23518 5.73393 9.55988 5.53884 9.94363C5.20379 10.6226 5.58549 10.943 6.44643 11.5039C7.18013 11.972 8.19375 12.1449 8.84688 12.2124L8.29978 12.7563C7.5279 13.5154 6.7942 14.2534 6.27679 14.7678C5.53036 15.51 6.73058 16.6992 7.48125 15.9739L9.50424 13.954C10.2761 14.7215 11.0183 15.4594 11.5272 15.9739C12.2737 16.6992 13.4781 15.5227 12.7402 14.7678L10.7172 12.7563L10.1658 12.2124C10.8232 12.1449 11.8241 11.9636 12.5493 11.5039C13.4145 10.943 13.792 10.6183 13.4612 9.94363Z" fill="#3F4042"/>
</svg>
