<svg width="19" height="19" viewBox="0 0 19 19" fill="none" xmlns="http://www.w3.org/2000/svg">
<path fill-rule="evenodd" clip-rule="evenodd" d="M12.3376 5.18186C13.1553 5.18186 13.8181 5.84471 13.8181 6.66238V15.7923C13.8181 16.6099 13.1553 17.2728 12.3376 17.2728H3.20775C2.39008 17.2728 1.72723 16.6099 1.72723 15.7923V6.66238C1.72723 5.84471 2.39008 5.18186 3.20775 5.18186H12.3376ZM15.5454 6.66238C15.5454 4.89077 14.1092 3.45459 12.3376 3.45459H3.20775C1.43613 3.45459 -4.3869e-05 4.89077 -4.3869e-05 6.66238V15.7923C-4.3869e-05 17.5639 1.43613 19 3.20775 19H12.3376C14.1092 19 15.5454 17.5639 15.5454 15.7923V6.66238Z" fill="#3F4042"/>
<path fill-rule="evenodd" clip-rule="evenodd" d="M15.5043 0H6.61875C5.78029 0.00238888 4.97685 0.336526 4.38396 0.929413C3.79107 1.5223 3.45693 2.32574 3.45455 3.16421L3.45473 3.18465L3.4753 4.17167C3.48523 4.64854 3.87986 5.02706 4.35673 5.01713C4.8336 5.00719 5.21213 4.61256 5.20219 4.13569L5.18187 3.16008C5.18531 2.78128 5.33729 2.41881 5.60532 2.15078C5.87523 1.88087 6.24091 1.72864 6.62258 1.72727H15.5029C15.9718 1.72896 16.421 1.91595 16.7525 2.2475C17.084 2.57905 17.271 3.02823 17.2727 3.49708V12.3774C17.2714 12.7591 17.1191 13.1248 16.8492 13.3947C16.5794 13.6645 16.2137 13.8168 15.8321 13.8182H14.8463C14.3693 13.8182 13.9827 14.2048 13.9827 14.6818C13.9827 15.1588 14.3693 15.5455 14.8463 15.5455H15.8333L15.8358 15.5455C16.6743 15.5431 17.4777 15.2089 18.0706 14.616C18.6635 14.0232 18.9976 13.2197 19 12.3812L19 12.3788V3.49312C18.9973 2.56753 18.6284 1.68063 17.9739 1.02614C17.3194 0.371642 16.4325 0.00273944 15.5069 3.7578e-06L15.5043 0Z" fill="#3F4042"/>
</svg>
