<svg width="37" height="26" viewBox="0 0 37 26" fill="none" xmlns="http://www.w3.org/2000/svg">
<circle cx="20" cy="13" r="13" fill="#FAB70C"/>
<path d="M1.33496 3.17428C2.34682 3.3864 3.13767 4.17728 3.34976 5.18911C3.39065 5.38418 3.56268 5.52393 3.76202 5.52393C3.96134 5.52393 4.1334 5.38423 4.17428 5.18913C4.3864 4.17728 5.17725 3.38642 6.18911 3.17433C6.38418 3.13345 6.52393 2.96139 6.52393 2.76207C6.52393 2.56275 6.3842 2.39072 6.18911 2.34981C5.17728 2.13769 4.38642 1.34684 4.17433 0.334987C4.13345 0.139917 3.96142 0.000167847 3.76207 0.000167847C3.56275 0.000167847 3.3907 0.139866 3.34981 0.334987C3.13767 1.34684 2.34682 2.1377 1.33499 2.34976C1.13992 2.39067 1.00017 2.5627 1.00017 2.76202C1.00017 2.96134 1.13989 3.1334 1.33496 3.17428Z" fill="#FFB800"/>
<path d="M0.213584 11.0249C0.859105 11.1603 1.36364 11.6648 1.49894 12.3103C1.52502 12.4348 1.63477 12.5239 1.76195 12.5239C1.8891 12.5239 1.99887 12.4348 2.02495 12.3103C2.16027 11.6648 2.6648 11.1603 3.31033 11.025C3.43477 10.9989 3.52393 10.8891 3.52393 10.762C3.52393 10.6348 3.43479 10.5251 3.31033 10.499C2.66482 10.3637 2.16029 9.85912 2.02498 9.2136C1.9989 9.08915 1.88915 9 1.76198 9C1.63482 9 1.52506 9.08912 1.49898 9.2136C1.36364 9.85912 0.859106 10.3637 0.213601 10.4989C0.0891542 10.525 0 10.6348 0 10.7619C0 10.8891 0.0891378 10.9989 0.213584 11.0249Z" fill="#FFB800"/>
<path d="M33.2136 23.0249C33.8591 23.1603 34.3636 23.6648 34.4989 24.3103C34.525 24.4348 34.6348 24.5239 34.7619 24.5239C34.8891 24.5239 34.9989 24.4348 35.025 24.3103C35.1603 23.6648 35.6648 23.1603 36.3103 23.025C36.4348 22.9989 36.5239 22.8891 36.5239 22.762C36.5239 22.6348 36.4348 22.5251 36.3103 22.499C35.6648 22.3637 35.1603 21.8591 35.025 21.2136C34.9989 21.0892 34.8892 21 34.762 21C34.6348 21 34.5251 21.0891 34.499 21.2136C34.3636 21.8591 33.8591 22.3637 33.2136 22.4989C33.0892 22.525 33 22.6348 33 22.7619C33 22.8891 33.0891 22.9989 33.2136 23.0249Z" fill="#FFB800"/>
<path d="M21.5246 10.2598C21.5246 9.01777 22.5354 8.00699 23.7779 8.00699C25.0199 8.00699 26.0306 9.01752 26.0306 10.2598C26.0306 10.6173 25.7409 10.907 25.3834 10.907C25.0258 10.907 24.7361 10.6173 24.7361 10.2598C24.7361 9.73133 24.3063 9.30154 23.7779 9.30154C23.2492 9.30154 22.8191 9.73133 22.8191 10.2598C22.8191 10.6173 22.5294 10.907 22.1718 10.907C21.8143 10.907 21.5246 10.6171 21.5246 10.2598ZM14.3468 10.2528C14.3468 9.01078 15.3576 8 16.6001 8C17.8421 8 18.8529 9.01052 18.8529 10.2528C18.8529 10.6103 18.5632 10.9 18.2056 10.9C17.8481 10.9 17.5583 10.6103 17.5583 10.2528C17.5583 9.72434 17.1285 9.29455 16.6001 9.29455C16.0714 9.29455 15.6414 9.72434 15.6414 10.2528C15.6414 10.6103 15.3516 10.9 14.9941 10.9C14.6365 10.9 14.3468 10.6103 14.3468 10.2528ZM14.0597 15.1935C13.895 14.7974 14.0827 14.3427 14.4791 14.1783C14.5765 14.1379 14.6774 14.1188 14.7769 14.1188C15.0813 14.1188 15.3703 14.299 15.4943 14.598C16.2133 16.3288 17.9941 17.4471 20.0312 17.4471C22.0222 17.4471 23.7926 16.3283 24.5416 14.5962C24.712 14.2024 25.1692 14.0206 25.5625 14.1915C25.9563 14.3619 26.1376 14.8189 25.9672 15.2127C24.9727 17.5133 22.6425 19 20.0312 19C17.3642 19.0003 15.0202 17.5061 14.0597 15.1935Z" fill="white"/>
</svg>
