<svg width="28" height="37" viewBox="0 0 28 37" fill="none" xmlns="http://www.w3.org/2000/svg">
<g clip-path="url(#clip0)">
<g clip-path="url(#clip1)">
<path d="M19.156 32.4082C18.4726 31.0992 17.1059 30.1144 15.9467 29.1898C14.7874 28.2651 13.5793 27.3524 12.7617 26.1274C11.9441 24.9025 11.5781 23.2693 12.237 21.9483C12.8471 20.7474 14.2383 20.0269 15.605 20.0509C16.9717 20.0749 18.2652 21.1197 19.1682 22.1284C20.0712 21.1197 21.3647 20.0869 22.7314 20.0509C24.0981 20.0269 25.4893 20.7474 26.0994 21.9483C26.7584 23.2693 26.3923 24.8905 25.5747 26.1274C24.7571 27.3524 23.549 28.2651 22.3898 29.1898C21.2061 30.1265 19.8394 31.1112 19.156 32.4082Z" fill="#FF7373"/>
<path d="M17.8384 12.5243C18.7057 12.3424 19.3836 11.6645 19.5654 10.7972C19.6004 10.63 19.7479 10.5103 19.9188 10.5103C20.0896 10.5103 20.2371 10.63 20.2721 10.7972C20.4539 11.6645 21.1318 12.3424 21.9991 12.5242C22.1663 12.5593 22.2861 12.7067 22.2861 12.8776C22.2861 13.0484 22.1664 13.1959 21.9991 13.2309C21.1319 13.4128 20.454 14.0906 20.2722 14.958C20.2371 15.1252 20.0897 15.2449 19.9188 15.2449C19.748 15.2449 19.6005 15.1252 19.5654 14.958C19.3836 14.0906 18.7057 13.4128 17.8384 13.231C17.6712 13.1959 17.5514 13.0485 17.5514 12.8776C17.5514 12.7068 17.6712 12.5593 17.8384 12.5243Z" fill="#FFB800"/>
<path d="M24.1693 9.48963C24.4945 9.42144 24.7487 9.16723 24.8169 8.842C24.83 8.77929 24.8853 8.73437 24.9494 8.73437C25.0135 8.73437 25.0688 8.77928 25.0819 8.84199C25.1501 9.16723 25.4043 9.42144 25.7295 9.48961C25.7922 9.50275 25.8372 9.55805 25.8372 9.62212C25.8372 9.68619 25.7922 9.74149 25.7295 9.75463C25.4043 9.82282 25.1501 10.077 25.0819 10.4023C25.0688 10.465 25.0135 10.5099 24.9494 10.5099C24.8853 10.5099 24.83 10.465 24.8169 10.4023C24.7487 10.077 24.4945 9.82282 24.1693 9.75465C24.1066 9.7415 24.0616 9.68621 24.0616 9.62214C24.0616 9.55807 24.1066 9.50277 24.1693 9.48963Z" fill="#FFB800"/>
<path d="M12.1541 7.57958L12.325 6.15051C12.3616 5.97037 12.2273 5.80225 12.0321 5.80225H10.3237H7.61468C7.43163 5.80225 7.2852 5.97037 7.32181 6.15051L7.49265 7.57958" stroke="#3F4042" stroke-width="0.946939" stroke-miterlimit="10" stroke-linecap="round" stroke-linejoin="round"/>
<path d="M14.9852 29.8445C14.912 29.9526 14.8021 30.0487 14.6801 30.1087C14.0089 30.4089 12.4836 30.9013 9.83558 30.9013C7.18757 30.9013 5.66222 30.4089 4.99106 30.1087C4.7348 29.9886 4.56396 29.7484 4.56396 29.4602V18.0877C4.56396 16.2743 5.51578 14.593 5.51578 14.593C7.19977 11.6508 7.43163 9.12891 7.43163 9.12891H12.2151C12.2151 9.12891 12.4592 11.6508 14.131 14.605C14.131 14.605 15.0828 16.2863 15.0828 18.0997V18.8322" stroke="#3F4042" stroke-width="0.946939" stroke-miterlimit="10" stroke-linecap="round" stroke-linejoin="round"/>
<path d="M4.56396 19.793C7.41942 20.2373 10.3115 20.3214 13.1792 20.0332" stroke="#3F4042" stroke-width="0.946939" stroke-miterlimit="10" stroke-linecap="round" stroke-linejoin="round"/>
<path d="M11.5562 25.725C9.22544 25.8451 6.8825 25.725 4.56396 25.3647" stroke="#3F4042" stroke-width="0.946939" stroke-miterlimit="10" stroke-linecap="round" stroke-linejoin="round"/>
</g>
</g>
<defs>
<clipPath id="clip0">
<rect width="28" height="37" fill="white"/>
</clipPath>
<clipPath id="clip1">
<rect width="22.4898" height="27.2245" fill="white" transform="translate(3.93872 5.18359)"/>
</clipPath>
</defs>
</svg>
