<svg width="28" height="37" viewBox="0 0 28 37" fill="none" xmlns="http://www.w3.org/2000/svg">
<g clip-path="url(#clip0)">
<path d="M19.2306 21.1245C19.2306 21.1245 16.6176 23.7645 16.6176 28.0986H14.8074H12.1068C12.1068 24.6539 10.8222 22.5363 9.93176 21.4633" stroke="#3F4042" stroke-width="0.832" stroke-miterlimit="10" stroke-linecap="round" stroke-linejoin="round"/>
<path d="M17.376 19.2624C17.1864 18.8445 17.0844 18.3819 17.0844 17.8894C17.0844 17.2327 17.2739 16.6059 17.5948 16.0835" stroke="#3F4042" stroke-width="0.832" stroke-miterlimit="10" stroke-linecap="round" stroke-linejoin="round"/>
<path d="M21.2912 14.8917C21.3613 14.6617 21.4034 14.4174 21.4034 14.1586C21.4034 12.8936 20.4069 11.8729 19.1717 11.8729C18.863 11.8729 18.5822 11.9304 18.3156 12.0454C17.3611 10.5216 15.6768 9.50098 13.7539 9.50098C12.2661 9.50098 10.9187 10.1191 9.9502 11.0966C9.7537 11.0535 9.54317 11.0248 9.31859 11.0248C7.64833 11.0248 6.28685 12.4192 6.28685 14.1299C6.28685 14.288 6.30089 14.4461 6.31493 14.6042C5.33242 15.3086 4.70081 16.473 4.70081 17.7956C4.70081 19.9519 6.41318 21.7057 8.51855 21.7057C9.76774 21.7057 10.7362 21.2025 11.438 20.2394C12.0977 20.5413 12.7995 20.5988 13.7399 20.5988C15.0873 20.5988 16.3084 20.0956 17.2488 19.2762C17.7541 20.3831 18.8489 21.1594 20.1262 21.1594C21.8807 21.1594 23.2983 19.7075 23.2983 17.9106C23.3123 16.5449 22.4842 15.3661 21.2912 14.8917Z" stroke="#3F4042" stroke-width="0.832" stroke-miterlimit="10" stroke-linecap="round" stroke-linejoin="round"/>
<path d="M8.45204 20.5436C7.02958 20.5436 5.86316 19.3344 5.86316 17.8598C5.86316 16.9897 6.27567 16.1639 6.95845 15.6626L7.59856 15.1907L7.48476 14.3796C7.47054 14.2912 7.47054 14.1879 7.47054 14.0995C7.47054 13.082 8.26712 12.2414 9.26284 12.2414C9.39086 12.2414 9.50466 12.2562 9.63268 12.2857L10.3012 12.4331L10.7849 11.9318C11.5814 11.1207 12.6341 10.6636 13.7436 10.6636C15.1803 10.6636 16.5032 11.4156 17.2855 12.6691L17.8687 13.5981L18.8644 13.1704C18.9782 13.1115 19.1063 13.0967 19.2485 13.0967C19.789 13.0967 20.23 13.5538 20.23 14.1142C20.23 14.2174 20.2158 14.3354 20.1731 14.4386L19.7748 15.6331L20.9128 16.0902C21.6667 16.3851 22.1361 17.1224 22.1361 17.9482C22.1361 19.0542 21.2684 19.9537 20.2016 19.9537C19.4477 19.9537 18.7649 19.4966 18.4519 18.7888L17.7407 17.1962L16.4605 18.3316C15.6924 19.01 14.7251 19.3786 13.7294 19.3786C12.7905 19.3786 12.3211 19.3196 11.9086 19.1279L10.984 18.7003L10.3724 19.5408C9.91717 20.2339 9.29129 20.5436 8.45204 20.5436Z" fill="#7ABC2F"/>
<path d="M8.57927 19.1653L7.41256 17.3665" stroke="white" stroke-width="0.832" stroke-miterlimit="10" stroke-linecap="round"/>
</g>
<path d="M25.2194 27.1079C24.5526 26.9681 24.0315 26.447 23.8917 25.7802C23.8648 25.6517 23.7514 25.5596 23.6201 25.5596C23.4887 25.5596 23.3753 25.6516 23.3484 25.7802C23.2086 26.447 22.6875 26.9681 22.0207 27.1079C21.8921 27.1348 21.8 27.2482 21.8 27.3796C21.8 27.5109 21.8921 27.6243 22.0207 27.6512C22.6875 27.791 23.2086 28.3122 23.3484 28.9789C23.3753 29.1075 23.4887 29.1996 23.62 29.1996C23.7514 29.1996 23.8648 29.1075 23.8917 28.9789C24.0315 28.3122 24.5526 27.791 25.2194 27.6513C25.348 27.6243 25.44 27.5109 25.44 27.3796C25.44 27.2482 25.348 27.1349 25.2194 27.1079Z" fill="#FFB800"/>
<path d="M25.8655 24.1436C25.5797 24.0837 25.3564 23.8603 25.2965 23.5745C25.2849 23.5194 25.2363 23.48 25.18 23.48C25.1237 23.48 25.0751 23.5194 25.0636 23.5745C25.0037 23.8603 24.7803 24.0836 24.4946 24.1435C24.4395 24.1551 24.4 24.2037 24.4 24.26C24.4 24.3163 24.4395 24.3648 24.4946 24.3764C24.7803 24.4363 25.0037 24.6597 25.0636 24.9454C25.0751 25.0005 25.1237 25.04 25.18 25.04C25.2363 25.04 25.2849 25.0005 25.2964 24.9454C25.3564 24.6597 25.5797 24.4363 25.8655 24.3764C25.9206 24.3649 25.96 24.3163 25.96 24.26C25.96 24.2037 25.9206 24.1551 25.8655 24.1436Z" fill="#FFB800"/>
<path d="M4.97094 9.72706C4.39941 9.60725 3.95271 9.16053 3.83291 8.58902C3.80982 8.47884 3.71265 8.3999 3.60005 8.3999C3.48747 8.3999 3.39029 8.47881 3.3672 8.589C3.24738 9.16053 2.80069 9.60723 2.22916 9.72703C2.11897 9.75012 2.04004 9.84731 2.04004 9.95989C2.04004 10.0725 2.11896 10.1696 2.22916 10.1927C2.80067 10.3126 3.24737 10.7593 3.36717 11.3308C3.39026 11.441 3.48743 11.5199 3.60002 11.5199C3.71261 11.5199 3.80979 11.441 3.83288 11.3308C3.95271 10.7593 4.39941 10.3126 4.97092 10.1928C5.0811 10.1697 5.16004 10.0725 5.16004 9.95992C5.16004 9.84733 5.08112 9.75015 4.97094 9.72706Z" fill="#FFB800"/>
<defs>
<clipPath id="clip0">
<rect width="19.76" height="19.76" fill="white" transform="translate(4.12 8.91992)"/>
</clipPath>
</defs>
</svg>
