<svg width="25" height="25" viewBox="0 0 25 25" fill="none" xmlns="http://www.w3.org/2000/svg">
<path d="M22.0161 7.18874C21.7058 6.4669 21.2584 5.81277 20.6988 5.26298C20.1389 4.71154 19.4787 4.27332 18.7542 3.97215C18.0029 3.65862 17.1971 3.49814 16.3835 3.50002C15.2422 3.50002 14.1286 3.814 13.1609 4.40708C12.9294 4.54895 12.7095 4.70478 12.5011 4.87457C12.2928 4.70478 12.0729 4.54895 11.8413 4.40708C10.8736 3.814 9.76009 3.50002 8.61876 3.50002C7.7969 3.50002 7.00052 3.65817 6.24811 3.97215C5.52118 4.27451 4.86601 4.70943 4.30345 5.26298C3.74319 5.81215 3.29564 6.46643 2.98617 7.18874C2.66437 7.93998 2.5 8.73773 2.5 9.55874C2.5 10.3332 2.65743 11.1403 2.96996 11.9613C3.23157 12.6474 3.60661 13.3591 4.08583 14.0778C4.84518 15.2151 5.88928 16.4013 7.18572 17.6037C9.33412 19.5969 11.4617 20.9738 11.552 21.0296L12.1006 21.3831C12.3437 21.539 12.6563 21.539 12.8993 21.3831L13.448 21.0296C13.5383 20.9715 15.6635 19.5969 17.8143 17.6037C19.1107 16.4013 20.1548 15.2151 20.9141 14.0778C21.3934 13.3591 21.7707 12.6474 22.03 11.9613C22.3425 11.1403 22.5 10.3332 22.5 9.55874C22.5023 8.73773 22.3379 7.93998 22.0161 7.18874Z" fill="white" fill-opacity="0.6"/>
<path d="M22.0161 7.18874C21.7058 6.4669 21.2584 5.81277 20.6988 5.26298C20.1389 4.71154 19.4787 4.27333 18.7542 3.97215C18.0029 3.65862 17.1971 3.49814 16.3835 3.50002C15.2422 3.50002 14.1286 3.814 13.1609 4.40708C12.9294 4.54895 12.7095 4.70478 12.5011 4.87457C12.2928 4.70478 12.0729 4.54895 11.8413 4.40708C10.8736 3.814 9.76009 3.50002 8.61876 3.50002C7.7969 3.50002 7.00052 3.65817 6.24811 3.97215C5.52118 4.27451 4.86601 4.70943 4.30345 5.26298C3.74319 5.81215 3.29564 6.46643 2.98617 7.18874C2.66437 7.93998 2.5 8.73773 2.5 9.55874C2.5 10.3332 2.65743 11.1403 2.96996 11.9613C3.23157 12.6474 3.60661 13.3591 4.08583 14.0778C4.84518 15.2151 5.88928 16.4013 7.18572 17.6037C9.33412 19.5969 11.4617 20.9738 11.552 21.0296L12.1006 21.3831C12.3437 21.539 12.6563 21.539 12.8993 21.3831L13.448 21.0296C13.5383 20.9715 15.6635 19.5969 17.8143 17.6037C19.1107 16.4013 20.1548 15.2151 20.9141 14.0778C21.3934 13.3591 21.7707 12.6474 22.03 11.9613C22.3425 11.1403 22.5 10.3332 22.5 9.55874C22.5023 8.73773 22.3379 7.93998 22.0161 7.18874V7.18874ZM12.5011 19.5434C12.5011 19.5434 4.25946 14.2383 4.25946 9.55874C4.25946 7.18874 6.21107 5.26763 8.61876 5.26763C10.3111 5.26763 11.7788 6.21656 12.5011 7.60274C13.2235 6.21656 14.6912 5.26763 16.3835 5.26763C18.7912 5.26763 20.7428 7.18874 20.7428 9.55874C20.7428 14.2383 12.5011 19.5434 12.5011 19.5434Z" fill="#9DA3AE"/>
</svg>
