<svg width="12" height="12" viewBox="0 0 12 12" fill="none" xmlns="http://www.w3.org/2000/svg">
<path d="M6 0C2.6862 0 0 2.68631 0 6C0 9.31369 2.6862 12 6 12C9.31377 12 12 9.31369 12 6C12 2.68631 9.31377 0 6 0ZM5.98705 9.93921C5.54326 9.93921 5.18224 9.57815 5.18224 9.13437C5.18224 8.69061 5.54326 8.32955 5.98705 8.32955C6.43087 8.32955 6.79197 8.69058 6.79197 9.13437C6.79197 9.57815 6.43087 9.93921 5.98705 9.93921ZM7.24789 5.98796C6.90004 6.31341 6.67024 6.52839 6.67024 7.04898V7.43407C6.67024 7.53152 6.59125 7.61054 6.49377 7.61054H5.53652C5.43904 7.61054 5.36005 7.53152 5.36005 7.43407V7.04898C5.36005 5.97981 5.91572 5.45806 6.32142 5.07709C6.66678 4.75313 6.89488 4.53914 6.89488 4.02611C6.89488 3.86407 6.89488 3.37098 6.01518 3.37098C5.19035 3.37098 5.15732 3.82567 5.14324 4.01982L5.11454 4.41462C5.11105 4.46213 5.08857 4.50625 5.05204 4.53688C5.01565 4.56759 4.96832 4.58213 4.92092 4.5774L3.96618 4.48186C3.87088 4.47233 3.80061 4.38851 3.80778 4.293L3.83598 3.91842C3.92104 2.78993 4.78006 2.06075 6.02442 2.06075C6.67518 2.06075 7.22273 2.24344 7.60789 2.58904C7.99846 2.93954 8.205 3.43969 8.205 4.03539C8.20507 5.09171 7.65184 5.60972 7.24789 5.98796Z" fill="#676767"/>
</svg>
