<svg viewBox="0 0 306 248" fill="none" xmlns="http://www.w3.org/2000/svg">
<path d="M52.1695 93.9405C50.7832 94.5796 49.1409 93.9729 48.5012 92.5854C47.8616 91.1979 48.4669 89.5551 49.8532 88.916C51.2395 88.2769 52.8818 88.8836 53.5214 90.2711C54.1611 91.6585 53.5558 93.3014 52.1695 93.9405Z" fill="#FAB70C"/>
<path d="M158.418 38.8545C156.696 39.6482 154.656 38.8948 153.862 37.1717C153.068 35.4487 153.819 33.4084 155.541 32.6148C157.263 31.8211 159.302 32.5746 160.096 34.2976C160.891 36.0207 160.139 38.0609 158.418 38.8545Z" fill="#FAB70C"/>
<path d="M25.6812 60.6354C24.6652 60.8412 23.6743 60.1839 23.4679 59.1673C23.2616 58.1506 23.9179 57.1596 24.9339 56.9538C25.9498 56.7479 26.9407 57.4052 27.1471 58.4219C27.3535 59.4385 26.6972 60.4295 25.6812 60.6354Z" fill="#FAB70C"/>
<path d="M248.543 68.7184C247.527 68.9242 246.536 68.2669 246.329 67.2503C246.123 66.2336 246.779 65.2426 247.795 65.0368C248.811 64.8309 249.802 65.4882 250.008 66.5049C250.215 67.5215 249.558 68.5125 248.543 68.7184Z" fill="#FAB70C"/>
<path opacity="0.6" d="M56.1885 104.465C65.7874 92.3883 78.8751 83.2136 92.3284 75.4301C100.523 70.6968 107.903 67.6175 117.327 66.1807C126.374 64.8065 134.829 60.9438 144.077 59.7193C162.275 57.3109 182.089 59.0464 198.654 68.5731C202.522 70.8015 206.345 73.3444 208.999 76.8723C212.274 81.2185 213.298 86.5006 212.894 91.6247C212.698 94.1337 212.342 97.1651 211.272 99.44C209.11 104.033 207.165 103.85 211.451 107.696C214.976 110.855 220.723 112.976 225.13 114.498C228.447 115.646 231.968 116.551 234.717 118.728C239.812 122.754 240.77 129.959 239.545 135.971C238.066 143.245 234.087 149.722 229.355 155.412C210.651 177.911 180.234 188.049 149.99 185.389C143.631 184.829 135.294 184.82 130.508 179.789C128.439 177.615 126.928 174.99 124.833 172.829C120.803 168.645 114.96 166.527 109.234 165.614C103.505 164.709 97.7131 164.861 91.9518 164.418C79.1206 163.432 66.3877 159.402 55.1932 152.784C52.4016 151.138 49.6425 149.266 47.7747 146.667C39.9291 135.725 47.6771 116.057 54.1934 107.089C54.8331 106.203 55.5016 105.334 56.1885 104.465Z" fill="#E9EBEF"/>
<path d="M167.247 72.3257C166.306 72.7597 165.191 72.3477 164.756 71.4055C164.322 70.4633 164.733 69.3477 165.674 68.9137C166.616 68.4797 167.731 68.8917 168.165 69.8339C168.6 70.7761 168.189 71.8917 167.247 72.3257Z" fill="#FAB70C"/>
<path d="M242.711 123.148C240.989 123.942 238.949 123.189 238.155 121.466C237.361 119.743 238.112 117.702 239.834 116.909C241.556 116.115 243.595 116.869 244.389 118.592C245.184 120.315 244.432 122.355 242.711 123.148Z" fill="#FAB70C"/>
<path d="M67.2555 173.202H-1.13672V228.815H67.2555V173.202Z" fill="black"/>
<path d="M67.255 229.208H-1.13716C-1.36107 229.208 -1.53125 229.029 -1.53125 228.814V173.21C-1.53125 172.986 -1.35212 172.816 -1.13716 172.816H67.255C67.4789 172.816 67.649 172.995 67.649 173.21V228.814C67.649 229.029 67.4789 229.208 67.255 229.208ZM-0.74307 228.412H66.8519V173.595H-0.74307V228.412Z" fill="black"/>
<path d="M69.3704 197.503H-3.34766V205.362H69.3704V197.503Z" fill="#FAB70C"/>
<path d="M38.846 171.026H6.13672V189.573H38.846V171.026Z" fill="#FAB70C"/>
<path d="M55.2015 171.026H22.4922V173.228H55.2015V171.026Z" fill="#FAB70C"/>
<path d="M47.2652 225.681C47.0413 225.681 46.8711 225.502 46.8711 225.287V174.812C46.8711 174.588 47.0502 174.418 47.2652 174.418C47.4891 174.418 47.6593 174.597 47.6593 174.812V225.287C47.6593 225.502 47.4801 225.681 47.2652 225.681Z" fill="white"/>
<path d="M167.397 91.2255C162.435 88.2269 155.96 87.1707 150.639 89.4622V89.4174L144.495 80.5469C144.495 80.5469 131.938 45.0468 119.892 40.5802C107.845 36.1136 116.927 75.6685 128.965 88.3701C140.402 100.427 150.899 101.851 150.899 101.851C150.899 101.851 155.924 102.316 157.742 103.175C162.22 105.306 163.044 106.398 163.653 105.324C164.45 103.936 156.21 98.2969 156.228 98.2969C156.596 98.1447 162.086 102.083 163.967 103.506C164.45 103.873 166.152 105.019 166.681 104.151C167.066 103.506 166.394 102.638 166.098 102.11C164.952 100.051 158.933 95.0566 158.933 95.0566C158.933 95.0566 160.975 96.1755 161.674 96.6499C163.403 97.8314 164.916 99.0219 166.484 100.4C166.896 100.758 169.385 103.005 169.887 101.842C170.711 99.8992 165.749 95.3699 164.397 94.1705C163.716 93.5707 161.763 92.1744 161.136 91.7805C162.22 92.2997 167.702 94.6807 169.609 95.4863C169.986 95.6474 171.92 95.9249 171.804 95.1372C171.562 93.5081 168.624 91.9685 167.397 91.2255Z" fill="white"/>
<path d="M163.106 106.316C162.515 106.316 161.754 105.905 160.724 105.35C159.953 104.929 158.896 104.356 157.49 103.694C155.789 102.888 150.889 102.423 150.845 102.423C150.388 102.36 139.989 100.838 128.552 88.7724C118.682 78.3623 110.236 48.7074 115.054 41.4122C115.834 40.2396 117.338 39.0491 120.079 40.0696C132.081 44.5182 144.19 78.049 144.996 80.3047L150.862 88.7724C155.95 86.7852 162.345 87.5282 167.683 90.7595L168.14 91.0281C169.725 91.959 172.107 93.3553 172.349 95.0829C172.394 95.423 172.269 95.7453 171.991 95.9512C171.265 96.5061 169.644 96.1391 169.367 96.0228C168.48 95.6468 166.904 94.9665 165.336 94.2863C168.22 96.9089 171.194 100.203 170.397 102.083C170.253 102.423 169.985 102.647 169.644 102.727C169.161 102.835 168.274 102.763 166.133 100.865C165.766 100.543 165.399 100.221 165.032 99.9254C165.73 100.659 166.295 101.34 166.581 101.859C166.626 101.939 166.68 102.029 166.733 102.118C167.101 102.718 167.656 103.631 167.154 104.464C166.975 104.768 166.689 104.956 166.339 105.028C165.56 105.18 164.593 104.652 163.984 104.24C164.476 105.036 164.27 105.395 164.136 105.627C163.849 106.111 163.518 106.316 163.106 106.316ZM118.153 40.8035C117.249 40.8035 116.532 41.2063 115.995 42.0298C111.83 48.3314 119.255 77.324 129.367 87.9936C140.536 99.7733 150.871 101.286 150.97 101.304C151.158 101.322 156.093 101.787 157.974 102.682C159.398 103.363 160.473 103.944 161.261 104.365C162.085 104.813 162.873 105.224 163.061 105.189C163.061 105.189 163.097 105.162 163.151 105.054C163.133 105.054 163.025 103.81 156.075 98.8961C155.824 98.717 155.618 98.5738 155.663 98.2426C155.69 98.0368 155.824 97.8577 156.012 97.7772C156.12 97.7324 156.308 97.7682 156.559 97.8667L156.568 97.8577L156.604 97.8846C158.046 98.4575 161.449 100.91 164.297 103.058C165.005 103.595 165.802 103.953 166.124 103.9C166.339 103.613 165.981 103.031 165.775 102.682C165.712 102.575 165.65 102.476 165.596 102.378C164.7 100.767 160.213 96.8552 158.565 95.4857C158.341 95.2977 158.296 94.9755 158.458 94.7338C158.619 94.4921 158.941 94.4205 159.192 94.5548C159.273 94.5995 161.27 95.6916 161.978 96.1749C163.688 97.3475 165.238 98.547 166.841 99.9702C168.82 101.716 169.376 101.599 169.385 101.599C169.779 100.615 167.629 97.7861 164.002 94.5906C163.33 93.9998 161.404 92.6303 160.813 92.2544C160.562 92.0932 160.473 91.762 160.616 91.5025C160.759 91.2429 161.082 91.1355 161.351 91.2697C162.407 91.7799 167.889 94.152 169.797 94.9665C170.029 95.065 170.836 95.1545 171.185 95.0739C170.862 93.9193 168.641 92.6213 167.548 91.9769L167.083 91.6994C161.888 88.5576 155.663 87.8952 150.836 89.9718C150.665 90.0434 150.468 90.0255 150.307 89.9271C150.2 89.8555 150.119 89.7481 150.074 89.6317L144.002 80.8596C143.975 80.8149 143.948 80.7701 143.93 80.7254C143.805 80.3763 131.328 45.4223 119.658 41.0989C119.13 40.902 118.619 40.8035 118.153 40.8035Z" fill="black"/>
<path d="M117.645 78.0863L139.562 65.34C139.562 65.34 128.178 37.6901 117.439 42.1746C101.909 48.6731 117.645 78.0863 117.645 78.0863Z" fill="white"/>
<path d="M117.643 78.6523C117.59 78.6523 117.536 78.6433 117.491 78.6344C117.348 78.5896 117.222 78.4912 117.151 78.3569C116.739 77.5782 107.048 59.2463 110.953 48.2723C112.063 45.1573 114.177 42.9374 117.231 41.6574C119.023 40.9055 120.93 40.9413 122.91 41.7648C131.92 45.4885 139.766 64.3305 140.088 65.1272C140.196 65.3868 140.097 65.6911 139.847 65.8254L117.93 78.5717C117.84 78.6254 117.742 78.6523 117.643 78.6523ZM119.865 42.2482C119.112 42.2482 118.378 42.4004 117.652 42.7047C114.903 43.8594 113.004 45.8555 112.001 48.6572C108.615 58.1722 116.309 74.2215 117.867 77.3096L138.843 65.1093C137.581 62.1912 130.299 46.0435 122.462 42.8121C121.566 42.4272 120.698 42.2482 119.865 42.2482Z" fill="black"/>
<path d="M120.25 33.2588H98.9062V40.903H120.25V33.2588Z" fill="#7ABC2F"/>
<path d="M105.284 38.2884C110.622 38.6822 124.648 41.6003 125.687 44.7779C126.735 47.9645 128.033 94.7339 128.033 94.7339H86.4842C86.4842 94.7339 79.8474 51.903 81.4954 46.8366C83.1523 41.7703 98.6382 37.796 105.284 38.2884Z" fill="white"/>
<path d="M128.033 95.2981H86.4928C86.2151 95.2981 85.9733 95.0923 85.9375 94.8237C85.6688 93.0693 79.3007 51.8048 80.9756 46.6668C82.7669 41.144 98.6109 37.2324 105.328 37.7337C109.78 38.0649 124.997 40.8486 126.233 44.6081C127.29 47.8305 128.553 92.8097 128.606 94.7252C128.606 94.8774 128.553 95.0206 128.445 95.137C128.329 95.2355 128.185 95.2981 128.033 95.2981ZM86.9764 94.1703H127.46C127.003 77.8703 125.955 47.3829 125.158 44.9572C124.307 42.3614 111.446 39.3091 105.248 38.8525C98.2706 38.3423 83.5192 42.4777 82.0503 47.0159C80.7875 50.8828 84.6746 79.2667 86.9764 94.1703Z" fill="black"/>
<path d="M101.538 31.2666L101.09 42.0616C101.09 42.0616 108.47 48.0051 111.605 48.2468C114.74 48.4974 115.008 46.5909 115.008 46.5909L114.659 37.6398L101.538 31.2666Z" fill="white"/>
<path d="M112.143 48.827C111.955 48.827 111.767 48.818 111.561 48.8001C108.291 48.5405 101.046 42.7313 100.732 42.4896C100.589 42.3822 100.517 42.2032 100.526 42.0242L100.974 31.2291C100.983 31.0412 101.081 30.8621 101.252 30.7726C101.413 30.6742 101.619 30.6652 101.789 30.7458L114.91 37.119C115.098 37.2085 115.215 37.3964 115.224 37.6023L115.573 46.5534C115.573 46.5892 115.573 46.625 115.564 46.6519C115.564 46.6966 115.224 48.827 112.143 48.827ZM101.664 41.7914C103.849 43.5279 109.304 47.4933 111.65 47.6812C113.961 47.8603 114.382 46.7772 114.445 46.5445L114.104 38.0051L102.058 32.1511L101.664 41.7914Z" fill="black"/>
<path d="M100.24 27.5844C100.24 21.6677 104.925 16.8789 110.71 16.8789C116.487 16.8789 121.181 21.6767 121.181 27.5844C121.181 33.5011 116.496 38.2899 110.71 38.2899C104.925 38.2899 100.24 33.5011 100.24 27.5844Z" fill="white"/>
<path d="M110.702 38.8543C104.621 38.8543 99.668 33.7969 99.668 27.5849C99.668 21.3728 104.612 16.3154 110.702 16.3154C116.793 16.3154 121.737 21.3728 121.737 27.5849C121.737 33.7969 116.784 38.8543 110.702 38.8543ZM110.702 17.4433C105.239 17.4433 100.796 21.9904 100.796 27.5849C100.796 33.1793 105.239 37.7265 110.702 37.7265C116.166 37.7265 120.608 33.1793 120.608 27.5849C120.608 21.9904 116.166 17.4433 110.702 17.4433Z" fill="black"/>
<path d="M98.1018 28.6534C96.9017 26.5768 96.9554 24.1689 98.2272 23.2827C99.499 22.3876 101.496 23.3454 102.696 25.4221C103.897 27.4987 103.843 29.9066 102.571 30.7927C101.299 31.6878 99.302 30.7301 98.1018 28.6534Z" fill="white"/>
<path d="M101.486 31.6858C101.28 31.6858 101.065 31.6589 100.85 31.6142C99.6319 31.3456 98.4228 30.3431 97.6078 28.9288C96.2464 26.5747 96.3718 23.8804 97.8944 22.8063C98.4676 22.4035 99.1752 22.2692 99.9365 22.4393C101.146 22.7078 102.364 23.7103 103.179 25.1246C104.54 27.4787 104.415 30.173 102.892 31.2472C102.48 31.5425 102.005 31.6858 101.486 31.6858ZM99.3005 23.5045C99.0139 23.5045 98.7632 23.585 98.5482 23.7372C97.5361 24.4533 97.554 26.5747 98.593 28.3649C99.2468 29.4927 100.205 30.3162 101.101 30.5132C101.549 30.6116 101.934 30.549 102.247 30.3252C103.259 29.6091 103.241 27.4877 102.202 25.6975C101.549 24.5696 100.59 23.7461 99.6857 23.5492C99.5513 23.5224 99.4259 23.5045 99.3005 23.5045Z" fill="black"/>
<path d="M102.283 28.8034C102.113 28.8034 101.942 28.7318 101.835 28.5797L98.8345 24.668C98.6464 24.4174 98.6912 24.0683 98.942 23.8803C99.1928 23.6924 99.5421 23.7371 99.7302 23.9878L102.731 27.8994C102.919 28.15 102.874 28.4991 102.623 28.6871C102.525 28.7587 102.399 28.8034 102.283 28.8034Z" fill="black"/>
<path d="M102.283 28.6313C102.166 28.6313 102.05 28.5776 101.969 28.4791L98.9686 24.5675C98.8343 24.3974 98.8701 24.1468 99.0403 24.0125C99.2105 23.8783 99.4612 23.9141 99.5956 24.0841L102.596 27.9957C102.73 28.1658 102.695 28.4164 102.524 28.5507C102.453 28.6044 102.363 28.6313 102.283 28.6313Z" fill="black"/>
<path d="M100.725 26.8248C100.716 26.8248 100.698 26.8248 100.689 26.8248L98.719 26.6279C98.504 26.61 98.3428 26.4131 98.3607 26.1983C98.3786 25.9834 98.5757 25.8223 98.7906 25.8402L100.761 26.0371C100.976 26.0551 101.137 26.252 101.119 26.4668C101.092 26.6727 100.922 26.8248 100.725 26.8248Z" fill="black"/>
<path d="M110.908 29.1519C110.908 28.5343 111.132 28.042 111.41 28.042C111.687 28.042 111.911 28.5433 111.911 29.1519C111.911 29.7696 111.687 30.2619 111.41 30.2619C111.132 30.2619 110.908 29.7606 110.908 29.1519Z" fill="#0A0202"/>
<path d="M111.409 30.6544C110.881 30.6544 110.514 30.0368 110.514 29.1416C110.514 28.2555 110.881 27.6289 111.409 27.6289C111.938 27.6289 112.305 28.2465 112.305 29.1416C112.305 30.0368 111.938 30.6544 111.409 30.6544ZM111.409 28.5509C111.356 28.6762 111.311 28.8731 111.311 29.1506C111.311 29.4281 111.365 29.625 111.409 29.7503C111.463 29.625 111.508 29.4281 111.508 29.1506C111.508 28.8731 111.454 28.6762 111.409 28.5509Z" fill="#0A0202"/>
<path d="M118.443 29.1685C118.443 28.5509 118.667 28.0586 118.945 28.0586C119.223 28.0586 119.446 28.5599 119.446 29.1685C119.446 29.7861 119.223 30.2785 118.945 30.2785C118.667 30.2785 118.443 29.7861 118.443 29.1685Z" fill="#0A0202"/>
<path d="M118.942 30.6807C118.414 30.6807 118.047 30.0631 118.047 29.168C118.047 28.2818 118.414 27.6553 118.942 27.6553C119.471 27.6553 119.838 28.2729 119.838 29.168C119.838 30.0542 119.471 30.6807 118.942 30.6807ZM118.942 28.5683C118.889 28.6936 118.844 28.8905 118.844 29.168C118.844 29.4455 118.898 29.6424 118.942 29.7677C118.996 29.6424 119.041 29.4455 119.041 29.168C119.041 28.8905 118.987 28.6936 118.942 28.5683Z" fill="#0A0202"/>
<path d="M112.465 36.1953C111.614 36.1953 110.333 35.8104 109.859 34.2798C109.796 34.0739 109.913 33.8501 110.119 33.7875C110.325 33.7248 110.548 33.8412 110.611 34.047C111.104 35.6045 112.662 35.3987 112.725 35.3897C112.94 35.3539 113.146 35.5061 113.173 35.7209C113.209 35.9357 113.056 36.1326 112.841 36.1684C112.734 36.1863 112.599 36.1953 112.465 36.1953Z" fill="black"/>
<path d="M109.403 34.9772C109.358 34.9772 109.323 34.9683 109.278 34.9593C109.072 34.8877 108.955 34.6639 109.027 34.4581C109.045 34.4044 109.484 33.1243 110.487 33.1064C110.729 33.1064 110.881 33.2765 110.89 33.4913C110.89 33.7062 110.72 33.8852 110.505 33.8941C110.12 33.9031 109.833 34.5386 109.779 34.7087C109.726 34.8698 109.573 34.9772 109.403 34.9772Z" fill="black"/>
<path d="M109.691 26.6031C109.683 26.5135 110.354 26.3524 111.205 26.2271C112.047 26.1108 112.746 26.0839 112.764 26.1645C112.772 26.254 112.101 26.4151 111.25 26.5404C110.408 26.6657 109.709 26.6926 109.691 26.6031Z" fill="white"/>
<path d="M110.03 27.2184C109.565 27.2184 109.448 27.1289 109.368 27.0662C109.251 26.9767 109.162 26.8245 109.135 26.6813C109.117 26.5381 109.162 26.368 109.251 26.2517C109.359 26.1174 109.511 25.9026 111.123 25.6788C112.735 25.455 112.95 25.6072 113.085 25.7146C113.201 25.8041 113.291 25.9563 113.317 26.0995C113.335 26.2427 113.29 26.4128 113.201 26.5292C113.093 26.6634 112.941 26.8783 111.329 27.102C110.72 27.1826 110.308 27.2184 110.03 27.2184Z" fill="black"/>
<path d="M118.414 25.7687C118.441 25.6881 119.122 25.8045 119.946 26.0283C120.77 26.261 121.415 26.5117 121.397 26.6012C121.37 26.6817 120.689 26.5654 119.865 26.3416C119.041 26.0999 118.397 25.8493 118.414 25.7687Z" fill="white"/>
<path d="M121.271 27.1825C120.913 27.1825 120.411 27.0662 119.713 26.8692C118.28 26.4664 117.707 26.2069 117.877 25.6071C117.913 25.4639 118.029 25.3296 118.154 25.2491C118.307 25.1596 118.531 25.0342 120.107 25.4729C121.54 25.8757 122.113 26.1352 121.943 26.735C121.853 27.0572 121.647 27.1825 121.271 27.1825Z" fill="black"/>
<path d="M101.378 23.7721C101.396 23.7631 101.862 24.2734 102.023 24.4255C102.417 24.7925 103.017 25.2938 103.205 25.8308C103.393 26.3769 103.68 27.0303 103.68 27.63C103.68 27.809 103.483 28.1223 103.662 28.1581C103.725 28.176 103.743 28.0597 103.788 28.006C104.379 27.263 105.812 26.8065 106.663 26.4664C109.663 25.2669 112.807 24.4792 115.78 23.2887C116.64 22.9486 117.357 22.4384 118.154 21.9998C118.467 21.8297 118.709 21.0778 118.969 21.3195C119.479 21.8029 120.088 22.2325 120.384 22.868C120.456 23.0202 120.653 24.1749 120.733 24.1928C120.957 24.2376 121.1 22.2146 121.092 22.0803C121.029 21.5075 120.402 19.028 119.748 18.8938C118.593 18.6521 117.16 18.9833 115.968 18.9922C115.386 19.0012 114.482 18.7326 113.935 18.8759C111.732 19.4577 109.582 20.8988 107.325 21.597C105.901 22.0356 104.576 22.877 103.107 23.1724C102.668 23.2529 101.065 23.9422 101.378 23.7721Z" fill="#0A0202"/>
<path d="M97.5813 28.0936C97.5903 27.9772 97.6619 28.7739 97.7067 28.9708C97.8769 29.6332 97.9306 30.3761 98.2172 31.0027C98.7367 32.1216 99.6413 32.7302 100.627 33.3837C101.056 33.6701 101.513 33.8402 102.033 33.9476C102.06 33.9565 102.122 33.9924 102.122 33.9655C101.925 33.1957 101.352 31.7635 100.931 31.128C100.806 30.94 100.286 31.0474 100.071 30.949C99.2562 30.5462 97.5276 29.0245 97.5813 28.0936Z" fill="#0A0202"/>
<path d="M97.134 39.258L97.8057 34.4334C97.9491 33.413 99.1045 32.8848 99.9732 33.4488L110.202 40.1531C110.676 40.4664 110.918 41.0303 110.811 41.5853L110.014 45.8281C109.861 46.6158 109.091 47.126 108.312 46.938C106.843 46.58 104.452 45.846 102.186 44.4228C99.5791 42.7937 98.0834 41.1377 97.4385 40.3321C97.1967 40.0368 97.0803 39.6429 97.134 39.258Z" fill="#7ABC2F"/>
<path d="M100.824 24.1202L120.887 18.5974C120.887 18.5974 126.315 13.6296 122.275 12.3674C118.236 11.1053 100.824 24.1202 100.824 24.1202Z" fill="#7ABC2F"/>
<path d="M114.947 32.8859C114.822 32.8859 114.696 32.868 114.58 32.8322C114.374 32.7696 114.248 32.5548 114.311 32.3399C114.374 32.1341 114.589 32.0087 114.804 32.0714C115.099 32.1609 115.601 31.955 115.968 31.597C116.255 31.3195 116.398 31.0152 116.371 30.7645C116.335 30.7824 116.29 30.7914 116.264 30.8093C116.022 30.9078 115.449 31.1405 115.135 30.5855C114.499 29.4398 114.92 27.9808 115.234 26.9156C115.296 26.7097 115.511 26.5844 115.726 26.6471C115.932 26.7097 116.058 26.9245 115.995 27.1394C115.735 28.0524 115.377 29.2876 115.798 30.1469C115.852 30.129 115.914 30.1022 115.968 30.0843C116.183 29.9948 116.488 29.8784 116.765 30.0127C116.944 30.1022 117.061 30.2633 117.123 30.496C117.267 31.042 117.052 31.6507 116.523 32.1609C116.12 32.5548 115.52 32.8859 114.947 32.8859Z" fill="black"/>
<path d="M96.5777 26.4304C96.5777 26.4304 93.846 16.3425 102.767 12.6636C111.696 8.98471 117.267 15.5817 117.267 15.5817L96.5777 26.4304Z" fill="#7ABC2F"/>
<path d="M102.184 23.3932C102.095 23.3932 102.005 23.3753 101.915 23.3305C101.638 23.1873 101.539 22.8382 101.683 22.5697C102.417 21.2001 109.018 16.8857 115.673 13.8244C115.959 13.6902 116.291 13.8155 116.425 14.1019C116.559 14.3884 116.434 14.7195 116.147 14.8538C109.206 18.0583 103.178 22.1848 102.686 23.1157C102.578 23.2768 102.39 23.3932 102.184 23.3932Z" fill="black"/>
<path d="M129.959 114.519L135.243 156.087L140.491 217.035L120.805 219.094C120.805 219.094 109.591 149.24 108.526 138.498C108.445 137.657 97.6075 219.488 97.6075 219.488L79.166 217.716L83.286 110.365L84.531 100.438L127.961 101.683L129.959 114.519Z" fill="white"/>
<path d="M97.6077 220.061C97.5897 220.061 97.5718 220.061 97.5539 220.061L79.1123 218.28C78.8168 218.253 78.5929 217.993 78.6018 217.698L82.7218 110.348L83.9668 100.367C84.0026 100.081 84.2445 99.875 84.5221 99.875C84.5311 99.875 84.5311 99.875 84.54 99.875L127.97 101.119C128.239 101.128 128.472 101.325 128.508 101.594L130.514 114.438C130.514 114.447 130.514 114.447 130.514 114.456L135.798 156.025L141.047 217C141.074 217.304 140.85 217.573 140.545 217.609L120.859 219.667C120.563 219.694 120.295 219.488 120.241 219.193C120.142 218.557 110.899 160.957 108.463 142.688C106.654 155.631 101.226 196.43 98.163 219.569C98.1271 219.846 97.8853 220.061 97.6077 220.061ZM79.7483 217.206L97.115 218.88C97.5539 215.541 99.9811 197.227 102.426 178.913C103.779 168.789 105.14 158.666 106.17 151.066C106.69 147.271 107.12 144.102 107.433 141.891C107.988 137.917 107.997 137.926 108.526 137.926C108.812 137.935 109.054 138.159 109.081 138.436C110.084 148.551 120.241 212.005 121.271 218.468L139.874 216.526L134.67 156.133L129.394 114.591L127.469 102.22L85.0147 101.003L83.8324 110.428L79.7483 217.206Z" fill="black"/>
<path d="M93.3003 119.629C93.1032 119.629 92.9151 119.531 92.8166 119.352C92.6554 119.083 92.745 118.734 93.0137 118.582C100.152 114.375 101.146 106.847 101.155 106.767C101.191 106.453 101.469 106.23 101.782 106.274C102.096 106.31 102.31 106.596 102.275 106.901C102.23 107.232 101.2 115.064 93.5869 119.549C93.4973 119.611 93.3988 119.629 93.3003 119.629Z" fill="black"/>
<path d="M121.335 212.802C121.236 212.802 121.146 212.731 121.137 212.623C121.129 212.516 121.2 212.417 121.317 212.4L138.334 210.484C138.441 210.466 138.54 210.547 138.558 210.663C138.567 210.77 138.495 210.869 138.379 210.887L121.361 212.802C121.343 212.802 121.335 212.802 121.335 212.802Z" fill="white"/>
<path d="M99.6417 166.255C97.2861 166.255 94.1245 164.608 92.4496 163.408C92.1988 163.229 92.1361 162.871 92.3242 162.62C92.5033 162.37 92.8616 162.316 93.1124 162.495C94.841 163.739 98.137 165.359 100.081 165.109C101.245 164.948 102.275 163.515 102.57 162.969C102.723 162.701 103.063 162.594 103.332 162.746C103.609 162.898 103.708 163.238 103.556 163.507C103.502 163.605 102.203 165.95 100.224 166.219C100.045 166.246 99.8477 166.255 99.6417 166.255Z" fill="black"/>
<path d="M98.0649 215.935C98.0649 215.935 112.225 221.279 112.852 228.225C112.897 228.699 112.852 230.131 112.852 230.131L79.2383 229.63L78.9069 218.307L78.889 217.528C78.871 216.812 79.6861 216.382 80.2683 216.812L82.0685 218.137L91.9745 217.591L95.7631 213.527C96.7125 212.605 98.2978 213.366 98.1814 214.682L98.0649 215.935Z" fill="black"/>
<path d="M86.4913 227.445C86.3928 227.445 86.3032 227.364 86.2943 227.266C86.2943 227.23 85.9629 223.963 83.4908 222.53C81.0994 221.143 79.2992 221.591 79.2812 221.6C79.1738 221.626 79.0663 221.564 79.0394 221.456C79.0125 221.349 79.0752 221.242 79.1827 221.215C79.2633 221.197 81.1532 220.713 83.6968 222.19C86.348 223.73 86.6794 227.087 86.6973 227.23C86.7063 227.337 86.6256 227.436 86.5182 227.445C86.5003 227.445 86.4913 227.445 86.4913 227.445Z" fill="white"/>
<path d="M97.921 220.579C97.8762 220.579 97.8404 220.571 97.8046 220.544C97.715 220.481 97.6971 220.356 97.7598 220.266L100.886 215.97C100.948 215.88 101.074 215.862 101.163 215.925C101.253 215.987 101.271 216.113 101.208 216.202L98.0822 220.499C98.0464 220.544 97.9837 220.579 97.921 220.579Z" fill="white"/>
<path d="M100.761 221.599C100.716 221.599 100.68 221.59 100.644 221.563C100.555 221.5 100.537 221.375 100.6 221.286L103.725 216.989C103.788 216.9 103.913 216.882 104.003 216.944C104.093 217.007 104.11 217.132 104.048 217.222L100.922 221.518C100.877 221.572 100.824 221.599 100.761 221.599Z" fill="white"/>
<path d="M103.716 223.244C103.671 223.244 103.635 223.236 103.599 223.209C103.51 223.146 103.492 223.021 103.555 222.931L106.681 218.635C106.743 218.545 106.869 218.527 106.958 218.59C107.048 218.652 107.066 218.778 107.003 218.867L103.877 223.164C103.841 223.218 103.779 223.244 103.716 223.244Z" fill="white"/>
<path d="M106.663 227.444C106.645 227.444 106.627 227.444 106.609 227.435C106.502 227.408 106.448 227.292 106.475 227.184C106.502 227.104 107.012 225.251 104.755 224.284V224.275C104.477 224.159 103.062 223.425 94.6342 218.958L79.2379 219.764C79.1304 219.764 79.0319 219.683 79.0319 219.576C79.0229 219.469 79.1125 219.37 79.22 219.37L94.67 218.564C94.7058 218.564 94.7417 218.573 94.7775 218.591C97.4913 220.032 104.558 223.774 104.898 223.926C104.907 223.926 104.907 223.926 104.916 223.935C107.514 225.045 106.869 227.292 106.869 227.319C106.824 227.39 106.752 227.444 106.663 227.444Z" fill="white"/>
<path d="M140.528 215.863C140.528 215.863 154.688 221.206 155.315 228.152C155.36 228.627 155.315 230.059 155.315 230.059L121.701 229.558L121.37 218.235L121.352 217.456C121.334 216.74 122.149 216.31 122.731 216.74L124.531 218.065L134.437 217.519L138.226 213.455C139.175 212.533 140.761 213.294 140.644 214.609L140.528 215.863Z" fill="black"/>
<path d="M128.956 227.372C128.858 227.372 128.768 227.292 128.759 227.193C128.759 227.158 128.428 223.89 125.956 222.458C123.564 221.071 121.764 221.518 121.746 221.527C121.639 221.554 121.531 221.491 121.504 221.384C121.477 221.277 121.54 221.169 121.648 221.142C121.728 221.124 123.618 220.641 126.162 222.118C128.813 223.658 129.144 227.014 129.162 227.158C129.171 227.265 129.09 227.363 128.983 227.372C128.974 227.372 128.965 227.372 128.956 227.372Z" fill="white"/>
<path d="M140.394 220.497C140.349 220.497 140.313 220.488 140.277 220.461C140.188 220.399 140.17 220.273 140.232 220.184L143.358 215.888C143.421 215.798 143.546 215.78 143.636 215.843C143.725 215.905 143.743 216.031 143.681 216.12L140.555 220.417C140.519 220.47 140.456 220.497 140.394 220.497Z" fill="white"/>
<path d="M149.135 227.372C149.118 227.372 149.1 227.372 149.082 227.363C148.974 227.336 148.92 227.219 148.947 227.112C148.974 227.031 149.485 225.179 147.228 224.212V224.203C146.95 224.087 145.535 223.353 137.107 218.886L121.711 219.692C121.603 219.692 121.505 219.611 121.505 219.504C121.496 219.396 121.585 219.298 121.693 219.298L137.143 218.492C137.178 218.492 137.214 218.501 137.25 218.519C139.964 219.96 147.031 223.702 147.371 223.854C147.38 223.854 147.38 223.854 147.389 223.863C149.986 224.973 149.341 227.219 149.332 227.246C149.297 227.318 149.216 227.372 149.135 227.372Z" fill="white"/>
<path d="M143.232 221.527C143.187 221.527 143.151 221.518 143.115 221.491C143.026 221.428 143.008 221.303 143.07 221.213L146.196 216.917C146.259 216.827 146.384 216.809 146.474 216.872C146.563 216.935 146.581 217.06 146.519 217.15L143.393 221.446C143.348 221.5 143.285 221.527 143.232 221.527Z" fill="white"/>
<path d="M146.189 223.175C146.144 223.175 146.108 223.166 146.072 223.139C145.983 223.077 145.965 222.951 146.027 222.862L149.153 218.565C149.216 218.476 149.341 218.458 149.431 218.52C149.52 218.583 149.538 218.708 149.476 218.798L146.35 223.094C146.314 223.148 146.251 223.175 146.189 223.175Z" fill="white"/>
<path d="M86.493 206.696C86.484 206.696 86.4661 206.696 86.4571 206.696C86.1437 206.678 85.9108 206.409 85.9287 206.096L88.7769 164.921L86.3138 164.106C86.081 164.026 85.9197 163.811 85.9287 163.56C85.9287 163.319 86.0989 163.104 86.3317 163.032L89.0097 162.227L87.5767 160.857C87.4513 160.741 87.3886 160.571 87.4065 160.401L92.4221 105.173C92.449 104.859 92.7356 104.635 93.0312 104.662C93.3447 104.689 93.5686 104.967 93.5417 105.271L88.553 160.231L90.4965 162.084C90.6398 162.218 90.7025 162.424 90.6577 162.621C90.6129 162.818 90.4607 162.97 90.2726 163.032L88.3738 163.605L89.5561 163.999C89.7979 164.08 89.9591 164.321 89.9412 164.572L87.0662 206.186C87.0304 206.463 86.7796 206.696 86.493 206.696Z" fill="black"/>
<path d="M99.4787 206.698H79.6131C79.2996 206.698 79.0488 206.448 79.0488 206.134C79.0488 205.821 79.2996 205.57 79.6131 205.57H99.4787C99.7922 205.57 100.043 205.821 100.043 206.134C100.043 206.448 99.7922 206.698 99.4787 206.698Z" fill="black"/>
<path d="M98.3784 211.253H79.4353C79.1219 211.253 78.8711 211.002 78.8711 210.689C78.8711 210.376 79.1219 210.125 79.4353 210.125H98.3784C98.6919 210.125 98.9427 210.376 98.9427 210.689C98.9427 211.002 98.6919 211.253 98.3784 211.253Z" fill="black"/>
<path d="M131.248 164.698C129.062 164.698 126.393 163.83 124.817 163.087C124.539 162.953 124.414 162.613 124.548 162.335C124.683 162.058 125.023 161.932 125.301 162.067C127.217 162.98 130.764 163.991 132.627 163.382C133.747 163.015 134.499 161.422 134.696 160.831C134.795 160.536 135.117 160.375 135.413 160.473C135.708 160.572 135.869 160.885 135.771 161.18C135.735 161.288 134.875 163.83 132.985 164.448C132.475 164.627 131.884 164.698 131.248 164.698Z" fill="black"/>
<path d="M124.782 207.09C124.505 207.09 124.263 206.884 124.227 206.597L118.817 166.514L116.238 166.147C115.996 166.111 115.799 165.923 115.763 165.682C115.718 165.44 115.844 165.198 116.068 165.091L118.557 163.82L116.901 162.728C116.766 162.638 116.677 162.504 116.65 162.352L110.282 123.996C110.228 123.692 110.443 123.397 110.747 123.352C111.061 123.298 111.348 123.513 111.392 123.817L117.725 161.931L119.991 163.417C120.161 163.525 120.259 163.721 120.241 163.918C120.232 164.115 120.116 164.294 119.937 164.393L118.163 165.288L119.39 165.458C119.641 165.494 119.838 165.691 119.874 165.941L125.338 206.454C125.382 206.758 125.158 207.045 124.854 207.09C124.836 207.09 124.809 207.09 124.782 207.09Z" fill="black"/>
<path d="M119.845 207.986C119.577 207.986 119.344 207.798 119.29 207.521C119.236 207.216 119.433 206.921 119.747 206.867L139.29 203.313C139.595 203.26 139.89 203.457 139.944 203.77C139.998 204.074 139.801 204.37 139.487 204.423L119.944 207.977C119.917 207.986 119.881 207.986 119.845 207.986Z" fill="black"/>
<path d="M120.5 212.505C120.231 212.505 119.998 212.317 119.944 212.039C119.891 211.735 120.088 211.439 120.401 211.386L139.04 207.993C139.344 207.939 139.64 208.136 139.694 208.45C139.747 208.754 139.55 209.049 139.237 209.103L120.598 212.496C120.562 212.505 120.527 212.505 120.5 212.505Z" fill="black"/>
<path d="M120.958 41.7643C120.617 42.4893 119.82 43.9752 118.432 45.4431C117.223 46.7232 115.96 47.3855 115.172 47.7078C114.76 47.8778 114.348 47.4213 114.267 46.7053L113.846 42.8921C113.793 42.3908 113.918 41.8806 114.169 41.6031L119.605 35.5701C120.062 35.0599 120.68 35.5343 120.752 36.4563L121.11 40.7975C121.146 41.1377 121.092 41.4868 120.958 41.7643Z" fill="#7ABC2F"/>
<path d="M131.714 114.231H115.395L114.428 45.925C114.428 45.925 117.383 45.6654 119.291 42.8727C121.199 40.0889 120.921 38.2002 120.921 38.2002C120.921 38.2002 122.775 38.3076 125.973 41.2525C128.749 43.8215 129.887 76.2154 129.887 76.2154L131.714 114.231Z" fill="#7ABC2F"/>
<path d="M115.394 47.4023C115.188 47.4023 114.982 47.2859 114.884 47.08C114.749 46.8026 114.866 46.4624 115.152 46.3281C115.161 46.3192 116.362 45.7374 118.153 44.153C119.908 42.6045 120.759 40.4294 120.768 40.4026C120.885 40.1161 121.207 39.964 121.494 40.0803C121.78 40.1877 121.933 40.5189 121.816 40.8054C121.78 40.9038 120.867 43.2579 118.887 44.9944C116.962 46.6951 115.681 47.3128 115.627 47.3396C115.555 47.3844 115.475 47.4023 115.394 47.4023Z" fill="black"/>
<path d="M116.721 67.0322C115.673 67.0322 115.064 66.9337 115.028 66.9248C114.723 66.8711 114.517 66.5846 114.571 66.2714C114.625 65.967 114.911 65.7522 115.225 65.8149C115.234 65.8149 116.479 66.0207 118.521 65.8059C122.498 65.3941 123.107 63.5771 123.107 63.5592C123.196 63.2638 123.51 63.0937 123.805 63.1743C124.101 63.2548 124.271 63.5592 124.199 63.8546C124.172 63.962 123.465 66.4235 118.637 66.9248C117.894 67.0143 117.258 67.0322 116.721 67.0322Z" fill="black"/>
<path d="M116.424 85.6144C115.986 85.6144 115.744 85.5786 115.717 85.5786C115.412 85.5339 115.197 85.2474 115.242 84.9341C115.287 84.6298 115.574 84.415 115.887 84.4597C115.896 84.4597 117.168 84.6298 119.416 84.0748C121.718 83.5109 125.336 81.4969 125.372 81.479C125.641 81.3268 125.99 81.4252 126.142 81.6938C126.295 81.9623 126.196 82.3114 125.927 82.4636C125.775 82.5531 122.139 84.5671 119.685 85.1669C118.189 85.5428 117.087 85.6144 116.424 85.6144Z" fill="black"/>
<path d="M130.667 109.531H117.08C116.766 109.531 116.516 109.281 116.516 108.967C116.516 108.654 116.766 108.403 117.08 108.403H130.667C130.98 108.403 131.231 108.654 131.231 108.967C131.231 109.281 130.98 109.531 130.667 109.531Z" fill="black"/>
<path d="M124.79 42.8834C124.673 42.8834 124.548 42.8476 124.449 42.767C124.396 42.7312 123.778 42.3642 121.198 41.7376C120.894 41.666 120.706 41.3617 120.786 41.0574C120.858 40.753 121.162 40.574 121.467 40.6456C124.351 41.3438 125.023 41.7824 125.157 41.8988C125.399 42.0957 125.426 42.4537 125.22 42.6954C125.112 42.8118 124.951 42.8834 124.79 42.8834Z" fill="black"/>
<path d="M78.8809 114.363H108.043L109.781 45.1445C109.781 45.1445 104.497 44.876 101.084 42.0564C97.6716 39.2368 98.1732 37.3213 98.1732 37.3213C98.1732 37.3213 89.3958 38.5565 83.6905 41.5551C78.7286 44.1599 79.2212 43.8914 79.2212 43.8914C79.2212 43.8914 82.4276 42.495 86.4849 45.1535C90.5422 47.803 89.6556 64.7832 88.9032 68.4889C88.1509 72.2036 86.4849 74.2087 86.4849 74.2087H78.8809V114.363Z" fill="#7ABC2F"/>
<path d="M108.052 46.632C108.007 46.632 107.953 46.6231 107.909 46.6141C107.819 46.5873 105.598 45.9876 102.212 44.2869C98.7371 42.5503 97.116 40.1783 97.0443 40.0798C96.8741 39.8203 96.9368 39.4712 97.1966 39.3011C97.4563 39.131 97.8056 39.1937 97.9758 39.4533C97.9937 39.4712 99.5253 41.691 102.714 43.2843C105.992 44.9224 108.177 45.5221 108.204 45.5311C108.509 45.6116 108.679 45.9249 108.598 46.2203C108.527 46.4709 108.303 46.632 108.052 46.632Z" fill="black"/>
<path d="M105.668 66.4691C104.755 66.4691 103.635 66.4601 102.345 66.4243C98.3957 66.3259 93.2636 63.7837 93.0487 63.6763C92.771 63.5331 92.6546 63.2019 92.7979 62.9244C92.9322 62.647 93.2726 62.5306 93.5502 62.6738C93.604 62.7007 98.6733 65.207 102.381 65.2965C106.188 65.3949 108.481 65.2965 108.508 65.2965C108.812 65.2786 109.081 65.5203 109.099 65.8335C109.117 66.1468 108.875 66.4064 108.561 66.4243C108.534 66.4243 107.495 66.4691 105.668 66.4691Z" fill="black"/>
<path d="M106.206 85.3573C105.087 85.3573 103.17 85.2857 100.564 84.9187C96.2647 84.319 89.8428 82.296 89.5652 82.2155C89.2696 82.117 89.0994 81.8037 89.198 81.5083C89.2965 81.2129 89.61 81.0429 89.9055 81.1413C89.9682 81.1592 96.5065 83.2269 100.716 83.8087C104.899 84.3906 107.263 84.2026 107.281 84.2026C107.604 84.1757 107.863 84.4085 107.89 84.7218C107.917 85.0351 107.684 85.3036 107.371 85.3304C107.335 85.3304 106.941 85.3573 106.206 85.3573Z" fill="black"/>
<path d="M105.043 109.595H80.7615C80.4481 109.595 80.1973 109.344 80.1973 109.031C80.1973 108.717 80.4481 108.467 80.7615 108.467H105.043C105.356 108.467 105.607 108.717 105.607 109.031C105.607 109.335 105.356 109.595 105.043 109.595Z" fill="black"/>
<path d="M88.624 42.7491C88.3822 42.7491 88.1673 42.597 88.0866 42.3553C87.9881 42.0599 88.1583 41.7377 88.4539 41.6482C88.5972 41.6034 92.0634 40.5114 97.3657 39.7774C97.6702 39.7326 97.9568 39.9475 98.0016 40.2607C98.0464 40.5651 97.8314 40.8515 97.5179 40.8963C92.3141 41.6123 88.83 42.7133 88.7942 42.7223C88.7315 42.7402 88.6778 42.7491 88.624 42.7491Z" fill="black"/>
<path d="M107.523 145.956C107.496 145.956 107.47 145.956 107.434 145.947C107.129 145.902 106.914 145.616 106.959 145.302L112.655 108.352C112.7 108.048 112.996 107.833 113.3 107.878C113.605 107.923 113.82 108.209 113.775 108.522L108.079 145.473C108.034 145.759 107.801 145.956 107.523 145.956Z" fill="black"/>
<path d="M161.118 92.5146H131.705V110.846H161.118V92.5146Z" fill="#0A0202"/>
<path d="M131.561 92.5146H117.992V110.846H131.561V92.5146Z" fill="#0A0202"/>
<path d="M131.57 111.24C131.346 111.24 131.176 111.061 131.176 110.846V92.514C131.176 92.2902 131.355 92.1201 131.57 92.1201C131.794 92.1201 131.964 92.2991 131.964 92.514V110.846C131.964 111.061 131.785 111.24 131.57 111.24Z" fill="white"/>
<path d="M117.482 101.271C117.267 101.271 117.088 101.1 117.088 100.886C117.079 100.671 117.258 100.483 117.473 100.483L162.059 99.4893H162.068C162.283 99.4893 162.462 99.6593 162.462 99.8741C162.471 100.089 162.292 100.277 162.077 100.277L117.482 101.271C117.491 101.271 117.482 101.271 117.482 101.271Z" fill="white"/>
<path d="M144.298 113.443C132.717 113.443 119.372 112.95 116.784 111.321C111.983 108.305 113.738 97.832 116.999 92.2286C120.277 86.5983 139.578 83.0985 140.393 82.9552C140.438 82.9463 140.474 82.9463 140.518 82.9463C140.957 82.9642 151.329 83.4834 162.381 90.9486C167.791 94.6006 168.409 99.3268 167.979 102.657C167.325 107.696 163.868 112.279 162.256 112.834C161.387 113.138 153.38 113.443 144.298 113.443ZM140.527 84.0831C139.291 84.3069 120.904 87.7709 117.966 92.8014C114.957 97.9662 113.353 107.839 117.375 110.372C121.629 113.049 160.035 112.422 161.871 111.778C162.82 111.447 166.197 107.517 166.851 102.513C167.424 98.1363 165.704 94.5648 161.745 91.8884C151.401 84.8976 141.387 84.1368 140.527 84.0831Z" fill="black"/>
<path d="M139.551 84.3984C139.507 84.3984 139.462 84.3984 139.408 84.3984C138.387 84.3358 137.33 83.6466 136.255 82.3486C133.712 79.2784 134.419 76.2261 134.446 76.1008C134.5 75.886 134.67 75.7249 134.876 75.6801C135.091 75.6354 135.306 75.7159 135.44 75.8949L140.94 83.1901C141.11 83.4228 141.083 83.7361 140.877 83.933C140.832 83.9777 140.367 84.3984 139.551 84.3984ZM135.485 77.8105C135.575 78.813 135.951 80.2004 137.124 81.6236C138.19 82.9036 138.969 83.2258 139.444 83.2706C139.498 83.2796 139.551 83.2796 139.605 83.2706L135.485 77.8105Z" fill="black"/>
<path d="M141.361 83.7987C141.245 83.7987 141.128 83.7629 141.03 83.6913C140.815 83.5391 140.752 83.2616 140.842 83.0289C140.564 82.9662 140.376 82.7156 140.403 82.4292C140.501 81.4087 141.415 72.4218 144.218 70.6316C144.783 70.2736 145.41 70.193 146.037 70.4168C146.646 70.6316 147.067 71.0702 147.255 71.6789C148.222 74.8297 142.481 82.6977 141.827 83.5838C141.711 83.7181 141.54 83.7987 141.361 83.7987ZM145.329 71.4103C145.159 71.4103 144.989 71.464 144.818 71.5715C142.964 72.762 141.908 79.0277 141.576 81.9726C143.869 78.7055 146.708 73.7824 146.162 72.0011C146.081 71.7326 145.92 71.5715 145.651 71.473C145.544 71.4282 145.436 71.4103 145.329 71.4103Z" fill="black"/>
<path d="M145.945 90.7872C145.793 90.7872 145.64 90.7245 145.533 90.6082L140.553 85.1659C140.338 84.9332 140.356 84.5841 140.589 84.3693C140.822 84.1545 141.171 84.1724 141.386 84.4051L146.366 89.8473C146.581 90.08 146.563 90.4291 146.33 90.644C146.214 90.7424 146.079 90.7872 145.945 90.7872Z" fill="black"/>
<path d="M133.703 98.056C133.658 98.056 133.613 98.047 133.568 98.0381C133.264 97.9665 133.085 97.6622 133.156 97.3578C134.76 90.8504 138.933 85.3455 139.112 85.1128C139.3 84.8621 139.659 84.8174 139.901 85.0053C140.151 85.1933 140.196 85.5514 140.008 85.793C139.963 85.8468 135.799 91.3517 134.249 97.6174C134.186 97.877 133.953 98.056 133.703 98.056Z" fill="black"/>
<path d="M146.413 113.498C146.163 113.498 145.939 113.337 145.867 113.086C145.786 112.782 145.966 112.477 146.261 112.397C146.494 112.334 152.011 110.705 150.363 103.293C150.291 102.989 150.489 102.685 150.793 102.622C151.098 102.551 151.402 102.747 151.465 103.052C153.355 111.537 146.628 113.471 146.557 113.489C146.512 113.489 146.467 113.498 146.413 113.498Z" fill="black"/>
<path d="M138.575 112.575C138.53 112.575 138.485 112.566 138.44 112.557C138.136 112.486 137.948 112.181 138.028 111.877C138.046 111.814 139.47 105.799 138.996 98.719C138.978 98.4057 139.211 98.1371 139.524 98.1192C139.829 98.0924 140.106 98.3341 140.124 98.6473C140.608 105.907 139.193 111.895 139.13 112.146C139.067 112.405 138.834 112.575 138.575 112.575Z" fill="black"/>
<path d="M129.663 113.165C129.547 113.165 129.43 113.129 129.332 113.058C129.045 112.852 122.265 107.92 123.089 100.804C123.125 100.491 123.402 100.276 123.716 100.312C124.029 100.347 124.244 100.625 124.209 100.938C123.456 107.401 129.923 112.1 129.985 112.145C130.236 112.324 130.299 112.682 130.12 112.933C130.012 113.085 129.842 113.165 129.663 113.165Z" fill="black"/>
<path d="M143 95.863C142.722 95.863 142.48 95.6571 142.444 95.3707C141.907 91.2084 139.981 86.0974 139.963 86.0526C139.856 85.7572 139.999 85.435 140.295 85.3276C140.581 85.2201 140.913 85.3634 141.02 85.6588C141.101 85.8736 143.008 90.9399 143.564 95.2364C143.6 95.5497 143.385 95.8272 143.08 95.872C143.053 95.863 143.026 95.863 143 95.863Z" fill="black"/>
<path d="M155.1 93.7776C154.921 93.7776 154.751 93.6971 154.643 93.5449C150.049 87.0912 142.946 85.3636 142.883 85.3457C142.579 85.2741 142.391 84.9698 142.462 84.6654C142.534 84.3611 142.83 84.1731 143.143 84.2447C143.448 84.3163 150.72 86.0797 155.566 92.8915C155.745 93.1421 155.691 93.5002 155.432 93.6792C155.324 93.7418 155.208 93.7776 155.1 93.7776Z" fill="black"/>
<path d="M133.542 93.9218C128.58 90.9231 122.105 89.8669 116.785 92.1584V92.1136L87.1206 87.1547C87.1206 87.1547 98.0834 47.7431 86.0369 43.2765C73.9903 38.8099 57.4565 95.7746 73.3006 103.213C89.1448 110.651 117.044 104.538 117.044 104.538C117.044 104.538 122.069 105.003 123.887 105.863C128.365 107.993 129.189 109.085 129.799 108.011C130.596 106.623 122.356 100.984 122.374 100.984C122.741 100.832 128.231 104.77 130.112 106.194C130.596 106.561 132.297 107.706 132.826 106.838C133.211 106.194 132.539 105.325 132.244 104.797C131.097 102.739 125.078 97.7439 125.078 97.7439C125.078 97.7439 127.121 98.8628 127.819 99.3372C129.548 100.519 131.07 101.709 132.629 103.088C133.041 103.446 135.531 105.692 136.032 104.529C136.856 102.586 131.894 98.0572 130.542 96.8577C129.861 96.258 127.909 94.8616 127.282 94.4678C128.365 94.9869 133.847 97.3679 135.755 98.1735C136.131 98.3346 138.065 98.6121 137.949 97.8244C137.707 96.2043 134.769 94.6647 133.542 93.9218Z" fill="white"/>
<path d="M129.251 109.012C128.66 109.012 127.899 108.6 126.869 108.045C126.099 107.625 125.042 107.052 123.635 106.389C122.059 105.638 117.733 105.19 117.07 105.127C115.037 105.566 88.5975 111.044 73.0489 103.74C62.1757 98.6288 65.8837 72.6349 72.6101 56.6214C76.9719 46.2292 81.9338 41.1719 86.224 42.7651C97.9212 47.1064 89.2155 81.5143 87.8183 86.7149L116.775 91.5575C121.898 89.454 128.4 90.17 133.828 93.4461L134.276 93.7147C135.861 94.6456 138.253 96.0419 138.485 97.7695C138.53 98.1096 138.405 98.4319 138.127 98.6378C137.402 99.1927 135.781 98.8257 135.503 98.7094C134.616 98.3334 133.04 97.6531 131.472 96.9729C134.356 99.5955 137.33 102.89 136.533 104.769C136.39 105.109 136.121 105.333 135.781 105.414C135.297 105.521 134.41 105.45 132.27 103.552C131.902 103.23 131.535 102.907 131.177 102.612C131.867 103.346 132.44 104.026 132.726 104.545C132.771 104.626 132.825 104.716 132.879 104.805C133.246 105.405 133.801 106.318 133.3 107.15C133.12 107.455 132.834 107.651 132.485 107.714C131.705 107.866 130.738 107.338 130.129 106.926C130.622 107.723 130.416 108.081 130.281 108.314C129.995 108.806 129.663 109.012 129.251 109.012ZM117.043 103.991C117.061 103.991 117.079 103.991 117.097 103.991C117.303 104.008 122.238 104.474 124.128 105.369C125.552 106.049 126.627 106.631 127.415 107.052C128.239 107.499 129.009 107.938 129.224 107.884C129.224 107.884 129.26 107.857 129.314 107.75C129.296 107.75 129.189 106.506 122.229 101.583C121.987 101.413 121.773 101.26 121.817 100.92C121.844 100.723 121.979 100.544 122.167 100.473C122.274 100.428 122.462 100.464 122.713 100.562L122.722 100.553L122.767 100.58C124.209 101.153 127.612 103.606 130.46 105.754C131.168 106.291 131.974 106.658 132.287 106.595C132.502 106.309 132.144 105.727 131.929 105.378C131.867 105.271 131.804 105.172 131.75 105.083C130.854 103.471 126.367 99.5597 124.719 98.1902C124.495 98.0022 124.451 97.68 124.612 97.4383C124.773 97.1966 125.095 97.125 125.346 97.2593C125.427 97.3041 127.424 98.3961 128.132 98.8794C129.842 100.052 131.392 101.26 132.995 102.675C134.974 104.42 135.53 104.313 135.539 104.304C135.933 103.319 133.783 100.491 130.156 97.2951C129.484 96.6954 127.558 95.3259 126.967 94.9589C126.717 94.7978 126.627 94.4666 126.77 94.207C126.914 93.9474 127.236 93.84 127.514 93.9743C128.571 94.4845 134.052 96.8565 135.96 97.671C136.193 97.7695 136.999 97.859 137.348 97.7785C137.025 96.6238 134.804 95.3259 133.712 94.6814L133.246 94.4039C128.051 91.2621 121.826 90.5997 116.999 92.6763C116.828 92.748 116.64 92.7301 116.488 92.6405L87.0211 87.7174C86.8599 87.6906 86.7256 87.6011 86.636 87.4668C86.5464 87.3325 86.5285 87.1625 86.5643 87.0103C86.6718 86.6254 97.2495 48.0463 85.821 43.8124C82.2831 42.4966 77.6168 47.5719 73.6401 57.0511C66.9495 72.9929 63.6625 98.0828 73.5147 102.711C89.0005 109.988 116.622 104.062 116.9 103.999C116.963 103.991 116.999 103.991 117.043 103.991Z" fill="black"/>
<path d="M65.7676 71.7694L91.0071 74.2041C91.0071 74.2041 97.9125 45.1132 86.5736 42.4905C70.1742 38.7042 65.7676 71.7694 65.7676 71.7694Z" fill="#7ABC2F"/>
<path d="M115.394 47.0898C115.099 47.0898 114.848 46.8571 114.83 46.5617L114.561 41.9698C114.544 41.6565 114.785 41.388 115.09 41.3701C115.412 41.3522 115.663 41.5939 115.69 41.8982L115.959 46.4901C115.977 46.8034 115.735 47.0719 115.43 47.0898C115.421 47.0898 115.403 47.0898 115.394 47.0898Z" fill="black"/>
<path d="M116.434 92.0317C116.129 92.0317 115.878 91.7811 115.869 91.4767L115.242 47.7417C115.233 47.4284 115.484 47.1778 115.798 47.1688C116.111 47.142 116.362 47.4105 116.371 47.7238L116.998 91.4588C116.998 91.7721 116.747 92.0317 116.434 92.0317Z" fill="black"/>
<path d="M116.433 109.012C116.12 109.012 115.869 108.761 115.869 108.448V105.351C115.869 105.038 116.12 104.787 116.433 104.787C116.747 104.787 116.998 105.038 116.998 105.351V108.448C116.998 108.761 116.747 109.012 116.433 109.012Z" fill="black"/>
<path d="M91.6605 75.1527C91.6246 75.1527 91.5888 75.1527 91.553 75.1437C91.2485 75.0811 91.0514 74.7857 91.1052 74.4814C91.8217 70.8472 93.7474 57.2595 92.986 52.2827C92.3412 48.1115 89.8333 44.6564 86.4477 43.269C84.1459 42.3291 81.7814 42.5618 79.9632 43.9134C79.7124 44.1014 79.3631 44.0477 79.175 43.7971C78.9869 43.5464 79.0407 43.1973 79.2914 43.0094C81.4321 41.4161 84.1996 41.1207 86.8777 42.2217C90.6305 43.7523 93.398 47.5476 94.1056 52.1037C94.9386 57.5101 92.8338 71.5812 92.2158 74.6962C92.162 74.9647 91.9292 75.1527 91.6605 75.1527Z" fill="black"/>
<path d="M156.644 98.5153C160.388 96.2507 165.278 95.454 169.299 97.1816V97.1547L191.7 93.4132C191.7 93.4132 183.424 63.6508 192.524 60.2762C201.623 56.9017 214.109 99.9206 202.143 105.542C190.177 111.163 169.102 106.544 169.102 106.544C169.102 106.544 165.305 106.894 163.934 107.547C160.549 109.158 159.931 109.982 159.465 109.176C158.865 108.129 165.081 103.868 165.072 103.868C164.794 103.752 160.647 106.732 159.232 107.798C158.874 108.075 157.575 108.943 157.181 108.281C156.886 107.798 157.396 107.144 157.62 106.741C158.489 105.193 163.03 101.415 163.03 101.415C163.03 101.415 161.48 102.257 160.961 102.615C159.653 103.51 158.507 104.405 157.324 105.452C157.02 105.721 155.13 107.422 154.754 106.544C154.127 105.076 157.88 101.657 158.901 100.753C159.42 100.297 160.889 99.2493 161.364 98.9449C160.549 99.3388 156.402 101.129 154.969 101.747C154.682 101.863 153.231 102.078 153.312 101.487C153.491 100.243 155.712 99.0792 156.644 98.5153Z" fill="white"/>
<path d="M159.866 110.045C159.508 110.045 159.221 109.875 158.97 109.445C158.881 109.284 158.755 109.069 158.881 108.684C158.433 108.935 157.877 109.15 157.403 109.051C157.098 108.989 156.856 108.827 156.695 108.559C156.274 107.861 156.731 107.1 157.009 106.643C157.053 106.572 157.089 106.509 157.125 106.455C157.161 106.384 157.215 106.312 157.259 106.232C155.898 107.35 155.289 107.404 154.904 107.315C154.599 107.243 154.367 107.046 154.241 106.751C153.757 105.614 154.85 103.77 157.501 101.264C156.579 101.667 155.728 102.034 155.199 102.257C154.967 102.356 153.686 102.642 153.086 102.186C152.835 101.998 152.719 101.711 152.763 101.398C152.942 100.136 154.465 99.1424 156.015 98.2383L156.355 98.0414C160.475 95.553 165.419 95.007 169.315 96.5913L190.99 92.9661C189.825 88.5622 183.475 63.0337 192.324 59.7576C195.629 58.5313 199.454 62.3713 202.777 70.302C207.873 82.4486 210.667 102.168 202.374 106.062C190.64 111.575 170.757 107.485 169.064 107.118C167.971 107.225 165.195 107.574 164.174 108.058C163.117 108.559 162.32 108.989 161.738 109.302C160.976 109.714 160.367 110.045 159.866 110.045ZM159.955 108.89C159.964 108.899 159.964 108.908 159.964 108.917C159.964 108.908 159.964 108.899 159.955 108.89ZM165.132 103.305C165.204 103.305 165.249 103.323 165.276 103.331C165.473 103.412 165.607 103.591 165.625 103.797C165.661 104.128 165.455 104.271 165.249 104.415C161.093 107.35 160.215 108.541 160.027 108.89C160.26 108.81 160.717 108.568 161.191 108.308C161.783 107.986 162.598 107.547 163.681 107.037C165.123 106.348 168.876 105.999 169.037 105.981C169.091 105.972 169.154 105.981 169.207 105.99C169.413 106.035 190.237 110.501 201.881 105.032C209.252 101.568 206.753 82.7171 201.72 70.7316C198.746 63.6513 195.289 59.8471 192.7 60.8138C185.634 63.4365 189.96 85.125 192.226 93.2704C192.271 93.4226 192.244 93.5927 192.154 93.7269C192.065 93.8612 191.93 93.9507 191.769 93.9776L169.503 97.7012C169.36 97.7639 169.199 97.7728 169.055 97.7191C165.455 96.1706 160.797 96.6629 156.919 99.017L156.57 99.2229C155.809 99.6705 154.313 100.548 153.946 101.326C154.205 101.344 154.608 101.291 154.752 101.237C156.229 100.61 160.314 98.838 161.12 98.4531C161.388 98.3278 161.711 98.4263 161.863 98.6858C162.006 98.9454 161.926 99.2766 161.666 99.4377C161.218 99.7152 159.758 100.763 159.275 101.183C156.489 103.645 155.182 105.516 155.244 106.214C155.441 106.151 155.943 105.927 156.919 105.059C158.164 103.967 159.328 103.045 160.627 102.159C161.165 101.792 162.678 100.959 162.741 100.924C163.001 100.789 163.314 100.861 163.475 101.103C163.637 101.344 163.592 101.667 163.368 101.855C162.123 102.884 158.755 105.829 158.092 107.028C158.057 107.1 158.003 107.171 157.958 107.261C157.86 107.413 157.573 107.888 157.645 108.004C157.725 108.004 158.298 107.798 158.872 107.359C163.645 103.752 164.774 103.305 165.132 103.305Z" fill="black"/>
<path d="M190.559 100.626L185.508 199.097L206.09 201.595L209.296 154.387L218.342 202.391H237.581C237.581 202.391 226.815 107.599 226.43 103.634C226.036 99.6687 223.985 94.9336 223.985 94.9336L190.559 100.626Z" fill="black"/>
<path d="M187.012 84.7825C187.012 84.7825 182.265 65.5646 190.729 59.7732C194.867 56.9447 200.008 56.5956 200.008 56.5956C200.008 56.5956 200.707 54.4921 207.962 55.056C211.876 55.3603 218.727 55.9064 224.057 59.2809C233.667 65.3676 234.518 80.853 234.518 80.853L219.892 88.5509L217.536 83.2071L219.22 95.9356L190.559 100.626L188.607 84.7378L187.012 84.7825Z" fill="#7ABC2F"/>
<path d="M198.693 49.6152L197.851 54.7353L196.301 54.9769C196.301 54.9769 195.988 63.1314 202.436 63.4894C210.668 63.9549 214.456 56.1585 214.456 56.1585L209.476 55.1918L210.175 50.752L198.693 49.6152Z" fill="white"/>
<path d="M203.117 64.0707C202.875 64.0707 202.633 64.0618 202.391 64.0528C195.477 63.6679 195.728 55.039 195.728 54.9495C195.737 54.681 195.943 54.4572 196.202 54.4125L197.349 54.2334L198.119 49.5252C198.164 49.2298 198.442 49.0239 198.728 49.0597L210.201 50.1875C210.354 50.2054 210.497 50.2771 210.596 50.4024C210.694 50.5277 210.73 50.6799 210.703 50.832L210.094 54.7347L214.536 55.594C214.707 55.6298 214.859 55.7372 214.931 55.8984C215.002 56.0595 215.011 56.2385 214.931 56.3996C214.913 56.4712 211.133 64.0707 203.117 64.0707ZM196.856 55.4508C196.901 57.1157 197.421 62.6385 202.454 62.916C208.822 63.2651 212.459 58.3599 213.569 56.5518L209.36 55.7372C209.064 55.6835 208.858 55.3971 208.912 55.0928L209.521 51.2438L199.167 50.2234L198.415 54.8153C198.379 55.057 198.182 55.2449 197.94 55.2807L196.856 55.4508Z" fill="black"/>
<path d="M194.295 47.0358C193.435 42.059 196.597 37.3597 201.353 36.5451C206.109 35.7306 210.65 39.1051 211.51 44.0819C212.37 49.0587 209.208 53.7581 204.452 54.5726C199.705 55.3872 195.155 52.0126 194.295 47.0358Z" fill="white"/>
<path d="M203.018 55.2609C201.084 55.2609 199.194 54.6343 197.582 53.4349C195.549 51.9221 194.187 49.6933 193.748 47.1422C192.844 41.8701 196.212 36.8664 201.263 35.9981C203.708 35.5774 206.189 36.1772 208.231 37.6989C210.264 39.2116 211.626 41.4404 212.065 43.9915C212.969 49.2637 209.601 54.2673 204.55 55.1356C204.039 55.2161 203.529 55.2609 203.018 55.2609ZM202.786 36.9917C202.347 36.9917 201.899 37.0275 201.451 37.1081C197.018 37.8689 194.053 42.2818 194.859 46.9453C195.244 49.21 196.453 51.1881 198.254 52.5308C200.045 53.8645 202.212 54.3926 204.362 54.0256C208.795 53.2648 211.76 48.8519 210.954 44.1884C210.569 41.9238 209.36 39.9456 207.559 38.6029C206.135 37.5377 204.478 36.9917 202.786 36.9917Z" fill="black"/>
<path d="M203.458 36.4735C203.458 36.4735 203.225 39.9554 205.178 41.7994C207.13 43.6433 211.017 45.2992 211.017 45.2992L211.313 49.0766C211.313 49.0766 210.722 49.3809 210.328 50.1865C209.933 50.9921 209.298 51.7619 209.298 51.7619V54.8053C209.298 57.9919 212.182 60.3908 215.316 59.8179L223.055 58.3947C223.055 58.3947 224.972 54.7158 223.548 52.29C222.052 49.7658 219.777 50.4461 219.777 50.4461C219.777 50.4461 220.35 47.5012 218.577 44.7353C216.803 41.9605 214.779 42.2827 214.779 42.2827C214.779 42.2827 214.698 37.4133 211.958 35.2382C207.981 32.0874 206.252 33.1168 206.252 33.1168L203.458 36.4735Z" fill="black"/>
<path d="M210.202 46.0679C211.286 44.77 212.916 44.3135 213.838 45.0386C214.761 45.7636 214.627 47.4016 213.534 48.6995C212.45 49.9974 210.82 50.4539 209.898 49.7289C208.975 49.0038 209.109 47.3658 210.202 46.0679Z" fill="white"/>
<path d="M210.972 50.6413C210.443 50.6413 209.951 50.4891 209.548 50.1669C209.082 49.7999 208.804 49.2628 208.742 48.6183C208.643 47.6784 209.028 46.5864 209.772 45.7092C211.07 44.1606 213.014 43.6773 214.187 44.5992C214.653 44.9662 214.931 45.5033 214.993 46.1478C215.092 47.0877 214.707 48.1797 213.963 49.0569C213.112 50.0863 211.975 50.6413 210.972 50.6413ZM212.763 45.2616C212.091 45.2616 211.25 45.6913 210.632 46.4342C210.085 47.0877 209.799 47.8664 209.861 48.5019C209.888 48.7347 209.969 49.0659 210.246 49.2807C210.918 49.8088 212.226 49.3792 213.094 48.3319C213.641 47.6784 213.927 46.8997 213.865 46.2552C213.838 46.0225 213.757 45.6913 213.48 45.4765C213.292 45.3332 213.041 45.2616 212.763 45.2616Z" fill="black"/>
<path d="M210.014 48.6823C209.906 48.6823 209.799 48.6375 209.718 48.548C209.575 48.3869 209.593 48.1363 209.754 47.9931L212.629 45.442C212.79 45.2988 213.041 45.3077 213.184 45.4778C213.328 45.6389 213.31 45.8895 213.149 46.0328L210.274 48.5838C210.202 48.6465 210.103 48.6823 210.014 48.6823Z" fill="black"/>
<path d="M211.159 47.6991C210.98 47.6991 210.81 47.5738 210.774 47.3858C210.729 47.171 210.864 46.9651 211.079 46.9203L213.318 46.4549C213.524 46.4101 213.739 46.5444 213.784 46.7592C213.828 46.974 213.694 47.1799 213.479 47.2247L211.24 47.6901C211.213 47.6901 211.186 47.6991 211.159 47.6991Z" fill="black"/>
<path d="M200.225 48.9177C199.58 48.9177 198.953 48.3985 198.613 47.8793C198.228 47.2886 198.147 46.662 198.398 46.1786C198.505 45.9728 198.657 45.8385 198.846 45.7937C199.159 45.7221 199.41 45.9011 199.598 46.0265C199.634 46.0533 199.687 46.0891 199.732 46.116C200.296 45.3999 200.225 44.1825 200.171 43.2785C200.162 43.0637 200.323 42.8757 200.538 42.8578C200.753 42.8488 200.941 43.0099 200.959 43.2248C201.022 44.2273 201.111 45.749 200.279 46.6978C199.867 47.1632 199.347 46.8052 199.159 46.6709C199.141 46.653 199.114 46.6351 199.087 46.6172C199.025 46.85 199.096 47.1543 199.284 47.4407C199.553 47.8435 199.956 48.13 200.261 48.121C200.485 48.1121 200.664 48.2732 200.682 48.488C200.691 48.7028 200.529 48.8908 200.314 48.9087C200.27 48.9177 200.243 48.9177 200.225 48.9177Z" fill="black"/>
<path d="M204.031 45.0284C204.085 44.5629 204.317 44.2139 204.541 44.2407C204.774 44.2676 204.908 44.6614 204.855 45.1268C204.801 45.5923 204.568 45.9414 204.344 45.9145C204.12 45.8877 203.977 45.4849 204.031 45.0284Z" fill="black"/>
<path d="M204.37 46.3092C204.343 46.3092 204.326 46.3092 204.299 46.3092C203.824 46.2555 203.546 45.6916 203.636 44.9845C203.716 44.2684 204.128 43.8029 204.594 43.8477C205.06 43.9014 205.347 44.4653 205.257 45.1725C205.176 45.8438 204.809 46.3092 204.37 46.3092ZM204.469 44.8502C204.451 44.9129 204.433 44.9845 204.424 45.074C204.415 45.1635 204.415 45.2351 204.415 45.2978C204.433 45.2351 204.451 45.1635 204.46 45.074C204.478 44.9934 204.478 44.9129 204.469 44.8502Z" fill="black"/>
<path d="M197.003 44.3136C197.057 43.8481 197.29 43.499 197.514 43.5259C197.747 43.5527 197.881 43.9466 197.827 44.412C197.773 44.8775 197.541 45.2266 197.317 45.1998C197.093 45.1729 196.95 44.779 197.003 44.3136Z" fill="black"/>
<path d="M197.341 45.6038C197.314 45.6038 197.296 45.6038 197.269 45.6038C196.795 45.5501 196.517 44.9862 196.607 44.279C196.66 43.8494 196.83 43.4824 197.072 43.2854C197.225 43.1691 197.395 43.1154 197.565 43.1333C197.834 43.1601 198.048 43.357 198.156 43.6703C198.237 43.8941 198.263 44.1716 198.228 44.458C198.147 45.1383 197.78 45.6038 197.341 45.6038ZM197.439 44.1447C197.422 44.2074 197.404 44.279 197.395 44.3685C197.386 44.4491 197.386 44.5296 197.386 44.5923C197.404 44.5296 197.422 44.458 197.43 44.3685C197.448 44.279 197.448 44.2074 197.439 44.1447Z" fill="black"/>
<path d="M201.37 52.3453C201.298 52.3453 201.227 52.3453 201.155 52.3364C200.94 52.3095 200.779 52.1216 200.806 51.9067C200.833 51.6919 201.03 51.5308 201.236 51.5576C201.298 51.5666 202.857 51.683 203.591 49.9286C203.672 49.7316 203.904 49.6332 204.11 49.7137C204.308 49.7943 204.406 50.027 204.325 50.2329C203.618 51.9157 202.185 52.3453 201.37 52.3453Z" fill="black"/>
<path d="M196.473 41.9808C196.473 41.8286 197.028 41.7122 197.7 41.7212C198.38 41.7301 198.927 41.8644 198.927 42.0166C198.927 42.1687 198.371 42.2851 197.7 42.2762C197.019 42.2583 196.473 42.1329 196.473 41.9808Z" fill="black"/>
<path d="M197.788 42.6688C197.752 42.6688 197.725 42.6688 197.689 42.6688C197.26 42.6598 196.498 42.6061 196.212 42.3197C196.14 42.2481 196.068 42.087 196.068 41.9796C196.068 41.8722 196.14 41.7111 196.221 41.6394C196.507 41.353 197.278 41.3262 197.707 41.3262C198.782 41.3441 199.329 41.5768 199.329 42.0154C199.32 42.445 198.8 42.6688 197.788 42.6688Z" fill="black"/>
<path d="M204.264 42.607C204.299 42.4637 204.864 42.4727 205.517 42.6338C206.18 42.7949 206.682 43.0456 206.646 43.1888C206.61 43.332 206.046 43.323 205.392 43.1619C204.729 43.0098 204.228 42.7591 204.264 42.607Z" fill="black"/>
<path d="M206.278 43.6882C205.938 43.6882 205.553 43.6076 205.302 43.545C204.254 43.2854 203.779 42.9363 203.878 42.5066C203.985 42.077 204.568 41.9875 205.615 42.2381C206.036 42.3366 206.762 42.5604 206.977 42.9094C207.031 42.999 207.066 43.178 207.04 43.2764C207.013 43.3928 206.932 43.5002 206.816 43.5718C206.681 43.6613 206.484 43.6882 206.278 43.6882Z" fill="black"/>
<path d="M205.661 47.9617C205.481 47.532 205.929 46.9323 206.664 46.619C207.398 46.3057 208.142 46.4042 208.321 46.8339C208.5 47.2635 208.052 47.8632 207.318 48.1765C206.583 48.4809 205.84 48.3914 205.661 47.9617Z" fill="#F46F60"/>
<path d="M194.105 42.362C194.105 42.362 195.449 42.5141 198.109 41.2968C200.769 40.0705 203.832 36.3826 203.832 36.3826L206.224 33.3661C206.224 33.3661 206.645 32.6232 204.764 32.7664C202.883 32.9096 198.772 34.2254 196.775 36.6243C194.777 39.0232 194.105 42.362 194.105 42.362Z" fill="black"/>
<path d="M194.107 42.3653C194.107 42.3653 194.053 43.2872 193.22 45.149C192.674 46.3574 191.599 49.553 191.59 51.8087C191.581 54.3239 191.948 56.5527 192.342 58.1997C192.727 59.802 194.393 60.7418 195.961 60.2406C197.788 59.6588 198.961 57.8685 198.764 55.953L198.496 53.3661C198.496 53.3661 195.155 50.2959 194.608 48.273C194.223 46.8677 194.232 43.6274 194.519 42.4548C194.635 41.9177 194.107 42.3653 194.107 42.3653Z" fill="black"/>
<path d="M205.123 30.0745C204.747 27.8725 206.216 25.7869 208.41 25.411C210.605 25.035 212.692 26.512 213.068 28.7139C213.444 30.9159 211.975 33.0015 209.781 33.3775C207.586 33.7445 205.499 32.2675 205.123 30.0745Z" fill="black"/>
<path d="M211.268 45.0306C208.599 45.0306 203.78 44.0996 203.081 40.4744C202.911 39.5883 202.965 38.8006 203.01 38.0308C203.037 37.6101 203.064 37.1804 203.055 36.7418C203.046 36.4285 203.296 36.1689 203.601 36.1689C203.61 36.1689 203.61 36.1689 203.61 36.1689C203.914 36.1689 204.165 36.4106 204.174 36.7239C204.183 37.2073 204.156 37.6638 204.129 38.1113C204.085 38.8364 204.04 39.5167 204.183 40.2686C204.72 43.0524 208.832 43.9654 211.492 43.9117C211.805 43.9206 212.065 44.1534 212.065 44.4577C212.074 44.771 211.823 45.0306 211.519 45.0306C211.438 45.0306 211.357 45.0306 211.268 45.0306Z" fill="black"/>
<path d="M195.539 42.7408C195.261 42.7408 194.858 42.6692 194.455 42.5886C194.419 42.5886 194.383 42.5797 194.339 42.5707C194.043 42.4901 193.792 42.1769 193.864 41.8815C193.882 41.792 194.034 41.3534 194.625 41.4787C195.306 41.6129 195.503 41.6219 195.557 41.6219C196.399 41.5682 197.294 41.3534 198.154 41.0043C200.384 40.0913 201.674 38.3189 203.125 36.0991C203.295 35.8395 203.644 35.7679 203.904 35.938C204.164 36.108 204.236 36.4571 204.065 36.7167C202.507 39.1066 201.119 41.0132 198.584 42.0515C197.599 42.4543 196.605 42.6871 195.637 42.7497C195.601 42.7408 195.566 42.7408 195.539 42.7408Z" fill="black"/>
<path d="M192.226 56.9889C192.127 56.9889 192.029 56.9531 191.957 56.8815C191.876 56.801 189.951 54.9033 190.416 49.4253C190.631 46.9369 192.091 44.8423 193.506 42.8104C193.829 42.345 194.142 41.8974 194.447 41.4409C194.975 40.6264 195.36 39.776 195.728 38.9615C196.587 37.046 197.403 35.2378 199.892 34.3338C200.098 34.2622 200.322 34.3696 200.403 34.5665C200.475 34.7724 200.367 34.9962 200.17 35.0678C197.994 35.8555 197.277 37.4398 196.453 39.2748C196.068 40.1251 195.674 41.0023 195.11 41.8706C194.805 42.3271 194.483 42.7925 194.16 43.258C192.808 45.2004 191.402 47.2144 191.213 49.4879C190.784 54.599 192.494 56.2908 192.512 56.3087C192.673 56.4608 192.673 56.7115 192.53 56.8636C192.432 56.9442 192.324 56.9889 192.226 56.9889Z" fill="black"/>
<path d="M215.996 44.4412C215.79 44.4412 215.611 44.2801 215.602 44.0653C215.485 41.4963 214.706 39.0348 213.461 37.3072C212.001 35.2843 209.941 34.2728 207.514 34.3892C207.272 34.4071 207.111 34.2281 207.102 34.0132C207.093 33.7984 207.263 33.6104 207.478 33.6015C210.174 33.4672 212.476 34.604 214.097 36.8507C215.449 38.7304 216.264 41.2815 216.39 44.0295C216.399 44.2443 216.229 44.4323 216.014 44.4412C216.005 44.4412 215.996 44.4412 215.996 44.4412Z" fill="black"/>
<path d="M221.083 52.3157C220.877 52.3157 220.707 52.1545 220.689 51.9487C220.34 47.4731 220.125 46.3095 216.695 43.3825C216.534 43.2393 216.507 42.9886 216.65 42.8275C216.793 42.6664 217.044 42.6396 217.205 42.7828C220.851 45.8888 221.11 47.3389 221.469 51.886C221.486 52.1008 221.325 52.2978 221.11 52.3067C221.11 52.3157 221.101 52.3157 221.083 52.3157Z" fill="black"/>
<path d="M209.996 33.1442C209.271 33.1442 208.545 32.9741 207.891 32.625C206.449 31.8463 205.688 30.3962 205.805 28.6328C205.805 28.6149 205.984 26.5562 207.497 25.3478C208.357 24.6585 209.45 24.4079 210.74 24.6138C212.531 24.8913 213.848 26.0639 214.268 27.7288C214.698 29.4116 214.054 31.2018 212.629 32.2759C211.877 32.8488 210.937 33.1442 209.996 33.1442ZM209.907 25.3299C209.154 25.3299 208.509 25.5447 207.99 25.9565C206.915 26.8068 206.611 28.3195 206.584 28.6776C206.485 30.1098 207.094 31.2913 208.259 31.9179C209.495 32.5803 211.062 32.4729 212.155 31.6404C213.337 30.7453 213.856 29.3131 213.507 27.9167C213.167 26.5651 212.083 25.6163 210.614 25.3836C210.372 25.3478 210.14 25.3299 209.907 25.3299Z" fill="black"/>
<path d="M192.18 91.2979C192.207 90.367 192.978 89.633 193.909 89.6599C194.84 89.6867 195.575 90.4565 195.548 91.3874C195.521 92.3183 194.751 93.0523 193.819 93.0255C192.888 92.9986 192.154 92.2288 192.18 91.2979Z" fill="black"/>
<path d="M195.11 73.8165C195.137 72.8856 195.907 72.1516 196.838 72.1784C197.77 72.2053 198.504 72.9751 198.477 73.906C198.45 74.8369 197.68 75.5709 196.749 75.544C195.826 75.5261 195.092 74.7474 195.11 73.8165Z" fill="black"/>
<path d="M205.149 68.0186C205.176 67.0877 205.946 66.3537 206.878 66.3806C207.809 66.4074 208.544 67.1772 208.517 68.1081C208.49 69.039 207.72 69.773 206.788 69.7462C205.857 69.7193 205.122 68.9495 205.149 68.0186Z" fill="black"/>
<path d="M199.641 81.4874C199.668 80.5565 200.438 79.8225 201.37 79.8493C202.301 79.8762 203.036 80.646 203.009 81.5769C202.982 82.5078 202.212 83.2418 201.28 83.2149C200.349 83.1881 199.614 82.4093 199.641 81.4874Z" fill="black"/>
<path d="M210.884 78.672C210.91 77.7411 211.681 77.0071 212.612 77.0339C213.544 77.0608 214.278 77.8306 214.251 78.7615C214.224 79.6924 213.454 80.4263 212.523 80.3995C211.591 80.3726 210.857 79.6029 210.884 78.672Z" fill="black"/>
<path d="M206.081 92.8292C206.108 91.8983 206.878 91.1643 207.809 91.1911C208.741 91.218 209.475 91.9878 209.448 92.9187C209.422 93.8496 208.651 94.5836 207.72 94.5567C206.788 94.5299 206.054 93.7601 206.081 92.8292Z" fill="black"/>
<path d="M217.538 87.0577C217.565 86.1268 218.335 85.3928 219.266 85.4197C220.198 85.4465 220.932 86.2163 220.906 87.1472C220.879 88.0781 220.108 88.8121 219.177 88.7853C218.245 88.7673 217.511 87.9886 217.538 87.0577Z" fill="black"/>
<path d="M217.706 68.966C217.733 68.035 218.503 67.301 219.434 67.3279C220.366 67.3547 221.1 68.1245 221.074 69.0555C221.047 69.9864 220.276 70.7204 219.345 70.6936C218.413 70.6757 217.679 69.8969 217.706 68.966Z" fill="black"/>
<path d="M218.21 59.7286C218.237 58.7977 219.007 58.0637 219.938 58.0906C220.87 58.1174 221.604 58.8872 221.577 59.8181C221.551 60.749 220.78 61.483 219.849 61.4562C218.917 61.4293 218.183 60.6595 218.21 59.7286Z" fill="black"/>
<path d="M223.044 76.2442C223.071 75.3133 223.841 74.5793 224.772 74.6062C225.704 74.633 226.438 75.4028 226.411 76.3337C226.384 77.2646 225.614 77.9986 224.683 77.9718C223.751 77.9449 223.017 77.1751 223.044 76.2442Z" fill="black"/>
<path d="M185.498 73.5606C185.525 72.6297 186.295 71.8957 187.227 71.9226C188.158 71.9494 188.893 72.7192 188.866 73.6501C188.839 74.581 188.069 75.315 187.137 75.2882C186.215 75.2703 185.48 74.4915 185.498 73.5606Z" fill="black"/>
<path d="M200.395 98.6816L195.344 86.5439L200.395 98.6816Z" fill="white"/>
<path d="M200.394 99.245C200.17 99.245 199.964 99.1108 199.875 98.896L194.823 86.7583C194.707 86.4718 194.841 86.1406 195.128 86.0243C195.414 85.9079 195.746 86.0422 195.862 86.3286L200.913 98.4574C201.03 98.7438 200.896 99.075 200.609 99.1913C200.537 99.2271 200.466 99.245 200.394 99.245Z" fill="black"/>
<path d="M213.686 96.4219L214.116 83.416L213.686 96.4219Z" fill="white"/>
<path d="M213.686 96.9834C213.677 96.9834 213.677 96.9834 213.668 96.9834C213.354 96.9744 213.112 96.7149 213.121 96.4016L213.551 83.3956C213.56 83.0823 213.829 82.8496 214.133 82.8496C214.447 82.8586 214.689 83.1181 214.68 83.4314L214.25 96.4374C214.241 96.7417 213.99 96.9834 213.686 96.9834Z" fill="black"/>
<path d="M192.18 105.89C191.992 105.89 191.831 105.756 191.795 105.568C191.751 105.353 191.894 105.147 192.109 105.103L213.184 100.958C213.399 100.914 213.605 101.057 213.649 101.272C213.694 101.487 213.551 101.692 213.336 101.737L192.261 105.881C192.234 105.89 192.207 105.89 192.18 105.89Z" fill="white"/>
<path d="M192.091 112.338C191.563 112.338 191.205 112.221 191.196 112.212C190.99 112.141 190.882 111.908 190.954 111.702C191.025 111.496 191.258 111.389 191.455 111.46C191.536 111.487 193.318 112.051 194.707 109.921C196.229 107.576 196.561 105.911 196.561 105.893C196.606 105.678 196.812 105.535 197.027 105.579C197.241 105.624 197.385 105.83 197.34 106.045C197.331 106.117 196.982 107.871 195.37 110.359C194.295 112.015 192.951 112.338 192.091 112.338Z" fill="white"/>
<path d="M193.085 45.8831C193.166 45.4534 193.784 45.3102 194.455 45.5608C195.127 45.8025 195.611 46.3485 195.53 46.7781C195.449 47.2078 194.831 47.351 194.16 47.1004C193.488 46.8498 193.004 46.3127 193.085 45.8831Z" fill="#F46F60"/>
<path d="M183.512 99.7704C187.256 97.5058 192.146 96.7091 196.168 98.4367V98.4098L219.392 94.525C219.392 94.525 212.477 64.333 221.577 60.9585C230.677 57.5839 240.959 101.176 229.002 106.788C217.036 112.409 195.962 107.791 195.962 107.791C195.962 107.791 192.164 108.14 190.794 108.793C187.408 110.404 186.79 111.228 186.324 110.422C185.724 109.375 191.94 105.114 191.931 105.114C191.653 104.998 187.507 107.979 186.091 109.044C185.733 109.321 184.435 110.189 184.04 109.527C183.745 109.044 184.255 108.39 184.479 107.987C185.348 106.439 189.889 102.662 189.889 102.662C189.889 102.662 188.34 103.503 187.82 103.861C186.512 104.756 185.366 105.651 184.184 106.699C183.879 106.967 181.989 108.668 181.613 107.791C180.986 106.323 184.739 102.903 185.76 101.999C186.28 101.543 187.748 100.495 188.223 100.191C187.408 100.585 183.261 102.375 181.828 102.993C181.542 103.109 180.091 103.324 180.171 102.733C180.359 101.489 182.581 100.334 183.512 99.7704Z" fill="white"/>
<path d="M186.736 111.298C186.387 111.298 186.091 111.128 185.84 110.698C185.742 110.537 185.626 110.322 185.751 109.938C185.303 110.188 184.748 110.394 184.273 110.305C183.969 110.242 183.727 110.072 183.566 109.812C183.145 109.114 183.601 108.353 183.879 107.897C183.924 107.825 183.96 107.762 183.995 107.709C184.04 107.637 184.085 107.565 184.139 107.485C182.777 108.604 182.168 108.658 181.783 108.568C181.479 108.496 181.246 108.299 181.111 108.004C180.628 106.867 181.72 105.023 184.372 102.517C183.449 102.92 182.598 103.287 182.07 103.511C181.837 103.609 180.547 103.896 179.947 103.439C179.696 103.251 179.58 102.965 179.625 102.651C179.804 101.389 181.326 100.396 182.876 99.4916L183.216 99.2947C187.336 96.8063 192.28 96.2602 196.176 97.8446L218.711 94.0762C217.762 89.6991 212.54 63.7141 221.38 60.438C224.389 59.3191 227.578 62.3624 230.363 68.9862C235.639 81.5536 237.887 103.251 229.244 107.306C217.511 112.82 197.627 108.729 195.934 108.362C194.842 108.47 192.065 108.819 191.044 109.302C189.987 109.803 189.19 110.233 188.608 110.555C187.847 110.967 187.238 111.298 186.736 111.298ZM186.826 110.143C186.835 110.152 186.835 110.161 186.835 110.17C186.835 110.161 186.826 110.152 186.826 110.143ZM192.003 104.558C192.074 104.558 192.119 104.576 192.146 104.585C192.334 104.665 192.468 104.835 192.495 105.032C192.54 105.372 192.316 105.534 192.128 105.659C187.963 108.604 187.085 109.785 186.897 110.143C187.13 110.063 187.587 109.821 188.062 109.562C188.653 109.239 189.468 108.801 190.552 108.282C191.994 107.592 195.746 107.243 195.908 107.225C195.961 107.216 196.024 107.225 196.078 107.234C196.284 107.279 217.108 111.746 228.751 106.277C236.391 102.687 234.358 81.4372 229.307 69.407C226.87 63.5977 224.049 60.6259 221.756 61.4763C213.221 64.636 219.857 94.0941 219.92 94.3895C219.956 94.5416 219.929 94.7028 219.839 94.8281C219.75 94.9534 219.616 95.0429 219.463 95.0697L196.364 98.9277C196.221 98.9903 196.06 99.0082 195.917 98.9456C192.316 97.397 187.659 97.8893 183.78 100.243L183.431 100.449C182.67 100.897 181.174 101.774 180.807 102.553C181.067 102.571 181.461 102.517 181.613 102.463C183.046 101.855 187.175 100.064 187.981 99.6796C188.25 99.5453 188.572 99.6527 188.716 99.9123C188.859 100.172 188.778 100.503 188.518 100.664C188.08 100.942 186.62 101.98 186.127 102.41C183.342 104.871 182.034 106.751 182.097 107.44C182.294 107.378 182.795 107.154 183.78 106.285C185.016 105.193 186.19 104.28 187.488 103.385C188.026 103.018 189.54 102.186 189.602 102.15C189.862 102.007 190.175 102.087 190.337 102.329C190.498 102.571 190.453 102.893 190.229 103.081C188.984 104.11 185.617 107.055 184.954 108.255C184.918 108.326 184.864 108.398 184.819 108.487C184.721 108.64 184.434 109.114 184.506 109.23C184.613 109.23 185.16 109.016 185.733 108.586C190.516 105.005 191.635 104.558 192.003 104.558Z" fill="black"/>
<path d="M187.507 199.922L186.217 214.808L188.187 218.656L192.719 226.328H199.266V218.656L201.962 200.951L187.507 199.922Z" fill="white"/>
<path d="M199.265 226.722H192.718C192.575 226.722 192.449 226.651 192.378 226.525L187.837 218.854L185.857 214.987C185.821 214.925 185.812 214.844 185.812 214.773L187.102 199.878C187.12 199.663 187.326 199.502 187.523 199.52L201.979 200.549C202.087 200.558 202.194 200.612 202.257 200.693C202.328 200.782 202.355 200.889 202.337 200.997L199.65 218.702L199.659 226.311C199.668 226.543 199.489 226.722 199.265 226.722ZM192.942 225.926H198.871V218.648L201.495 201.31L187.855 200.334L186.61 214.728L188.526 218.469L192.942 225.926Z" fill="black"/>
<path d="M183.684 216.102C183.684 216.102 170.894 220.926 170.32 227.201V227.21C170.24 228.132 171.001 228.911 171.933 228.893L200.692 228.463L200.164 226.315H192.721L187.795 217.883L185.77 213.918C184.911 213.085 183.478 213.775 183.585 214.965L183.684 216.102Z" fill="white"/>
<path d="M171.914 229.297C171.358 229.297 170.83 229.064 170.454 228.662C170.078 228.259 169.889 227.722 169.934 227.185C170.481 221.169 181.327 216.613 183.271 215.844L183.199 215.011C183.136 214.304 183.512 213.651 184.148 213.337C184.784 213.024 185.537 213.149 186.047 213.642C186.083 213.668 186.11 213.704 186.128 213.749L188.152 217.714L192.953 225.932H200.172C200.351 225.932 200.512 226.057 200.557 226.236L201.085 228.384C201.112 228.5 201.085 228.626 201.013 228.715C200.942 228.814 200.825 228.867 200.709 228.867L171.949 229.297C171.932 229.297 171.923 229.297 171.914 229.297ZM184.883 213.955C184.739 213.955 184.596 213.991 184.489 214.044C184.22 214.17 183.942 214.474 183.978 214.931L184.077 216.058C184.095 216.237 183.987 216.399 183.826 216.461C183.7 216.506 171.26 221.268 170.722 227.229C170.696 227.561 170.803 227.874 171.027 228.116C171.26 228.366 171.582 228.483 171.932 228.5L200.198 228.08L199.858 226.71H192.729C192.585 226.71 192.46 226.639 192.388 226.513L187.462 218.081L185.456 214.161C185.268 214.018 185.071 213.955 184.883 213.955Z" fill="black"/>
<path d="M170.373 226.835L199.267 226.325L170.373 226.835Z" fill="white"/>
<path d="M170.373 227.231C170.158 227.231 169.979 227.061 169.979 226.846C169.979 226.631 170.149 226.452 170.364 226.443L199.257 225.933C199.463 225.924 199.652 226.103 199.66 226.318C199.66 226.533 199.49 226.712 199.275 226.721L170.373 227.231C170.382 227.231 170.382 227.231 170.373 227.231Z" fill="black"/>
<path d="M220.223 202.393L221.62 214.809L223.581 218.658L228.122 226.329H234.67V218.658L235.556 201.104L220.223 202.393Z" fill="white"/>
<path d="M234.67 226.721H228.123C227.979 226.721 227.854 226.65 227.782 226.524L223.241 218.853L221.262 214.986C221.244 214.942 221.226 214.897 221.217 214.852L219.82 202.437C219.811 202.329 219.838 202.222 219.91 202.142C219.981 202.061 220.08 202.007 220.178 201.998L235.512 200.709C235.628 200.7 235.736 200.736 235.816 200.817C235.897 200.897 235.942 201.005 235.933 201.121L235.046 218.674V226.327C235.064 226.542 234.885 226.721 234.67 226.721ZM228.347 225.924H234.276V218.647L235.136 201.524L220.662 202.741L222.005 214.682L223.94 218.459L228.347 225.924Z" fill="black"/>
<path d="M219.086 216.108C219.086 216.108 206.296 220.932 205.723 227.207V227.216C205.642 228.138 206.403 228.917 207.335 228.899L236.094 228.469L235.566 226.321H228.123L223.197 217.889L221.173 213.924C220.313 213.091 218.88 213.78 218.987 214.971L219.086 216.108Z" fill="white"/>
<path d="M207.308 229.301C206.753 229.301 206.224 229.068 205.848 228.666C205.472 228.263 205.284 227.726 205.329 227.189C205.875 221.173 216.722 216.617 218.665 215.847L218.593 215.015C218.531 214.308 218.907 213.654 219.543 213.341C220.188 213.037 220.931 213.153 221.442 213.645C221.477 213.672 221.504 213.708 221.522 213.753L223.546 217.718L228.347 225.935H235.566C235.745 225.935 235.907 226.061 235.951 226.24L236.48 228.388C236.507 228.504 236.48 228.63 236.408 228.719C236.336 228.818 236.22 228.871 236.104 228.871L207.344 229.301C207.326 229.301 207.317 229.301 207.308 229.301ZM220.286 213.959C220.143 213.959 220 213.995 219.892 214.048C219.623 214.174 219.346 214.478 219.382 214.934L219.48 216.062C219.498 216.241 219.391 216.402 219.229 216.465C219.104 216.51 206.663 221.272 206.126 227.233C206.099 227.565 206.207 227.878 206.43 228.119C206.663 228.361 206.977 228.504 207.317 228.504C207.326 228.504 207.326 228.504 207.335 228.504L235.602 228.084L235.262 226.714H228.132C227.989 226.714 227.864 226.643 227.792 226.517L222.866 218.085L220.859 214.165C220.671 214.021 220.465 213.959 220.286 213.959Z" fill="black"/>
<path d="M205.777 226.835L234.671 226.325L205.777 226.835Z" fill="white"/>
<path d="M205.777 227.231C205.562 227.231 205.383 227.061 205.383 226.846C205.383 226.631 205.553 226.452 205.768 226.443L234.662 225.933C234.877 225.924 235.056 226.103 235.065 226.318C235.065 226.533 234.895 226.712 234.68 226.721L205.777 227.231Z" fill="black"/>
<path d="M237.895 81.6852L216.981 88.7745C216.981 88.7745 214.277 79.3759 214.089 70.9887C214.062 69.9146 214.088 68.8494 214.151 67.82C214.492 62.9417 216.05 58.9406 220.009 58.2424C224.989 57.3562 226.887 58.9048 229.727 62.6463C231.446 64.9109 233.999 71.2035 235.674 75.5269C236.122 76.6816 236.525 77.7557 236.856 78.6777C237.492 80.4769 237.895 81.6852 237.895 81.6852Z" fill="#7ABC2F"/>
<path d="M209.289 154.791C209.092 154.791 208.921 154.647 208.895 154.451L203.628 115.773C203.601 115.558 203.753 115.352 203.968 115.325C204.183 115.29 204.389 115.451 204.416 115.665L209.683 154.343C209.71 154.558 209.557 154.764 209.342 154.791C209.324 154.791 209.307 154.791 209.289 154.791Z" fill="white"/>
<path d="M219.202 113.757C218.548 113.757 217.652 113.56 216.515 112.871C214.034 111.358 213.29 109.272 213.255 109.183C213.183 108.977 213.29 108.753 213.496 108.673C213.702 108.601 213.935 108.708 214.007 108.914C214.016 108.932 214.706 110.821 216.927 112.181C219.014 113.453 219.999 112.79 220.035 112.763C220.214 112.638 220.456 112.674 220.59 112.853C220.715 113.032 220.688 113.274 220.518 113.399C220.491 113.435 220.044 113.757 219.202 113.757Z" fill="white"/>
<path d="M202.903 194.038C202.894 194.038 202.885 194.038 202.867 194.038C202.652 194.02 202.482 193.832 202.5 193.609L204.309 170.551C203.673 170.04 202.795 169.208 202.876 168.599C202.903 168.367 203.055 168.179 203.288 168.08C203.53 167.982 203.736 167.892 203.924 167.829L201.703 166.012C201.577 165.914 201.524 165.744 201.568 165.592C201.613 165.44 201.747 165.323 201.9 165.305L204.506 164.974L207.095 141.182C207.121 140.967 207.327 140.806 207.533 140.833C207.748 140.86 207.91 141.057 207.883 141.272L205.258 165.377C205.241 165.556 205.097 165.708 204.909 165.726L202.912 165.977L204.963 167.659C205.079 167.749 205.133 167.901 205.097 168.044C205.07 168.188 204.963 168.304 204.82 168.349C204.811 168.349 204.363 168.483 203.682 168.769C203.825 169.038 204.372 169.602 204.945 170.049C205.052 170.13 205.106 170.264 205.097 170.398L203.279 193.671C203.288 193.877 203.109 194.038 202.903 194.038Z" fill="white"/>
<path d="M233.543 195.178C233.346 195.178 233.175 195.026 233.149 194.829L229.691 164.305C228.966 163.921 227.954 163.276 227.918 162.667C227.9 162.435 228.016 162.22 228.222 162.086C228.437 161.942 228.625 161.817 228.796 161.719L226.27 160.358C226.127 160.286 226.046 160.134 226.064 159.973C226.082 159.812 226.189 159.678 226.333 159.633L228.822 158.818L223.905 110.859C223.878 110.644 224.04 110.447 224.264 110.42C224.478 110.393 224.676 110.554 224.702 110.778L229.655 159.051C229.673 159.239 229.557 159.409 229.387 159.472L227.479 160.098L229.817 161.361C229.942 161.432 230.023 161.566 230.023 161.71C230.023 161.853 229.942 161.987 229.808 162.059C229.808 162.059 229.387 162.282 228.769 162.685C228.957 162.927 229.602 163.375 230.256 163.697C230.372 163.759 230.453 163.876 230.47 164.01L233.955 194.748C233.982 194.963 233.82 195.16 233.605 195.187C233.569 195.178 233.561 195.178 233.543 195.178Z" fill="white"/>
<path d="M222.616 74.5607C222.643 73.6297 223.413 72.8957 224.345 72.9226C225.276 72.9494 226.011 73.7193 225.984 74.6502C225.957 75.5811 225.187 76.3151 224.255 76.2882C223.324 76.2614 222.589 75.4916 222.616 74.5607Z" fill="black"/>
<path d="M221.576 63.461C221.603 62.5301 222.374 61.7961 223.305 61.823C224.237 61.8498 224.971 62.6196 224.944 63.5505C224.917 64.4814 224.147 65.2154 223.216 65.1886C222.293 65.1617 221.559 64.3919 221.576 63.461Z" fill="black"/>
<path d="M214.26 69.2812C214.242 70.0152 213.758 70.6149 213.104 70.8297C213.077 69.7556 213.104 68.6905 213.167 67.6611C213.821 67.9028 214.278 68.5473 214.26 69.2812Z" fill="black"/>
<path d="M217.706 82.7442C217.733 81.8133 218.503 81.0793 219.434 81.1062C220.366 81.133 221.1 81.9028 221.074 82.8337C221.047 83.7646 220.276 84.4986 219.345 84.4718C218.413 84.4539 217.679 83.6751 217.706 82.7442Z" fill="black"/>
<path d="M235.863 78.517C235.657 78.6065 235.424 78.6513 235.182 78.6423C234.25 78.6155 233.507 77.8457 233.534 76.9147C233.561 76.1897 234.035 75.59 234.68 75.3662C235.128 76.5209 235.54 77.595 235.863 78.517Z" fill="black"/>
<path d="M188.608 85.3042C188.304 85.3042 188.053 85.0625 188.044 84.7582L187.686 71.9402C187.677 71.6269 187.919 71.3673 188.232 71.3584C188.241 71.3584 188.241 71.3584 188.25 71.3584C188.554 71.3584 188.805 71.6001 188.814 71.9044L189.172 84.7224C189.181 85.0357 188.94 85.2952 188.626 85.3042C188.617 85.3042 188.617 85.3042 188.608 85.3042Z" fill="black"/>
<path d="M216.508 89.0897C216.257 89.0897 216.024 88.9196 215.961 88.6601C215.943 88.5884 214.161 81.1232 213.221 72.745C212.253 64.1609 215.299 60.4731 215.433 60.3209C215.63 60.0882 215.988 60.0524 216.23 60.2583C216.463 60.4641 216.499 60.8132 216.293 61.0549C216.248 61.1086 213.445 64.5995 214.349 72.6197C215.29 80.9263 217.054 88.3289 217.072 88.4005C217.144 88.7048 216.956 89.0091 216.651 89.0807C216.597 89.0807 216.553 89.0897 216.508 89.0897Z" fill="black"/>
<path d="M188.608 69.2351C188.572 69.2351 188.536 69.2351 188.5 69.2261C188.196 69.1635 187.99 68.8681 188.052 68.5637C188.097 68.3489 189.064 63.3273 189.924 61.5729C190.945 59.4873 191.913 59.2456 192.101 59.2188C192.414 59.174 192.692 59.3889 192.745 59.6932C192.79 59.9975 192.584 60.284 192.271 60.3377C192.289 60.3377 191.689 60.5525 190.945 62.0742C190.148 63.7033 189.172 68.7338 189.163 68.7875C189.109 69.0471 188.876 69.2351 188.608 69.2351Z" fill="black"/>
<path d="M244.88 219.22L248.006 228.359C248.006 228.359 248.516 229.961 250.317 229.961C252.108 229.961 251.803 228.171 251.803 228.171L251.472 220.258C251.472 220.258 247.916 218.503 246.734 217.277C245.552 216.042 244.029 215.236 244.029 215.236L244.88 219.22Z" fill="black"/>
<path d="M229.306 180.719L231.563 187.468C231.563 187.468 229.521 187.236 228.59 190.225C227.658 193.215 226.664 194.871 226.664 194.871C226.664 194.871 223.207 198.022 222.822 200.116C222.437 202.211 225.545 198.21 227.551 198.738C229.557 199.257 227.21 200.465 229.261 201.88C231.313 203.294 232.002 201.745 233.005 203.339C234.008 204.923 242.311 227.99 242.311 227.99C242.311 227.99 242.32 230.317 244.586 230.12C246.852 229.932 246.18 227.686 246.18 227.686L244.264 215.306C244.264 215.306 250.238 221.142 258.012 222.243C265.777 223.344 276.427 222.485 276.427 222.485C276.427 222.485 281.836 224.213 284.416 224.284C286.986 224.356 289.288 223.085 289.512 224.956C289.745 226.826 287.345 227.704 287.345 227.704C286.673 227.892 286.019 228.643 287.148 229.163C287.201 229.136 294.394 229.136 294.394 229.136C294.394 229.136 296.919 226.791 297.421 225.788C297.922 224.786 297.833 220.946 297.546 220.391C297.26 219.836 292.79 215.951 291.411 213.525C290.032 211.099 288.625 209.479 288.025 206.105C289.799 203.527 296.57 202.864 299.884 199.32C307.425 193.206 310.076 172.028 293.829 170.972C285.15 170.909 282.463 171.867 279.911 174.176C277.421 176.423 275.8 178.831 277.484 182.877C279.167 186.914 285.329 183.414 287.031 183.217C288.733 183.02 293.525 182.429 292.853 188.471C292.181 194.513 285.383 196.867 285.383 196.867L280.233 198.604L268.142 197.735L252.396 195.874L238.809 185.517L234.528 184.712L229.306 180.719Z" fill="#FFB800"/>
<path d="M287.909 205.481C287.909 205.481 286.091 205.777 285.679 207.988C285.267 210.199 285.849 211.586 287.39 213.537C288.384 214.791 289.88 217.136 291.062 218.362C292.405 219.741 293.812 220.573 294.277 221.065C294.77 221.575 294.439 224.914 294.439 224.914C294.439 224.914 294.403 226.758 293.364 227.429C292.334 228.11 291.169 228.996 291.169 228.996L294.465 229.085C294.465 229.085 296.821 227.242 297.537 225.63C297.797 225.049 298.03 221.647 297.824 220.618C297.618 219.588 294.824 217.637 292.826 215.14C289.692 211.228 287.909 205.481 287.909 205.481Z" fill="black"/>
<path d="M276.435 222.886C276.399 222.886 276.363 222.877 276.327 222.868C276.077 222.797 270.076 221.141 267.371 217.668C265.257 214.956 266.359 213.828 266.484 213.711C266.645 213.568 266.896 213.577 267.039 213.738C267.183 213.899 267.174 214.15 267.013 214.293C267.013 214.293 266.341 215.063 267.989 217.184C270.532 220.452 276.471 222.09 276.524 222.108C276.739 222.161 276.856 222.385 276.802 222.591C276.766 222.77 276.614 222.886 276.435 222.886Z" fill="black"/>
<path d="M232.719 194.656C232.656 194.459 233.964 193.241 234.224 193.205C234.457 193.179 234.734 194.861 234.654 195.005C234.537 195.202 232.791 194.888 232.719 194.656Z" fill="black"/>
<path d="M234.384 195.355C234.277 195.355 234.151 195.346 234.008 195.329C233.578 195.275 232.566 195.123 232.45 194.738C232.405 194.586 232.476 194.451 232.539 194.353C232.763 194.013 233.811 192.974 234.196 192.93C234.277 192.921 234.429 192.938 234.554 193.126C234.76 193.449 235.056 194.872 234.895 195.158C234.814 195.293 234.671 195.355 234.384 195.355ZM233.085 194.559C233.408 194.675 234.124 194.791 234.402 194.791C234.375 194.541 234.25 193.869 234.133 193.556C233.874 193.753 233.318 194.272 233.085 194.559Z" fill="black"/>
<path d="M236.033 195.749C235.532 195.749 235.003 195.623 234.502 195.355C234.367 195.283 234.314 195.113 234.385 194.979C234.457 194.845 234.627 194.791 234.762 194.863C235.702 195.355 236.678 195.301 237.359 194.728C238.022 194.173 238.237 193.251 237.923 192.276C237.878 192.124 237.959 191.971 238.102 191.918C238.255 191.873 238.407 191.953 238.461 192.097C238.837 193.278 238.55 194.451 237.717 195.149C237.251 195.552 236.66 195.749 236.033 195.749Z" fill="black"/>
<path d="M232.881 198.972C232.872 198.972 232.863 198.972 232.854 198.972C232.702 198.972 232.576 198.838 232.576 198.686C232.576 198.533 232.702 198.399 232.863 198.408C233.767 198.444 235.183 197.549 235.415 196.6C235.55 196.072 235.263 195.624 234.582 195.275C234.448 195.204 234.394 195.033 234.466 194.899C234.538 194.765 234.708 194.702 234.842 194.783C236.087 195.427 236.078 196.287 235.962 196.743C235.657 197.952 234.027 198.972 232.881 198.972Z" fill="black"/>
<path d="M230.346 196.799C230.274 196.799 230.202 196.772 230.149 196.718C229.656 196.244 229.558 195.555 229.898 194.964C230.274 194.328 231.008 194.024 231.68 194.23C231.832 194.275 231.913 194.436 231.868 194.579C231.823 194.731 231.662 194.812 231.519 194.767C231.026 194.615 230.579 194.91 230.382 195.241C230.301 195.385 230.068 195.868 230.525 196.307C230.641 196.414 230.641 196.593 230.534 196.709C230.489 196.772 230.417 196.799 230.346 196.799Z" fill="black"/>
<path d="M234.045 191.918C233.973 191.918 233.902 191.891 233.848 191.837C233.355 191.363 233.257 190.674 233.597 190.083C233.973 189.447 234.708 189.143 235.389 189.349C235.541 189.394 235.621 189.555 235.577 189.698C235.532 189.85 235.371 189.931 235.227 189.886C234.726 189.734 234.287 190.029 234.09 190.361C234.009 190.504 233.776 190.987 234.233 191.426C234.35 191.533 234.35 191.712 234.242 191.828C234.197 191.882 234.126 191.918 234.045 191.918Z" fill="black"/>
<path d="M244.433 216.768C244.245 216.768 244.075 216.625 244.048 216.428L243.636 213.662C243.609 213.456 243.744 213.259 243.95 213.214L245.186 212.964L243.869 212.373C243.717 212.301 243.618 212.14 243.636 211.979C243.654 211.809 243.771 211.675 243.941 211.63L246.144 211.102L245.105 210.637C244.908 210.547 244.818 210.314 244.908 210.117C244.998 209.921 245.23 209.831 245.428 209.921L247.514 210.869C247.667 210.941 247.765 211.102 247.747 211.263C247.729 211.433 247.613 211.567 247.443 211.612L245.239 212.14L246.619 212.758C246.771 212.83 246.87 212.991 246.852 213.161C246.834 213.331 246.708 213.474 246.538 213.501L244.469 213.922L244.827 216.311C244.863 216.526 244.711 216.732 244.496 216.759C244.478 216.759 244.451 216.768 244.433 216.768Z" fill="black"/>
<path d="M290.944 229.35C290.81 229.35 290.676 229.279 290.595 229.144C290.487 228.956 290.559 228.715 290.747 228.607C291.795 228.025 293.354 226.996 293.542 226.522C293.828 225.815 294.124 221.76 294.025 221.214C293.981 220.99 293.219 220.426 292.655 220.005C292.243 219.701 291.786 219.37 291.356 219.003C290.12 217.973 285.911 213.185 285.185 209.613C284.433 205.925 288.204 204.744 288.239 204.735C288.445 204.672 288.669 204.788 288.732 204.994C288.795 205.2 288.678 205.424 288.472 205.487C288.347 205.522 285.355 206.471 285.964 209.452C286.645 212.782 290.729 217.436 291.876 218.394C292.297 218.752 292.736 219.074 293.139 219.37C294.061 220.05 294.724 220.533 294.814 221.07C294.921 221.652 294.652 225.913 294.285 226.817C293.918 227.712 291.598 229.037 291.141 229.297C291.079 229.332 291.007 229.35 290.944 229.35Z" fill="black"/>
</svg>
