<svg width="64" height="64" viewBox="0 0 64 64" fill="none" xmlns="http://www.w3.org/2000/svg">
<g clip-path="url(#clip0)">
<path d="M23.4014 37.0771V40.0318C23.592 39.8412 23.7826 39.6506 23.9732 39.46C24.1639 39.2693 24.2592 38.9834 24.2592 38.6975C24.3545 38.4115 24.2592 38.0303 24.1639 37.7443C23.9732 37.4584 23.7826 37.2678 23.4014 37.0771Z" fill="#FAB70C"/>
<path d="M21.4 33.932V32.1211C21.2094 32.3117 21.0188 32.5977 21.0188 32.8836C20.9234 33.0742 20.9234 33.2648 21.0188 33.4555C21.0188 33.6461 21.2094 33.8367 21.4 33.932Z" fill="#FAB70C"/>
<path d="M32.3607 36.1234C32.3607 34.1219 31.7889 32.2156 30.6451 30.5953C29.5967 28.975 27.9764 27.6406 26.1654 26.9734C24.3545 26.2109 22.3529 26.0203 20.4467 26.4016C18.5404 26.7828 16.7295 27.7359 15.3951 29.1656C13.9654 30.5953 13.1076 32.3109 12.6311 34.2172C12.2498 36.1234 12.4404 38.125 13.2029 39.9359C13.9654 41.7469 15.2045 43.2719 16.8248 44.4156C18.4451 45.4641 20.3514 46.1313 22.3529 46.1313C25.0217 46.1313 27.4998 45.0828 29.4061 43.1766C31.3123 41.2703 32.3607 38.7922 32.3607 36.1234ZM26.3561 39.0781C26.2607 39.8406 25.8795 40.5078 25.4029 41.0797C24.9264 41.6516 24.2592 42.0328 23.4967 42.2234V42.8906C23.4967 43.1766 23.4014 43.4625 23.2107 43.6531C23.0201 43.8437 22.7342 43.9391 22.4482 43.9391C22.1623 43.9391 21.8764 43.8437 21.6857 43.6531C21.4951 43.4625 21.3998 43.1766 21.3998 42.8906V42.3188C20.542 42.2234 19.7795 41.9375 19.017 41.4609C18.8264 41.2703 18.6357 41.0797 18.5404 40.7937C18.4451 40.5078 18.5404 40.2219 18.7311 40.0312C18.9217 39.8406 19.1123 39.65 19.3982 39.5547C19.6842 39.4594 19.9701 39.5547 20.1607 39.7453C20.542 40.0312 20.9232 40.2219 21.3998 40.3172V36.2187C20.9232 36.0281 20.3514 35.7422 19.9701 35.3609C19.5889 34.9797 19.2076 34.5031 19.1123 34.0266C18.9217 33.55 18.9217 32.9781 19.017 32.4062C19.1123 31.7391 19.3982 31.1672 19.8748 30.6906C20.3514 30.2141 20.8279 29.9281 21.4951 29.7375V29.1656C21.4951 28.8797 21.5904 28.5937 21.7811 28.4031C21.9717 28.2125 22.2576 28.1172 22.5436 28.1172C22.8295 28.1172 23.1154 28.2125 23.3061 28.4031C23.4967 28.5937 23.592 28.8797 23.592 29.1656V29.6422C24.2592 29.7375 24.9264 30.1187 25.4029 30.5C25.5936 30.6906 25.6889 30.9766 25.6889 31.1672C25.6889 31.4531 25.5936 31.7391 25.4029 31.9297C25.117 32.3109 24.9264 32.4062 24.6404 32.4062C24.3545 32.4062 24.0686 32.3109 23.8779 32.1203C23.6873 32.025 23.592 31.9297 23.4014 31.8344V34.8844C23.592 34.9797 23.6873 34.9797 23.8779 35.075C24.7357 35.3609 25.4029 35.9328 25.8795 36.6C26.3561 37.3625 26.4514 38.2203 26.3561 39.0781Z" fill="#FAB70C"/>
<path d="M11.3926 18.1094V27.9266C11.3926 28.1172 11.4879 28.3078 11.6785 28.4984C11.8691 28.6891 12.0598 28.7844 12.2504 28.7844C12.441 28.7844 12.6316 28.6891 12.8223 28.4984C13.0129 28.3078 13.1082 28.1172 13.1082 27.9266V19.7297H49.4223V23.0656H38.1754C37.7941 23.0656 37.3176 23.1609 36.9363 23.3516C36.5551 23.5422 36.2691 23.8281 36.0785 24.2094L34.3629 26.9734C34.077 27.3547 33.9816 27.8313 33.9816 28.3078C33.9816 28.7844 34.077 29.2609 34.3629 29.6422L36.0785 32.4062C36.2691 32.7875 36.6504 33.0734 36.9363 33.2641C37.3176 33.4547 37.6988 33.55 38.1754 33.55H49.4223V31.9297H40.5582C40.3676 31.9297 40.177 32.025 39.9863 32.2156C39.7957 32.4062 39.7004 32.5969 39.7004 32.7875C39.7004 32.9781 39.7957 33.1687 39.9863 33.3594C40.177 33.55 40.3676 33.6453 40.5582 33.6453H49.4223V40.9844C49.4223 41.175 49.327 41.3656 49.1363 41.5562C48.9457 41.7469 48.7551 41.8422 48.5645 41.8422H31.9801C31.7895 41.8422 31.5988 41.9375 31.4082 42.1281C31.2176 42.3188 31.1223 42.5094 31.1223 42.7C31.1223 42.8906 31.2176 43.0813 31.4082 43.2719C31.5988 43.4625 31.7895 43.5578 31.9801 43.5578H48.5645C49.2316 43.5578 49.8035 43.2719 50.2801 42.7953C50.7566 42.3188 51.0426 41.7469 51.0426 41.0797L51.3285 18.1094H11.3926ZM38.1754 31.9297C38.0801 31.9297 37.8895 31.9297 37.7941 31.8344C37.6988 31.7391 37.6035 31.6437 37.5082 31.5484L35.7926 28.7844C35.6973 28.6891 35.6973 28.4984 35.6973 28.3078C35.6973 28.1172 35.6973 28.0219 35.7926 27.8313L37.5082 25.0672C37.6035 24.9719 37.6988 24.8766 37.7941 24.7812C37.8895 24.6859 37.9848 24.7812 38.1754 24.7812H49.4223V31.9297H38.1754Z" fill="#3F4042"/>
<path d="M48.5637 43.5584H31.9793C31.6934 43.5584 31.5027 43.4631 31.3121 43.2725C31.1215 43.0818 31.0262 42.8912 31.0262 42.6053C31.0262 42.3193 31.1215 42.1287 31.3121 41.9381C31.5027 41.7475 31.6934 41.6521 31.9793 41.6521H48.5637C48.7543 41.6521 48.9449 41.5568 49.0402 41.4615C49.1355 41.3662 49.2309 41.1756 49.2309 40.985V33.6459H38.1746C37.698 33.6459 37.3168 33.5506 36.9355 33.36C36.5543 33.1693 36.2684 32.8834 35.9824 32.5021L34.2668 29.7381C33.9809 29.3568 33.8855 28.8803 33.8855 28.4037C33.8855 27.9271 33.9809 27.4506 34.2668 27.0693L35.9824 24.3053C36.173 23.924 36.5543 23.6381 36.9355 23.4475C37.3168 23.2568 37.698 23.1615 38.1746 23.1615H49.3262V20.0162H13.1074V28.1178C13.1074 28.4037 13.0121 28.5943 12.8215 28.785C12.6309 28.9756 12.4402 29.0709 12.1543 29.0709C11.8684 29.0709 11.6777 28.9756 11.4871 28.785C11.2965 28.5943 11.2012 28.4037 11.2012 28.1178V18.0146H51.3277V18.11L51.0418 40.985C51.0418 41.6521 50.7559 42.3193 50.2793 42.7959C49.898 43.3678 49.2309 43.5584 48.5637 43.5584ZM31.9793 41.9381C31.7887 41.9381 31.598 42.0334 31.5027 42.1287C31.4074 42.224 31.3121 42.4146 31.3121 42.6053C31.3121 42.7959 31.4074 42.9865 31.5027 43.0818C31.598 43.1771 31.7887 43.2725 31.9793 43.2725H48.5637C49.2309 43.2725 49.8027 42.9865 50.2793 42.6053C50.7559 42.1287 50.9465 41.5568 50.9465 40.8897L51.2324 18.11H11.4871V27.8318C11.4871 28.0225 11.5824 28.2131 11.6777 28.3084C11.9637 28.5943 12.4402 28.5943 12.7262 28.3084C12.8215 28.2131 12.9168 28.0225 12.9168 27.8318V19.5396H49.5168V23.0662H38.1746C37.7934 23.0662 37.4121 23.1615 37.0309 23.3521C36.6496 23.5428 36.3637 23.8287 36.173 24.21L34.4574 26.974C34.2668 27.3553 34.0762 27.8318 34.0762 28.2131C34.0762 28.5943 34.1715 29.0709 34.4574 29.4521L36.173 32.2162C36.3637 32.5975 36.6496 32.8834 37.0309 33.074C37.4121 33.2646 37.7934 33.36 38.1746 33.36H40.0809L39.9855 33.2647C39.7949 33.074 39.6996 32.8834 39.6996 32.5975C39.6996 32.3115 39.7949 32.1209 39.9855 31.9303L40.0809 31.835H38.1746C37.984 31.835 37.8887 31.835 37.698 31.7396C37.6027 31.6443 37.4121 31.549 37.4121 31.4537L35.6965 28.6896C35.6012 28.499 35.6012 28.4037 35.6012 28.2131C35.6012 28.0225 35.6012 27.8318 35.6965 27.7365L37.4121 24.9725C37.5074 24.8771 37.6027 24.6865 37.698 24.6865C37.7934 24.5912 37.984 24.5912 38.1746 24.5912H49.5168V40.985C49.5168 41.2709 49.4215 41.4615 49.2309 41.6521C49.0402 41.8428 48.8496 41.9381 48.5637 41.9381H31.9793ZM40.5574 32.0256C40.3668 32.0256 40.1762 32.1209 40.0809 32.2162C39.8902 32.4068 39.8902 32.5975 39.8902 32.7881C39.8902 32.9787 39.9855 33.1693 40.0809 33.2647C40.1762 33.36 40.3668 33.4553 40.5574 33.4553H49.3262V32.0256H40.5574ZM38.1746 24.8771C38.0793 24.8771 37.8887 24.8771 37.7934 24.9725C37.698 25.0678 37.6027 25.1631 37.5074 25.2584L35.7918 28.0225C35.6965 28.1178 35.6965 28.3084 35.6965 28.4037C35.6965 28.499 35.6965 28.6896 35.7918 28.785L37.5074 31.549C37.6027 31.6443 37.698 31.7397 37.7934 31.835C37.8887 31.9303 37.984 31.9303 38.1746 31.9303H49.3262V24.9725H38.1746C38.1746 24.8771 38.1746 24.8771 38.1746 24.8771Z" fill="#3F4042"/>
<path d="M40.3668 27.6406H38.7465C38.5559 27.6406 38.3652 27.7359 38.1746 27.9266C37.984 28.1172 37.8887 28.3078 37.8887 28.4984C37.8887 28.6891 37.984 28.8797 38.1746 29.0703C38.3652 29.2609 38.5559 29.3562 38.7465 29.3562H40.3668C40.5574 29.3562 40.748 29.2609 40.9387 29.0703C41.1293 28.8797 41.2246 28.6891 41.2246 28.4984C41.2246 28.3078 41.1293 28.1172 40.9387 27.9266C40.748 27.7359 40.5574 27.6406 40.3668 27.6406Z" fill="#3F4042"/>
<path d="M4.66905 32.7086L4.48584 34.0303L9.48941 34.7239L9.67262 33.4022L4.66905 32.7086Z" fill="#3F4042"/>
<path d="M19.1883 47.4964L18.0962 52.4287L19.3991 52.7172L20.4912 47.7849L19.1883 47.4964Z" fill="#3F4042"/>
<path d="M12.08 42.0446L7.63916 44.4521L8.27512 45.6252L12.716 43.2176L12.08 42.0446Z" fill="#3F4042"/>
<path fill-rule="evenodd" clip-rule="evenodd" d="M11.2969 17.2516C11.2969 14.5828 13.2984 12.3906 15.6813 12.3906H46.8484C49.3266 12.3906 51.2328 14.5828 51.2328 17.2516L51.1375 27.7359C51.1375 28.3078 50.8516 28.7844 50.2797 28.7844C49.7078 28.7844 49.3266 28.3078 49.3266 27.7359V17.2516C49.3266 15.7266 48.1828 14.4875 46.8484 14.4875H15.6813C14.3469 14.4875 13.2031 15.7266 13.2031 17.2516C13.2031 23.3516 11.2969 25.7344 11.2969 17.2516Z" fill="#3F4042"/>
</g>
<defs>
<clipPath id="clip0">
<rect width="64" height="64" fill="white"/>
</clipPath>
</defs>
</svg>
