<svg width="124" height="141" viewBox="0 0 124 141" fill="none" xmlns="http://www.w3.org/2000/svg">
<path fill-rule="evenodd" clip-rule="evenodd" d="M139.99 29.2948C126.676 25.9102 118.869 21.6991 121.712 13.6318C122.487 11.451 125 9.68984 128.825 8.89507L39.6532 -50.7293C26.6872 -42.964 9.17506 -74.5497 1.76521 -36.3104C-6.11976 4.37015 24.2064 -23.5895 22.9299 -4.50738C17.1311 9.80063 -4.35605 -15.9288 3.65572 20.014C10.6745 51.4956 77.9399 12.8435 77.4194 29.1975C76.7 51.2627 1.34403 35.5856 26.9558 77.4227C52.6495 119.403 59.541 74.6175 72.9954 86.0462C89.5435 101.324 30.964 93.5712 72.2035 127.168C78.0597 131.944 84.1487 136.549 90.621 140.936C100.203 136.99 109.375 132.413 118.302 127.495C179.281 93.8951 89.4959 85.2424 114.471 69.1017C135.241 56.8536 157.836 109.371 182.911 74.1323C201.271 48.3169 178.228 51.3616 177.57 41.5177L157.189 27.8901C153.95 30.471 147.348 31.1591 139.99 29.2948ZM53.2678 -25.6953C62.4242 -23.2812 67.7692 -19.9149 65.6391 -12.558C64.5398 -8.78386 59.0432 -6.02154 51.5006 -8.00925C44.5051 -9.83884 39.2244 -15.2981 39.7163 -20.1607C40.2015 -25.0575 46.2723 -27.5249 53.2678 -25.6953ZM26.7905 -32.9567C30.6745 -31.843 32.9161 -30.2255 31.9676 -26.6768C31.4932 -24.858 29.1315 -23.5003 25.9449 -24.4146C22.9841 -25.2671 20.7779 -27.8695 20.9999 -30.2427C21.2424 -32.6022 23.8297 -33.8092 26.7905 -32.9567Z" fill="#C7D96C"/>
</svg>
