<svg width="70" height="70" viewBox="0 0 70 70" fill="none" xmlns="http://www.w3.org/2000/svg">
<path d="M24.3154 50.5961C24.6802 48.7312 22.6597 47.3117 21.004 48.258C19.0957 49.3714 16.5139 50.4013 13.6515 50.4013C10.7891 50.4013 8.23535 49.3714 6.299 48.258C4.67135 47.2838 2.67888 48.7312 3.0437 50.5961C3.82946 54.6321 6.299 59.6145 13.6796 59.6145C21.0882 59.6145 23.5577 54.6321 24.3154 50.5961Z" fill="url(#paint0_linear_16180_99044)"/>
<path d="M38.9365 53.1266C38.9365 59.9182 44.493 65.4016 51.3123 65.4016C58.1596 65.4016 63.688 59.8904 63.688 53.1266C63.688 46.335 58.1316 40.8517 51.3123 40.8517C44.4649 40.8238 38.9365 46.335 38.9365 53.1266Z" fill="url(#paint1_linear_16180_99044)"/>
<path d="M54.0331 45.5554C54.0331 44.0802 52.8264 42.8555 51.311 42.8555C49.8236 42.8555 48.5889 44.0523 48.5889 45.5554C48.5889 46.4739 49.2063 48.7285 51.311 51.1501" stroke="black" stroke-width="1.18885" stroke-miterlimit="10" stroke-linecap="round" stroke-linejoin="round"/>
<path d="M46.0928 47.0047C44.802 46.2531 43.1462 46.6985 42.3885 47.9789C41.6308 49.2593 42.0798 50.9015 43.3707 51.653C44.1846 52.0984 46.4296 52.7107 49.6288 52.1262" stroke="black" stroke-width="1.18885" stroke-miterlimit="10" stroke-linecap="round" stroke-linejoin="round"/>
<path d="M43.3707 54.5479C42.0798 55.2994 41.6308 56.9416 42.3885 58.222C43.1462 59.5024 44.802 59.9478 46.0928 59.1962C46.9067 58.7509 48.5624 57.0808 49.6288 54.0469" stroke="black" stroke-width="1.18885" stroke-miterlimit="10" stroke-linecap="round" stroke-linejoin="round"/>
<path d="M48.5889 60.6728C48.5889 62.1481 49.7956 63.3728 51.311 63.3728C52.7983 63.3728 54.0331 62.1759 54.0331 60.6728C54.0331 59.7543 53.4157 57.4997 51.311 55.0781" stroke="black" stroke-width="1.18885" stroke-miterlimit="10" stroke-linecap="round" stroke-linejoin="round"/>
<path d="M56.5594 59.2247C57.8503 59.9762 59.506 59.5308 60.2637 58.2505C61.0214 56.9701 60.5724 55.3278 59.2815 54.5763C58.4677 54.131 56.2226 53.5186 53.0234 54.1031" stroke="black" stroke-width="1.18885" stroke-miterlimit="10" stroke-linecap="round" stroke-linejoin="round"/>
<path d="M59.2532 51.6804C60.5441 50.9288 60.9931 49.2866 60.2354 48.0062C59.4777 46.7258 57.8219 46.2805 56.5311 47.032C55.7172 47.4774 54.0615 49.1474 52.9951 52.1814" stroke="black" stroke-width="1.18885" stroke-miterlimit="10" stroke-linecap="round" stroke-linejoin="round"/>
<path d="M36.7761 57.248C34.2785 58.7233 31.3039 59.614 27.9924 59.614C26.1683 59.614 24.4284 59.3356 22.8008 58.8346" stroke="black" stroke-width="1.78327" stroke-miterlimit="10" stroke-linecap="round" stroke-linejoin="round"/>
<path d="M12.0523 47.9509C11.7436 46.7541 11.5752 45.5015 11.5752 44.2211C11.5752 27.8545 35.5129 22.7052 43.0899 38.0976C43.4266 38.8213 43.7073 39.5728 43.9037 40.2965" stroke="black" stroke-width="1.78327" stroke-miterlimit="10" stroke-linecap="round" stroke-linejoin="round"/>
<path d="M13.6797 54.1836V55.7423" stroke="black" stroke-width="2.3777" stroke-miterlimit="10" stroke-linecap="round" stroke-linejoin="round"/>
<path d="M18.0293 53.5723L18.5064 55.0475" stroke="black" stroke-width="2.3777" stroke-miterlimit="10" stroke-linecap="round" stroke-linejoin="round"/>
<path d="M9.32961 53.6289L8.85254 55.132" stroke="black" stroke-width="2.3777" stroke-miterlimit="10" stroke-linecap="round" stroke-linejoin="round"/>
<path d="M64.3048 45.8641C64.5574 45.6971 64.7819 45.5301 65.0064 45.3074C66.2973 44.0271 66.5218 42.0508 65.7641 40.3251C70.0297 32.949 68.0933 22.3441 60.5444 14.8566C52.9954 7.36919 42.3035 5.44862 34.8668 9.67945C33.1549 8.90008 31.1625 9.12276 29.8435 10.431C28.5245 11.7114 28.3 13.6876 29.0858 15.3855C27.2617 18.5308 26.5882 22.2606 26.9811 26.0739" stroke="black" stroke-width="1.78327" stroke-miterlimit="10" stroke-linecap="round" stroke-linejoin="round"/>
<path d="M26.4202 7.50712C26.4202 7.50712 13.5393 6.00406 13.0342 20.9233C13.0342 20.9511 24.989 22.2315 26.4202 7.50712Z" stroke="black" stroke-width="1.78327" stroke-miterlimit="10" stroke-linecap="round" stroke-linejoin="round"/>
<path d="M25.3818 4C25.3818 4 25.7467 8.75968 29.8158 10.4019" stroke="black" stroke-width="1.78327" stroke-miterlimit="10" stroke-linecap="round" stroke-linejoin="round"/>
<path d="M43.5093 9.98438C40.8433 9.98438 38.3176 10.5967 36.1007 11.8493L34.9781 12.4895L33.7995 11.9606C33.4627 11.8214 33.126 11.7379 32.8173 11.7379C32.3402 11.7379 31.9193 11.9049 31.6386 12.1833C31.1335 12.6843 31.0493 13.5472 31.4141 14.3544L31.9473 15.5234L31.3019 16.6368C30.3197 18.3347 29.7304 20.2274 29.5059 22.2872C32.7892 19.6151 37.0829 18.1677 41.3765 18.0285C46.6804 17.8337 51.9562 19.5037 56.5585 22.1202C59.9261 24.0407 63.0692 26.6293 65.3423 29.7189C64.8091 25.1263 62.536 20.3944 58.7475 16.6368C54.3696 12.3225 48.729 9.98438 43.5093 9.98438Z" fill="url(#paint2_linear_16180_99044)"/>
<defs>
<linearGradient id="paint0_linear_16180_99044" x1="3" y1="47.3992" x2="5.26419" y2="66.531" gradientUnits="userSpaceOnUse">
<stop stop-color="#3F861A"/>
<stop offset="1" stop-color="#7AA72A"/>
</linearGradient>
<linearGradient id="paint1_linear_16180_99044" x1="38.9365" y1="39.7027" x2="47.3186" y2="78.7157" gradientUnits="userSpaceOnUse">
<stop stop-color="#3F861A"/>
<stop offset="1" stop-color="#7AA72A"/>
</linearGradient>
<linearGradient id="paint2_linear_16180_99044" x1="29.5059" y1="9.06084" x2="33.3646" y2="41.4089" gradientUnits="userSpaceOnUse">
<stop stop-color="#3F861A"/>
<stop offset="1" stop-color="#7AA72A"/>
</linearGradient>
</defs>
</svg>
