<svg width="145" height="94" viewBox="0 0 145 94" fill="none" xmlns="http://www.w3.org/2000/svg">
<path d="M72.1609 116.991C68.3544 119.429 51.5556 122.937 49.5822 98.0433C49.5751 97.9455 49.4698 97.8896 49.4206 97.8128C49.4909 95.1998 49.231 92.5169 49.1187 89.9528C49.0203 87.6892 49.0063 85.3976 48.7886 83.1409C48.5638 80.7794 48.922 78.0966 49.1046 75.7072C49.2029 74.4216 49.3715 73.1361 49.7086 71.8855C49.9965 70.7956 50.5513 69.8035 50.8252 68.7275C51.4643 66.1844 52.6231 63.7042 53.5571 61.2449C54.1892 59.5751 54.8142 57.9193 55.2426 56.1866C55.7623 54.0836 55.6921 51.7501 56.893 49.8637C57.9114 48.2638 59.2387 49.0044 60.4115 49.9965C61.6475 51.0375 62.3709 52.4907 62.5886 54.0766C63.326 59.5961 59.8146 72.8287 59.8146 72.8287C59.8146 72.8287 64.9764 79.7524 66.0509 85.5024C66.6128 88.4926 99.7539 86.0333 99.7539 86.0333C99.7539 86.0333 88.5664 104.597 81.4662 110.703C80.0546 111.905 75.1948 115.279 72.1609 116.991Z" fill="white"/>
<path d="M56.1621 76.0634L90.7571 46.9432C90.7571 46.9432 100.709 39.2928 102.998 43.5477C105.435 48.089 94.5074 55.1734 94.5074 55.1734L62.4476 83.4482L56.1621 76.0634Z" fill="white"/>
<path d="M62.427 83.7342L94.627 55.3336C95.238 54.9354 105.653 48.0675 103.174 43.4494C102.795 42.7437 102.198 42.3036 101.397 42.1289C97.7382 41.3464 90.9119 46.5514 90.624 46.775L55.8676 76.0349L62.427 83.7342ZM100.59 42.4643C100.842 42.4643 101.088 42.4852 101.313 42.5341C101.994 42.6808 102.486 43.0441 102.809 43.645C105.133 47.9697 94.5006 54.9284 94.3953 54.9982L94.3742 55.0192L62.4761 83.1543L56.4575 76.0908L90.8908 47.0964C90.947 47.0545 96.9657 42.4643 100.59 42.4643Z" fill="#051928"/>
<path d="M60.8467 15.4884V83.3353C60.8467 85.3823 62.5252 87.0451 64.5829 87.0451H93.0609C95.1186 87.0451 96.79 85.3823 96.79 83.3353V15.4884C96.79 14.65 96.5161 13.8814 96.0456 13.2596C95.3644 12.3584 94.2758 11.7715 93.0609 11.7715H64.5829C63.3609 11.7715 62.2794 12.3514 61.5981 13.2596C61.1276 13.8814 60.8467 14.657 60.8467 15.4884Z" fill="white"/>
<path d="M61.5981 13.2596C62.2794 12.3584 63.3609 11.7715 64.5829 11.7715H93.0609C94.2829 11.7715 95.3644 12.3514 96.0456 13.2596C96.5091 13.8814 96.79 14.65 96.79 15.4884V83.3353C96.79 85.3823 95.1186 87.0451 93.0609 87.0451H64.5829C62.5252 87.0451 60.8467 85.3823 60.8467 83.3353V15.4884C60.8467 14.657 61.1276 13.8814 61.5981 13.2596ZM62.167 83.0418C62.167 84.5369 63.389 85.7526 64.8919 85.7526H92.7448C94.2477 85.7526 95.4697 84.5369 95.4697 83.0418V15.9704C95.4697 14.4753 94.2548 13.2666 92.7448 13.2666H64.8919C63.389 13.2666 62.167 14.4753 62.167 15.9704V83.0418Z" fill="#051928"/>
<path d="M76.6836 25.1869H80.9746L80.6375 16.4746H77.0699L76.6836 25.1869Z" fill="#4A7336"/>
<path d="M78.7624 28.8686H78.8958C80.0476 28.8686 80.9746 27.9394 80.9746 26.8006V25.1797H76.6836V26.8006C76.6836 27.9464 77.6176 28.8686 78.7624 28.8686Z" fill="#4A7336"/>
<path d="M85.294 25.1869H89.585L87.7801 16.4746H84.2967L85.294 25.1869Z" fill="#4A7336"/>
<path d="M87.3517 28.8686H87.5272C88.665 28.8686 89.585 27.9534 89.585 26.8215V25.1797H85.294V26.8215C85.294 27.9534 86.214 28.8686 87.3517 28.8686Z" fill="#4A7336"/>
<path d="M93.876 25.1869H98.167L95.0839 16.4746H91.4741L93.876 25.1869Z" fill="#4A7336"/>
<path d="M95.968 28.8694H96.0663C97.2251 28.8694 98.1592 27.9332 98.1592 26.7874V25.1875H93.8682V26.7874C93.8752 27.9402 94.8092 28.8694 95.968 28.8694Z" fill="#4A7336"/>
<path d="M72.3506 25.1869H68.0526L69.8574 16.4746H73.3408L72.3506 25.1869Z" fill="#4A7336"/>
<path d="M70.2007 28.8686C69.0138 28.8686 68.0517 27.9114 68.0517 26.7307V25.1797H72.3427V26.7307C72.3498 27.9184 71.3876 28.8686 70.2007 28.8686Z" fill="#4A7336"/>
<path d="M63.7681 25.1869H59.4702L62.5532 16.4746H66.1699L63.7681 25.1869Z" fill="#4A7336"/>
<path d="M61.6188 28.8686C60.4319 28.8686 59.4698 27.9114 59.4698 26.7307V25.1797H63.7607V26.7307C63.7677 27.9184 62.8056 28.8686 61.6188 28.8686Z" fill="#4A7336"/>
<path d="M62.5672 15.8672H95.0693V16.482H62.5672V15.8672Z" fill="#051928"/>
<path d="M98.7916 58.2117C100.632 57.6248 102.928 58.7077 103.644 60.4194C104.944 63.5354 100.533 69.1876 96.9937 67.0357C95.6805 66.2393 95.3434 64.3878 95.6524 62.9625C95.856 62.0124 96.2985 61.1321 96.7409 60.2587C97.0289 59.6858 97.3308 59.0989 97.8435 58.7077C98.1315 58.4771 98.4545 58.3165 98.7916 58.2117Z" fill="white"/>
<path d="M98.6724 67.7135C99.6486 67.7135 100.66 67.3013 101.622 66.4839C103.357 65.0097 104.656 62.3058 103.834 60.3356C103.076 58.5121 100.639 57.4012 98.7286 58.0091C98.3563 58.1278 98.0192 58.3025 97.7102 58.5401C97.1554 58.9662 96.8324 59.602 96.5514 60.161C96.109 61.0273 95.6595 61.9286 95.4488 62.9137C95.1398 64.3669 95.4559 66.3371 96.8885 67.2035C97.4504 67.5458 98.0473 67.7135 98.6724 67.7135ZM99.8592 58.2536C101.348 58.2536 102.9 59.1619 103.455 60.4963C104.115 62.0823 103.174 64.6254 101.355 66.1764C99.9295 67.3851 98.3844 67.6367 97.1063 66.8611C95.8983 66.1275 95.5612 64.3669 95.8562 63.0045C96.0528 62.0753 96.4953 61.202 96.9237 60.3496C97.1835 59.8256 97.4855 59.2387 97.9631 58.8684C98.2299 58.6658 98.5249 58.5121 98.855 58.4073C99.178 58.3025 99.5151 58.2536 99.8592 58.2536Z" fill="#051928"/>
<path d="M80.9746 25.1869H85.2656L84.2403 16.4746H80.6375L80.9746 25.1869Z" fill="white"/>
<path d="M80.9743 25.3901H85.2653C85.3215 25.3901 85.3777 25.3622 85.4198 25.3202C85.462 25.2783 85.476 25.2154 85.469 25.1595L84.4436 16.4473C84.4296 16.3425 84.3453 16.2656 84.24 16.2656H80.6372C80.581 16.2656 80.5248 16.2866 80.4897 16.3285C80.4476 16.3704 80.4335 16.4263 80.4335 16.4752L80.7706 25.1875C80.7706 25.2993 80.8619 25.3901 80.9743 25.3901ZM85.0336 24.9779H81.1709L80.8479 16.6778H84.0503L85.0336 24.9779Z" fill="#051928"/>
<path d="M83.0604 28.8686H83.1798C84.3316 28.8686 85.2656 27.9394 85.2656 26.7936V25.1797H80.9746V26.7936C80.9746 27.9394 81.9087 28.8686 83.0604 28.8686Z" fill="white"/>
<path d="M83.0607 29.0777H83.1801C84.4442 29.0777 85.4766 28.0577 85.4766 26.7931V25.1792C85.4766 25.0674 85.3853 24.9766 85.2729 24.9766H80.9819C80.8696 24.9766 80.7783 25.0674 80.7783 25.1792V26.7931C80.7712 28.0507 81.7966 29.0777 83.0607 29.0777ZM85.0622 25.3888V26.7931C85.0622 27.8271 84.2195 28.6655 83.1801 28.6655H83.0607C82.0213 28.6655 81.1786 27.8271 81.1786 26.7931V25.3888H85.0622Z" fill="#051928"/>
<path d="M89.5918 25.1869H93.8828L91.4739 16.4746H87.7799L89.5918 25.1869Z" fill="white"/>
<path d="M89.5917 25.3901H93.8827C93.9459 25.3901 94.0091 25.3622 94.0442 25.3063C94.0864 25.2574 94.0934 25.1875 94.0794 25.1246L91.6705 16.4193C91.6424 16.3285 91.5652 16.2656 91.4739 16.2656H87.7869C87.7236 16.2656 87.6675 16.2936 87.6253 16.3425C87.5832 16.3914 87.5691 16.4543 87.5832 16.5102L89.3881 25.2224C89.4091 25.3202 89.4934 25.3901 89.5917 25.3901ZM93.6088 24.9779H89.7603L88.0397 16.6778H91.3194L93.6088 24.9779Z" fill="#051928"/>
<path d="M91.6485 28.8686H91.8171C92.9548 28.8686 93.8818 27.9534 93.8818 26.8146V25.1797H89.5908V26.8146C89.5908 27.9534 90.5108 28.8686 91.6485 28.8686Z" fill="white"/>
<path d="M91.6489 29.0785H91.8175C93.0676 29.0785 94.0859 28.0655 94.0859 26.8219V25.187C94.0859 25.0752 93.9946 24.9844 93.8823 24.9844H89.5912C89.4788 24.9844 89.3875 25.0752 89.3875 25.187V26.8219C89.3805 28.0655 90.3988 29.0785 91.6489 29.0785ZM93.6716 25.3896V26.8219C93.6716 27.8419 92.8358 28.6663 91.8175 28.6663H91.6489C90.6236 28.6663 89.7948 27.8349 89.7948 26.8219V25.3896H93.6716Z" fill="#051928"/>
<path d="M76.6619 25.1869H72.3709L73.3963 16.4746H76.999L76.6619 25.1869Z" fill="white"/>
<path d="M72.3713 25.389H76.6624C76.7747 25.389 76.866 25.3051 76.866 25.1934L77.2031 16.4811C77.2031 16.4252 77.1821 16.3693 77.1469 16.3344C77.1048 16.2924 77.0557 16.2715 76.9995 16.2715H73.3967C73.2914 16.2715 73.2071 16.3483 73.193 16.4531L72.1677 25.1654C72.1607 25.2213 72.1817 25.2842 72.2168 25.3261C72.259 25.361 72.3152 25.389 72.3713 25.389ZM76.4657 24.9768H72.6031L73.5793 16.6767H76.7817L76.4657 24.9768Z" fill="#051928"/>
<path d="M74.5701 28.8694H74.4718C73.313 28.8694 72.3789 27.9332 72.3789 26.7874V25.1875H76.6699V26.7874C76.6629 27.9402 75.7218 28.8694 74.5701 28.8694Z" fill="white"/>
<path d="M74.4644 29.0785H74.5627C75.8338 29.0785 76.8662 28.0515 76.8662 26.7869V25.187C76.8662 25.0752 76.7749 24.9844 76.6625 24.9844H72.3715C72.2592 24.9844 72.1679 25.0752 72.1679 25.187V26.7869C72.1679 28.0515 73.2002 29.0785 74.4644 29.0785ZM76.4589 25.3896V26.7869C76.4589 27.8209 75.6091 28.6663 74.5697 28.6663H74.4714C73.432 28.6663 72.5822 27.8209 72.5822 26.7869V25.3896H76.4589Z" fill="#051928"/>
<path d="M68.0516 25.1869H63.7535L66.1694 16.4746H69.8564L68.0516 25.1869Z" fill="white"/>
<path d="M63.7537 25.389H68.0448C68.1431 25.389 68.2273 25.3191 68.2484 25.2283L70.0533 16.516C70.0674 16.4531 70.0533 16.3903 70.0112 16.3483C69.9691 16.2994 69.9129 16.2715 69.8497 16.2715H66.1626C66.0713 16.2715 65.987 16.3344 65.9659 16.4252L63.5571 25.1375C63.543 25.2003 63.55 25.2632 63.5922 25.3191C63.6343 25.361 63.6905 25.389 63.7537 25.389ZM67.8832 24.9768H64.0276L66.3241 16.6767H69.6039L67.8832 24.9768Z" fill="#051928"/>
<path d="M65.9669 28.8686H65.8475C64.6958 28.8686 63.7617 27.9394 63.7617 26.7936V25.1797H68.0527V26.7936C68.0527 27.9394 67.1187 28.8686 65.9669 28.8686Z" fill="white"/>
<path d="M65.8401 29.0785H65.9595C67.2236 29.0785 68.249 28.0585 68.249 26.8009V25.187C68.249 25.0752 68.1577 24.9844 68.0454 24.9844H63.7542C63.6418 24.9844 63.5506 25.0752 63.5506 25.187V26.8009C63.5506 28.0515 64.5759 29.0785 65.8401 29.0785ZM67.8417 25.3896V26.7939C67.8417 27.8279 66.9989 28.6663 65.9595 28.6663H65.8401C64.8007 28.6663 63.9579 27.8279 63.9579 26.7939V25.3896H67.8417Z" fill="#051928"/>
<path d="M59.47 25.3896H98.1665C98.2788 25.3896 98.3701 25.2988 98.3701 25.187C98.3701 25.0752 98.2788 24.9844 98.1665 24.9844H59.4771C59.3647 24.9844 59.2734 25.0752 59.2734 25.187C59.2664 25.2988 59.3577 25.3896 59.47 25.3896Z" fill="#051928"/>
<path d="M68.7619 118.429C68.9023 118.401 72.182 117.745 77.077 114.398C81.5858 111.317 88.3418 105.274 94.9785 93.9694L94.6203 93.7598C82.0142 115.251 68.818 118.003 68.6846 118.024L68.7619 118.429Z" fill="#051928"/>
<path d="M68.6414 57.2817H88.6498C89.7595 57.2817 90.6514 56.3874 90.6514 55.2905V35.3857C90.6514 34.2818 89.7524 33.3945 88.6498 33.3945H68.6414C67.5318 33.3945 66.6399 34.2888 66.6399 35.3857V55.2905C66.6328 56.3874 67.5318 57.2817 68.6414 57.2817Z" fill="white"/>
<g clip-path="url(#clip0_16180_98658)">
<path d="M75.5814 38.3509C75.5814 38.3509 76.6387 41.3098 79.7071 41.3885C82.7781 41.4671 85.3098 40.4962 85.9846 40.3931C86.6567 40.2901 87.0286 40.4284 87.0286 40.4284L87.1296 41.2203C87.1296 41.2203 87.8256 42.1424 85.3125 43.2924C82.7993 44.4423 81.2957 44.7596 79.0961 43.946C76.8991 43.1324 75.8869 42.7147 75.353 40.8922C74.8163 39.0696 75.2281 38.3184 75.2281 38.3184L75.5814 38.3509Z" fill="white"/>
<path d="M81.3916 44.5501C80.6557 44.5501 79.9013 44.4036 79.0459 44.089C76.7824 43.251 75.7597 42.8007 75.2098 40.9375C74.6625 39.0743 75.0769 38.2796 75.0955 38.2471C75.1247 38.1956 75.1752 38.163 75.2363 38.1712L75.5923 38.2037C75.6481 38.2091 75.6986 38.2471 75.7172 38.3013C75.7278 38.3312 76.7798 41.1653 79.71 41.2386C82.0531 41.3009 84.104 40.7368 85.2038 40.4331C85.5492 40.3381 85.7989 40.2703 85.9609 40.2459C86.6623 40.1374 87.0607 40.2839 87.0793 40.2893C87.1298 40.3083 87.167 40.3544 87.175 40.4114L87.2706 41.1708C87.3184 41.2548 87.4114 41.4664 87.337 41.762C87.1962 42.337 86.5347 42.8984 85.3712 43.4327C83.8303 44.1351 82.6349 44.5501 81.3916 44.5501ZM75.3213 38.4776C75.2443 38.7163 75.0849 39.4594 75.494 40.848C76.0014 42.5784 76.9232 42.9797 79.1468 43.8042C81.3491 44.6206 82.8687 44.2436 85.2516 43.1533C86.5932 42.5404 86.9704 42.0169 87.0528 41.6861C87.1086 41.4528 87.0129 41.3145 87.0129 41.3118C86.997 41.2901 86.9864 41.2657 86.9837 41.2386L86.896 40.547C86.7579 40.5171 86.4524 40.471 86.0061 40.5416C85.86 40.5632 85.6049 40.6338 85.2808 40.7233C84.1651 41.0297 82.0903 41.5993 79.702 41.5396C76.8781 41.4664 75.6906 39.0011 75.4781 38.4939L75.3213 38.4776Z" fill="black"/>
<path d="M74.2699 35.7782C74.493 36.1606 73.5924 37.3241 73.7864 37.5898C73.8687 37.701 76.1507 37.1857 76.1507 37.1857L75.4574 36.0114C75.4574 36.0114 74.2513 35.7456 74.2699 35.7782Z" fill="white"/>
<path d="M73.8846 37.7501C73.7199 37.7501 73.696 37.7122 73.6694 37.6796C73.526 37.4816 73.6801 37.1481 73.8766 36.7277C74.0148 36.4321 74.222 35.9873 74.1423 35.8544C74.1131 35.8028 74.1157 35.7378 74.1503 35.6889C74.222 35.5886 74.222 35.5859 75.4865 35.8652C75.5264 35.8734 75.5609 35.8978 75.5822 35.9357L76.2755 37.1101C76.2994 37.1508 76.3048 37.2023 76.2862 37.2484C76.2676 37.2918 76.2277 37.3243 76.1826 37.3352C74.7321 37.6606 74.1396 37.7501 73.8846 37.7501ZM74.4531 35.9547C74.4452 36.2069 74.2964 36.527 74.1423 36.8579C74.0573 37.0396 73.9245 37.3243 73.9059 37.4572C74.1795 37.4437 75.0668 37.2728 75.9169 37.0857L75.3617 36.1473C75.0216 36.0713 74.663 35.9954 74.4531 35.9547Z" fill="black"/>
<path d="M74.5112 37.6145C74.1286 38.9733 73.2467 41.8291 73.9666 43.1825C75.9086 46.8411 82.2923 47.294 85.111 44.1127C85.6954 43.4537 84.6992 42.8001 84.6992 42.8001C84.6992 42.8001 80.7143 43.3913 78.419 42.461C75.3401 41.2135 76.2592 39.6703 75.2577 37.5033C75.1647 37.2999 74.5431 37.5006 74.5112 37.6145Z" fill="#FAB70C"/>
<path d="M73.9002 37.583C73.9002 37.583 73.6797 38.977 73.1325 39.853C72.5852 40.729 71.8759 41.087 71.488 42.5082C70.8611 44.8053 72.1123 48.0192 74.8274 48.3853C76.0839 48.5562 77.0297 48.2796 77.654 47.2978C78.2783 46.316 78.0471 45.1118 78.0471 45.1118L77.3219 44.488C74.7663 45.2311 74.8221 44.9979 74.1579 44.3823C73.6797 43.9375 74.0835 42.8743 73.9826 41.9929C73.8258 40.6314 73.685 40.1107 73.685 40.1107L74.6308 37.5098L73.9002 37.583Z" fill="white"/>
<path d="M75.4839 48.5814C75.2713 48.5814 75.0482 48.5651 74.8117 48.5325C73.3772 48.3373 72.5138 47.4287 72.0436 46.7019C71.2519 45.4814 70.981 43.8162 71.3502 42.4656C71.6185 41.4811 72.0409 40.9875 72.4474 40.5074C72.6466 40.2715 72.8353 40.0518 73.0106 39.7724C73.5339 38.9344 73.7544 37.5729 73.7571 37.5593C73.7704 37.478 73.8448 37.421 73.9271 37.4346C74.0068 37.4481 74.0626 37.5241 74.0493 37.6082C74.0413 37.6651 73.8182 39.0429 73.2603 39.9324C73.0743 40.2308 72.8698 40.4722 72.6705 40.7027C72.2667 41.1773 71.8842 41.6248 71.6345 42.5442C71.2865 43.8162 71.5442 45.3811 72.2907 46.5337C72.729 47.209 73.526 48.0525 74.8516 48.2315C76.1294 48.4051 76.9822 48.0796 77.5374 47.209C78.0528 46.4008 77.9492 45.4163 77.9173 45.1831L77.293 44.6461C75.0269 45.2997 74.7958 45.1885 74.214 44.6271C74.1689 44.5837 74.1184 44.5349 74.0652 44.4861C73.7093 44.1552 73.7624 43.5884 73.8155 42.9863C73.8448 42.6554 73.8766 42.3137 73.8421 42.0018C73.6907 40.6756 73.5499 40.1494 73.5472 40.144C73.5392 40.1142 73.5392 40.0816 73.5499 40.0518L74.4956 37.4509C74.5248 37.3722 74.6072 37.3315 74.6842 37.3614C74.7613 37.3912 74.7985 37.478 74.7719 37.5539L73.8421 40.1114C73.8793 40.2687 74.0015 40.822 74.1317 41.9665C74.1715 42.3082 74.137 42.6662 74.1078 43.0134C74.0599 43.5368 74.0148 44.0332 74.2618 44.261C74.3176 44.3125 74.3681 44.3613 74.4159 44.4074C74.8941 44.8685 75.0243 44.9932 77.2877 44.3342C77.3355 44.3206 77.386 44.3315 77.4232 44.364L78.1484 44.9878C78.175 45.0095 78.1909 45.0393 78.1989 45.0746C78.2095 45.1261 78.4353 46.3493 77.7845 47.3718C77.2638 48.1908 76.5252 48.5814 75.4839 48.5814Z" fill="black"/>
<path d="M75.1487 47.1696C74.6679 47.1696 74.3013 47.0177 74.0303 46.8333C72.6808 45.9057 72.4736 43.4187 72.8535 41.5013C72.8694 41.4199 72.9464 41.3657 73.0261 41.3847C73.1058 41.4009 73.1563 41.4796 73.1404 41.5609C72.7685 43.4431 73.0102 45.7701 74.195 46.5838C74.9309 47.0909 75.967 46.9201 77.1917 46.0902C77.2607 46.0441 77.3511 46.063 77.3962 46.1336C77.4414 46.2041 77.4228 46.2963 77.3537 46.3424C76.4452 46.9608 75.7173 47.1696 75.1487 47.1696Z" fill="black"/>
<path d="M80.5472 44.5081C79.1127 44.5081 77.5798 44.2342 76.4295 43.3337C75.2713 42.4279 74.6842 41.0257 74.6895 39.1707C74.6895 39.0866 74.7559 39.0215 74.8356 39.0215C74.918 39.0215 74.9817 39.0893 74.9817 39.1734C74.9791 40.9281 75.5237 42.2489 76.6075 43.0951C78.9772 44.9501 83.1029 44.0063 84.3089 43.6727C84.3886 43.651 84.4683 43.6972 84.4896 43.7785C84.5108 43.8599 84.4657 43.9412 84.386 43.9629C83.7218 44.1447 82.1996 44.5081 80.5472 44.5081Z" fill="black"/>
<path d="M76.982 45.7337C76.9368 45.7337 76.8943 45.712 76.8651 45.6767C76.8332 45.636 76.8253 45.5818 76.8439 45.5302L77.1573 44.6786C77.1733 44.6325 77.2131 44.5973 77.2609 44.5837C77.3088 44.5729 77.3592 44.5864 77.3964 44.6217L78.1536 45.3485C78.1961 45.3892 78.2093 45.4489 78.1934 45.5058C78.1748 45.5601 78.127 45.6008 78.0712 45.6089L77.0006 45.7337C76.9953 45.7337 76.99 45.7337 76.982 45.7337ZM77.3566 44.9933L77.2052 45.4028L77.7205 45.3431L77.3566 44.9933Z" fill="black"/>
<path d="M85.1801 44.0994C85.1722 44.0994 85.1642 44.0994 85.1562 44.0967L84.2397 43.9476C84.1972 43.9394 84.1574 43.9123 84.1361 43.8743C84.1149 43.8364 84.1095 43.7875 84.1255 43.7469L84.439 42.8953C84.4549 42.8546 84.4841 42.822 84.524 42.8085C84.5638 42.7922 84.609 42.7976 84.6462 42.8166L85.3209 43.1882C85.3741 43.218 85.4033 43.2777 85.398 43.3373L85.3263 43.9665C85.3209 44.0072 85.2997 44.0452 85.2678 44.0696C85.2412 44.0886 85.212 44.0994 85.1801 44.0994ZM84.4629 43.6791L85.05 43.774L85.0925 43.4024L84.6541 43.161L84.4629 43.6791Z" fill="black"/>
</g>
<path d="M68.6417 57.4849H88.6501C89.865 57.4849 90.8623 56.4998 90.8623 55.2841V35.3863C90.8623 34.1776 89.8721 33.1855 88.6501 33.1855H68.6417C67.4267 33.1855 66.4295 34.1707 66.4295 35.3863V55.2911C66.4295 56.4998 67.4197 57.4849 68.6417 57.4849ZM88.6501 33.5978C89.6403 33.5978 90.4479 34.4012 90.4479 35.3863V55.2911C90.4479 56.2762 89.6403 57.0797 88.6501 57.0797H68.6417C67.6515 57.0797 66.8438 56.2762 66.8438 55.2911V35.3863C66.8438 34.4012 67.6515 33.5978 68.6417 33.5978H88.6501Z" fill="#051928"/>
<path d="M73.1154 67.2326H83.8605C85.1948 67.2326 86.2764 66.1566 86.2764 64.8292C86.2764 63.5017 85.1948 62.4258 83.8605 62.4258H73.1154C71.781 62.4258 70.6995 63.5017 70.6995 64.8292C70.6995 66.1566 71.781 67.2326 73.1154 67.2326Z" fill="#FAB70C"/>
<path d="M62.1673 81.7998H95.4702C95.5825 81.7998 95.6738 81.7089 95.6738 81.5971C95.6738 81.4854 95.5825 81.3945 95.4702 81.3945H62.1743C62.062 81.3945 61.9707 81.4854 61.9707 81.5971C61.9637 81.7089 62.055 81.7998 62.1673 81.7998Z" fill="#051928"/>
<path d="M62.4615 74.7568H95.7573C95.8696 74.7568 95.9609 74.666 95.9609 74.5542C95.9609 74.4424 95.8696 74.3516 95.7573 74.3516H62.4615C62.3491 74.3516 62.2578 74.4424 62.2578 74.5542C62.2578 74.666 62.3491 74.7568 62.4615 74.7568Z" fill="#051928"/>
<path d="M104.642 70.5441C106.047 73.9047 102.957 75.6653 102.598 75.9378C101.77 76.5735 100.871 77.1255 99.9226 77.5726C98.6374 78.1805 96.1513 79.1586 95.14 77.5726C95.0768 77.4748 95.0206 77.37 94.9644 77.2722C93.7846 75.0435 94.9223 72.4375 96.3058 70.586C97.8508 68.518 102.816 66.1775 104.642 70.5441Z" fill="white"/>
<path d="M96.9022 78.6278C97.6606 78.6278 98.6719 78.3902 100.013 77.7545C100.961 77.3073 101.874 76.7484 102.724 76.0987C102.752 76.0777 102.787 76.0498 102.844 76.0148C105.618 74.1215 105.456 71.9487 104.838 70.4605C104.206 68.9514 103.138 68.0641 101.734 67.8965C99.6551 67.638 97.2182 69.0283 96.1507 70.4535C95.0551 71.9207 93.4188 74.7712 94.7883 77.3632C94.8445 77.468 94.9077 77.5798 94.9709 77.6776C95.2869 78.1807 95.8628 78.6278 96.9022 78.6278ZM101.228 68.2807C101.383 68.2807 101.53 68.2877 101.678 68.3087C102.942 68.4624 103.869 69.2449 104.452 70.6282C105.273 72.5914 104.648 74.2891 102.605 75.6865C102.549 75.7284 102.499 75.7563 102.471 75.7773C101.643 76.4061 100.758 76.951 99.8377 77.3842C98.2365 78.1457 96.1507 78.7745 95.322 77.461C95.2658 77.3702 95.2096 77.2724 95.1535 77.1746C93.8893 74.7852 95.4414 72.0954 96.4808 70.705C97.4008 69.4684 99.4515 68.2807 101.228 68.2807Z" fill="#051928"/>
<path d="M49.1041 75.7072C49.2025 74.4217 49.371 73.1361 49.7081 71.8855C49.996 70.7956 50.5509 69.8035 50.8248 68.7276C51.4638 66.1844 52.6226 63.7042 53.5567 61.2449C54.1887 59.5751 54.8138 57.9193 55.2422 56.1866C55.7619 54.0836 55.6916 51.7501 56.8926 49.8637C57.9109 48.2638 59.2382 49.0044 60.4111 49.9965C61.6471 51.0375 62.3705 52.4907 62.5882 54.0767C63.3256 59.5961 59.8141 72.8287 59.8141 72.8287C59.8141 72.8287 64.976 79.7524 66.0505 85.5024C66.0996 85.7469 66.7668 89.4429 67.0056 93.048C67.0829 93.8305 66.2752 101.25 65.5378 104.052C64.8074 106.826 63.6065 109.432 62.7076 112.149C62.6514 112.254 60.9308 116.586 60.8746 116.691C59.5543 116.334 51.3725 115.161 49.6028 98.0434C49.5957 97.9456 49.4904 97.8897 49.4412 97.8128C49.5115 95.1998 49.2516 92.517 49.1392 89.9529C49.0409 87.6892 49.0269 85.3976 48.8092 83.1409C48.5563 80.7795 48.9215 78.0966 49.1041 75.7072Z" fill="white"/>
<path d="M48.1914 106.057C48.1985 106.029 49.1185 103.249 49.4837 99.958C49.7646 97.4778 49.603 94.8788 49.4556 92.3706C49.4064 91.5741 49.3572 90.7427 49.3221 89.9462C49.294 89.3174 49.273 88.6887 49.2589 88.0529C49.2098 86.432 49.1536 84.7552 48.9991 83.1273C48.8235 81.2968 49.0061 79.2777 49.1817 77.3215C49.2308 76.7765 49.28 76.2455 49.3151 75.7285C49.4275 74.2404 49.6171 73.0387 49.9121 71.9418C50.0525 71.4248 50.2562 70.9147 50.4528 70.4257C50.6635 69.8947 50.8812 69.3497 51.0287 68.7838C51.4852 66.9673 52.2156 65.1648 52.9249 63.4111C53.1988 62.7264 53.4867 62.0138 53.7536 61.3221C54.3716 59.6873 55.0107 58.0035 55.4461 56.2359C55.6076 55.5652 55.72 54.8595 55.8183 54.1749C56.036 52.7216 56.2678 51.2265 57.0684 49.9689C57.3844 49.4729 57.7286 49.2074 58.1289 49.1445C58.8593 49.0327 59.702 49.6615 60.2779 50.1436C61.4226 51.1077 62.1671 52.512 62.3777 54.098C63.1081 59.5126 59.6458 72.6404 59.6107 72.7732L59.5826 72.885L59.6599 72.9688C59.7652 73.0806 69.9414 84.3709 65.7979 101.921L66.1982 102.012C70.2013 85.0486 60.9802 73.8561 60.0391 72.7732C60.3903 71.4248 63.5014 59.3379 62.7851 54.0421C62.5603 52.3583 61.7668 50.8632 60.5377 49.8292C59.8495 49.2493 58.9506 48.5995 58.0586 48.7323C57.5389 48.8091 57.0895 49.1515 56.7102 49.7454C55.8675 51.0728 55.6287 52.6168 55.404 54.112C55.2986 54.7827 55.1933 55.4813 55.0388 56.1381C54.6104 57.8778 53.9783 59.5545 53.3603 61.1754C53.1005 61.8671 52.8125 62.5727 52.5386 63.2574C51.8223 65.0181 51.0919 66.8416 50.6214 68.679C50.4879 69.217 50.2702 69.755 50.0666 70.265C49.8629 70.768 49.6522 71.285 49.5117 71.83C49.2168 72.9478 49.0201 74.1705 48.9007 75.6866C48.8586 76.2036 48.8165 76.7346 48.7673 77.2795C48.5917 79.2498 48.4092 81.2968 48.5917 83.1623C48.7463 84.7831 48.8024 86.4529 48.8516 88.0668C48.8727 88.7026 48.8937 89.3314 48.9218 89.9602C48.9569 90.7637 49.0061 91.5881 49.0553 92.3915C49.2027 94.8858 49.3572 97.4638 49.0834 99.9091C48.7182 103.158 47.8192 105.904 47.8122 105.925L48.1914 106.057Z" fill="#051928"/>
<path d="M103.048 82.3031C103.23 84.6366 101.412 86.8374 99.5434 87.9343C98.9324 88.2906 98.2723 88.5631 97.6051 88.8006C95.5193 89.5552 91.4811 90.4914 90.4065 87.7596C89.6691 85.8872 90.8069 84.1545 92.1834 82.9459C93.6371 81.6673 95.3015 80.4517 97.0713 79.6482C97.6472 79.3897 98.2512 79.1591 98.8833 79.1591C99.5645 79.1591 102.767 78.7469 103.048 82.3031Z" fill="white"/>
<path d="M93.6859 89.7922C95.2731 89.7922 96.9235 89.2682 97.6749 89.0027C98.2368 88.8001 98.9672 88.5137 99.6484 88.1154C101.58 86.9766 103.448 84.7339 103.258 82.2886C102.984 78.8023 100.042 78.9141 99.0725 78.949C98.9953 78.949 98.9321 78.956 98.8829 78.956C98.1946 78.956 97.5345 79.2145 96.9867 79.466C95.4136 80.1856 93.7491 81.3035 92.0496 82.7986C90.9891 83.7278 89.3457 85.6212 90.2166 87.843C90.7995 89.3451 92.2181 89.7922 93.6859 89.7922ZM102.844 82.3235C103.019 84.5802 101.2 86.7251 99.4377 87.7661C98.7916 88.1504 98.0823 88.4229 97.5345 88.6185C96.1861 89.1075 91.6914 90.4839 90.5958 87.6962C89.8163 85.7051 91.3403 83.9654 92.3164 83.106C93.9879 81.6388 95.6102 80.542 97.1552 79.8433C97.6679 79.6127 98.2719 79.3752 98.8829 79.3752C98.9391 79.3752 99.0093 79.3752 99.0866 79.3682C100.042 79.3263 102.598 79.2285 102.844 82.3235Z" fill="#051928"/>
<path d="M82.5479 71.6816C82.5479 71.3812 82.3021 71.1367 82.0001 71.1367C81.6981 71.1367 81.4523 71.3812 81.4523 71.6816C81.4523 71.982 81.6981 72.2266 82.0001 72.2266C82.3021 72.2266 82.5479 71.982 82.5479 71.6816Z" fill="#051928"/>
<path d="M79.1904 71.6816C79.1904 71.3812 78.9446 71.1367 78.6426 71.1367C78.3406 71.1367 78.0948 71.3812 78.0948 71.6816C78.0948 71.982 78.3406 72.2266 78.6426 72.2266C78.9446 72.2266 79.1904 71.982 79.1904 71.6816Z" fill="#051928"/>
<path d="M75.8545 71.6816C75.8545 71.3812 75.6087 71.1367 75.3067 71.1367C75.0047 71.1367 74.7589 71.3812 74.7589 71.6816C74.7589 71.982 75.0047 72.2266 75.3067 72.2266C75.6087 72.2266 75.8545 71.982 75.8545 71.6816Z" fill="#051928"/>
<path d="M66.6335 53.0908H90.1674C90.2798 53.0908 90.3711 52.9999 90.3711 52.8882C90.3711 52.7764 90.2798 52.6855 90.1674 52.6855H66.6335C66.5212 52.6855 66.4299 52.7764 66.4299 52.8882C66.4299 52.9999 66.5212 53.0908 66.6335 53.0908Z" fill="#051928"/>
<path d="M86.0871 53.5879L85.5884 54.587L84.4788 54.7477L85.2794 55.5302L85.0898 56.634L86.0871 56.11L87.0773 56.634L86.8877 55.5302L87.6953 54.7477L86.5857 54.587L86.0871 53.5879Z" fill="#FAB70C"/>
<path d="M81.34 53.5879L80.8414 54.587L79.7318 54.7477L80.5394 55.5302L80.3498 56.634L81.34 56.11L82.3372 56.634L82.1476 55.5302L82.9482 54.7477L81.8386 54.587L81.34 53.5879Z" fill="#FAB70C"/>
<path d="M76.3673 53.5879L75.8757 54.587L74.7591 54.7477L75.5667 55.5302L75.3771 56.634L76.3673 56.11L77.3646 56.634L77.175 55.5302L77.9756 54.7477L76.866 54.587L76.3673 53.5879Z" fill="#FAB70C"/>
<path d="M71.5704 53.5879L71.0718 54.587L69.9622 54.7477L70.7698 55.5302L70.5802 56.634L71.5704 56.11L72.5677 56.634L72.3781 55.5302L73.1787 54.7477L72.0691 54.587L71.5704 53.5879Z" fill="#FAB70C"/>
<path d="M108.013 57.2817H128.021C129.131 57.2817 130.022 56.3874 130.022 55.2905V35.3857C130.022 34.2818 129.124 33.3945 128.021 33.3945H108.013C106.903 33.3945 106.011 34.2888 106.011 35.3857V55.2905C106.011 56.3874 106.91 57.2817 108.013 57.2817Z" fill="white"/>
<g clip-path="url(#clip1_16180_98658)">
<path d="M112.775 44.7095C113.252 44.5466 113.377 43.9832 113.518 43.4197C113.673 42.7816 111.795 42.0586 111.493 41.9229C111.429 41.8957 111.303 41.8991 111.358 41.7769C111.978 40.4498 113.23 41.9602 113.857 40.9352C114.159 40.4396 112.98 40.1782 113.432 39.5367C114.015 38.7052 114.376 40.0696 114.999 39.4756C115.411 39.0819 114.794 38.5083 115.026 37.9754C115.347 37.2253 116.379 36.8892 117.048 36.7161C117.341 36.6415 117.198 37.0454 117.14 37.2185C116.901 37.9177 116.333 38.5524 117.301 38.9156C118.297 39.289 117.622 37.6326 118.621 38.0161C119.381 38.3114 118.764 39.2041 119.274 39.5877C119.848 40.0187 120.215 39.0378 120.722 39.3127C121.586 39.7811 120.945 40.6738 121.073 41.0607C121.296 41.7294 122.218 41.2169 122.551 41.5665C123.052 42.0892 122.75 42.7986 123.019 43.3824C123.318 44.0341 124.063 44.421 124.032 45.2696C124.026 45.4732 123.843 45.592 123.684 45.6531C122.942 45.9586 122.789 45.1915 122.182 45.1067C121.837 45.0591 121.278 45.5988 120.966 45.2255C120.297 44.421 120.423 43.4944 120.117 42.5746C119.949 42.0654 119.537 41.7735 119.256 41.3526C119.07 41.0743 118.816 40.813 118.486 40.779C117.607 40.6874 117.964 41.407 117.497 41.838C117.143 42.1639 116.678 41.4477 116.379 41.6513C116.037 41.8855 115.9 42.9853 115.31 43.3892C115.02 43.586 114.632 43.5555 114.339 43.7558C114.049 43.9526 113.838 44.3294 113.496 44.4482C113.34 44.4991 112.543 44.791 112.775 44.7095Z" fill="#FAB70C"/>
<path d="M111.261 47.2124C111.389 46.7032 112.165 46.598 112.495 46.1636C113.102 45.3625 113.469 44.3816 114.19 43.6756C115.341 42.5419 117.024 42.4774 118.468 42.2432C118.593 42.2229 119.69 42.0667 119.675 41.8665C119.662 41.7137 119.32 41.7782 119.485 41.5203C119.586 41.3607 120.017 41.225 120.139 41.4015C120.551 41.9887 119.73 42.3179 119.76 42.6981C119.775 42.8983 120.533 42.6539 120.536 43.2343C120.539 43.5059 120.178 43.5161 120.136 43.7163C120.12 43.7808 120.737 43.8487 120.792 43.8928C121.333 44.3171 120.786 44.6429 120.823 44.8194C120.847 44.9382 121.611 44.8771 121.348 45.2912C121.165 45.5798 118.609 44.7889 118.972 45.7257C119.21 46.3401 120.261 45.8886 120.545 46.4012C120.844 46.9442 119.723 46.5403 119.87 46.9205C120.05 47.3787 122.054 47.6163 121.678 48.3562C121.553 48.604 121.229 48.5158 121.128 48.7601C120.979 49.1165 121.308 49.3575 120.743 49.4661C120.285 49.5544 119.888 49.1098 119.513 48.8823C118.468 48.2476 117.491 47.4262 116.398 46.9137C115.674 46.5743 114.697 46.2348 113.945 46.6286C113.704 46.7542 111.814 47.9218 111.756 47.8844C111.554 47.7351 111.239 47.2972 111.261 47.2124Z" fill="white"/>
<path d="M120.627 49.6626C120.282 49.6626 119.983 49.4386 119.717 49.2383C119.622 49.167 119.531 49.0992 119.439 49.0415C119.045 48.8005 118.657 48.5323 118.282 48.2744C117.659 47.8433 117.014 47.3986 116.342 47.083C115.329 46.6044 114.571 46.5128 114.028 46.7945C113.951 46.8352 113.685 46.9913 113.38 47.178C111.801 48.125 111.792 48.1182 111.679 48.0402C111.535 47.9383 111.038 47.4224 111.105 47.1644C111.2 46.7945 111.523 46.6146 111.838 46.4381C112.042 46.3227 112.253 46.2039 112.372 46.0444C112.61 45.7321 112.815 45.3791 113.014 45.0397C113.319 44.517 113.637 43.9773 114.082 43.536C115.099 42.5347 116.526 42.3345 117.784 42.1546C118.01 42.124 118.233 42.0901 118.45 42.0561L118.489 42.0494C118.978 41.9747 119.241 41.9068 119.381 41.8593C119.341 41.8253 119.305 41.7812 119.287 41.7133C119.25 41.5742 119.326 41.452 119.354 41.4146C119.461 41.2449 119.732 41.1397 119.928 41.1329C120.123 41.1295 120.227 41.2144 120.279 41.289C120.621 41.7778 120.303 42.1648 120.114 42.399C120.059 42.4668 119.995 42.5449 119.961 42.6094C119.986 42.6128 120.01 42.6162 120.032 42.6196C120.252 42.6467 120.71 42.7044 120.716 43.2407C120.719 43.4444 120.603 43.5598 120.499 43.6378C120.52 43.6412 120.539 43.6446 120.554 43.648C120.774 43.6888 120.847 43.7023 120.899 43.7465C121.403 44.1402 121.171 44.5407 121.058 44.724C121.061 44.724 121.064 44.724 121.067 44.7274C121.253 44.7681 121.488 44.8224 121.562 45.0295C121.589 45.1109 121.601 45.2399 121.498 45.4096C121.378 45.5963 121.085 45.5759 120.438 45.5081C120.047 45.4673 119.232 45.3825 119.122 45.5522C119.112 45.5658 119.119 45.6099 119.14 45.6608C119.219 45.8611 119.458 45.8984 119.815 45.9256C120.148 45.9527 120.523 45.9833 120.704 46.3125C120.786 46.4618 120.801 46.5976 120.749 46.7096C120.658 46.8997 120.438 46.9133 120.227 46.9235C120.197 46.9269 120.154 46.9269 120.117 46.9302C120.258 47.0355 120.56 47.1577 120.759 47.2391C121.253 47.4428 121.763 47.6532 121.885 48.0198C121.919 48.1182 121.937 48.2744 121.843 48.4576C121.748 48.6443 121.586 48.702 121.467 48.7462C121.363 48.7835 121.317 48.8039 121.299 48.848C121.265 48.9294 121.269 49.0041 121.275 49.089C121.293 49.3809 121.22 49.5777 120.789 49.6592C120.725 49.6592 120.676 49.6626 120.627 49.6626ZM114.721 46.2582C115.212 46.2582 115.793 46.4177 116.468 46.7334C117.164 47.0626 117.821 47.5141 118.456 47.9519C118.828 48.2099 119.213 48.4746 119.598 48.7088C119.699 48.7699 119.8 48.8446 119.903 48.9227C120.169 49.1195 120.444 49.3232 120.719 49.2723C120.893 49.2383 120.923 49.201 120.927 49.1976C120.93 49.1874 120.927 49.1331 120.923 49.0992C120.917 48.9905 120.908 48.8412 120.978 48.6715C121.061 48.4746 121.226 48.4135 121.348 48.3694C121.446 48.3355 121.507 48.3083 121.534 48.254C121.568 48.1895 121.562 48.1556 121.553 48.1284C121.485 47.9248 120.988 47.7211 120.627 47.5718C120.175 47.3851 119.821 47.2391 119.72 46.9846C119.668 46.8488 119.702 46.7504 119.729 46.7028C119.815 46.5467 120.001 46.5365 120.2 46.5263C120.261 46.5229 120.355 46.5162 120.413 46.506C120.41 46.5026 120.407 46.4958 120.404 46.489C120.313 46.3261 120.053 46.3057 119.778 46.2819C119.406 46.2514 118.984 46.2141 118.819 45.7898C118.728 45.559 118.78 45.3995 118.838 45.3112C119.045 44.9955 119.613 45.0261 120.459 45.1143C120.737 45.1449 121.116 45.1822 121.226 45.1483C121.174 45.1177 121.055 45.0906 120.991 45.077C120.835 45.0431 120.688 45.0091 120.658 44.853C120.63 44.7206 120.701 44.6052 120.762 44.5068C120.878 44.3201 120.936 44.2284 120.691 44.0384C120.688 44.0418 120.572 44.0214 120.487 44.0044C120.157 43.9433 120.053 43.9196 119.992 43.8211C119.964 43.777 119.955 43.7159 119.968 43.665C120.004 43.4987 120.132 43.4172 120.233 43.3527C120.325 43.295 120.365 43.2645 120.365 43.2305C120.365 43.0676 120.288 43.0201 119.983 42.9794C119.824 42.959 119.607 42.9318 119.589 42.7044C119.571 42.477 119.714 42.3039 119.855 42.1342C120.084 41.8525 120.157 41.7269 120.004 41.5097C119.952 41.4689 119.748 41.5199 119.656 41.5877C119.729 41.6251 119.83 41.693 119.842 41.8423C119.861 42.0833 119.662 42.2394 118.529 42.4159L118.492 42.4227C118.273 42.4601 118.05 42.4906 117.821 42.5211C116.553 42.701 115.24 42.8843 114.302 43.811C113.89 44.2183 113.6 44.7138 113.291 45.2399C113.087 45.5895 112.876 45.9493 112.626 46.2819C112.461 46.4992 112.22 46.6349 111.984 46.7673C111.743 46.9031 111.511 47.0321 111.438 47.2188C111.487 47.3206 111.652 47.5446 111.792 47.6702C112.021 47.5582 112.757 47.1169 113.215 46.8454C113.539 46.6519 113.795 46.4992 113.881 46.4551C114.125 46.3261 114.406 46.2582 114.721 46.2582Z" fill="black"/>
</g>
<path d="M108.013 57.4849H128.021C129.236 57.4849 130.233 56.4998 130.233 55.2841V35.3863C130.233 34.1776 129.243 33.1855 128.021 33.1855H108.013C106.798 33.1855 105.801 34.1707 105.801 35.3863V55.2911C105.808 56.4998 106.798 57.4849 108.013 57.4849ZM128.021 33.5978C129.011 33.5978 129.819 34.4012 129.819 35.3863V55.2911C129.819 56.2762 129.011 57.0797 128.021 57.0797H108.013C107.023 57.0797 106.215 56.2762 106.215 55.2911V35.3863C106.215 34.4012 107.023 33.5978 108.013 33.5978H128.021Z" fill="#051928"/>
<path d="M106.011 53.0908H129.545C129.658 53.0908 129.749 52.9999 129.749 52.8882C129.749 52.7764 129.658 52.6855 129.545 52.6855H106.011C105.899 52.6855 105.808 52.7764 105.808 52.8882C105.808 52.9999 105.899 53.0908 106.011 53.0908Z" fill="#051928"/>
<path d="M125.458 53.5879L124.967 54.587L123.85 54.7477L124.658 55.5302L124.468 56.634L125.458 56.11L126.455 56.634L126.266 55.5302L127.066 54.7477L125.957 54.587L125.458 53.5879Z" fill="#FAB70C"/>
<path d="M120.717 53.5879L120.218 54.587L119.109 54.7477L119.909 55.5302L119.72 56.634L120.717 56.11L121.707 56.634L121.518 55.5302L122.325 54.7477L121.209 54.587L120.717 53.5879Z" fill="#FAB70C"/>
<path d="M115.745 53.5879L115.247 54.587L114.137 54.7477L114.938 55.5302L114.748 56.634L115.745 56.11L116.736 56.634L116.546 55.5302L117.354 54.7477L116.244 54.587L115.745 53.5879Z" fill="#FAB70C"/>
<path d="M110.948 53.5879L110.45 54.587L109.34 54.7477L110.141 55.5302L109.951 56.634L110.948 56.11L111.939 56.634L111.749 55.5302L112.557 54.7477L111.44 54.587L110.948 53.5879Z" fill="#FAB70C"/>
<path d="M110.885 26.7724C111.11 26.7724 111.321 26.6676 111.447 26.4859C111.51 26.3951 118.196 17.3125 118.196 13.2813C118.196 9.1382 114.945 5.76367 110.942 5.76367C106.939 5.76367 103.694 9.1382 103.694 13.2813C103.694 17.0121 109.2 24.9209 110.302 26.472C110.443 26.6606 110.661 26.7724 110.885 26.7724ZM110.949 6.36452C114.615 6.36452 117.599 9.46657 117.599 13.2882C117.599 16.5021 112.69 23.824 110.97 26.1366C110.928 26.1925 110.836 26.1855 110.794 26.1366C110.127 25.2004 104.291 16.9143 104.291 13.2882C104.291 9.46657 107.276 6.36452 110.949 6.36452ZM110.906 16.4392C112.95 16.4392 114.615 14.8323 114.615 12.8551C114.615 10.8779 112.95 9.27094 110.906 9.27094C108.863 9.27094 107.198 10.8779 107.198 12.8551C107.198 14.8323 108.863 16.4392 110.906 16.4392ZM110.906 9.87179C112.62 9.87179 114.018 11.2132 114.018 12.8621C114.018 14.5109 112.62 15.8523 110.906 15.8523C109.193 15.8523 107.795 14.5109 107.795 12.8621C107.795 11.2132 109.186 9.87179 110.906 9.87179Z" fill="#051928"/>
<path d="M40.9685 64.5001C37.9156 64.5001 35.4408 62.0381 35.4408 59.001C35.4408 55.964 37.9156 53.502 40.9685 53.502C44.0213 53.502 46.4961 55.964 46.4961 59.001C46.4961 62.0381 44.0213 64.5001 40.9685 64.5001Z" fill="white"/>
<path d="M40.9687 65C44.2947 65 47 62.3087 47 59C47 55.6913 44.2947 53 40.9687 53C37.6427 53 34.9374 55.6913 34.9374 59C34.9374 62.3087 37.6427 65 40.9687 65ZM40.9687 53.9903C43.7443 53.9903 46.0045 56.2388 46.0045 59C46.0045 61.7612 43.7443 64.0097 40.9687 64.0097C38.1931 64.0097 35.9328 61.7612 35.9328 59C35.9328 56.2388 38.1931 53.9903 40.9687 53.9903Z" fill="#051928"/>
<path d="M38.3676 58.6184H40.6486V56.3604C40.6486 56.159 40.8108 56 41.0162 56C41.2216 56 41.3838 56.159 41.3838 56.3604V58.629H43.6324C43.8378 58.629 44 58.788 44 58.9894C44 59.1908 43.8378 59.3498 43.6324 59.3498H41.3838V61.6396C41.3838 61.841 41.2216 62 41.0162 62C40.8108 62 40.6486 61.841 40.6486 61.6396V59.3498H38.3676C38.1622 59.3498 38 59.1908 38 58.9894C38 58.788 38.1622 58.6184 38.3676 58.6184Z" fill="#050E28"/>
<path d="M128.373 73.8897C128.548 73.8897 128.724 73.8757 128.906 73.8617C129.068 73.8477 129.194 73.701 129.173 73.5403C129.159 73.3796 129.005 73.2609 128.85 73.2748C128.689 73.2888 128.527 73.2958 128.366 73.3028C128.204 73.3028 128.071 73.4355 128.071 73.6032C128.071 73.7569 128.204 73.8897 128.373 73.8897ZM133.549 72.0662C133.605 72.0662 133.661 72.0522 133.717 72.0173C135.185 71.0391 136.344 69.8444 136.969 68.6567C137.046 68.517 137.116 68.3772 137.186 68.2305C137.257 68.0838 137.2 67.9021 137.053 67.8323C136.905 67.7624 136.723 67.8183 136.653 67.965C136.582 68.1047 136.512 68.2375 136.442 68.3772C135.859 69.4811 134.778 70.599 133.387 71.5212C133.247 71.612 133.211 71.7937 133.303 71.9334C133.359 72.0172 133.45 72.0662 133.549 72.0662ZM138.451 63.6263C138.598 63.6263 138.724 63.5215 138.745 63.3678C138.837 62.746 138.879 62.1172 138.879 61.5024C138.879 60.4125 138.738 59.3226 138.458 58.2676C138.415 58.1069 138.254 58.0161 138.092 58.058C137.931 58.0999 137.84 58.2606 137.882 58.4213C138.149 59.4274 138.282 60.4684 138.282 61.5094C138.282 62.0963 138.24 62.6971 138.156 63.291C138.134 63.4517 138.247 63.6054 138.408 63.6263C138.422 63.6263 138.436 63.6263 138.451 63.6263ZM135.985 54.1315C136.049 54.1315 136.105 54.1106 136.161 54.0756C136.294 53.9778 136.323 53.7962 136.224 53.6634C134.932 51.8958 133.45 50.6732 132.502 50.1212C132.362 50.0374 132.179 50.0863 132.095 50.226C132.01 50.3658 132.06 50.5474 132.2 50.6312C133.057 51.1273 134.504 52.315 135.74 54.0128C135.803 54.0896 135.894 54.1315 135.985 54.1315Z" fill="#051928"/>
<path d="M40.2765 30.9581C40.431 30.9581 40.5644 30.8393 40.5714 30.6856C40.5925 30.4341 40.6065 30.1546 40.6276 29.8542C40.6908 28.7154 40.7751 27.3041 41.1473 25.7391C41.1824 25.5784 41.0841 25.4177 40.9296 25.3828C40.7681 25.3478 40.6065 25.4457 40.5714 25.5994C40.1852 27.2133 40.1009 28.7154 40.0377 29.8193C40.0236 30.1197 40.0026 30.3922 39.9815 30.6367C39.9674 30.7974 40.0939 30.9441 40.2554 30.9581C40.2624 30.9581 40.2694 30.9581 40.2765 30.9581ZM42.896 21.4004C42.9873 21.4004 43.0786 21.3585 43.1418 21.2746C43.4859 20.7926 43.8792 20.3245 44.3006 19.8843C44.9186 19.2485 45.7824 18.7036 46.878 18.2774C47.0325 18.2145 47.1098 18.0468 47.0466 17.8931C46.9834 17.7394 46.8148 17.6626 46.6603 17.7254C45.4805 18.1866 44.5464 18.7734 43.8722 19.4721C43.4298 19.9332 43.0224 20.4223 42.6572 20.9323C42.5589 21.065 42.594 21.2537 42.7275 21.3445C42.7766 21.3794 42.8398 21.4004 42.896 21.4004ZM56.7031 17.9909C56.8295 17.9909 56.9489 17.9141 56.984 17.7883C57.0332 17.6346 56.9489 17.4669 56.7944 17.411C55.3056 16.929 53.5217 16.6984 51.7028 16.7543C51.5413 16.7613 51.4078 16.894 51.4148 17.0617C51.4219 17.2224 51.5553 17.3482 51.7239 17.3482C53.4726 17.2923 55.1862 17.5089 56.6118 17.977C56.6399 17.9909 56.675 17.9909 56.7031 17.9909Z" fill="#051928"/>
<path d="M63.5146 39.8181C63.9401 39.1733 64.3268 38.5366 64.6227 38.0503C64.7058 37.9116 64.6627 37.7233 64.5247 37.6406C64.3867 37.558 64.2063 37.6157 64.1154 37.7408C63.6881 38.4517 63.3478 38.9928 63.0228 39.4852L62.9029 39.6669C62.8139 39.8017 62.8512 39.9862 62.9815 40.0805C63.1156 40.1691 63.3057 40.1347 63.3947 39.9998L63.5146 39.8181ZM60.0982 43.8155C60.1678 43.7099 60.1636 43.5641 60.0819 43.4597C59.9807 43.334 59.7904 43.3178 59.6645 43.4199C58.3628 44.5045 56.9418 45.2244 55.3221 45.6365C55.1631 45.6746 55.0645 45.8367 55.1075 45.9998C55.1448 46.159 55.3061 46.257 55.469 46.2131C57.176 45.7829 58.6686 45.0177 60.0401 43.8781C60.0673 43.8623 60.0827 43.8389 60.0982 43.8155ZM50.6445 46.395C50.6677 46.3599 50.6851 46.3209 50.6908 46.2741C50.7138 46.1126 50.6028 45.9636 50.4358 45.9376C49.1292 45.7485 47.8043 45.2192 46.4865 44.3495C46.3232 44.2417 46.158 44.1242 45.9986 44.0106C45.8683 43.9163 45.682 43.9448 45.5834 44.0816C45.4944 44.2165 45.5162 44.3991 45.6523 44.4973C45.8233 44.6186 45.9886 44.7361 46.1635 44.8515C47.5514 45.7674 48.9598 46.335 50.3537 46.5313C50.4721 46.5421 50.5826 46.4888 50.6445 46.395ZM42.5483 40.8418C42.614 40.7421 42.6176 40.6099 42.5455 40.5034C41.2994 38.7639 40.6336 37.0203 40.882 36.1492C40.9263 35.9934 40.8366 35.8248 40.6812 35.7812C40.5259 35.7375 40.3572 35.8282 40.313 35.9841C40.0029 37.0501 40.6729 38.9142 42.0592 40.8472C42.1565 40.9788 42.339 41.0066 42.4766 40.9123C42.5038 40.8966 42.5289 40.8711 42.5483 40.8418Z" fill="#051928"/>
<path d="M130.002 73.2472C130.002 69.2928 126.778 66.0859 122.796 66.0859C118.821 66.0859 115.591 69.2928 115.591 73.2472C115.591 77.2017 118.814 80.4085 122.796 80.4085C126.771 80.4085 130.002 77.2017 130.002 73.2472Z" fill="white"/>
<path d="M122.796 80.7085C126.933 80.7085 130.297 77.3619 130.297 73.2468C130.297 69.1317 126.933 65.7852 122.796 65.7852C118.66 65.7852 115.296 69.1317 115.296 73.2468C115.296 77.3619 118.66 80.7085 122.796 80.7085ZM122.796 66.379C126.603 66.379 129.7 69.4601 129.7 73.2468C129.7 77.0335 126.603 80.1146 122.796 80.1146C118.99 80.1146 115.893 77.0335 115.893 73.2468C115.893 69.4601 118.99 66.379 122.796 66.379Z" fill="#051928"/>
<path d="M122.782 71.5075C122.782 71.5075 124.159 69.1181 126.02 70.3408C130.1 73.0096 122.81 78.1447 122.81 78.1447C122.81 78.1447 115.64 72.8769 119.454 70.3408C121.329 69.0972 122.782 71.5075 122.782 71.5075Z" fill="#4A7336"/>
<defs>
<clipPath id="clip0_16180_98658">
<rect width="16.1786" height="12.9557" fill="white" transform="translate(71.1855 35.627)"/>
</clipPath>
<clipPath id="clip1_16180_98658">
<rect width="12.9429" height="12.9557" fill="white" transform="translate(111.093 36.707)"/>
</clipPath>
</defs>
</svg>
