<svg width="48" height="48" viewBox="0 0 48 48" fill="none" xmlns="http://www.w3.org/2000/svg">
<circle cx="24" cy="24" r="24" fill="#7ABC2F"/>
<g clip-path="url(#clip0_16180_97786)">
<g clip-path="url(#clip1_16180_97786)">
<path d="M22.7237 34.0747V13.7754L19.8479 18.5119L11.2207 21.2185L16.2532 27.9849V36.7813L22.7237 34.0747Z" fill="#A9D676"/>
<path d="M24.0013 8.66309L29.6804 17.036L39.3386 19.8919L33.1905 27.9222L33.4795 38.0595L24.0013 34.6497L14.5232 38.0595L14.8121 27.9222L8.66406 19.8919L18.3223 17.036L24.0013 8.66309ZM24.0013 13.4623L19.9994 19.3638L13.1928 21.3747L17.5267 27.0325L17.3211 34.1758L24.0013 31.7735L30.6802 34.1758L30.476 27.0325L34.8085 21.3747L28.0033 19.3638L24.0013 13.4623ZM21.3137 24.2361C21.3137 24.9544 21.5968 25.6433 22.1009 26.1512C22.6049 26.6591 23.2885 26.9445 24.0013 26.9445C24.7142 26.9445 25.3978 26.6591 25.9018 26.1512C26.4059 25.6433 26.689 24.9544 26.689 24.2361H29.3767C29.3767 25.6727 28.8104 27.0505 27.8023 28.0663C26.7942 29.0821 25.427 29.6528 24.0013 29.6528C22.5757 29.6528 21.2085 29.0821 20.2004 28.0663C19.1923 27.0505 18.626 25.6727 18.626 24.2361H21.3137Z" fill="white"/>
</g>
</g>
<defs>
<clipPath id="clip0_16180_97786">
<rect width="33.2308" height="33.2308" fill="white" transform="translate(7.38574 7.38477)"/>
</clipPath>
<clipPath id="clip1_16180_97786">
<rect width="33.2308" height="30.6746" fill="white" transform="translate(8.66406 8.66309)"/>
</clipPath>
</defs>
</svg>
