<svg width="597" height="460" viewBox="0 0 597 460" fill="none" xmlns="http://www.w3.org/2000/svg">
<g clip-path="url(#clip0)">
<path d="M507.151 195.784C509.538 196.885 512.367 195.84 513.468 193.45C514.57 191.061 513.527 188.231 511.14 187.131C508.752 186.03 505.924 187.075 504.822 189.464C503.721 191.854 504.763 194.683 507.151 195.784Z" fill="#FAB70C"/>
<path d="M288.376 112.849C291.341 114.215 294.853 112.918 296.221 109.95C297.589 106.983 296.295 103.469 293.33 102.102C290.365 100.736 286.852 102.033 285.484 105.001C284.116 107.968 285.411 111.482 288.376 112.849Z" fill="#FAB70C"/>
<path d="M472.168 118.982C473.917 119.337 475.624 118.205 475.979 116.454C476.335 114.703 475.205 112.996 473.455 112.642C471.705 112.287 469.998 113.419 469.643 115.17C469.288 116.921 470.418 118.628 472.168 118.982Z" fill="#FAB70C"/>
<path d="M168.957 152.347C170.707 152.701 172.414 151.569 172.769 149.818C173.124 148.067 171.994 146.361 170.244 146.006C168.495 145.652 166.788 146.784 166.433 148.535C166.077 150.285 167.208 151.992 168.957 152.347Z" fill="#FAB70C"/>
<path d="M301.004 166.517C302.626 167.265 304.547 166.555 305.295 164.932C306.043 163.31 305.335 161.388 303.713 160.641C302.092 159.894 300.171 160.603 299.423 162.226C298.675 163.848 299.383 165.77 301.004 166.517Z" fill="#FAB70C"/>
<path d="M224.769 188.88C240.164 174.842 260.99 164.055 281.369 168.414C291.558 170.63 300.632 176.393 310.747 178.536C327.854 182.23 345.183 175.507 361.992 170.63C430.864 150.682 508.438 163.094 567.567 203.435C578.872 211.119 589.954 220.428 594.64 233.21C598.879 244.81 597.094 258.036 591.739 269.192C585.492 282.196 574.484 292.835 561.171 298.672C537.817 308.942 509.852 304.139 486.572 314.557C484.192 315.665 481.737 316.995 480.25 319.138C478.093 322.389 478.614 326.674 478.911 330.59C480.845 355.563 465.895 382.678 441.5 389.032C424.245 393.539 406.246 387.629 388.768 383.934C363.108 378.467 336.407 377.728 310.524 381.792C285.683 385.708 261.659 393.983 236.743 396.938C211.753 399.893 184.531 396.716 165.342 380.536C157.384 373.812 150.988 364.355 151.062 353.937C151.137 347.583 153.665 341.525 156.566 335.836C162.219 325.049 169.507 315.074 178.209 306.504C185.201 299.559 193.531 292.761 195.316 283.082C198.365 266.458 185.275 252.346 191.3 235.796C197.77 218.138 210.935 201.514 224.769 188.88Z" fill="#ECECEC"/>
<path d="M222.748 186.428C225.713 187.795 229.225 186.497 230.594 183.53C231.962 180.562 230.667 177.048 227.702 175.681C224.737 174.315 221.224 175.612 219.856 178.58C218.488 181.547 219.783 185.061 222.748 186.428Z" fill="#FAB70C"/>
<g clip-path="url(#clip1)">
<path d="M199.32 261.98C199.353 261.98 199.386 261.98 199.403 261.98C199.931 261.93 200.328 261.468 200.278 260.94C200.262 260.841 199.386 251.023 199.585 240.842C199.915 223.383 203.019 219.374 204.851 218.532C205.33 218.318 205.545 217.74 205.33 217.261C205.116 216.783 204.538 216.568 204.059 216.783C200.03 218.631 197.933 226.486 197.669 240.809C197.471 251.089 198.363 260.99 198.379 261.089C198.412 261.6 198.825 261.98 199.32 261.98Z" fill="#120610"/>
<path d="M223.376 262.124C223.409 262.124 223.458 262.124 223.491 262.124C224.02 262.058 224.383 261.579 224.317 261.051C224.3 260.969 223.343 253.51 221.477 244.864C217.465 226.366 212.545 216.746 206.866 216.267C205.925 216.185 205 216.35 204.207 216.779C204.075 216.828 203.943 216.927 203.844 217.026C203.481 217.406 203.498 218.016 203.877 218.379C204.191 218.676 204.67 218.726 205.016 218.511C205.033 218.511 205.049 218.495 205.066 218.495C205.545 218.231 206.09 218.115 206.7 218.181C211.323 218.577 215.913 228.197 219.612 245.276C221.461 253.824 222.418 261.216 222.418 261.299C222.484 261.777 222.897 262.124 223.376 262.124Z" fill="#120610"/>
<path d="M227.55 248.574L231.018 330.932L174.419 325.19L174.172 250.356L227.55 248.574Z" fill="#7ABC2F"/>
<path d="M237.838 248.361L232.34 248.575L235.956 321.89L242.444 323.854L237.838 248.361Z" fill="#7ABC2F"/>
<path d="M232.573 248.692L227.389 248.824L230.922 330.323L236.222 321.561L232.573 248.692Z" fill="#7ABC2F"/>
<path d="M189.332 260.558C189.86 260.558 190.289 260.129 190.289 259.601C190.289 259.502 190.306 250.063 192.006 240.278C193.525 231.466 196.728 220.559 203.349 218.678C203.861 218.529 204.158 218.001 204.01 217.49C203.861 216.978 203.333 216.681 202.821 216.83C196.728 218.562 192.452 226.334 190.108 239.981C188.391 249.915 188.374 259.502 188.374 259.601C188.374 260.129 188.803 260.558 189.332 260.558Z" fill="#120610"/>
<path d="M213.354 260.706C213.866 260.706 214.279 260.31 214.312 259.798C214.312 259.732 214.642 253.693 214.411 246.284C213.85 227.522 210.614 217.588 204.819 216.747C204.769 216.73 204.703 216.714 204.654 216.714C204.604 216.697 204.538 216.697 204.488 216.697C204.043 216.648 203.58 216.681 203.118 216.763H203.102C202.837 216.763 202.573 216.862 202.375 217.077C202.012 217.456 202.028 218.067 202.408 218.43C202.606 218.628 202.87 218.71 203.135 218.694C203.217 218.694 203.3 218.677 203.366 218.661C203.663 218.578 203.944 218.562 204.224 218.578C204.307 218.611 204.406 218.628 204.488 218.628C207.675 219.04 209.491 223.941 210.465 228C211.571 232.637 212.248 238.809 212.479 246.333C212.694 253.66 212.38 259.633 212.38 259.683C212.347 260.211 212.76 260.673 213.288 260.689C213.321 260.706 213.338 260.706 213.354 260.706ZM203.085 217.753L203.779 218.413L203.085 217.753Z" fill="#020002"/>
<path d="M231.019 330.933L235.956 321.89L242.444 323.854L231.019 330.933Z" fill="#7ABC2F"/>
<path d="M231.022 331.976C231.402 331.976 231.749 331.778 231.93 331.432L236.867 322.389C236.966 322.224 236.999 322.042 236.999 321.844L233.614 248.645C233.581 248.067 233.102 247.638 232.525 247.655C231.947 247.688 231.517 248.166 231.534 248.744L234.902 321.646L231.897 327.174L228.43 248.793C228.397 248.216 227.918 247.787 227.34 247.803C226.762 247.836 226.317 248.315 226.35 248.892L229.982 330.986C229.998 331.448 230.329 331.844 230.791 331.943C230.874 331.96 230.94 331.976 231.022 331.976Z" fill="#020002"/>
<path d="M242.445 324.895C242.891 324.895 243.303 324.615 243.435 324.153C243.601 323.608 243.287 323.031 242.742 322.866L236.253 320.902C235.708 320.737 235.131 321.05 234.965 321.595C234.8 322.14 235.114 322.717 235.659 322.882L242.148 324.846C242.247 324.879 242.346 324.895 242.445 324.895Z" fill="#020002"/>
<path d="M282.386 222.473L265.826 221.467C265.826 221.467 261.236 218.546 262.276 214.355C263.019 211.302 265.166 210.791 266.734 210.84C268.303 210.89 283.459 211.302 283.459 211.302L282.386 222.473Z" fill="white"/>
<path d="M282.384 223.249C282.78 223.249 283.111 222.952 283.16 222.556L284.233 211.368C284.25 211.153 284.184 210.939 284.035 210.774C283.887 210.609 283.689 210.526 283.474 210.51C283.325 210.51 268.301 210.114 266.749 210.048C264.041 209.949 262.175 211.417 261.515 214.156C260.376 218.843 265.197 221.978 265.411 222.11C265.527 222.176 265.642 222.226 265.775 222.226L282.335 223.232C282.351 223.249 282.368 223.249 282.384 223.249ZM282.615 212.028L281.691 221.648L266.088 220.691C265.345 220.163 262.241 217.704 263.017 214.52C263.513 212.49 264.718 211.533 266.699 211.599C268.053 211.648 279.412 211.945 282.615 212.028Z" fill="#120610"/>
<path d="M370.597 372.848L357.158 429.398L311.555 427.434C311.555 427.434 309.492 424.497 313.438 422.797C316.244 421.593 318.589 421.89 321.313 420.652C324.021 419.415 338.253 378.376 338.253 378.376L370.597 372.848Z" fill="white"/>
<path d="M357.162 430.571C357.707 430.571 358.169 430.208 358.301 429.68L371.741 373.13C371.823 372.751 371.724 372.355 371.46 372.058C371.196 371.777 370.8 371.645 370.42 371.711L338.076 377.239C337.663 377.305 337.316 377.602 337.168 378.015C337.135 378.114 333.701 387.998 329.936 398.097C323.15 416.314 321.219 419.202 320.756 419.664C319.535 420.208 318.379 420.406 317.157 420.637C315.853 420.868 314.499 421.116 312.996 421.759C311.378 422.452 310.371 423.442 310.008 424.713C309.513 426.479 310.503 427.964 310.619 428.129C310.833 428.426 311.164 428.607 311.527 428.624L357.129 430.587C357.129 430.571 357.145 430.571 357.162 430.571ZM369.049 374.302L356.237 428.195L312.286 426.297C312.187 426.017 312.121 425.67 312.237 425.307C312.435 424.63 313.244 424.152 313.888 423.871C315.143 423.327 316.315 423.112 317.553 422.898C318.891 422.65 320.277 422.403 321.796 421.726C322.589 421.363 323.926 420.753 331.901 399.466C335.203 390.638 338.29 381.843 339.132 379.417L369.049 374.302Z" fill="#120610"/>
<path d="M309.692 428.144L358.992 430.289L362.839 412.27C354.716 412.716 343.241 421.742 335.168 419.25C330.528 417.847 328.184 412.914 323.66 412.93C323.164 416.94 321.002 419.481 320.292 419.861C317.336 421.362 314.794 421.032 311.756 422.484C307.479 424.596 309.692 428.144 309.692 428.144Z" fill="black"/>
<path d="M479.142 295.572L529.4 266.315L559.399 300.671C559.399 300.671 558.689 304.186 554.76 302.503C551.953 301.298 550.55 299.4 547.776 298.278C545.002 297.156 505.443 315.159 505.443 315.159L479.142 295.572Z" fill="white"/>
<path d="M505.442 316.333C505.607 316.333 505.772 316.3 505.921 316.234C506.02 316.184 515.547 311.861 525.453 307.62C543.334 299.98 546.768 299.37 547.412 299.403C548.65 299.914 549.591 300.607 550.599 301.35C551.672 302.142 552.778 302.95 554.28 303.594C555.898 304.287 557.318 304.336 558.474 303.709C560.092 302.851 560.488 301.102 560.521 300.904C560.587 300.541 560.488 300.178 560.257 299.914L530.274 265.542C529.911 265.113 529.283 265.014 528.805 265.294L478.547 294.551C478.2 294.749 477.985 295.096 477.969 295.492C477.952 295.888 478.117 296.251 478.431 296.498L504.732 316.102C504.947 316.267 505.195 316.333 505.442 316.333ZM547.462 297.059C545.976 297.059 541.683 298.181 525.123 305.244C516.455 308.94 507.935 312.769 505.607 313.825L481.271 295.69L529.168 267.803L558.078 300.921C557.946 301.185 557.731 301.482 557.401 301.647C556.774 301.977 555.865 301.713 555.222 301.432C553.967 300.888 553.009 300.195 552.002 299.452C550.896 298.643 549.773 297.818 548.221 297.191C548.039 297.142 547.841 297.059 547.462 297.059Z" fill="#120610"/>
<path d="M561.199 301.545L528.756 264.368L513.037 274.004C518.948 279.582 533.395 281.661 537.176 289.235C539.355 293.558 537.407 298.657 540.528 301.925C543.764 299.532 547.099 299.334 547.875 299.581C550.995 300.687 552.514 302.75 555.651 303.954C560.159 305.588 561.199 301.545 561.199 301.545Z" fill="black"/>
<path d="M368.606 401.411L325.844 398.886L370.588 225.788L442.343 232.224C442.343 232.224 449.723 280.374 465.788 284.186C481.852 287.998 505.066 276.463 505.066 276.463L529.105 307.634C529.105 307.634 481.704 338.442 451.886 330.422C422.068 322.403 404.137 273.576 404.137 273.576L368.606 401.411Z" fill="white"/>
<path d="M368.605 402.401C369.051 402.401 369.43 402.104 369.562 401.675L404.334 276.661C406.15 281.034 410.145 290.06 416.023 299.499C420.828 307.238 425.929 313.74 431.18 318.855C437.8 325.291 444.685 329.498 451.653 331.363C458.604 333.228 467.041 333.178 476.749 331.198C484.459 329.63 492.979 326.842 502.093 322.931C517.563 316.281 529.55 308.525 529.665 308.443C529.896 308.294 530.061 308.047 530.094 307.783C530.144 307.519 530.078 307.238 529.896 307.007L505.857 275.836C505.576 275.457 505.048 275.341 504.635 275.556C504.404 275.671 481.553 286.892 466.017 283.212C459.809 281.744 453.931 272.503 448.995 256.497C445.197 244.187 443.348 232.191 443.331 232.075C443.265 231.63 442.902 231.283 442.44 231.234L370.685 224.798C370.206 224.749 369.76 225.062 369.645 225.541L324.901 398.638C324.835 398.919 324.885 399.233 325.066 399.464C325.248 399.695 325.512 399.843 325.809 399.876L368.572 402.401C368.572 402.401 368.588 402.401 368.605 402.401ZM404.168 272.569C404.152 272.569 404.135 272.569 404.135 272.569C403.706 272.586 403.343 272.883 403.227 273.295L367.878 400.388L327.114 397.978L371.346 226.861L441.499 233.131C441.978 235.986 443.827 246.415 447.096 257.058C452.313 274.021 458.538 283.476 465.555 285.143C472.39 286.76 481.207 285.935 491.74 282.684C497.948 280.77 502.951 278.526 504.767 277.685L527.684 307.354C524.629 309.268 514.178 315.571 501.284 321.116C487.217 327.155 467.288 333.508 452.165 329.449C437.09 325.39 425.104 310.373 417.724 298.476C409.65 285.506 405.143 273.328 405.11 273.213C404.961 272.817 404.581 272.569 404.168 272.569Z" fill="#120610"/>
<path d="M359.323 133.63C374.842 118.779 390.775 175.955 375.074 204.651C359.372 233.347 308.883 220.987 308.883 220.987L303.501 202.258C303.501 202.258 338.602 201.087 345.19 189.585C351.777 178.1 343.803 148.464 359.323 133.63Z" fill="black"/>
<path d="M413.875 119.501C413.875 119.501 392.56 121.217 379.566 123.511C366.572 125.804 358.317 133.147 354.635 139.764C350.772 146.711 350.392 152.14 353.067 171.15C355.098 185.539 368.207 230.307 368.207 230.307C368.207 230.307 393.963 232.518 401.459 233.739C409.467 235.059 419.423 238.326 433.572 238.326C447.425 238.326 447.903 231.693 447.425 227.287C444.783 203.08 428.685 142.603 425.812 132.289C422.939 121.976 413.875 119.501 413.875 119.501Z" fill="white"/>
<path d="M433.575 239.318C439.832 239.318 444.026 238.031 446.387 235.391C448.715 232.784 448.665 229.467 448.418 227.19C445.842 203.742 430.438 145.245 426.772 132.027C423.784 121.301 414.521 118.645 414.142 118.546C414.026 118.513 413.91 118.513 413.795 118.513C413.58 118.529 392.282 120.262 379.387 122.522C373.228 123.612 367.73 125.856 363.025 129.205C358.022 132.77 355.232 136.648 353.762 139.271C349.701 146.581 349.404 152.258 352.078 171.267C354.093 185.557 366.723 228.741 367.252 230.573C367.367 230.969 367.714 231.249 368.11 231.282C368.374 231.299 393.916 233.493 401.296 234.714C403.426 235.061 405.738 235.556 408.165 236.084C414.835 237.52 423.123 239.318 433.575 239.318ZM413.762 120.493C414.307 120.674 416.172 121.334 418.253 122.869C421.522 125.262 423.734 128.529 424.857 132.555C428.522 145.74 443.894 204.088 446.436 227.404C446.667 229.467 446.684 232.074 444.901 234.071C442.953 236.249 439.139 237.338 433.558 237.338C423.321 237.338 415.149 235.572 408.578 234.153C406.117 233.625 403.789 233.114 401.61 232.767C394.742 231.645 373.146 229.747 368.952 229.384C367.334 223.824 355.892 184.221 354.027 171.02C351.418 152.538 351.682 147.076 355.48 140.261C357.147 137.275 363.801 127.308 379.717 124.503C391.885 122.324 411.632 120.674 413.762 120.493Z" fill="#120610"/>
<path d="M378.791 117.772C376.562 118.63 372.6 119.867 372.6 119.867C372.583 120.709 372.6 129.058 372.6 129.058C372.6 129.058 374.697 134.669 383.002 131.352C389.606 128.464 393.403 122.062 393.403 122.062L386.073 107.425C386.073 107.409 381.02 116.914 378.791 117.772Z" fill="white"/>
<path d="M378.246 133.365C379.781 133.365 381.498 132.985 383.364 132.243C383.381 132.243 383.381 132.243 383.397 132.226C390.216 129.256 394.079 122.804 394.245 122.54C394.41 122.259 394.426 121.913 394.278 121.616L386.947 106.979C386.782 106.649 386.452 106.451 386.088 106.451C385.725 106.451 385.395 106.649 385.23 106.963C382.885 111.385 379.616 116.418 378.444 116.88C376.281 117.722 372.352 118.943 372.319 118.959C371.922 119.091 371.642 119.454 371.642 119.867C371.625 120.708 371.642 128.728 371.642 129.074C371.642 129.19 371.658 129.305 371.708 129.404C371.741 129.487 372.566 131.632 375.043 132.738C376 133.15 377.074 133.365 378.246 133.365ZM382.638 130.46C379.88 131.55 377.602 131.731 375.868 130.972C374.415 130.345 373.771 129.239 373.573 128.843C373.573 127.754 373.557 122.54 373.573 120.56C374.812 120.164 377.453 119.306 379.154 118.662C381.119 117.903 384.305 112.606 386.055 109.487L392.313 121.995C391.339 123.447 387.888 128.167 382.638 130.46Z" fill="#120610"/>
<path d="M386.019 108.085C386.812 100.973 381.05 94.488 373.174 93.6299C365.299 92.7718 358.282 97.8377 357.489 104.95C356.713 112.062 362.459 118.547 370.334 119.405C378.21 120.263 385.243 115.197 386.019 108.085Z" fill="white"/>
<path d="M372.102 120.461C375.486 120.461 378.739 119.438 381.414 117.524C384.6 115.23 386.581 111.914 386.994 108.201C387.407 104.488 386.185 100.825 383.576 97.8877C380.984 94.9835 377.335 93.1354 373.29 92.6898C364.903 91.7658 357.374 97.2277 356.532 104.868C355.69 112.508 361.832 119.471 370.236 120.395C370.863 120.428 371.491 120.461 372.102 120.461ZM371.441 94.4885C371.986 94.4885 372.531 94.5215 373.076 94.571C376.642 94.967 379.862 96.5841 382.14 99.1418C384.385 101.666 385.426 104.802 385.079 107.97C384.732 111.138 383.032 113.976 380.291 115.94C377.517 117.937 374.033 118.828 370.451 118.432C363.12 117.623 357.737 111.617 358.464 105.033C359.124 98.9603 364.787 94.4885 371.441 94.4885Z" fill="#120610"/>
<path d="M387.983 103.597C388.164 101.683 386.777 99.9338 384.879 99.6863C382.98 99.4553 381.279 100.808 381.081 102.739C380.9 104.653 382.286 106.402 384.185 106.65C386.1 106.881 387.801 105.511 387.983 103.597Z" fill="white"/>
<path d="M384.635 107.638C385.609 107.638 386.567 107.308 387.343 106.697C388.267 105.955 388.845 104.899 388.961 103.694C389.209 101.269 387.425 99.0409 385.015 98.7439C383.843 98.5954 382.687 98.9254 381.762 99.6514C380.838 100.394 380.26 101.45 380.144 102.655C379.896 105.097 381.68 107.308 384.09 107.605C384.272 107.622 384.453 107.638 384.635 107.638ZM384.453 100.625C384.553 100.625 384.652 100.625 384.767 100.642C386.154 100.807 387.178 102.094 387.029 103.496C386.963 104.173 386.649 104.767 386.138 105.179C385.626 105.592 384.982 105.773 384.321 105.691C382.934 105.526 381.911 104.239 382.059 102.836C382.125 102.16 382.439 101.566 382.967 101.153C383.38 100.807 383.909 100.625 384.453 100.625Z" fill="#120610"/>
<path d="M380.805 104.257C382.473 104.768 379.319 103.531 378.395 103.382C375.307 102.92 371.939 102.59 368.802 102.376C361.389 101.864 342.649 97.8875 350.938 85.5281C355.412 78.8451 359.276 87.2607 364.047 85.8251C367.168 84.8845 368.092 80.8087 370.899 80.0992C378.709 78.086 379.253 85.165 385.131 87.2112C388.037 88.2178 392.099 86.6171 393.188 90.7754C394.262 94.9668 391.108 106.666 387.575 109.026C385.676 110.296 388.466 102.326 386.518 100.825C382.968 98.0855 379.914 103.976 380.805 104.257Z" fill="black"/>
<path d="M407.386 120.724C422.922 105.873 459.262 174.65 443.577 203.346C427.875 232.042 363.616 221.91 363.616 221.91L351.762 202.983C351.762 202.983 407.105 199.798 413.693 188.297C420.264 176.779 391.849 135.559 407.386 120.724Z" fill="black"/>
<path d="M328.697 205.849C320.029 207.763 313.276 216.806 324.999 225.073C329.077 227.96 335.896 226.855 340.882 226.855C340.998 224.099 336.82 222.845 336.441 220.106C335.434 212.73 342.698 215.023 344.861 217.317C349.286 222.003 356.584 221.69 362.99 220.947C363.601 220.881 352.786 204.661 352.786 204.661C352.786 204.661 332.214 205.073 328.697 205.849Z" fill="white"/>
<path d="M333.734 228.03C335.038 228.03 336.343 227.98 337.597 227.914C338.77 227.865 339.876 227.815 340.9 227.815C341.411 227.815 341.841 227.403 341.857 226.891C341.94 224.994 340.569 223.74 339.364 222.617C338.423 221.743 337.548 220.934 337.416 219.961C337.234 218.591 337.251 216.842 338.456 216.264C340.074 215.489 343.046 216.759 344.169 217.964C348.759 222.815 355.99 222.716 363.106 221.875C363.453 221.842 363.75 221.627 363.882 221.314C364.163 220.687 364.262 220.489 358.797 212.04C356.238 208.08 353.613 204.136 353.58 204.103C353.398 203.823 353.084 203.657 352.754 203.674C351.912 203.69 332.017 204.12 328.451 204.895C322.986 206.1 318.742 209.763 317.9 214.02C317.323 216.908 317.983 221.314 324.422 225.852C326.981 227.65 330.349 228.03 333.734 228.03ZM339.711 225.901C339.001 225.918 338.258 225.951 337.498 225.984C333.288 226.165 328.517 226.363 325.561 224.284C321.136 221.165 319.155 217.75 319.832 214.416C320.526 210.951 324.257 207.816 328.913 206.793C331.555 206.215 345.06 205.786 352.308 205.621C356.139 211.38 360.2 217.667 361.604 220.126C355.412 220.753 349.336 220.621 345.589 216.66C343.987 214.961 340.173 213.327 337.631 214.548C336.392 215.142 335.005 216.611 335.501 220.258C335.732 221.908 336.97 223.046 338.06 224.07C338.753 224.697 339.397 225.274 339.711 225.901Z" fill="#120610"/>
<path d="M329.147 227.059C329.147 227.059 320.348 223.23 322.081 214.452L329.147 227.059Z" fill="white"/>
<path d="M329.146 228.031C329.525 228.031 329.872 227.816 330.037 227.453C330.252 226.958 330.021 226.397 329.542 226.183C329.509 226.166 327.445 225.242 325.629 223.344C323.268 220.869 322.393 217.949 323.037 214.648C323.136 214.12 322.806 213.625 322.277 213.51C321.749 213.411 321.254 213.741 321.138 214.269C320.379 218.18 321.452 221.793 324.275 224.731C326.372 226.892 328.667 227.915 328.766 227.948C328.881 227.998 329.014 228.031 329.146 228.031Z" fill="#120610"/>
<path d="M338.06 227.059C338.06 227.059 329.277 223.23 330.994 214.452L338.06 227.059Z" fill="white"/>
<path d="M338.059 228.031C338.438 228.031 338.785 227.816 338.95 227.453C339.165 226.958 338.934 226.397 338.455 226.183C338.438 226.166 336.358 225.259 334.542 223.344C332.181 220.869 331.306 217.949 331.95 214.648C332.049 214.12 331.719 213.625 331.19 213.51C330.662 213.411 330.167 213.741 330.051 214.269C329.292 218.18 330.365 221.793 333.188 224.731C335.285 226.892 337.58 227.915 337.679 227.948C337.794 227.998 337.927 228.031 338.059 228.031Z" fill="#120610"/>
<path d="M333.138 227.292C333.138 227.292 324.338 223.464 326.071 214.686L333.138 227.292Z" fill="white"/>
<path d="M333.136 228.265C333.516 228.265 333.862 228.05 334.027 227.687C334.242 227.192 334.011 226.631 333.532 226.417C333.516 226.4 331.435 225.492 329.619 223.578C327.258 221.103 326.383 218.182 327.027 214.882C327.126 214.354 326.796 213.859 326.268 213.744C325.739 213.645 325.244 213.975 325.128 214.503C324.369 218.413 325.442 222.027 328.265 224.964C330.362 227.126 332.657 228.149 332.756 228.182C332.888 228.232 333.02 228.265 333.136 228.265Z" fill="#120610"/>
<path d="M283.591 204.336C274.923 206.25 268.17 215.293 279.893 223.56C283.971 226.448 290.79 225.342 295.776 225.342C295.891 222.587 291.714 221.332 291.334 218.593C290.327 211.217 298.021 213.164 299.755 215.804C302.495 219.996 303.899 220.986 309.116 220.408C309.727 220.342 306.441 203.165 306.441 203.165C306.441 203.165 287.108 203.561 283.591 204.336Z" fill="white"/>
<path d="M288.628 226.514C289.932 226.514 291.237 226.465 292.492 226.399C293.664 226.349 294.77 226.3 295.794 226.3C296.305 226.3 296.735 225.887 296.751 225.376C296.834 223.478 295.463 222.224 294.258 221.102C293.317 220.227 292.442 219.419 292.31 218.445C292.013 216.316 292.475 215.013 293.68 214.567C295.364 213.94 298.122 215.046 298.964 216.316C301.886 220.788 303.587 221.993 309.233 221.349C309.514 221.316 309.762 221.168 309.927 220.937C310.24 220.508 310.472 220.211 308.936 211.35C308.21 207.158 307.417 203 307.401 202.967C307.318 202.505 306.905 202.175 306.426 202.192C305.634 202.208 286.927 202.604 283.378 203.396C277.913 204.601 273.669 208.264 272.827 212.521C272.249 215.409 272.91 219.815 279.349 224.352C281.875 226.135 285.243 226.514 288.628 226.514ZM294.605 224.402C293.895 224.419 293.152 224.452 292.392 224.485C288.182 224.666 283.411 224.864 280.455 222.785C276.03 219.666 274.049 216.25 274.726 212.917C275.42 209.452 279.151 206.317 283.807 205.294C286.779 204.634 301.969 204.238 305.667 204.155C306.724 209.749 308.028 217.224 308.226 219.534C304.065 219.881 302.976 218.924 300.582 215.277C299.31 213.346 295.645 211.795 293.003 212.785C291.782 213.247 289.833 214.617 290.395 218.742C290.626 220.392 291.864 221.531 292.954 222.554C293.647 223.181 294.291 223.775 294.605 224.402Z" fill="#120610"/>
<path d="M284.037 225.554C284.037 225.554 275.237 221.725 276.97 212.947L284.037 225.554Z" fill="white"/>
<path d="M284.037 226.511C284.416 226.511 284.763 226.297 284.928 225.934C285.143 225.439 284.912 224.878 284.433 224.663C284.4 224.647 282.336 223.723 280.52 221.825C278.159 219.35 277.284 216.429 277.928 213.129C278.027 212.601 277.697 212.106 277.169 211.99C276.64 211.891 276.145 212.221 276.029 212.749C275.27 216.66 276.343 220.274 279.166 223.211C281.263 225.373 283.558 226.396 283.657 226.429C283.773 226.478 283.905 226.511 284.037 226.511Z" fill="#120610"/>
<path d="M292.952 225.554C292.952 225.554 284.152 221.725 285.886 212.947L292.952 225.554Z" fill="white"/>
<path d="M292.952 226.511C293.332 226.511 293.679 226.297 293.844 225.934C294.058 225.439 293.827 224.878 293.348 224.663C293.315 224.647 291.252 223.723 289.435 221.825C287.074 219.35 286.199 216.429 286.843 213.129C286.942 212.601 286.612 212.106 286.084 211.99C285.555 211.891 285.06 212.221 284.945 212.749C284.185 216.66 285.258 220.274 288.082 223.211C290.178 225.373 292.473 226.396 292.572 226.429C292.688 226.478 292.82 226.511 292.952 226.511Z" fill="#120610"/>
<path d="M288.032 225.773C288.032 225.773 279.248 221.945 280.966 213.167L288.032 225.773Z" fill="white"/>
<path d="M288.031 226.746C288.411 226.746 288.758 226.531 288.923 226.168C289.138 225.673 288.906 225.112 288.428 224.898C288.395 224.881 286.331 223.957 284.515 222.059C282.154 219.584 281.279 216.663 281.923 213.363C282.022 212.835 281.691 212.34 281.163 212.225C280.635 212.126 280.14 212.456 280.024 212.984C279.264 216.894 280.338 220.508 283.161 223.445C285.258 225.607 287.553 226.63 287.652 226.663C287.784 226.713 287.916 226.746 288.031 226.746Z" fill="#120610"/>
<path d="M405.189 277.8C405.321 277.8 405.47 277.767 405.602 277.701C406.097 277.47 406.312 276.893 406.081 276.381L396.62 255.854C396.389 255.359 395.811 255.144 395.299 255.375C394.804 255.606 394.589 256.184 394.821 256.695L404.281 277.223C404.446 277.586 404.81 277.8 405.189 277.8Z" fill="#120610"/>
<path d="M356.534 226.105L339.973 225.099C339.973 225.099 335.383 222.178 336.424 217.987C337.167 214.934 339.313 214.422 340.882 214.472C342.45 214.521 357.607 214.934 357.607 214.934L356.534 226.105Z" fill="white"/>
<path d="M356.533 226.881C356.929 226.881 357.26 226.584 357.309 226.188L358.382 215C358.399 214.785 358.333 214.571 358.184 214.406C358.036 214.241 357.837 214.158 357.623 214.142C357.474 214.142 342.45 213.746 340.898 213.68C338.19 213.597 336.324 215.049 335.664 217.788C334.508 222.475 339.346 225.61 339.56 225.742C339.676 225.808 339.791 225.857 339.923 225.857L356.484 226.864C356.5 226.881 356.517 226.881 356.533 226.881ZM356.764 215.66L355.84 225.28L340.237 224.323C339.494 223.795 336.39 221.336 337.166 218.151C337.662 216.122 338.867 215.165 340.848 215.231C342.202 215.28 353.578 215.577 356.764 215.66Z" fill="#120610"/>
<path d="M363.469 220.762C363.469 217.528 360.844 214.92 357.624 214.92C354.388 214.92 351.78 217.544 351.78 220.762C351.78 223.996 354.405 226.603 357.624 226.603C360.844 226.62 363.469 223.996 363.469 220.762Z" fill="white"/>
<path d="M357.605 227.377C361.254 227.377 364.226 224.406 364.226 220.76C364.226 217.113 361.254 214.143 357.605 214.143C353.957 214.143 350.985 217.113 350.985 220.76C350.985 224.406 353.957 227.377 357.605 227.377ZM357.605 215.694C360.412 215.694 362.674 217.971 362.674 220.776C362.674 223.581 360.396 225.842 357.605 225.842C354.799 225.842 352.52 223.565 352.52 220.776C352.537 217.971 354.815 215.694 357.605 215.694Z" fill="#120610"/>
<path d="M319.267 212.953C319.267 212.953 295.591 212.144 293.66 212.953C293.082 213.2 290.787 213.761 290.919 217.325C291.035 220.411 293.759 222.111 293.759 222.111L323.147 223.646C323.147 223.646 318.871 220.84 318.97 217.557C319.069 214.256 319.267 212.953 319.267 212.953Z" fill="white"/>
<path d="M323.148 224.404C323.478 224.404 323.775 224.19 323.891 223.876C324.007 223.546 323.875 223.183 323.577 222.985C323.544 222.952 319.664 220.378 319.747 217.556C319.846 214.371 320.028 213.051 320.028 213.035C320.061 212.82 319.995 212.606 319.846 212.424C319.697 212.243 319.499 212.16 319.285 212.144C315.306 212.012 295.344 211.368 293.363 212.21C293.33 212.226 293.281 212.243 293.231 212.259C292.439 212.556 290.011 213.464 290.144 217.325C290.259 220.774 293.215 222.672 293.347 222.738C293.462 222.804 293.578 222.853 293.71 222.853L323.099 224.388C323.115 224.404 323.132 224.404 323.148 224.404ZM318.41 213.695C318.344 214.421 318.261 215.659 318.211 217.523C318.145 219.635 319.582 221.5 320.853 222.738L294.024 221.335C293.495 220.955 291.778 219.503 291.696 217.276C291.596 214.536 293.066 213.992 293.776 213.728C293.842 213.695 293.908 213.678 293.957 213.662C295.295 213.134 309.312 213.398 318.41 213.695Z" fill="#120610"/>
<path d="M174.488 333.045H321.845C322.307 333.045 322.703 332.731 322.802 332.286L347.898 226.331C348.03 225.803 347.7 225.259 347.155 225.143C346.627 225.011 346.082 225.341 345.966 225.886L321.052 331.081H174.472C173.927 331.081 173.481 331.527 173.481 332.071C173.498 332.599 173.944 333.045 174.488 333.045Z" fill="#120610"/>
<path d="M174.488 333.046H249.661C250.123 333.046 250.519 332.733 250.618 332.271L275.714 222.686C275.83 222.158 275.5 221.63 274.971 221.498C274.443 221.382 273.915 221.712 273.783 222.24L248.868 331.049H174.471C173.927 331.049 173.481 331.495 173.481 332.039C173.497 332.601 173.943 333.046 174.488 333.046Z" fill="#120610"/>
<path d="M174.488 333.049C174.571 333.049 174.653 333.032 174.736 333.016C175.264 332.884 175.578 332.339 175.446 331.811L155.798 257.275H339.792C340.336 257.275 340.782 256.83 340.782 256.285C340.782 255.74 340.336 255.295 339.792 255.295H154.51C154.197 255.295 153.916 255.443 153.734 255.674C153.553 255.922 153.487 256.235 153.569 256.533L173.547 332.306C173.646 332.752 174.042 333.049 174.488 333.049Z" fill="#120610"/>
<path d="M220.901 333.047C220.934 333.047 220.967 333.047 221 333.047C221.545 332.997 221.941 332.519 221.891 331.974L214.759 256.2C214.71 255.656 214.231 255.26 213.686 255.309C213.141 255.359 212.745 255.837 212.794 256.382L219.927 332.156C219.96 332.651 220.405 333.047 220.901 333.047Z" fill="#120610"/>
<path d="M208.219 333.048C208.269 333.048 208.335 333.048 208.384 333.032C208.929 332.933 209.292 332.438 209.193 331.893L196.381 256.12C196.282 255.575 195.787 255.212 195.242 255.311C194.697 255.41 194.334 255.905 194.433 256.45L207.245 332.223C207.327 332.702 207.74 333.048 208.219 333.048Z" fill="#120610"/>
<path d="M195.425 333.049C195.491 333.049 195.541 333.049 195.607 333.033C196.151 332.934 196.498 332.422 196.399 331.878L182.646 256.104C182.547 255.559 182.035 255.213 181.49 255.312C180.945 255.411 180.599 255.922 180.698 256.467L194.451 332.241C194.533 332.703 194.946 333.049 195.425 333.049Z" fill="#120610"/>
<path d="M184.526 333.043C184.592 333.043 184.658 333.043 184.724 333.026C185.253 332.911 185.599 332.399 185.5 331.855L169.832 256.081C169.716 255.553 169.204 255.206 168.659 255.305C168.131 255.421 167.784 255.933 167.883 256.477L183.552 332.251C183.651 332.713 184.064 333.043 184.526 333.043Z" fill="#120610"/>
<path d="M168.859 409.762H306.822C312.485 409.762 317.719 406.94 320.839 402.221C323.96 397.502 324.488 391.578 322.259 386.38L298.798 331.662C298.583 331.167 298.005 330.919 297.493 331.15C296.998 331.365 296.75 331.942 296.981 332.454L320.41 387.155C322.375 391.743 321.912 396.974 319.155 401.132C316.414 405.29 311.791 407.782 306.789 407.782H168.826C168.281 407.782 167.836 408.227 167.836 408.772C167.869 409.316 168.298 409.762 168.859 409.762Z" fill="#120610"/>
<path d="M159.927 409.762H262.886C268.549 409.762 273.783 406.94 276.904 402.221C280.024 397.502 280.552 391.578 278.324 386.38L254.862 331.662C254.647 331.167 254.07 330.919 253.558 331.15C253.062 331.365 252.815 331.942 253.046 332.454L276.507 387.155C278.472 391.743 278.01 396.974 275.253 401.132C272.512 405.29 267.889 407.782 262.886 407.782H159.927C159.382 407.782 158.936 408.227 158.936 408.772C158.936 409.316 159.382 409.762 159.927 409.762Z" fill="#120610"/>
<path d="M286.564 426.479C289.998 432.436 296.189 435.291 300.399 432.865C304.61 430.44 305.22 423.641 301.786 417.7C298.352 411.743 292.161 408.889 287.951 411.314C283.741 413.74 283.113 420.522 286.564 426.479Z" fill="#120610"/>
<path d="M192.007 426.479C195.442 432.436 201.633 435.291 205.843 432.865C210.053 430.44 210.664 423.641 207.23 417.7C203.796 411.743 197.605 408.889 193.394 411.314C189.201 413.74 188.573 420.522 192.007 426.479Z" fill="#120610"/>
<path d="M247.646 426.479C251.08 432.436 257.272 435.291 261.482 432.865C265.692 430.44 266.303 423.641 262.869 417.7C259.435 411.743 253.243 408.889 249.033 411.314C244.839 413.74 244.212 420.522 247.646 426.479Z" fill="#120610"/>
<path d="M161.228 426.479C164.662 432.436 170.854 435.291 175.064 432.865C179.274 430.44 179.885 423.641 176.451 417.7C173.017 411.743 166.825 408.889 162.615 411.314C158.421 413.74 157.794 420.522 161.228 426.479Z" fill="#120610"/>
<path d="M288.972 291.844L246.226 293.527V246.499L285.488 245.855L288.972 291.844Z" fill="#7ABC2F"/>
<path d="M246.225 254.699H286.115C286.494 254.699 286.808 254.386 286.808 254.006C286.808 253.627 286.494 253.313 286.115 253.313H246.225C245.845 253.313 245.532 253.627 245.532 254.006C245.532 254.386 245.845 254.699 246.225 254.699Z" fill="#120610"/>
<path d="M267.79 293.365C267.807 293.365 267.823 293.365 267.84 293.365C268.22 293.332 268.5 293.018 268.484 292.639L265.363 246.155C265.33 245.775 265.017 245.495 264.637 245.511C264.257 245.544 263.976 245.858 263.993 246.237L267.113 292.721C267.13 293.084 267.444 293.365 267.79 293.365Z" fill="#120610"/>
<path d="M264.685 247.536C264.883 247.536 265.081 247.454 265.213 247.289C265.246 247.239 269.292 242.454 272.99 236.827C278.042 229.137 280.089 223.609 279.082 220.375C278.603 218.857 277.481 217.834 275.731 217.372C273.931 216.893 272.296 217.223 270.843 218.329C263.975 223.626 263.992 245.903 263.992 246.843C263.992 247.124 264.173 247.388 264.437 247.487C264.52 247.52 264.603 247.536 264.685 247.536ZM274.146 218.544C274.542 218.544 274.938 218.593 275.367 218.709C276.639 219.055 277.431 219.732 277.761 220.788C279.396 225.986 270.315 238.774 265.412 244.896C265.56 239.319 266.468 223.461 271.686 219.435C272.445 218.841 273.254 218.544 274.146 218.544Z" fill="#120610"/>
<path d="M264.686 246.547C264.834 246.547 264.983 246.497 265.099 246.415C265.33 246.233 265.429 245.936 265.346 245.672C265.066 244.765 258.461 223.495 250.322 220.475C248.621 219.848 246.954 220.03 245.385 221.02C243.866 221.977 243.09 223.28 243.074 224.881C243.057 228.264 246.673 232.95 253.772 238.775C258.973 243.049 264.257 246.415 264.306 246.448C264.422 246.497 264.554 246.547 264.686 246.547ZM248.34 221.465C248.836 221.465 249.331 221.564 249.826 221.746C256.018 224.039 261.598 238.907 263.398 244.204C256.893 239.831 244.411 230.31 244.428 224.864C244.428 223.759 244.972 222.868 246.095 222.175C246.838 221.696 247.581 221.465 248.34 221.465Z" fill="#120610"/>
<path d="M247.15 257.852H247.166L286.131 256.928C286.511 256.911 286.808 256.598 286.808 256.218C286.792 255.839 286.494 255.542 286.115 255.542H286.098L247.133 256.466C246.754 256.482 246.456 256.796 246.456 257.175C246.473 257.555 246.77 257.852 247.15 257.852Z" fill="#120610"/>
<path d="M159.926 282.669H333.138C333.683 282.669 334.129 282.224 334.129 281.679C334.129 281.135 333.683 280.689 333.138 280.689H159.926C159.381 280.689 158.935 281.135 158.935 281.679C158.935 282.24 159.381 282.669 159.926 282.669Z" fill="#120610"/>
<path d="M239.967 292.856L321.323 294.186L320.788 326.838L239.433 325.508L239.967 292.856Z" fill="#7ABC2F"/>
<path d="M321.104 304.334C321.303 304.334 321.451 304.185 321.451 303.987C321.451 303.789 321.303 303.641 321.104 303.624L239.807 302.288C239.609 302.288 239.46 302.436 239.46 302.634C239.46 302.832 239.609 302.981 239.807 302.997L321.104 304.334Z" fill="#120610"/>
<path d="M280.09 326.529C280.288 326.529 280.437 326.38 280.437 326.182L280.998 293.526C280.998 293.328 280.849 293.18 280.651 293.163C280.453 293.163 280.305 293.312 280.288 293.51L279.727 326.166C279.727 326.364 279.892 326.512 280.09 326.529C280.09 326.512 280.09 326.529 280.09 326.529Z" fill="#120610"/>
<path d="M234.67 307.108L316.051 307.009C316.249 307.009 316.397 306.843 316.397 306.662C316.397 306.464 316.232 306.315 316.051 306.315L234.67 306.414C234.472 306.414 234.324 306.579 234.324 306.761C234.324 306.959 234.472 307.108 234.67 307.108Z" fill="#120610"/>
<path d="M243.287 333.05C243.304 333.05 243.337 333.05 243.353 333.05C243.898 333.017 244.311 332.539 244.278 331.994L239.308 256.221C239.275 255.676 238.796 255.264 238.251 255.297C237.707 255.33 237.294 255.808 237.327 256.353L242.297 332.126C242.346 332.638 242.775 333.05 243.287 333.05Z" fill="#120610"/>
<path d="M265.1 333.049C265.645 333.049 266.09 332.603 266.09 332.059V256.285C266.09 255.74 265.645 255.295 265.1 255.295C264.555 255.295 264.109 255.74 264.109 256.285V332.059C264.109 332.603 264.555 333.049 265.1 333.049Z" fill="#120610"/>
<path d="M286.889 333.05C287.401 333.05 287.847 332.654 287.88 332.126L292.701 256.353C292.734 255.808 292.322 255.33 291.777 255.297C291.232 255.264 290.753 255.676 290.72 256.221L285.899 331.994C285.866 332.539 286.278 333.017 286.823 333.05C286.856 333.05 286.873 333.05 286.889 333.05Z" fill="#120610"/>
<path d="M156.691 307.636H329.902C330.447 307.636 330.893 307.191 330.893 306.646C330.893 306.102 330.447 305.656 329.902 305.656H156.691C156.146 305.656 155.7 306.102 155.7 306.646C155.7 307.191 156.146 307.636 156.691 307.636Z" fill="#120610"/>
<path d="M305.17 333.048C305.649 333.048 306.078 332.701 306.144 332.206L317.866 256.433C317.949 255.888 317.586 255.393 317.041 255.311C316.496 255.228 316.001 255.591 315.918 256.136L304.196 331.909C304.113 332.454 304.476 332.949 305.021 333.031C305.071 333.031 305.12 333.048 305.17 333.048Z" fill="#120610"/>
<path d="M398.13 429.747H469.723" stroke="black" stroke-width="1.98868"/>
<path d="M477.677 429.747H485.632" stroke="black" stroke-width="1.98868"/>
</g>
</g>
<path d="M426.704 15.5624C437.857 10.8033 446.064 22.6277 446.285 22.0548C446.654 21.0707 434.763 -0.448224 451.487 0.00712478C460.371 0.242143 477.198 19.2786 477.198 19.2786C477.198 19.2786 474.163 11.2733 479.924 9.8779C485.685 8.46779 509.614 33.9673 509.422 33.9526C506.107 33.7323 439.036 31.5584 432.391 31.4702C431.934 31.4555 418.364 19.1171 426.704 15.5624Z" fill="#7ABC2F"/>
<path d="M163.337 25.1992C181.245 17.5014 194.401 36.661 194.738 35.7271C195.329 34.1423 176.269 -0.724338 203.088 0.011483C217.34 0.407695 244.328 31.2273 244.328 31.2273C244.328 31.2273 239.436 18.2655 248.685 16.0014C257.934 13.7374 296.307 55.0283 295.998 55C290.684 54.6604 183.1 51.1228 172.417 50.9813C171.743 50.953 149.956 30.9726 163.337 25.1992Z" fill="#7ABC2F"/>
<path d="M544.646 119.622C551.443 116.682 556.437 123.998 556.565 123.641C556.789 123.036 549.554 109.723 559.734 110.004C565.143 110.156 575.387 121.923 575.387 121.923C575.387 121.923 573.53 116.974 577.041 116.11C580.551 115.245 595.116 131.011 594.999 131C592.982 130.87 552.147 129.52 548.092 129.466C547.836 129.455 539.567 121.826 544.646 119.622Z" fill="#7ABC2F"/>
<path d="M77.5349 429.055C61.2772 405.288 47.3349 393.255 38.5006 387.352C28.9684 380.982 23.2315 380.199 23.17 380.192L23.2518 379.492C23.488 379.525 29.2108 380.303 38.8771 386.764C44.54 390.549 50.3675 395.506 56.2276 401.496C63.5363 408.979 70.8991 418.115 78.0984 428.651L77.5349 429.055Z" fill="#120610"/>
<path d="M24.2545 380.43C24.2448 380.434 24.2351 380.439 24.2254 380.443C23.7818 380.595 13.2921 384.108 9.75485 381.199C8.81757 380.431 8.44184 379.307 8.63636 377.846C8.82988 376.409 9.46483 375.437 10.5402 374.955C10.5499 374.951 10.5596 374.947 10.5596 374.947C14.6997 373.127 23.9206 379.555 24.3128 379.833C24.4188 379.914 24.4753 380.04 24.4649 380.173C24.4416 380.276 24.3611 380.382 24.2545 380.43ZM10.8226 375.586C9.97976 375.963 9.48644 376.732 9.33631 377.928C9.1755 379.153 9.45663 380.04 10.2058 380.648C12.9528 382.91 20.9156 380.715 23.3129 379.99C21.1995 378.597 14.0618 374.169 10.842 375.577C10.8323 375.581 10.8226 375.586 10.8226 375.586Z" fill="#120610"/>
<path d="M33.46 382.205C33.3438 382.257 33.2111 382.247 33.1052 382.166C32.7226 381.884 23.8967 375.22 24.2737 370.661C24.3721 369.453 25.0869 368.504 26.4074 367.842C27.7139 367.175 28.8836 367.164 29.884 367.787C33.7332 370.172 33.6644 381.415 33.6584 381.895C33.6578 382.023 33.586 382.149 33.46 382.205ZM26.9611 368.351C26.8836 368.386 26.8061 368.421 26.7233 368.469C25.6255 369.031 25.0577 369.763 24.9747 370.72C24.6686 374.269 30.9889 379.598 32.953 381.152C32.9025 378.624 32.5001 370.224 29.5173 368.37C28.7805 367.92 27.9396 367.913 26.9611 368.351Z" fill="#120610"/>
<path d="M39.271 386.344C39.2032 386.374 39.1364 386.381 39.0609 386.368C38.9336 386.344 38.8233 386.253 38.7862 386.119C38.6357 385.627 35.286 374.076 38.5832 370.375C39.451 369.404 40.6874 369.048 42.2494 369.314C43.8016 369.585 44.8304 370.323 45.2937 371.513C47.0836 376.078 39.7209 385.816 39.4043 386.226C39.3635 386.291 39.3194 386.322 39.271 386.344ZM39.9981 370.183C39.659 370.335 39.3644 370.56 39.1098 370.849C36.5108 373.772 38.6031 382.673 39.2748 385.236C40.8393 383.068 46.0528 375.388 44.6456 371.78C44.2726 370.818 43.4459 370.245 42.1342 370.018C41.2853 369.863 40.5793 369.923 39.9981 370.183Z" fill="#120610"/>
<path d="M28.9025 401.449C28.4859 401.636 28.0766 401.761 27.6563 401.809C26.304 401.984 25.0881 401.4 24.0455 400.086C22.9845 398.756 22.6889 397.422 23.1481 396.11C24.9219 391.112 37.4871 388.311 38.029 388.196C38.1583 388.173 38.2943 388.217 38.3755 388.32C38.4567 388.423 38.4744 388.567 38.422 388.684C38.2123 389.15 33.6787 399.309 28.9025 401.449ZM29.6608 391.666C26.9482 392.882 24.4771 394.455 23.8086 396.338C23.4306 397.416 23.6844 398.501 24.5873 399.633C25.4859 400.756 26.4588 401.24 27.558 401.097C31.7154 400.561 36.2669 391.559 37.4615 389.032C36.058 389.405 32.7029 390.303 29.6608 391.666Z" fill="#120610"/>
<path d="M22.161 392.428C21.1535 392.88 20.1743 393.109 19.2909 392.981C18.1195 392.807 17.2394 392.037 16.6592 390.69C16.0843 389.33 16.1482 388.148 16.8456 387.161C19.4743 383.421 30.5276 384.022 30.9923 384.046C31.125 384.057 31.2406 384.133 31.2971 384.259C31.3492 384.376 31.3335 384.522 31.2487 384.619C31.0126 384.922 26.3172 390.566 22.161 392.428ZM19.3702 386.122C18.5273 386.5 17.8422 386.97 17.427 387.575C16.8712 388.36 16.8366 389.295 17.3213 390.429C17.7972 391.543 18.4796 392.157 19.4007 392.291C22.8727 392.796 28.5786 386.63 30.2508 384.728C28.2475 384.671 22.6254 384.664 19.3702 386.122Z" fill="#120610"/>
<path d="M37.2568 406.776C36.9855 406.898 36.7109 406.986 36.4329 407.04C35.1961 407.292 34.0227 406.828 32.9731 405.68C31.9051 404.517 31.5431 403.293 31.8849 402.057C33.1961 397.325 44.6025 393.937 45.0839 393.791C45.2088 393.758 45.3502 393.788 45.4411 393.887C45.532 393.986 45.5594 394.125 45.521 394.247C45.35 394.696 41.6648 404.801 37.2568 406.776ZM39.7836 396.527C36.635 397.938 33.1995 399.955 32.5615 402.243C32.2814 403.254 32.5876 404.223 33.4922 405.203C34.3827 406.178 35.3079 406.555 36.3002 406.355C40.0482 405.607 43.6258 397.157 44.5996 394.683C43.6315 394.989 41.76 395.641 39.7836 396.527Z" fill="#120610"/>
<path d="M47.1789 392.079C47.1014 392.114 47.0109 392.119 46.9267 392.087C46.8048 392.049 46.7095 391.94 46.6864 391.811C46.6125 391.308 44.8598 379.531 48.5964 376.343C49.5822 375.505 50.8353 375.316 52.3409 375.794C53.8323 376.267 54.7419 377.128 55.0371 378.358C56.1839 383.072 47.6486 391.647 47.2865 392.008C47.2565 392.044 47.2177 392.062 47.1789 392.079ZM49.6986 376.466C49.4661 376.57 49.2607 376.709 49.0586 376.881C46.1153 379.399 46.9778 388.385 47.296 390.99C49.1212 389.066 55.254 382.243 54.3553 378.524C54.1115 377.539 53.3891 376.861 52.1275 376.46C51.1703 376.167 50.3671 376.166 49.6986 376.466Z" fill="#120610"/>
<path d="M45.3254 412.707C45.0541 412.829 44.7795 412.917 44.5016 412.972C43.2648 413.223 42.0914 412.759 41.0418 411.611C39.9739 410.448 39.6118 409.225 39.9537 407.989C41.2649 403.256 52.6713 399.868 53.1527 399.722C53.2776 399.69 53.419 399.72 53.5099 399.819C53.6007 399.918 53.6282 400.057 53.5898 400.179C53.4091 400.632 49.7237 410.736 45.3254 412.707ZM47.8427 402.463C44.6942 403.874 41.2587 405.891 40.6206 408.179C40.3405 409.189 40.6467 410.158 41.5512 411.138C42.4417 412.113 43.3669 412.49 44.3591 412.29C48.1072 411.542 51.6849 403.093 52.6587 400.619C51.6906 400.925 49.8288 401.573 47.8427 402.463Z" fill="#120610"/>
<path d="M55.239 398.018C55.1615 398.053 55.071 398.059 54.9868 398.027C54.8648 397.988 54.7696 397.88 54.7465 397.75C54.6726 397.248 52.9198 385.47 56.6565 382.282C57.6422 381.444 58.8954 381.255 60.4009 381.734C61.8924 382.206 62.802 383.068 63.0972 384.298C64.244 389.012 55.7087 397.587 55.3466 397.947C55.3165 397.984 55.2778 398.001 55.239 398.018ZM57.7587 382.405C57.5262 382.509 57.3207 382.648 57.1186 382.82C54.1753 385.338 55.0379 394.325 55.3561 396.93C57.1812 395.006 63.314 388.183 62.4153 384.464C62.1716 383.478 61.4492 382.801 60.1875 382.4C59.2303 382.107 58.4272 382.106 57.7587 382.405Z" fill="#120610"/>
<path d="M51.8935 420.253C51.6222 420.375 51.3476 420.463 51.0696 420.517C49.8329 420.769 48.6594 420.305 47.6098 419.157C46.5418 417.994 46.1798 416.77 46.5217 415.534C47.8328 410.802 59.2393 407.414 59.7207 407.268C59.8456 407.235 59.987 407.265 60.0778 407.364C60.1687 407.463 60.1962 407.602 60.1578 407.724C59.9771 408.178 56.2919 418.282 51.8935 420.253ZM54.4107 410.008C51.2621 411.419 47.8266 413.436 47.1886 415.725C46.9084 416.735 47.2146 417.704 48.1192 418.684C49.0098 419.659 49.935 420.036 50.9272 419.836C54.6753 419.088 58.2529 410.638 59.2267 408.165C58.2586 408.47 56.3967 409.118 54.4107 410.008Z" fill="#120610"/>
<path d="M61.6461 406.114C61.5589 406.153 61.4543 406.153 61.3701 406.121C61.2438 406.073 61.1583 405.96 61.1546 405.822C61.1141 405.316 60.1252 393.452 64.0513 390.505C65.0869 389.727 66.3555 389.624 67.8236 390.2C69.2777 390.771 70.1325 391.692 70.3512 392.933C71.191 397.715 62.1288 405.711 61.7343 406.051C61.7042 406.088 61.6752 406.101 61.6461 406.114ZM64.9956 390.769C64.8115 390.851 64.6458 390.949 64.4791 391.07C61.3874 393.387 61.6638 402.415 61.8053 405.041C63.7537 403.237 70.3159 396.826 69.652 393.06C69.4707 392.059 68.788 391.34 67.5628 390.864C66.5718 390.47 65.7222 390.443 64.9956 390.769Z" fill="#120610"/>
<path d="M101.239 412.261C101.259 412.183 101.272 412.099 101.261 412.009C101.209 411.645 95.6356 375.417 81.2766 351.997C66.936 328.606 49.505 312.817 49.3277 312.664C49.0901 312.45 48.7369 312.47 48.5235 312.707C48.3102 312.945 48.3301 313.298 48.5678 313.512C48.7385 313.673 66.0507 329.355 80.2969 352.592C94.5329 375.806 100.073 411.819 100.131 412.175C100.184 412.486 100.475 412.701 100.779 412.657C101.001 412.615 101.179 412.458 101.239 412.261Z" fill="black"/>
<path d="M96.6597 390.988C96.6728 390.971 96.6859 390.954 96.6925 390.946C97.1071 390.246 106.834 373.709 104.633 366.016C104.204 364.532 103.363 363.453 102.127 362.807C100.988 362.21 99.9599 362.212 99.0631 362.804C96.8772 364.246 95.6794 369.42 95.5113 378.169C95.3872 384.59 95.8672 390.69 95.8744 390.749C95.8895 390.936 96.0304 391.101 96.2166 391.139C96.3878 391.179 96.5614 391.113 96.6597 390.988ZM98.9085 364.154C99.1117 363.895 99.3222 363.696 99.5529 363.539C100.169 363.132 100.875 363.146 101.715 363.59C102.74 364.125 103.421 364.996 103.784 366.254C105.542 372.412 98.8867 385.191 96.6445 389.235C96.1888 382.21 95.952 367.92 98.9085 364.154Z" fill="black"/>
<path d="M95.5559 390.487C95.5756 390.462 95.5887 390.445 95.6 390.413C95.6846 390.237 95.651 390.021 95.5053 389.88C95.4635 389.847 91.4956 386.246 86.8925 382.835C80.6353 378.193 76.2206 376.091 73.7917 376.586C72.9209 376.766 72.2853 377.266 71.9131 378.067C71.5427 378.883 71.5608 379.721 71.9886 380.569C74.7154 386.044 94.2881 390.45 95.1193 390.63C95.284 390.678 95.451 390.62 95.5559 390.487ZM72.9482 378.057C73.1973 377.739 73.5288 377.541 73.9726 377.457C75.471 377.149 78.8298 377.963 86.3735 383.548C89.3559 385.754 92.0686 388.046 93.6059 389.374C91.672 388.895 88.3591 388.022 84.9308 386.883C78.0109 384.582 73.8132 382.272 72.7746 380.188C72.4669 379.582 72.458 379.008 72.7147 378.44C72.773 378.297 72.8564 378.173 72.9482 378.057Z" fill="black"/>
<path d="M87.3093 363.375C87.3159 363.367 87.329 363.35 87.3356 363.342C87.7735 362.646 98.1409 346.154 95.7004 339.041C95.2208 337.639 94.2792 336.67 92.8876 336.172C91.5592 335.696 90.4043 335.842 89.423 336.61C84.1855 340.718 86.4308 362.24 86.5258 363.152C86.5409 363.339 86.6801 363.489 86.8597 363.535C87.0375 363.567 87.2045 363.509 87.3093 363.375ZM89.3608 337.911C89.551 337.669 89.753 337.463 89.9671 337.294C90.7063 336.713 91.5647 336.618 92.5935 336.994C93.7321 337.402 94.4743 338.16 94.872 339.322C96.8311 345.017 89.5855 357.86 87.2853 361.737C87.1119 359.738 86.8329 355.74 86.8605 351.524C86.9019 344.605 87.7679 339.94 89.3608 337.911Z" fill="black"/>
<path d="M86.2445 362.636C86.2707 362.602 86.2951 362.554 86.313 362.514C86.3743 362.333 86.3193 362.128 86.1623 362.018C86.1205 361.985 81.6796 358.539 76.7176 355.413C69.9381 351.144 65.4313 349.468 63.2958 350.451C62.3924 350.862 61.9176 351.69 61.8548 352.923C61.7849 354.285 62.2764 355.535 63.304 356.652C68.3634 362.149 85.166 362.788 85.873 362.817C86.0239 362.814 86.1593 362.744 86.2445 362.636ZM63.1381 351.65C63.2758 351.474 63.4552 351.332 63.6634 351.239C67.1401 349.649 78.9591 357.686 84.4917 361.84C80.2903 361.565 67.9366 360.37 63.9484 356.038C63.0766 355.083 62.6754 354.08 62.7276 352.947C62.7671 352.398 62.8956 351.959 63.1381 351.65Z" fill="black"/>
<path d="M73.0019 339.374C73.015 339.358 73.0347 339.333 73.0394 339.309C73.4582 338.518 83.245 319.788 80.132 313.808C79.5793 312.74 78.6558 312.109 77.3969 311.958C76.1213 311.793 75.0251 312.174 74.1215 313.084C69.1914 318.108 72.0942 338.311 72.2202 339.166C72.2502 339.351 72.3893 339.501 72.582 339.531C72.7366 339.557 72.9036 339.5 73.0019 339.374ZM74.4295 314.069C74.5344 313.935 74.6411 313.816 74.7412 313.706C75.441 312.987 76.276 312.697 77.276 312.834C78.2443 312.96 78.9188 313.409 79.343 314.228C80.5261 316.506 79.6879 321.463 76.9262 328.594C75.4546 332.378 73.7942 335.853 72.8991 337.647C72.3422 333.039 70.9224 318.536 74.4295 314.069Z" fill="black"/>
<path d="M72.7824 339.757C72.8217 339.706 72.8462 339.658 72.8604 339.588C72.9068 339.409 72.8303 339.214 72.6733 339.104C72.6399 339.078 68.951 336.722 64.7822 334.65C59.0849 331.824 55.2236 330.858 53.3082 331.784C52.4792 332.186 51.9984 332.902 51.8954 333.928C51.783 335 52.1173 335.951 52.8965 336.765C56.9096 340.928 71.8304 339.954 72.4687 339.915C72.5898 339.916 72.7037 339.857 72.7824 339.757ZM53.1326 333.023C53.2768 332.839 53.4563 332.696 53.6859 332.593C56.7606 331.12 66.3156 336.259 71.0029 339.115C67.1688 339.25 56.5724 339.327 53.5278 336.167C52.9313 335.55 52.6807 334.854 52.7707 334.034C52.8032 333.614 52.9294 333.282 53.1326 333.023Z" fill="black"/>
<path d="M58.4367 322.22C58.4826 322.162 58.5118 322.09 58.5242 322.005C58.5272 321.967 59.0252 318.201 59.1692 314.198C59.3662 308.63 58.8289 305.374 57.5209 304.252C57.0307 303.827 56.4192 303.711 55.7541 303.905C55.0742 304.1 54.5627 304.562 54.231 305.26C52.28 309.397 57.4536 321.597 57.6825 322.114C57.7573 322.294 57.9524 322.407 58.1463 322.384C58.2656 322.369 58.3712 322.304 58.4367 322.22ZM55.2744 305.256C55.4711 305.005 55.7084 304.841 56.0161 304.758C56.3883 304.645 56.6908 304.707 56.9601 304.932C58.8836 306.577 58.3857 315.351 57.8665 320.193C56.5261 316.739 53.6527 308.612 55.0427 305.654C55.1076 305.503 55.1826 305.373 55.2744 305.256Z" fill="black"/>
<path d="M58.4602 322.778C58.493 322.737 58.524 322.68 58.54 322.625C58.593 322.437 58.5146 322.227 58.3362 322.128C58.3111 322.108 55.1095 320.215 51.5949 318.55C46.7004 316.232 43.6572 315.463 42.2791 316.203C41.9178 316.405 41.4754 316.814 41.4403 317.65C41.417 318.334 41.6753 318.968 42.2115 319.524C45.3301 322.796 57.5792 322.937 58.1018 322.942C58.2462 322.948 58.375 322.887 58.4602 322.778ZM42.4857 317.162C42.5513 317.078 42.6354 317.023 42.7063 316.984C43.3235 316.645 45.2515 316.512 51.2227 319.351C53.2124 320.292 55.0985 321.313 56.3561 322.017C52.826 321.851 45.058 321.232 42.8511 318.933C42.4791 318.547 42.3094 318.143 42.3233 317.695C42.3291 317.43 42.4005 317.27 42.4857 317.162Z" fill="black"/>
<path d="M50.9257 315.015C51.0371 314.873 51.0501 314.667 50.9473 314.505C50.9187 314.456 47.6641 309.31 43.772 304.27C38.4787 297.402 34.5688 293.968 32.1545 294.084C31.5377 294.112 30.6711 294.39 30.085 295.55C29.5769 296.541 29.5314 297.666 29.9279 298.882C32.2772 305.99 49.6392 314.761 50.3727 315.134C50.5494 315.219 50.7647 315.185 50.8977 315.033C50.9126 315.031 50.9191 315.023 50.9257 315.015ZM31.1201 295.539C31.4085 295.172 31.7568 294.986 32.1928 294.964C36.1492 294.777 45.1544 307.258 49.2994 313.576C44.9955 311.264 32.6069 304.21 30.7563 298.601C30.4232 297.597 30.4547 296.731 30.8585 295.941C30.9467 295.794 31.0283 295.656 31.1201 295.539Z" fill="black"/>
<path d="M86.7029 264.385L86.0388 265.354L85.0147 264.762C80.5976 262.207 75.3321 266.385 76.8149 271.266L77.1614 272.395L76.0614 272.824C71.3056 274.692 71.2967 281.416 76.043 283.305L77.1404 283.736L76.7946 284.868C75.2877 289.75 80.5374 293.955 84.9685 291.425L85.9944 290.842L86.6586 291.817C89.5368 296.042 96.0918 294.56 96.874 289.511L97.0584 288.344L98.2381 288.433C103.333 288.822 106.256 282.765 102.799 279.012L102.003 278.147L102.807 277.277C106.28 273.531 103.371 267.469 98.2749 267.825L97.1041 267.908L96.926 266.746C96.1412 261.694 89.5919 260.18 86.7029 264.385Z" fill="white"/>
<path d="M94.5874 293.671C95.9898 292.77 96.9417 291.325 97.2154 289.571L97.3443 288.731L98.1916 288.792C100.695 288.978 102.926 287.696 104.024 285.438C105.122 283.179 104.74 280.621 103.042 278.782L102.463 278.156L103.045 277.53C104.752 275.688 105.136 273.143 104.054 270.87C102.973 268.597 100.741 267.303 98.2341 267.486L97.376 267.545L97.2515 266.703C96.8776 264.216 95.1211 262.326 92.6768 261.761C90.2326 261.197 87.831 262.134 86.4063 264.198L85.9234 264.9L85.1794 264.468C83.0088 263.211 80.4312 263.401 78.4699 264.964C76.5086 266.527 75.743 268.989 76.466 271.391L76.7116 272.206L75.9141 272.516C73.5776 273.436 72.1255 275.556 72.116 278.075C72.1154 280.588 73.5586 282.717 75.8848 283.648L76.6779 283.959L76.4227 284.78C75.6788 287.177 76.4419 289.642 78.3981 291.214C80.3543 292.786 82.9313 292.988 85.1083 291.741L85.8458 291.318L86.3231 292.021C87.7319 294.097 90.1315 295.043 92.5885 294.488C93.3452 294.33 93.9979 294.05 94.5874 293.671ZM96.8517 288.062C96.7713 288.114 96.7139 288.201 96.6916 288.304L96.5072 289.47C96.1704 291.657 94.6168 293.324 92.4584 293.814C90.2999 294.304 88.1842 293.465 86.9305 291.631L86.2663 290.656C86.1686 290.504 85.9632 290.459 85.8056 290.548L84.7797 291.131C82.8586 292.226 80.5904 292.054 78.8639 290.662C77.1374 289.271 76.4636 287.102 77.1233 284.986L77.4691 283.855C77.522 283.682 77.434 283.486 77.2643 283.418L76.1668 282.987C74.1098 282.161 72.8274 280.282 72.8408 278.064C72.8452 275.851 74.1225 273.97 76.1891 273.16L77.289 272.731C77.4581 272.661 77.5525 272.474 77.4964 272.308L77.1499 271.179C76.5048 269.055 77.1831 266.889 78.9204 265.508C80.6577 264.127 82.9227 263.96 84.8394 265.078L85.8634 265.671C86.021 265.759 86.222 265.718 86.3247 265.564L86.9889 264.594C88.2387 262.768 90.3614 261.948 92.5212 262.442C94.6809 262.937 96.223 264.611 96.5548 266.797L96.7328 267.958C96.7622 268.141 96.9192 268.268 97.1048 268.262L98.2756 268.18C100.484 268.024 102.457 269.169 103.413 271.169C104.369 273.168 104.035 275.417 102.529 277.04L101.725 277.91C101.596 278.044 101.604 278.253 101.729 278.388L102.524 279.253C104.023 280.879 104.363 283.137 103.393 285.123C102.429 287.119 100.454 288.249 98.2535 288.083L97.0738 287.995C96.9883 288 96.9143 288.022 96.8517 288.062Z" fill="#120610"/>
<path d="M91.887 283.586C89.054 285.314 85.3552 284.416 83.6256 281.581C81.896 278.746 82.7904 275.046 85.6234 273.318C88.4564 271.59 92.1551 272.488 93.8847 275.323C95.6144 278.159 94.7199 281.858 91.887 283.586Z" fill="#120610"/>
<path d="M121.961 396.375C121.993 396.228 124.633 381.146 122.937 360.375C121.938 348.174 119.657 336.43 116.163 325.452C111.791 311.73 105.487 299.185 97.4317 288.157L96.8651 288.572C115.012 313.386 120.679 341.342 122.241 360.431C123.932 381.116 121.305 396.101 121.274 396.248L121.961 396.375Z" fill="#120610"/>
<path d="M527.307 428.877C527.027 428.877 526.777 428.687 526.704 428.408C526.615 428.071 526.821 427.734 527.159 427.646C527.674 427.514 578.693 414.542 586.882 398.434C588.162 395.913 588.309 393.524 587.338 391.12C585.721 387.148 583.163 384.715 579.752 383.909C568.827 381.344 552.345 395.679 552.169 395.825C551.919 396.045 551.522 396.03 551.287 395.781C551.052 395.532 551.066 395.136 551.316 394.902C551.551 394.682 574.164 373.311 573.223 358.669C572.988 355.107 571.342 352.19 568.327 350.021C565.843 348.233 563.328 347.793 560.623 348.702C546.097 353.524 533.055 394.843 532.923 395.268C532.835 395.561 532.541 395.737 532.247 395.693C531.938 395.649 531.717 395.4 531.703 395.092C531.703 394.902 531.144 375.833 524.278 372.08C522.396 371.054 520.146 371.318 517.573 372.857C503.855 381.095 513.706 414.367 513.809 414.704C513.912 415.026 513.721 415.378 513.398 415.481C513.059 415.583 512.721 415.393 512.618 415.07C512.192 413.663 502.4 380.523 516.941 371.787C519.926 369.999 522.587 369.735 524.895 370.981C530.585 374.103 532.276 385.917 532.761 391.765C536.143 381.842 547.361 351.78 560.226 347.515C563.299 346.489 566.269 347.002 569.063 349.01C572.4 351.413 574.223 354.638 574.473 358.596C575.15 369.061 564.813 382.296 557.977 389.845C563.975 385.785 572.929 381.036 580.016 382.692C583.854 383.586 586.691 386.269 588.485 390.636C589.588 393.348 589.426 396.162 587.985 398.991C579.546 415.612 529.585 428.32 527.454 428.848C527.409 428.877 527.351 428.877 527.307 428.877Z" fill="#051928"/>
<path d="M525.527 423.306C525.41 423.306 525.307 423.277 525.204 423.218C524.91 423.043 524.807 422.662 524.998 422.368L562.711 360.148C562.887 359.855 563.269 359.752 563.563 359.943C563.857 360.119 563.96 360.5 563.769 360.793L526.071 422.999C525.954 423.189 525.748 423.306 525.527 423.306Z" fill="#051928"/>
<path d="M524.381 414.735C524.116 414.735 523.866 414.559 523.778 414.295C523.675 413.973 523.866 413.621 524.19 413.518L573.944 398.539C574.282 398.436 574.62 398.627 574.723 398.949C574.826 399.271 574.635 399.623 574.312 399.726L524.557 414.706C524.498 414.72 524.44 414.735 524.381 414.735Z" fill="#051928"/>
<path d="M525.527 407.244C525.218 407.244 524.953 407.024 524.909 406.716L520.748 379.277C520.704 378.94 520.925 378.618 521.278 378.574C521.616 378.53 521.939 378.75 521.983 379.102L526.144 406.54C526.189 406.877 525.968 407.2 525.615 407.244C525.586 407.244 525.556 407.244 525.527 407.244Z" fill="#051928"/>
<defs>
<clipPath id="clip0">
<rect width="526.999" height="425.577" fill="white" transform="matrix(-1 0 0 1 597 34)"/>
</clipPath>
<clipPath id="clip1">
<rect width="407.678" height="353.984" fill="white" transform="matrix(-1 0 0 1 561.204 79.7388)"/>
</clipPath>
</defs>
</svg>
